<svg width="20" height="20" viewBox="0 0 20 20" fill="none" xmlns="http://www.w3.org/2000/svg">
<circle cx="10" cy="10" r="10" fill="black"/>
<path d="M10.5 17.695L4.62647 13.5357L4.49443 13.3282L3 4.66617L10.5 2L18 4.66617L16.5056 13.3282L16.3735 13.5357L10.5 17.695ZM10.5 2.68205L3.72559 5.09029L5.1058 13.0903L10.5 16.9102L15.8942 13.0903L17.2744 5.09029L10.5 2.68205Z" fill="#D9AD42"/>
<path d="M5.77204 6.13187H15.5497V9.02882H14.1042V8.38513H14.906V6.77556H6.09389V8.38513H6.89568V9.02882H5.4502V6.13187H5.77204Z" fill="#D9AD42"/>
<path d="M6.82703 4.78229H14.1728L13.7024 5.51078H7.29747L6.82703 4.78229Z" fill="#D9AD42"/>
<path d="M13.4528 7.48657C13.4509 8.54215 13.4488 9.59789 13.447 10.6528C13.445 11.7069 13.4432 12.7625 13.4414 13.8166C12.9836 14.141 12.5255 14.465 12.0684 14.7887C11.6108 15.1127 11.1535 15.4365 10.6962 15.7601C10.6962 14.3816 10.6962 13.0025 10.6962 11.6241C10.6962 10.2459 10.6962 8.86576 10.6962 7.48657C10.8461 7.48657 10.996 7.48657 11.1461 7.48657C11.296 7.48657 11.4462 7.48657 11.5964 7.48657C11.5956 8.61255 11.5951 9.73778 11.5945 10.8621C11.5939 11.9865 11.5933 13.1108 11.5929 14.2352C11.7515 14.1367 11.9101 14.0369 12.0689 13.9374C12.227 13.8383 12.3866 13.7397 12.5452 13.6403C12.5464 12.6153 12.5476 11.5893 12.5486 10.5643C12.5497 9.53921 12.5507 8.51335 12.5522 7.48657C12.7021 7.48657 12.8523 7.48657 13.0022 7.48657C13.1523 7.48657 13.3026 7.48657 13.4528 7.48657Z" fill="#D9AD42"/>
<path d="M9.40621 14.0962C9.24742 13.91 9.08846 13.7248 8.9299 13.5436C8.77111 13.5361 8.61232 13.5262 8.45347 13.513C8.45245 12.5085 8.4516 11.5049 8.45057 10.5007C8.44943 9.49619 8.44824 8.49178 8.4475 7.48657C8.29713 7.48657 8.14694 7.48657 7.99703 7.48657C7.84712 7.48657 7.69715 7.48657 7.54724 7.48657C7.54883 8.54215 7.55088 9.59789 7.55265 10.6528C7.55436 11.7068 7.55629 12.7625 7.55817 13.8166C7.70734 13.9217 7.85668 14.0276 8.00619 14.1335C8.15553 14.2394 8.30533 14.3452 8.45467 14.4504C8.29599 14.4282 8.61346 14.4801 8.45467 14.4504C8.61323 14.6474 9.2477 14.9228 9.40677 15.1247C9.556 15.2306 9.70546 15.3368 9.85497 15.4423C10.0041 15.5476 10.1541 15.6533 10.3038 15.7601C10.3038 14.3816 10.3038 13.0025 10.3038 11.6241C10.3038 10.2459 10.3038 8.86576 10.3038 7.48657C10.1535 7.48657 10.0033 7.48657 9.85337 7.48657C9.70341 7.48657 9.55321 7.48657 9.40313 7.48657C9.40342 8.58938 9.40404 9.69055 9.40461 10.7918C9.40518 11.8929 9.40564 12.995 9.40621 14.0962Z" fill="#D9AD42"/>
</svg>
