<svg width="116" height="20" viewBox="0 0 116 20" fill="none" xmlns="http://www.w3.org/2000/svg">
<path d="M114 0H0V20H114V0Z" fill="black"/>
<path d="M21.5859 10.5352L21.7148 10.5625L21.2617 12H17.1602V11.8555H17.3594C17.5833 11.8555 17.7435 11.7826 17.8398 11.6367C17.8945 11.5534 17.9219 11.3607 17.9219 11.0586V7.64062C17.9219 7.3099 17.8854 7.10286 17.8125 7.01953C17.7109 6.90495 17.5599 6.84766 17.3594 6.84766H17.1602V6.70312H19.5586V6.84766C19.2773 6.84505 19.0794 6.87109 18.9648 6.92578C18.8529 6.98047 18.776 7.04948 18.7344 7.13281C18.6927 7.21615 18.6719 7.41536 18.6719 7.73047V11.0586C18.6719 11.2747 18.6927 11.4232 18.7344 11.5039C18.7656 11.5586 18.8138 11.599 18.8789 11.625C18.944 11.651 19.1471 11.6641 19.4883 11.6641H19.875C20.2812 11.6641 20.5664 11.6341 20.7305 11.5742C20.8945 11.5143 21.0443 11.4089 21.1797 11.2578C21.3151 11.1042 21.4505 10.8633 21.5859 10.5352ZM24.168 11.4844C23.8008 11.7682 23.5703 11.9323 23.4766 11.9766C23.3359 12.0417 23.1862 12.0742 23.0273 12.0742C22.7799 12.0742 22.5755 11.9896 22.4141 11.8203C22.2552 11.651 22.1758 11.4284 22.1758 11.1523C22.1758 10.9779 22.2148 10.8268 22.293 10.6992C22.3997 10.5221 22.5846 10.3555 22.8477 10.1992C23.1133 10.043 23.5534 9.85286 24.168 9.62891V9.48828C24.168 9.13151 24.1107 8.88672 23.9961 8.75391C23.8841 8.62109 23.7201 8.55469 23.5039 8.55469C23.3398 8.55469 23.2096 8.59896 23.1133 8.6875C23.0143 8.77604 22.9648 8.8776 22.9648 8.99219L22.9727 9.21875C22.9727 9.33854 22.9414 9.43099 22.8789 9.49609C22.819 9.5612 22.7396 9.59375 22.6406 9.59375C22.5443 9.59375 22.4648 9.5599 22.4023 9.49219C22.3424 9.42448 22.3125 9.33203 22.3125 9.21484C22.3125 8.99089 22.4271 8.78516 22.6562 8.59766C22.8854 8.41016 23.207 8.31641 23.6211 8.31641C23.9388 8.31641 24.1992 8.36979 24.4023 8.47656C24.556 8.55729 24.6693 8.68359 24.7422 8.85547C24.7891 8.96745 24.8125 9.19661 24.8125 9.54297V10.7578C24.8125 11.099 24.819 11.3086 24.832 11.3867C24.8451 11.4622 24.8659 11.513 24.8945 11.5391C24.9258 11.5651 24.9609 11.5781 25 11.5781C25.0417 11.5781 25.0781 11.569 25.1094 11.5508C25.1641 11.5169 25.2695 11.4219 25.4258 11.2656V11.4844C25.1341 11.875 24.8555 12.0703 24.5898 12.0703C24.4622 12.0703 24.3607 12.026 24.2852 11.9375C24.2096 11.849 24.1706 11.6979 24.168 11.4844ZM24.168 11.2305V9.86719C23.7747 10.0234 23.5208 10.1341 23.4062 10.1992C23.2005 10.3138 23.0534 10.4336 22.9648 10.5586C22.8763 10.6836 22.832 10.8203 22.832 10.9688C22.832 11.1562 22.888 11.3125 23 11.4375C23.112 11.5599 23.2409 11.6211 23.3867 11.6211C23.5846 11.6211 23.8451 11.4909 24.168 11.2305ZM25.4961 8.42188H26.9961V8.56641C26.8581 8.57682 26.7669 8.60156 26.7227 8.64062C26.681 8.67969 26.6602 8.73568 26.6602 8.80859C26.6602 8.88932 26.6823 8.98698 26.7266 9.10156L27.4922 11.1602L28.2617 9.48438L28.0586 8.95703C27.9961 8.80078 27.9141 8.69271 27.8125 8.63281C27.7552 8.59635 27.6484 8.57422 27.4922 8.56641V8.42188H29.1953V8.56641C29.0078 8.57422 28.875 8.60807 28.7969 8.66797C28.7448 8.70964 28.7188 8.77604 28.7188 8.86719C28.7188 8.91927 28.7292 8.97266 28.75 9.02734L29.5625 11.082L30.3164 9.10156C30.3685 8.96094 30.3945 8.84896 30.3945 8.76562C30.3945 8.71615 30.3685 8.67188 30.3164 8.63281C30.2669 8.59375 30.168 8.57161 30.0195 8.56641V8.42188H31.1484V8.56641C30.9219 8.60026 30.7552 8.75391 30.6484 9.02734L29.4531 12.1094H29.293L28.3984 9.82422L27.3555 12.1094H27.2109L26.0625 9.10156C25.987 8.91146 25.9128 8.78385 25.8398 8.71875C25.7669 8.65104 25.6523 8.60026 25.4961 8.56641V8.42188ZM36.1523 6.58203C36.8398 6.58203 37.4349 6.84375 37.9375 7.36719C38.4427 7.88802 38.6953 8.53906 38.6953 9.32031C38.6953 10.125 38.4414 10.793 37.9336 11.3242C37.4258 11.8555 36.8112 12.1211 36.0898 12.1211C35.3607 12.1211 34.7474 11.862 34.25 11.3438C33.7552 10.8255 33.5078 10.1549 33.5078 9.33203C33.5078 8.49089 33.7943 7.80469 34.3672 7.27344C34.8646 6.8125 35.4596 6.58203 36.1523 6.58203ZM36.0781 6.86719C35.6042 6.86719 35.224 7.04297 34.9375 7.39453C34.5807 7.83203 34.4023 8.47266 34.4023 9.31641C34.4023 10.181 34.5872 10.8464 34.957 11.3125C35.2409 11.6667 35.6159 11.8438 36.082 11.8438C36.5794 11.8438 36.9896 11.6497 37.3125 11.2617C37.638 10.8737 37.8008 10.2617 37.8008 9.42578C37.8008 8.51953 37.6224 7.84375 37.2656 7.39844C36.9792 7.04427 36.5833 6.86719 36.0781 6.86719ZM40.6562 8.70312V11.0547C40.6562 11.388 40.6927 11.599 40.7656 11.6875C40.862 11.8021 40.9909 11.8594 41.1523 11.8594H41.4766V12H39.3398V11.8594H39.5C39.6042 11.8594 39.6992 11.8333 39.7852 11.7812C39.8711 11.7292 39.9297 11.6589 39.9609 11.5703C39.9948 11.4818 40.0117 11.3099 40.0117 11.0547V8.70312H39.3164V8.42188H40.0117V8.1875C40.0117 7.83073 40.069 7.52865 40.1836 7.28125C40.2982 7.03385 40.4727 6.83464 40.707 6.68359C40.944 6.52995 41.2096 6.45312 41.5039 6.45312C41.7773 6.45312 42.0286 6.54167 42.2578 6.71875C42.4089 6.83594 42.4844 6.96745 42.4844 7.11328C42.4844 7.19141 42.4505 7.26562 42.3828 7.33594C42.3151 7.40365 42.2422 7.4375 42.1641 7.4375C42.1042 7.4375 42.0404 7.41667 41.9727 7.375C41.9076 7.33073 41.8268 7.23828 41.7305 7.09766C41.6341 6.95443 41.5456 6.85807 41.4648 6.80859C41.3841 6.75911 41.2943 6.73438 41.1953 6.73438C41.0755 6.73438 40.974 6.76693 40.8906 6.83203C40.8073 6.89453 40.7474 6.99349 40.7109 7.12891C40.6745 7.26172 40.6562 7.60677 40.6562 8.16406V8.42188H41.5781V8.70312H40.6562ZM43.1719 8.70312V11.0547C43.1719 11.388 43.2083 11.599 43.2812 11.6875C43.3776 11.8021 43.5065 11.8594 43.668 11.8594H43.9922V12H41.8555V11.8594H42.0156C42.1198 11.8594 42.2148 11.8333 42.3008 11.7812C42.3867 11.7292 42.4453 11.6589 42.4766 11.5703C42.5104 11.4818 42.5273 11.3099 42.5273 11.0547V8.70312H41.832V8.42188H42.5273V8.1875C42.5273 7.83073 42.5846 7.52865 42.6992 7.28125C42.8138 7.03385 42.9883 6.83464 43.2227 6.68359C43.4596 6.52995 43.7253 6.45312 44.0195 6.45312C44.293 6.45312 44.5443 6.54167 44.7734 6.71875C44.9245 6.83594 45 6.96745 45 7.11328C45 7.19141 44.9661 7.26562 44.8984 7.33594C44.8307 7.40365 44.7578 7.4375 44.6797 7.4375C44.6198 7.4375 44.556 7.41667 44.4883 7.375C44.4232 7.33073 44.3424 7.23828 44.2461 7.09766C44.1497 6.95443 44.0612 6.85807 43.9805 6.80859C43.8997 6.75911 43.8099 6.73438 43.7109 6.73438C43.5911 6.73438 43.4896 6.76693 43.4062 6.83203C43.3229 6.89453 43.263 6.99349 43.2266 7.12891C43.1901 7.26172 43.1719 7.60677 43.1719 8.16406V8.42188H44.0938V8.70312H43.1719ZM45.3477 6.44531C45.457 6.44531 45.5495 6.48438 45.625 6.5625C45.7031 6.63802 45.7422 6.73047 45.7422 6.83984C45.7422 6.94922 45.7031 7.04297 45.625 7.12109C45.5495 7.19922 45.457 7.23828 45.3477 7.23828C45.2383 7.23828 45.1445 7.19922 45.0664 7.12109C44.9883 7.04297 44.9492 6.94922 44.9492 6.83984C44.9492 6.73047 44.987 6.63802 45.0625 6.5625C45.1406 6.48438 45.2357 6.44531 45.3477 6.44531ZM45.6719 8.31641V11.1914C45.6719 11.4154 45.6875 11.5651 45.7188 11.6406C45.7526 11.7135 45.8008 11.7682 45.8633 11.8047C45.9284 11.8411 46.0456 11.8594 46.2148 11.8594V12H44.4766V11.8594C44.651 11.8594 44.7682 11.8424 44.8281 11.8086C44.888 11.7747 44.9349 11.7188 44.9688 11.6406C45.0052 11.5625 45.0234 11.4128 45.0234 11.1914V9.8125C45.0234 9.42448 45.0117 9.17318 44.9883 9.05859C44.9701 8.97526 44.9414 8.91797 44.9023 8.88672C44.8633 8.85286 44.8099 8.83594 44.7422 8.83594C44.6693 8.83594 44.5807 8.85547 44.4766 8.89453L44.4219 8.75391L45.5 8.31641H45.6719ZM49.7031 10.6406C49.6068 11.112 49.418 11.4753 49.1367 11.7305C48.8555 11.9831 48.5443 12.1094 48.2031 12.1094C47.7969 12.1094 47.4427 11.9388 47.1406 11.5977C46.8385 11.2565 46.6875 10.7956 46.6875 10.2148C46.6875 9.65234 46.8542 9.19531 47.1875 8.84375C47.5234 8.49219 47.9258 8.31641 48.3945 8.31641C48.7461 8.31641 49.0352 8.41016 49.2617 8.59766C49.4883 8.78255 49.6016 8.97526 49.6016 9.17578C49.6016 9.27474 49.569 9.35547 49.5039 9.41797C49.4414 9.47786 49.3529 9.50781 49.2383 9.50781C49.0846 9.50781 48.9688 9.45833 48.8906 9.35938C48.8464 9.30469 48.8164 9.20052 48.8008 9.04688C48.7878 8.89323 48.7357 8.77604 48.6445 8.69531C48.5534 8.61719 48.4271 8.57812 48.2656 8.57812C48.0052 8.57812 47.7956 8.67448 47.6367 8.86719C47.4258 9.1224 47.3203 9.45964 47.3203 9.87891C47.3203 10.306 47.4245 10.6836 47.6328 11.0117C47.8438 11.3372 48.1276 11.5 48.4844 11.5C48.7396 11.5 48.9688 11.4128 49.1719 11.2383C49.3151 11.1185 49.4544 10.901 49.5898 10.5859L49.7031 10.6406ZM50.8203 9.76953C50.8177 10.3008 50.9466 10.7174 51.207 11.0195C51.4674 11.3216 51.7734 11.4727 52.125 11.4727C52.3594 11.4727 52.5625 11.4089 52.7344 11.2812C52.9089 11.151 53.0547 10.9297 53.1719 10.6172L53.293 10.6953C53.2383 11.0521 53.0794 11.3776 52.8164 11.6719C52.5534 11.9635 52.224 12.1094 51.8281 12.1094C51.3984 12.1094 51.0299 11.9427 50.7227 11.6094C50.418 11.2734 50.2656 10.8229 50.2656 10.2578C50.2656 9.64583 50.4219 9.16927 50.7344 8.82812C51.0495 8.48438 51.444 8.3125 51.918 8.3125C52.319 8.3125 52.6484 8.44531 52.9062 8.71094C53.1641 8.97396 53.293 9.32682 53.293 9.76953H50.8203ZM50.8203 9.54297H52.4766C52.4635 9.3138 52.4362 9.15234 52.3945 9.05859C52.3294 8.91276 52.2318 8.79818 52.1016 8.71484C51.974 8.63151 51.8398 8.58984 51.6992 8.58984C51.4831 8.58984 51.2891 8.67448 51.1172 8.84375C50.9479 9.01042 50.849 9.24349 50.8203 9.54297ZM56.0859 8.31641V9.53516H55.957C55.8581 9.15234 55.7305 8.89193 55.5742 8.75391C55.4206 8.61589 55.224 8.54688 54.9844 8.54688C54.8021 8.54688 54.6549 8.59505 54.543 8.69141C54.431 8.78776 54.375 8.89453 54.375 9.01172C54.375 9.15755 54.4167 9.28255 54.5 9.38672C54.5807 9.49349 54.7448 9.60677 54.9922 9.72656L55.5625 10.0039C56.0911 10.2617 56.3555 10.6016 56.3555 11.0234C56.3555 11.349 56.2318 11.612 55.9844 11.8125C55.7396 12.0104 55.4648 12.1094 55.1602 12.1094C54.9414 12.1094 54.6914 12.0703 54.4102 11.9922C54.3242 11.9661 54.2539 11.9531 54.1992 11.9531C54.1393 11.9531 54.0924 11.987 54.0586 12.0547H53.9297V10.7773H54.0586C54.1315 11.1419 54.2708 11.4167 54.4766 11.6016C54.6823 11.7865 54.9128 11.8789 55.168 11.8789C55.3477 11.8789 55.4935 11.8268 55.6055 11.7227C55.7201 11.6159 55.7773 11.4883 55.7773 11.3398C55.7773 11.1602 55.7135 11.0091 55.5859 10.8867C55.4609 10.7643 55.2096 10.6094 54.832 10.4219C54.4544 10.2344 54.207 10.0651 54.0898 9.91406C53.9727 9.76562 53.9141 9.57812 53.9141 9.35156C53.9141 9.05729 54.0143 8.8112 54.2148 8.61328C54.418 8.41536 54.6797 8.31641 55 8.31641C55.1406 8.31641 55.3112 8.34635 55.5117 8.40625C55.6445 8.44531 55.7331 8.46484 55.7773 8.46484C55.819 8.46484 55.8516 8.45573 55.875 8.4375C55.8984 8.41927 55.9258 8.37891 55.957 8.31641H56.0859ZM60.6406 8.31641C61.1823 8.31641 61.6172 8.52214 61.9453 8.93359C62.224 9.28516 62.3633 9.6888 62.3633 10.1445C62.3633 10.4648 62.2865 10.7891 62.1328 11.1172C61.9792 11.4453 61.7669 11.6927 61.4961 11.8594C61.2279 12.026 60.9284 12.1094 60.5977 12.1094C60.0586 12.1094 59.6302 11.8945 59.3125 11.4648C59.0443 11.1029 58.9102 10.6966 58.9102 10.2461C58.9102 9.91797 58.9909 9.59245 59.1523 9.26953C59.3164 8.94401 59.5312 8.70443 59.7969 8.55078C60.0625 8.39453 60.3438 8.31641 60.6406 8.31641ZM60.5195 8.57031C60.3815 8.57031 60.2422 8.61198 60.1016 8.69531C59.9635 8.77604 59.8516 8.91927 59.7656 9.125C59.6797 9.33073 59.6367 9.59505 59.6367 9.91797C59.6367 10.4388 59.7396 10.888 59.9453 11.2656C60.1536 11.6432 60.4271 11.832 60.7656 11.832C61.0182 11.832 61.2266 11.7279 61.3906 11.5195C61.5547 11.3112 61.6367 10.9531 61.6367 10.4453C61.6367 9.8099 61.5 9.3099 61.2266 8.94531C61.0417 8.69531 60.806 8.57031 60.5195 8.57031ZM64.2891 8.70312V11.0547C64.2891 11.388 64.3255 11.599 64.3984 11.6875C64.4948 11.8021 64.6237 11.8594 64.7852 11.8594H65.1094V12H62.9727V11.8594H63.1328C63.237 11.8594 63.332 11.8333 63.418 11.7812C63.5039 11.7292 63.5625 11.6589 63.5938 11.5703C63.6276 11.4818 63.6445 11.3099 63.6445 11.0547V8.70312H62.9492V8.42188H63.6445V8.1875C63.6445 7.83073 63.7018 7.52865 63.8164 7.28125C63.931 7.03385 64.1055 6.83464 64.3398 6.68359C64.5768 6.52995 64.8424 6.45312 65.1367 6.45312C65.4102 6.45312 65.6615 6.54167 65.8906 6.71875C66.0417 6.83594 66.1172 6.96745 66.1172 7.11328C66.1172 7.19141 66.0833 7.26562 66.0156 7.33594C65.9479 7.40365 65.875 7.4375 65.7969 7.4375C65.737 7.4375 65.6732 7.41667 65.6055 7.375C65.5404 7.33073 65.4596 7.23828 65.3633 7.09766C65.2669 6.95443 65.1784 6.85807 65.0977 6.80859C65.0169 6.75911 64.9271 6.73438 64.8281 6.73438C64.7083 6.73438 64.6068 6.76693 64.5234 6.83203C64.4401 6.89453 64.3802 6.99349 64.3438 7.12891C64.3073 7.26172 64.2891 7.60677 64.2891 8.16406V8.42188H65.2109V8.70312H64.2891ZM70.5781 12L68.5312 7.54297V11.082C68.5312 11.4076 68.5664 11.6107 68.6367 11.6914C68.7331 11.8008 68.8854 11.8555 69.0938 11.8555H69.2812V12H67.4375V11.8555H67.625C67.849 11.8555 68.0078 11.7878 68.1016 11.6523C68.1589 11.569 68.1875 11.3789 68.1875 11.082V7.62109C68.1875 7.38672 68.1615 7.21745 68.1094 7.11328C68.0729 7.03776 68.0052 6.97526 67.9062 6.92578C67.8099 6.8737 67.6536 6.84766 67.4375 6.84766V6.70312H68.9375L70.8594 10.8477L72.75 6.70312H74.25V6.84766H74.0664C73.8398 6.84766 73.6797 6.91536 73.5859 7.05078C73.5286 7.13411 73.5 7.32422 73.5 7.62109V11.082C73.5 11.4076 73.5365 11.6107 73.6094 11.6914C73.7057 11.8008 73.8581 11.8555 74.0664 11.8555H74.25V12H72V11.8555H72.1875C72.4141 11.8555 72.5729 11.7878 72.6641 11.6523C72.7214 11.569 72.75 11.3789 72.75 11.082V7.54297L70.707 12H70.5781ZM76.6992 11.4844C76.332 11.7682 76.1016 11.9323 76.0078 11.9766C75.8672 12.0417 75.7174 12.0742 75.5586 12.0742C75.3112 12.0742 75.1068 11.9896 74.9453 11.8203C74.7865 11.651 74.707 11.4284 74.707 11.1523C74.707 10.9779 74.7461 10.8268 74.8242 10.6992C74.931 10.5221 75.1159 10.3555 75.3789 10.1992C75.6445 10.043 76.0846 9.85286 76.6992 9.62891V9.48828C76.6992 9.13151 76.6419 8.88672 76.5273 8.75391C76.4154 8.62109 76.2513 8.55469 76.0352 8.55469C75.8711 8.55469 75.7409 8.59896 75.6445 8.6875C75.5456 8.77604 75.4961 8.8776 75.4961 8.99219L75.5039 9.21875C75.5039 9.33854 75.4727 9.43099 75.4102 9.49609C75.3503 9.5612 75.2708 9.59375 75.1719 9.59375C75.0755 9.59375 74.9961 9.5599 74.9336 9.49219C74.8737 9.42448 74.8438 9.33203 74.8438 9.21484C74.8438 8.99089 74.9583 8.78516 75.1875 8.59766C75.4167 8.41016 75.7383 8.31641 76.1523 8.31641C76.4701 8.31641 76.7305 8.36979 76.9336 8.47656C77.0872 8.55729 77.2005 8.68359 77.2734 8.85547C77.3203 8.96745 77.3438 9.19661 77.3438 9.54297V10.7578C77.3438 11.099 77.3503 11.3086 77.3633 11.3867C77.3763 11.4622 77.3971 11.513 77.4258 11.5391C77.457 11.5651 77.4922 11.5781 77.5312 11.5781C77.5729 11.5781 77.6094 11.569 77.6406 11.5508C77.6953 11.5169 77.8008 11.4219 77.957 11.2656V11.4844C77.6654 11.875 77.3867 12.0703 77.1211 12.0703C76.9935 12.0703 76.8919 12.026 76.8164 11.9375C76.7409 11.849 76.7018 11.6979 76.6992 11.4844ZM76.6992 11.2305V9.86719C76.306 10.0234 76.0521 10.1341 75.9375 10.1992C75.7318 10.3138 75.5846 10.4336 75.4961 10.5586C75.4076 10.6836 75.3633 10.8203 75.3633 10.9688C75.3633 11.1562 75.4193 11.3125 75.5312 11.4375C75.6432 11.5599 75.7721 11.6211 75.918 11.6211C76.1159 11.6211 76.3763 11.4909 76.6992 11.2305ZM79.2734 8.31641V9.12109C79.5729 8.58464 79.8802 8.31641 80.1953 8.31641C80.3385 8.31641 80.457 8.36068 80.5508 8.44922C80.6445 8.53516 80.6914 8.63542 80.6914 8.75C80.6914 8.85156 80.6576 8.9375 80.5898 9.00781C80.5221 9.07812 80.4414 9.11328 80.3477 9.11328C80.2565 9.11328 80.1536 9.06901 80.0391 8.98047C79.9271 8.88932 79.8438 8.84375 79.7891 8.84375C79.7422 8.84375 79.6914 8.86979 79.6367 8.92188C79.5195 9.02865 79.3984 9.20443 79.2734 9.44922V11.1641C79.2734 11.362 79.2982 11.5117 79.3477 11.6133C79.3815 11.6836 79.4414 11.7422 79.5273 11.7891C79.6133 11.8359 79.737 11.8594 79.8984 11.8594V12H78.0664V11.8594C78.2487 11.8594 78.3841 11.8307 78.4727 11.7734C78.5378 11.7318 78.5833 11.6654 78.6094 11.5742C78.6224 11.5299 78.6289 11.4036 78.6289 11.1953V9.80859C78.6289 9.39193 78.6198 9.14453 78.6016 9.06641C78.5859 8.98568 78.5547 8.92708 78.5078 8.89062C78.4635 8.85417 78.4076 8.83594 78.3398 8.83594C78.2591 8.83594 78.168 8.85547 78.0664 8.89453L78.0273 8.75391L79.1094 8.31641H79.2734ZM81.9492 6.44531V10.0039L82.8594 9.17578C83.0521 8.9987 83.1641 8.88672 83.1953 8.83984C83.2161 8.80859 83.2266 8.77734 83.2266 8.74609C83.2266 8.69401 83.2044 8.64974 83.1602 8.61328C83.1185 8.57422 83.0482 8.55208 82.9492 8.54688V8.42188H84.5039V8.54688C84.2904 8.55208 84.112 8.58464 83.9688 8.64453C83.8281 8.70443 83.6732 8.8112 83.5039 8.96484L82.5859 9.8125L83.5039 10.9727C83.7591 11.293 83.931 11.4961 84.0195 11.582C84.1445 11.7044 84.2539 11.7839 84.3477 11.8203C84.4128 11.8464 84.526 11.8594 84.6875 11.8594V12H82.9492V11.8594C83.0482 11.8568 83.1146 11.8424 83.1484 11.8164C83.1849 11.7878 83.2031 11.7487 83.2031 11.6992C83.2031 11.6393 83.151 11.543 83.0469 11.4102L81.9492 10.0078V11.1953C81.9492 11.4271 81.9648 11.5794 81.9961 11.6523C82.0299 11.7253 82.0768 11.7773 82.1367 11.8086C82.1966 11.8398 82.3268 11.8568 82.5273 11.8594V12H80.707V11.8594C80.8893 11.8594 81.026 11.8372 81.1172 11.793C81.1719 11.7643 81.2135 11.7201 81.2422 11.6602C81.2812 11.5742 81.3008 11.4258 81.3008 11.2148V7.95703C81.3008 7.54297 81.2917 7.29036 81.2734 7.19922C81.2552 7.10547 81.2253 7.04167 81.1836 7.00781C81.1419 6.97135 81.0872 6.95312 81.0195 6.95312C80.9648 6.95312 80.8828 6.97526 80.7734 7.01953L80.707 6.88281L81.7695 6.44531H81.9492ZM91.5508 6.58203L91.6875 8.25391H91.5508C91.4128 7.83724 91.2344 7.52344 91.0156 7.3125C90.7005 7.00781 90.2956 6.85547 89.8008 6.85547C89.1263 6.85547 88.6133 7.1224 88.2617 7.65625C87.9674 8.10677 87.8203 8.64323 87.8203 9.26562C87.8203 9.77083 87.918 10.2318 88.1133 10.6484C88.3086 11.0651 88.5638 11.3711 88.8789 11.5664C89.1966 11.7591 89.5221 11.8555 89.8555 11.8555C90.0508 11.8555 90.2396 11.8307 90.4219 11.7812C90.6042 11.7318 90.7799 11.6589 90.9492 11.5625V10.0312C90.9492 9.76562 90.9284 9.59245 90.8867 9.51172C90.8477 9.42839 90.7852 9.36589 90.6992 9.32422C90.6159 9.27995 90.4674 9.25781 90.2539 9.25781V9.10938H92.3047V9.25781H92.207C92.0039 9.25781 91.8646 9.32552 91.7891 9.46094C91.737 9.55729 91.7109 9.7474 91.7109 10.0312V11.6523C91.4115 11.8138 91.1159 11.9323 90.8242 12.0078C90.5326 12.0833 90.2083 12.1211 89.8516 12.1211C88.8281 12.1211 88.0508 11.793 87.5195 11.1367C87.1211 10.6445 86.9219 10.0768 86.9219 9.43359C86.9219 8.96745 87.0339 8.52083 87.2578 8.09375C87.5234 7.58594 87.888 7.19531 88.3516 6.92188C88.7396 6.69531 89.1979 6.58203 89.7266 6.58203C89.9193 6.58203 90.0938 6.59766 90.25 6.62891C90.4089 6.66016 90.6328 6.72917 90.9219 6.83594C91.0677 6.89062 91.1654 6.91797 91.2148 6.91797C91.2643 6.91797 91.306 6.89583 91.3398 6.85156C91.3763 6.80469 91.3984 6.71484 91.4062 6.58203H91.5508ZM93.2734 9.76953C93.2708 10.3008 93.3997 10.7174 93.6602 11.0195C93.9206 11.3216 94.2266 11.4727 94.5781 11.4727C94.8125 11.4727 95.0156 11.4089 95.1875 11.2812C95.362 11.151 95.5078 10.9297 95.625 10.6172L95.7461 10.6953C95.6914 11.0521 95.5326 11.3776 95.2695 11.6719C95.0065 11.9635 94.6771 12.1094 94.2812 12.1094C93.8516 12.1094 93.4831 11.9427 93.1758 11.6094C92.8711 11.2734 92.7188 10.8229 92.7188 10.2578C92.7188 9.64583 92.875 9.16927 93.1875 8.82812C93.5026 8.48438 93.8971 8.3125 94.3711 8.3125C94.7721 8.3125 95.1016 8.44531 95.3594 8.71094C95.6172 8.97396 95.7461 9.32682 95.7461 9.76953H93.2734ZM93.2734 9.54297H94.9297C94.9167 9.3138 94.8893 9.15234 94.8477 9.05859C94.7826 8.91276 94.6849 8.79818 94.5547 8.71484C94.4271 8.63151 94.293 8.58984 94.1523 8.58984C93.9362 8.58984 93.7422 8.67448 93.5703 8.84375C93.401 9.01042 93.3021 9.24349 93.2734 9.54297ZM97.2734 8.31641V9.12109C97.5729 8.58464 97.8802 8.31641 98.1953 8.31641C98.3385 8.31641 98.457 8.36068 98.5508 8.44922C98.6445 8.53516 98.6914 8.63542 98.6914 8.75C98.6914 8.85156 98.6576 8.9375 98.5898 9.00781C98.5221 9.07812 98.4414 9.11328 98.3477 9.11328C98.2565 9.11328 98.1536 9.06901 98.0391 8.98047C97.9271 8.88932 97.8438 8.84375 97.7891 8.84375C97.7422 8.84375 97.6914 8.86979 97.6367 8.92188C97.5195 9.02865 97.3984 9.20443 97.2734 9.44922V11.1641C97.2734 11.362 97.2982 11.5117 97.3477 11.6133C97.3815 11.6836 97.4414 11.7422 97.5273 11.7891C97.6133 11.8359 97.737 11.8594 97.8984 11.8594V12H96.0664V11.8594C96.2487 11.8594 96.3841 11.8307 96.4727 11.7734C96.5378 11.7318 96.5833 11.6654 96.6094 11.5742C96.6224 11.5299 96.6289 11.4036 96.6289 11.1953V9.80859C96.6289 9.39193 96.6198 9.14453 96.6016 9.06641C96.5859 8.98568 96.5547 8.92708 96.5078 8.89062C96.4635 8.85417 96.4076 8.83594 96.3398 8.83594C96.2591 8.83594 96.168 8.85547 96.0664 8.89453L96.0273 8.75391L97.1094 8.31641H97.2734ZM100.918 11.4844C100.551 11.7682 100.32 11.9323 100.227 11.9766C100.086 12.0417 99.9362 12.0742 99.7773 12.0742C99.5299 12.0742 99.3255 11.9896 99.1641 11.8203C99.0052 11.651 98.9258 11.4284 98.9258 11.1523C98.9258 10.9779 98.9648 10.8268 99.043 10.6992C99.1497 10.5221 99.3346 10.3555 99.5977 10.1992C99.8633 10.043 100.303 9.85286 100.918 9.62891V9.48828C100.918 9.13151 100.861 8.88672 100.746 8.75391C100.634 8.62109 100.47 8.55469 100.254 8.55469C100.09 8.55469 99.9596 8.59896 99.8633 8.6875C99.7643 8.77604 99.7148 8.8776 99.7148 8.99219L99.7227 9.21875C99.7227 9.33854 99.6914 9.43099 99.6289 9.49609C99.569 9.5612 99.4896 9.59375 99.3906 9.59375C99.2943 9.59375 99.2148 9.5599 99.1523 9.49219C99.0924 9.42448 99.0625 9.33203 99.0625 9.21484C99.0625 8.99089 99.1771 8.78516 99.4062 8.59766C99.6354 8.41016 99.957 8.31641 100.371 8.31641C100.689 8.31641 100.949 8.36979 101.152 8.47656C101.306 8.55729 101.419 8.68359 101.492 8.85547C101.539 8.96745 101.562 9.19661 101.562 9.54297V10.7578C101.562 11.099 101.569 11.3086 101.582 11.3867C101.595 11.4622 101.616 11.513 101.645 11.5391C101.676 11.5651 101.711 11.5781 101.75 11.5781C101.792 11.5781 101.828 11.569 101.859 11.5508C101.914 11.5169 102.02 11.4219 102.176 11.2656V11.4844C101.884 11.875 101.605 12.0703 101.34 12.0703C101.212 12.0703 101.111 12.026 101.035 11.9375C100.96 11.849 100.921 11.6979 100.918 11.4844ZM100.918 11.2305V9.86719C100.525 10.0234 100.271 10.1341 100.156 10.1992C99.9505 10.3138 99.8034 10.4336 99.7148 10.5586C99.6263 10.6836 99.582 10.8203 99.582 10.9688C99.582 11.1562 99.638 11.3125 99.75 11.4375C99.862 11.5599 99.9909 11.6211 100.137 11.6211C100.335 11.6211 100.595 11.4909 100.918 11.2305ZM103.402 10.6953C103.184 10.5885 103.016 10.4401 102.898 10.25C102.781 10.0573 102.723 9.84505 102.723 9.61328C102.723 9.25911 102.855 8.95443 103.121 8.69922C103.389 8.44401 103.732 8.31641 104.148 8.31641C104.49 8.31641 104.785 8.39974 105.035 8.56641H105.793C105.905 8.56641 105.97 8.57031 105.988 8.57812C106.007 8.58333 106.02 8.59375 106.027 8.60938C106.043 8.63281 106.051 8.67448 106.051 8.73438C106.051 8.80208 106.044 8.84896 106.031 8.875C106.023 8.88802 106.009 8.89844 105.988 8.90625C105.97 8.91406 105.905 8.91797 105.793 8.91797H105.328C105.474 9.10547 105.547 9.34505 105.547 9.63672C105.547 9.97005 105.419 10.2552 105.164 10.4922C104.909 10.7292 104.566 10.8477 104.137 10.8477C103.96 10.8477 103.779 10.8216 103.594 10.7695C103.479 10.8685 103.401 10.9557 103.359 11.0312C103.32 11.1042 103.301 11.1667 103.301 11.2188C103.301 11.263 103.322 11.306 103.363 11.3477C103.408 11.3893 103.492 11.4193 103.617 11.4375C103.69 11.4479 103.872 11.457 104.164 11.4648C104.701 11.4779 105.048 11.4961 105.207 11.5195C105.449 11.5534 105.642 11.6432 105.785 11.7891C105.931 11.9349 106.004 12.1146 106.004 12.3281C106.004 12.6224 105.866 12.8984 105.59 13.1562C105.184 13.5365 104.654 13.7266 104 13.7266C103.497 13.7266 103.073 13.6133 102.727 13.3867C102.531 13.2565 102.434 13.1211 102.434 12.9805C102.434 12.918 102.448 12.8555 102.477 12.793C102.521 12.6966 102.612 12.5625 102.75 12.3906C102.768 12.3672 102.901 12.2266 103.148 11.9688C103.013 11.888 102.917 11.8164 102.859 11.7539C102.805 11.6888 102.777 11.6159 102.777 11.5352C102.777 11.444 102.814 11.3372 102.887 11.2148C102.962 11.0924 103.134 10.9193 103.402 10.6953ZM104.082 8.50391C103.889 8.50391 103.728 8.58073 103.598 8.73438C103.467 8.88802 103.402 9.1237 103.402 9.44141C103.402 9.85286 103.491 10.1719 103.668 10.3984C103.803 10.5703 103.975 10.6562 104.184 10.6562C104.382 10.6562 104.544 10.582 104.672 10.4336C104.799 10.2852 104.863 10.0521 104.863 9.73438C104.863 9.32031 104.773 8.99609 104.594 8.76172C104.461 8.58984 104.29 8.50391 104.082 8.50391ZM103.363 12C103.241 12.1328 103.148 12.2565 103.086 12.3711C103.023 12.4857 102.992 12.5911 102.992 12.6875C102.992 12.8125 103.068 12.9219 103.219 13.0156C103.479 13.1771 103.855 13.2578 104.348 13.2578C104.816 13.2578 105.161 13.1745 105.383 13.0078C105.607 12.8438 105.719 12.668 105.719 12.4805C105.719 12.3451 105.652 12.2487 105.52 12.1914C105.384 12.1341 105.116 12.1003 104.715 12.0898C104.129 12.0742 103.678 12.0443 103.363 12ZM108.195 8.31641C108.737 8.31641 109.172 8.52214 109.5 8.93359C109.779 9.28516 109.918 9.6888 109.918 10.1445C109.918 10.4648 109.841 10.7891 109.688 11.1172C109.534 11.4453 109.322 11.6927 109.051 11.8594C108.783 12.026 108.483 12.1094 108.152 12.1094C107.613 12.1094 107.185 11.8945 106.867 11.4648C106.599 11.1029 106.465 10.6966 106.465 10.2461C106.465 9.91797 106.546 9.59245 106.707 9.26953C106.871 8.94401 107.086 8.70443 107.352 8.55078C107.617 8.39453 107.898 8.31641 108.195 8.31641ZM108.074 8.57031C107.936 8.57031 107.797 8.61198 107.656 8.69531C107.518 8.77604 107.406 8.91927 107.32 9.125C107.234 9.33073 107.191 9.59505 107.191 9.91797C107.191 10.4388 107.294 10.888 107.5 11.2656C107.708 11.6432 107.982 11.832 108.32 11.832C108.573 11.832 108.781 11.7279 108.945 11.5195C109.109 11.3112 109.191 10.9531 109.191 10.4453C109.191 9.8099 109.055 9.3099 108.781 8.94531C108.596 8.69531 108.361 8.57031 108.074 8.57031ZM112.758 8.31641V9.53516H112.629C112.53 9.15234 112.402 8.89193 112.246 8.75391C112.092 8.61589 111.896 8.54688 111.656 8.54688C111.474 8.54688 111.327 8.59505 111.215 8.69141C111.103 8.78776 111.047 8.89453 111.047 9.01172C111.047 9.15755 111.089 9.28255 111.172 9.38672C111.253 9.49349 111.417 9.60677 111.664 9.72656L112.234 10.0039C112.763 10.2617 113.027 10.6016 113.027 11.0234C113.027 11.349 112.904 11.612 112.656 11.8125C112.411 12.0104 112.137 12.1094 111.832 12.1094C111.613 12.1094 111.363 12.0703 111.082 11.9922C110.996 11.9661 110.926 11.9531 110.871 11.9531C110.811 11.9531 110.764 11.987 110.73 12.0547H110.602V10.7773H110.73C110.803 11.1419 110.943 11.4167 111.148 11.6016C111.354 11.7865 111.585 11.8789 111.84 11.8789C112.02 11.8789 112.165 11.8268 112.277 11.7227C112.392 11.6159 112.449 11.4883 112.449 11.3398C112.449 11.1602 112.385 11.0091 112.258 10.8867C112.133 10.7643 111.882 10.6094 111.504 10.4219C111.126 10.2344 110.879 10.0651 110.762 9.91406C110.645 9.76562 110.586 9.57812 110.586 9.35156C110.586 9.05729 110.686 8.8112 110.887 8.61328C111.09 8.41536 111.352 8.31641 111.672 8.31641C111.812 8.31641 111.983 8.34635 112.184 8.40625C112.316 8.44531 112.405 8.46484 112.449 8.46484C112.491 8.46484 112.523 8.45573 112.547 8.4375C112.57 8.41927 112.598 8.37891 112.629 8.31641H112.758Z" fill="#D9AD42"/>
<path d="M8.5 17.695L2.62647 13.5357L2.49443 13.3282L1 4.66617L8.5 2L16 4.66617L14.5056 13.3282L14.3735 13.5357L8.5 17.695ZM8.5 2.68205L1.72559 5.09029L3.1058 13.0903L8.5 16.9102L13.8942 13.0903L15.2744 5.09029L8.5 2.68205Z" fill="#D9AD42"/>
<path d="M3.77204 6.13187H13.5497V9.02882H12.1042V8.38513H12.906V6.77556H4.09389V8.38513H4.89568V9.02882H3.4502V6.13187H3.77204Z" fill="#D9AD42"/>
<path d="M4.82703 4.78229H12.1728L11.7024 5.51078H5.29747L4.82703 4.78229Z" fill="#D9AD42"/>
<path d="M11.4528 7.48657C11.4509 8.54215 11.4488 9.59789 11.447 10.6528C11.445 11.7069 11.4432 12.7625 11.4414 13.8166C10.9836 14.141 10.5255 14.465 10.0684 14.7887C9.61082 15.1127 9.15352 15.4365 8.69617 15.7601C8.69617 14.3816 8.69617 13.0025 8.69617 11.6241C8.69617 10.2459 8.69617 8.86576 8.69617 7.48657C8.84608 7.48657 8.99599 7.48657 9.14607 7.48657C9.29598 7.48657 9.44623 7.48657 9.59642 7.48657C9.59557 8.61255 9.59512 9.73778 9.59455 10.8621C9.59392 11.9865 9.59335 13.1108 9.59295 14.2352C9.75146 14.1367 9.91013 14.0369 10.0689 13.9374C10.227 13.8383 10.3866 13.7397 10.5452 13.6403C10.5464 12.6153 10.5476 11.5893 10.5486 10.5643C10.5497 9.53921 10.5507 8.51335 10.5522 7.48657C10.7021 7.48657 10.8523 7.48657 11.0022 7.48657C11.1523 7.48657 11.3026 7.48657 11.4528 7.48657Z" fill="#D9AD42"/>
<path d="M7.40621 14.0962C7.24742 13.91 7.08846 13.7248 6.9299 13.5436C6.77111 13.5361 6.61232 13.5262 6.45347 13.513C6.45245 12.5085 6.4516 11.5049 6.45057 10.5007C6.44943 9.49619 6.44824 8.49178 6.4475 7.48657C6.29713 7.48657 6.14694 7.48657 5.99703 7.48657C5.84712 7.48657 5.69715 7.48657 5.54724 7.48657C5.54883 8.54215 5.55088 9.59789 5.55265 10.6528C5.55436 11.7068 5.55629 12.7625 5.55817 13.8166C5.70734 13.9217 5.85668 14.0276 6.00619 14.1335C6.15553 14.2394 6.30533 14.3452 6.45467 14.4504C6.61346 14.4801 6.77196 14.5042 6.93064 14.5264C7.0892 14.7234 7.2477 14.9228 7.40677 15.1247C7.556 15.2306 7.70546 15.3368 7.85497 15.4423C8.00414 15.5476 8.15411 15.6533 8.30384 15.7601C8.30384 14.3816 8.30384 13.0025 8.30384 11.6241C8.30384 10.2459 8.30384 8.86576 8.30384 7.48657C8.15348 7.48657 8.00328 7.48657 7.85337 7.48657C7.70341 7.48657 7.55321 7.48657 7.40313 7.48657C7.40342 8.58938 7.40404 9.69055 7.40461 10.7918C7.40518 11.8929 7.40564 12.995 7.40621 14.0962Z" fill="#D9AD42"/>
</svg>
