<svg width="20" height="20" viewBox="0 0 20 20" fill="none" xmlns="http://www.w3.org/2000/svg">
<circle cx="10" cy="10" r="10" fill="white"/>
<path d="M15.8561 7.7327C16.3252 7.39429 16.8469 7.01783 17.4245 6.59225C16.7246 6.75826 16.1017 6.91254 15.5418 7.05134C12.9726 7.68792 11.6876 8.00612 10.5827 7.56473C9.47966 7.12414 8.68646 5.97854 7.10426 3.6891L7.09696 3.67878C6.75006 3.17675 6.36408 2.61846 5.92836 2C6.11892 2.73423 6.29492 3.38794 6.4533 3.97553C7.17956 6.67161 7.54256 8.02012 7.16506 9.14836C6.78816 10.2749 5.7176 11.0487 3.57805 12.5921L3.56851 12.5993C3.09935 12.9377 2.57758 13.3141 2 13.7396C2.69996 13.5737 3.32289 13.4195 3.88282 13.2807C6.45198 12.6441 7.73696 12.3258 8.84176 12.7671C9.94476 13.2078 10.7381 14.3533 12.3203 16.6428L12.3276 16.6532C12.6745 17.1552 13.0605 17.7135 13.4961 18.3319C13.3056 17.5977 13.1296 16.944 12.9713 16.3564C12.245 13.6603 11.8819 12.3118 12.2595 11.1835C12.6365 10.0571 13.707 9.28336 15.8465 7.73982L15.8561 7.7327Z" fill="black"/>
</svg>
