<svg width="180" height="50" viewBox="0 0 180 50" fill="none" xmlns="http://www.w3.org/2000/svg">
<g clip-path="url(#clip0_35_10)">
<rect width="180" height="50" fill="white"/>
<rect width="180" height="49" fill="white"/>
<path d="M36.8047 17.6514C36.8047 17.4229 36.7695 17.2178 36.6992 17.0361C36.6348 16.8486 36.5117 16.6787 36.3301 16.5264C36.1484 16.3682 35.8936 16.2129 35.5654 16.0605C35.2373 15.9082 34.8125 15.75 34.291 15.5859C33.7109 15.3984 33.1602 15.1875 32.6387 14.9531C32.123 14.7188 31.666 14.4463 31.2676 14.1357C30.875 13.8193 30.5645 13.4531 30.3359 13.0371C30.1133 12.6211 30.002 12.1377 30.002 11.5869C30.002 11.0537 30.1191 10.5703 30.3535 10.1367C30.5879 9.69727 30.916 9.32227 31.3379 9.01172C31.7598 8.69531 32.2578 8.45215 32.832 8.28223C33.4121 8.1123 34.0479 8.02734 34.7393 8.02734C35.6826 8.02734 36.5059 8.19727 37.209 8.53711C37.9121 8.87695 38.457 9.34277 38.8438 9.93457C39.2363 10.5264 39.4326 11.2031 39.4326 11.9648H36.8135C36.8135 11.5898 36.7344 11.2617 36.5762 10.9805C36.4238 10.6934 36.1895 10.4678 35.873 10.3037C35.5625 10.1396 35.1699 10.0576 34.6953 10.0576C34.2383 10.0576 33.8574 10.1279 33.5527 10.2686C33.248 10.4033 33.0195 10.5879 32.8672 10.8223C32.7148 11.0508 32.6387 11.3086 32.6387 11.5957C32.6387 11.8125 32.6914 12.0088 32.7969 12.1846C32.9082 12.3604 33.0723 12.5244 33.2891 12.6768C33.5059 12.8291 33.7725 12.9727 34.0889 13.1074C34.4053 13.2422 34.7715 13.374 35.1875 13.5029C35.8848 13.7139 36.4971 13.9512 37.0244 14.2148C37.5576 14.4785 38.0029 14.7744 38.3604 15.1025C38.7178 15.4307 38.9873 15.8027 39.1689 16.2188C39.3506 16.6348 39.4414 17.1064 39.4414 17.6338C39.4414 18.1904 39.333 18.6885 39.1162 19.1279C38.8994 19.5674 38.5859 19.9395 38.1758 20.2441C37.7656 20.5488 37.2764 20.7803 36.708 20.9385C36.1396 21.0967 35.5039 21.1758 34.8008 21.1758C34.168 21.1758 33.5439 21.0938 32.9287 20.9297C32.3135 20.7598 31.7539 20.5049 31.25 20.165C30.752 19.8252 30.3535 19.3916 30.0547 18.8643C29.7559 18.3369 29.6064 17.7129 29.6064 16.9922H32.252C32.252 17.3906 32.3135 17.7275 32.4365 18.0029C32.5596 18.2783 32.7324 18.501 32.9551 18.6709C33.1836 18.8408 33.4531 18.9639 33.7637 19.04C34.0801 19.1162 34.4258 19.1543 34.8008 19.1543C35.2578 19.1543 35.6328 19.0898 35.9258 18.9609C36.2246 18.832 36.4443 18.6533 36.585 18.4248C36.7314 18.1963 36.8047 17.9385 36.8047 17.6514ZM45.7344 11.4902V13.2832H40.1973V11.4902H45.7344ZM41.5684 9.14355H44.0996V18.1348C44.0996 18.4102 44.1348 18.6211 44.2051 18.7676C44.2812 18.9141 44.3926 19.0166 44.5391 19.0752C44.6855 19.1279 44.8701 19.1543 45.0928 19.1543C45.251 19.1543 45.3916 19.1484 45.5146 19.1367C45.6436 19.1191 45.752 19.1016 45.8398 19.084L45.8486 20.9473C45.6318 21.0176 45.3975 21.0732 45.1455 21.1143C44.8936 21.1553 44.6152 21.1758 44.3105 21.1758C43.7539 21.1758 43.2676 21.085 42.8516 20.9033C42.4414 20.7158 42.125 20.417 41.9023 20.0068C41.6797 19.5967 41.5684 19.0576 41.5684 18.3896V9.14355ZM51.5527 21.1758C50.8145 21.1758 50.1523 21.0586 49.5664 20.8242C48.9805 20.584 48.4824 20.2529 48.0723 19.8311C47.668 19.4092 47.3574 18.9199 47.1406 18.3633C46.9238 17.8008 46.8154 17.2031 46.8154 16.5703V16.2188C46.8154 15.498 46.918 14.8389 47.123 14.2412C47.3281 13.6436 47.6211 13.125 48.002 12.6855C48.3887 12.2461 48.8574 11.9092 49.4082 11.6748C49.959 11.4346 50.5801 11.3145 51.2715 11.3145C51.9453 11.3145 52.543 11.4258 53.0645 11.6484C53.5859 11.8711 54.0225 12.1875 54.374 12.5977C54.7314 13.0078 55.001 13.5 55.1826 14.0742C55.3643 14.6426 55.4551 15.2754 55.4551 15.9727V17.0273H47.8965V15.3398H52.9678V15.1465C52.9678 14.7949 52.9033 14.4814 52.7744 14.2061C52.6514 13.9248 52.4639 13.7021 52.2119 13.5381C51.96 13.374 51.6377 13.292 51.2451 13.292C50.9111 13.292 50.624 13.3652 50.3838 13.5117C50.1436 13.6582 49.9473 13.8633 49.7949 14.127C49.6484 14.3906 49.5371 14.7012 49.4609 15.0586C49.3906 15.4102 49.3555 15.7969 49.3555 16.2188V16.5703C49.3555 16.9512 49.4082 17.3027 49.5137 17.625C49.625 17.9473 49.7803 18.2256 49.9795 18.46C50.1846 18.6943 50.4307 18.876 50.7178 19.0049C51.0107 19.1338 51.3418 19.1982 51.7109 19.1982C52.168 19.1982 52.5928 19.1104 52.9854 18.9346C53.3838 18.7529 53.7266 18.4805 54.0137 18.1172L55.2441 19.4531C55.0449 19.7402 54.7725 20.0156 54.4268 20.2793C54.0869 20.543 53.6768 20.7598 53.1963 20.9297C52.7158 21.0938 52.168 21.1758 51.5527 21.1758ZM59.5684 7.5V21H57.0283V7.5H59.5684ZM64.332 7.5V21H61.792V7.5H64.332ZM71.5566 18.8555V14.6191C71.5566 14.3145 71.5068 14.0537 71.4072 13.8369C71.3076 13.6143 71.1523 13.4414 70.9414 13.3184C70.7363 13.1953 70.4697 13.1338 70.1416 13.1338C69.8604 13.1338 69.6172 13.1836 69.4121 13.2832C69.207 13.377 69.0488 13.5146 68.9375 13.6963C68.8262 13.8721 68.7705 14.0801 68.7705 14.3203H66.2393C66.2393 13.916 66.333 13.5322 66.5205 13.1689C66.708 12.8057 66.9805 12.4863 67.3379 12.2109C67.6953 11.9297 68.1201 11.71 68.6123 11.5518C69.1104 11.3936 69.667 11.3145 70.2822 11.3145C71.0205 11.3145 71.6768 11.4375 72.251 11.6836C72.8252 11.9297 73.2764 12.2988 73.6045 12.791C73.9385 13.2832 74.1055 13.8984 74.1055 14.6367V18.7061C74.1055 19.2275 74.1377 19.6553 74.2021 19.9893C74.2666 20.3174 74.3604 20.6045 74.4834 20.8506V21H71.9258C71.8027 20.7422 71.709 20.4199 71.6445 20.0332C71.5859 19.6406 71.5566 19.248 71.5566 18.8555ZM71.8906 15.208L71.9082 16.6406H70.4932C70.1592 16.6406 69.8691 16.6787 69.623 16.7549C69.377 16.8311 69.1748 16.9395 69.0166 17.0801C68.8584 17.2148 68.7412 17.373 68.665 17.5547C68.5947 17.7363 68.5596 17.9355 68.5596 18.1523C68.5596 18.3691 68.6094 18.5654 68.709 18.7412C68.8086 18.9111 68.9521 19.0459 69.1396 19.1455C69.3271 19.2393 69.5469 19.2861 69.7988 19.2861C70.1797 19.2861 70.5107 19.21 70.792 19.0576C71.0732 18.9053 71.29 18.7178 71.4424 18.4951C71.6006 18.2725 71.6826 18.0615 71.6885 17.8623L72.3564 18.9346C72.2627 19.1748 72.1338 19.4238 71.9697 19.6816C71.8115 19.9395 71.6094 20.1826 71.3633 20.4111C71.1172 20.6338 70.8213 20.8184 70.4756 20.9648C70.1299 21.1055 69.7197 21.1758 69.2451 21.1758C68.6416 21.1758 68.0938 21.0557 67.6016 20.8154C67.1152 20.5693 66.7285 20.2324 66.4414 19.8047C66.1602 19.3711 66.0195 18.8789 66.0195 18.3281C66.0195 17.8301 66.1133 17.3877 66.3008 17.001C66.4883 16.6143 66.7637 16.2891 67.127 16.0254C67.4961 15.7559 67.9561 15.5537 68.5068 15.4189C69.0576 15.2783 69.6963 15.208 70.4229 15.208H71.8906ZM78.5879 13.5645V21H76.0566V11.4902H78.4385L78.5879 13.5645ZM81.4531 11.4287L81.4092 13.7754C81.2861 13.7578 81.1367 13.7432 80.9609 13.7314C80.791 13.7139 80.6357 13.7051 80.4951 13.7051C80.1377 13.7051 79.8271 13.752 79.5635 13.8457C79.3057 13.9336 79.0889 14.0654 78.9131 14.2412C78.7432 14.417 78.6143 14.6309 78.5264 14.8828C78.4443 15.1348 78.3975 15.4219 78.3857 15.7441L77.876 15.5859C77.876 14.9707 77.9375 14.4053 78.0605 13.8896C78.1836 13.3682 78.3623 12.9141 78.5967 12.5273C78.8369 12.1406 79.1299 11.8418 79.4756 11.6309C79.8213 11.4199 80.2168 11.3145 80.6621 11.3145C80.8027 11.3145 80.9463 11.3262 81.0928 11.3496C81.2393 11.3672 81.3594 11.3936 81.4531 11.4287ZM90.374 18.9697L92.9229 8.20312H94.3467L94.6719 9.99609L91.9561 21H90.4268L90.374 18.9697ZM89.0645 8.20312L91.1738 18.9697L90.998 21H89.293L86.4541 8.20312H89.0645ZM96.9131 18.9258L98.9961 8.20312H101.606L98.7764 21H97.0713L96.9131 18.9258ZM95.1465 8.20312L97.7129 19.0137L97.6426 21H96.1133L93.3799 9.9873L93.7314 8.20312H95.1465ZM106.977 21.1758C106.238 21.1758 105.576 21.0586 104.99 20.8242C104.404 20.584 103.906 20.2529 103.496 19.8311C103.092 19.4092 102.781 18.9199 102.564 18.3633C102.348 17.8008 102.239 17.2031 102.239 16.5703V16.2188C102.239 15.498 102.342 14.8389 102.547 14.2412C102.752 13.6436 103.045 13.125 103.426 12.6855C103.812 12.2461 104.281 11.9092 104.832 11.6748C105.383 11.4346 106.004 11.3145 106.695 11.3145C107.369 11.3145 107.967 11.4258 108.488 11.6484C109.01 11.8711 109.446 12.1875 109.798 12.5977C110.155 13.0078 110.425 13.5 110.606 14.0742C110.788 14.6426 110.879 15.2754 110.879 15.9727V17.0273H103.32V15.3398H108.392V15.1465C108.392 14.7949 108.327 14.4814 108.198 14.2061C108.075 13.9248 107.888 13.7021 107.636 13.5381C107.384 13.374 107.062 13.292 106.669 13.292C106.335 13.292 106.048 13.3652 105.808 13.5117C105.567 13.6582 105.371 13.8633 105.219 14.127C105.072 14.3906 104.961 14.7012 104.885 15.0586C104.814 15.4102 104.779 15.7969 104.779 16.2188V16.5703C104.779 16.9512 104.832 17.3027 104.938 17.625C105.049 17.9473 105.204 18.2256 105.403 18.46C105.608 18.6943 105.854 18.876 106.142 19.0049C106.435 19.1338 106.766 19.1982 107.135 19.1982C107.592 19.1982 108.017 19.1104 108.409 18.9346C108.808 18.7529 109.15 18.4805 109.438 18.1172L110.668 19.4531C110.469 19.7402 110.196 20.0156 109.851 20.2793C109.511 20.543 109.101 20.7598 108.62 20.9297C108.14 21.0938 107.592 21.1758 106.977 21.1758ZM112.32 7.5H114.852V18.8203L114.597 21H112.32V7.5ZM120.872 16.1484V16.333C120.872 17.042 120.796 17.6924 120.644 18.2842C120.497 18.876 120.269 19.3887 119.958 19.8223C119.647 20.25 119.261 20.584 118.798 20.8242C118.341 21.0586 117.802 21.1758 117.181 21.1758C116.601 21.1758 116.097 21.0586 115.669 20.8242C115.247 20.5898 114.893 20.2588 114.605 19.8311C114.318 19.4033 114.087 18.9023 113.911 18.3281C113.735 17.7539 113.604 17.127 113.516 16.4473V16.043C113.604 15.3633 113.735 14.7363 113.911 14.1621C114.087 13.5879 114.318 13.0869 114.605 12.6592C114.893 12.2314 115.247 11.9004 115.669 11.666C116.091 11.4316 116.589 11.3145 117.163 11.3145C117.79 11.3145 118.335 11.4346 118.798 11.6748C119.267 11.9092 119.653 12.2432 119.958 12.6768C120.269 13.1045 120.497 13.6143 120.644 14.2061C120.796 14.792 120.872 15.4395 120.872 16.1484ZM118.341 16.333V16.1484C118.341 15.7617 118.312 15.3984 118.253 15.0586C118.2 14.7129 118.106 14.4111 117.972 14.1533C117.837 13.8896 117.652 13.6816 117.418 13.5293C117.189 13.377 116.894 13.3008 116.53 13.3008C116.185 13.3008 115.892 13.3594 115.651 13.4766C115.411 13.5938 115.212 13.7578 115.054 13.9688C114.901 14.1797 114.787 14.4316 114.711 14.7246C114.635 15.0117 114.588 15.3281 114.57 15.6738V16.8252C114.588 17.2881 114.664 17.6982 114.799 18.0557C114.939 18.4072 115.15 18.6855 115.432 18.8906C115.719 19.0898 116.091 19.1895 116.548 19.1895C116.905 19.1895 117.201 19.1191 117.436 18.9785C117.67 18.8379 117.852 18.6387 117.98 18.3809C118.115 18.123 118.209 17.8213 118.262 17.4756C118.314 17.124 118.341 16.7432 118.341 16.333ZM133.748 17.6514C133.748 17.4229 133.713 17.2178 133.643 17.0361C133.578 16.8486 133.455 16.6787 133.273 16.5264C133.092 16.3682 132.837 16.2129 132.509 16.0605C132.181 15.9082 131.756 15.75 131.234 15.5859C130.654 15.3984 130.104 15.1875 129.582 14.9531C129.066 14.7188 128.609 14.4463 128.211 14.1357C127.818 13.8193 127.508 13.4531 127.279 13.0371C127.057 12.6211 126.945 12.1377 126.945 11.5869C126.945 11.0537 127.062 10.5703 127.297 10.1367C127.531 9.69727 127.859 9.32227 128.281 9.01172C128.703 8.69531 129.201 8.45215 129.775 8.28223C130.355 8.1123 130.991 8.02734 131.683 8.02734C132.626 8.02734 133.449 8.19727 134.152 8.53711C134.855 8.87695 135.4 9.34277 135.787 9.93457C136.18 10.5264 136.376 11.2031 136.376 11.9648H133.757C133.757 11.5898 133.678 11.2617 133.52 10.9805C133.367 10.6934 133.133 10.4678 132.816 10.3037C132.506 10.1396 132.113 10.0576 131.639 10.0576C131.182 10.0576 130.801 10.1279 130.496 10.2686C130.191 10.4033 129.963 10.5879 129.811 10.8223C129.658 11.0508 129.582 11.3086 129.582 11.5957C129.582 11.8125 129.635 12.0088 129.74 12.1846C129.852 12.3604 130.016 12.5244 130.232 12.6768C130.449 12.8291 130.716 12.9727 131.032 13.1074C131.349 13.2422 131.715 13.374 132.131 13.5029C132.828 13.7139 133.44 13.9512 133.968 14.2148C134.501 14.4785 134.946 14.7744 135.304 15.1025C135.661 15.4307 135.931 15.8027 136.112 16.2188C136.294 16.6348 136.385 17.1064 136.385 17.6338C136.385 18.1904 136.276 18.6885 136.06 19.1279C135.843 19.5674 135.529 19.9395 135.119 20.2441C134.709 20.5488 134.22 20.7803 133.651 20.9385C133.083 21.0967 132.447 21.1758 131.744 21.1758C131.111 21.1758 130.487 21.0938 129.872 20.9297C129.257 20.7598 128.697 20.5049 128.193 20.165C127.695 19.8252 127.297 19.3916 126.998 18.8643C126.699 18.3369 126.55 17.7129 126.55 16.9922H129.195C129.195 17.3906 129.257 17.7275 129.38 18.0029C129.503 18.2783 129.676 18.501 129.898 18.6709C130.127 18.8408 130.396 18.9639 130.707 19.04C131.023 19.1162 131.369 19.1543 131.744 19.1543C132.201 19.1543 132.576 19.0898 132.869 18.9609C133.168 18.832 133.388 18.6533 133.528 18.4248C133.675 18.1963 133.748 17.9385 133.748 17.6514ZM142.678 11.4902V13.2832H137.141V11.4902H142.678ZM138.512 9.14355H141.043V18.1348C141.043 18.4102 141.078 18.6211 141.148 18.7676C141.225 18.9141 141.336 19.0166 141.482 19.0752C141.629 19.1279 141.813 19.1543 142.036 19.1543C142.194 19.1543 142.335 19.1484 142.458 19.1367C142.587 19.1191 142.695 19.1016 142.783 19.084L142.792 20.9473C142.575 21.0176 142.341 21.0732 142.089 21.1143C141.837 21.1553 141.559 21.1758 141.254 21.1758C140.697 21.1758 140.211 21.085 139.795 20.9033C139.385 20.7158 139.068 20.417 138.846 20.0068C138.623 19.5967 138.512 19.0576 138.512 18.3896V9.14355ZM149.744 18.7236V11.4902H152.275V21H149.894L149.744 18.7236ZM150.025 16.7725L150.772 16.7549C150.772 17.3877 150.699 17.9766 150.553 18.5215C150.406 19.0605 150.187 19.5293 149.894 19.9277C149.601 20.3203 149.231 20.6279 148.786 20.8506C148.341 21.0674 147.816 21.1758 147.213 21.1758C146.75 21.1758 146.322 21.1113 145.93 20.9824C145.543 20.8477 145.209 20.6396 144.928 20.3584C144.652 20.0713 144.436 19.7051 144.277 19.2598C144.125 18.8086 144.049 18.2666 144.049 17.6338V11.4902H146.58V17.6514C146.58 17.9326 146.612 18.1699 146.677 18.3633C146.747 18.5566 146.844 18.7148 146.967 18.8379C147.09 18.9609 147.233 19.0488 147.397 19.1016C147.567 19.1543 147.755 19.1807 147.96 19.1807C148.481 19.1807 148.892 19.0752 149.19 18.8643C149.495 18.6533 149.709 18.3662 149.832 18.0029C149.961 17.6338 150.025 17.2236 150.025 16.7725ZM159.825 18.9258V7.5H162.374V21H160.08L159.825 18.9258ZM153.813 16.3594V16.1748C153.813 15.4482 153.896 14.7891 154.06 14.1973C154.224 13.5996 154.464 13.0869 154.78 12.6592C155.097 12.2314 155.486 11.9004 155.949 11.666C156.412 11.4316 156.939 11.3145 157.531 11.3145C158.088 11.3145 158.574 11.4316 158.99 11.666C159.412 11.9004 159.77 12.2344 160.062 12.668C160.361 13.0957 160.602 13.6025 160.783 14.1885C160.965 14.7686 161.097 15.4043 161.179 16.0957V16.5C161.097 17.1621 160.965 17.7773 160.783 18.3457C160.602 18.9141 160.361 19.4121 160.062 19.8398C159.77 20.2617 159.412 20.5898 158.99 20.8242C158.568 21.0586 158.076 21.1758 157.514 21.1758C156.922 21.1758 156.395 21.0557 155.932 20.8154C155.475 20.5752 155.088 20.2383 154.771 19.8047C154.461 19.3711 154.224 18.8613 154.06 18.2754C153.896 17.6895 153.813 17.0508 153.813 16.3594ZM156.345 16.1748V16.3594C156.345 16.752 156.374 17.1182 156.433 17.458C156.497 17.7979 156.6 18.0996 156.74 18.3633C156.887 18.6211 157.074 18.8232 157.303 18.9697C157.537 19.1104 157.821 19.1807 158.155 19.1807C158.589 19.1807 158.946 19.084 159.228 18.8906C159.509 18.6914 159.723 18.4189 159.869 18.0732C160.021 17.7275 160.109 17.3291 160.133 16.8779V15.7266C160.115 15.3574 160.062 15.0264 159.975 14.7334C159.893 14.4346 159.77 14.1797 159.605 13.9688C159.447 13.7578 159.248 13.5938 159.008 13.4766C158.773 13.3594 158.495 13.3008 158.173 13.3008C157.845 13.3008 157.563 13.377 157.329 13.5293C157.095 13.6758 156.904 13.8779 156.758 14.1357C156.617 14.3936 156.512 14.6982 156.441 15.0498C156.377 15.3955 156.345 15.7705 156.345 16.1748ZM167.023 11.4902V21H164.483V11.4902H167.023ZM164.325 9.01172C164.325 8.64258 164.454 8.33789 164.712 8.09766C164.97 7.85742 165.315 7.7373 165.749 7.7373C166.177 7.7373 166.52 7.85742 166.777 8.09766C167.041 8.33789 167.173 8.64258 167.173 9.01172C167.173 9.38086 167.041 9.68555 166.777 9.92578C166.52 10.166 166.177 10.2861 165.749 10.2861C165.315 10.2861 164.97 10.166 164.712 9.92578C164.454 9.68555 164.325 9.38086 164.325 9.01172ZM168.711 16.3418V16.1572C168.711 15.46 168.811 14.8184 169.01 14.2324C169.209 13.6406 169.499 13.1279 169.88 12.6943C170.261 12.2607 170.729 11.9238 171.286 11.6836C171.843 11.4375 172.481 11.3145 173.202 11.3145C173.923 11.3145 174.564 11.4375 175.127 11.6836C175.689 11.9238 176.161 12.2607 176.542 12.6943C176.929 13.1279 177.222 13.6406 177.421 14.2324C177.62 14.8184 177.72 15.46 177.72 16.1572V16.3418C177.72 17.0332 177.62 17.6748 177.421 18.2666C177.222 18.8525 176.929 19.3652 176.542 19.8047C176.161 20.2383 175.692 20.5752 175.136 20.8154C174.579 21.0557 173.94 21.1758 173.22 21.1758C172.499 21.1758 171.857 21.0557 171.295 20.8154C170.738 20.5752 170.267 20.2383 169.88 19.8047C169.499 19.3652 169.209 18.8525 169.01 18.2666C168.811 17.6748 168.711 17.0332 168.711 16.3418ZM171.242 16.1572V16.3418C171.242 16.7402 171.277 17.1123 171.348 17.458C171.418 17.8037 171.529 18.1084 171.682 18.3721C171.84 18.6299 172.045 18.832 172.297 18.9785C172.549 19.125 172.856 19.1982 173.22 19.1982C173.571 19.1982 173.873 19.125 174.125 18.9785C174.377 18.832 174.579 18.6299 174.731 18.3721C174.884 18.1084 174.995 17.8037 175.065 17.458C175.142 17.1123 175.18 16.7402 175.18 16.3418V16.1572C175.18 15.7705 175.142 15.4072 175.065 15.0674C174.995 14.7217 174.881 14.417 174.723 14.1533C174.57 13.8838 174.368 13.6729 174.116 13.5205C173.864 13.3682 173.56 13.292 173.202 13.292C172.845 13.292 172.54 13.3682 172.288 13.5205C172.042 13.6729 171.84 13.8838 171.682 14.1533C171.529 14.417 171.418 14.7217 171.348 15.0674C171.277 15.4072 171.242 15.7705 171.242 16.1572Z" fill="black"/>
<path d="M31.5356 34H30.1426L30.1514 32.9717H31.5356C31.8813 32.9717 32.1729 32.894 32.4102 32.7388C32.6475 32.5806 32.8262 32.3506 32.9463 32.0488C33.0693 31.7471 33.1309 31.3823 33.1309 30.9546V30.6426C33.1309 30.3145 33.0957 30.0259 33.0254 29.7769C32.958 29.5278 32.8569 29.3184 32.7222 29.1484C32.5874 28.9785 32.4219 28.8511 32.2256 28.7661C32.0293 28.6782 31.8037 28.6343 31.5488 28.6343H30.1162V27.6016H31.5488C31.9766 27.6016 32.3677 27.6748 32.7222 27.8213C33.0796 27.9648 33.3887 28.1714 33.6494 28.4409C33.9102 28.7104 34.1108 29.0327 34.2515 29.4077C34.395 29.7798 34.4668 30.1943 34.4668 30.6514V30.9546C34.4668 31.4087 34.395 31.8232 34.2515 32.1982C34.1108 32.5732 33.9102 32.8955 33.6494 33.165C33.3916 33.4316 33.0825 33.6382 32.7222 33.7847C32.3647 33.9282 31.9692 34 31.5356 34ZM30.8896 27.6016V34H29.5713V27.6016H30.8896ZM37.5342 34.0879C37.165 34.0879 36.834 34.0293 36.541 33.9121C36.248 33.792 35.999 33.6265 35.7939 33.4155C35.5918 33.2046 35.4365 32.96 35.3281 32.6816C35.2197 32.4004 35.1655 32.1016 35.1655 31.7852V31.6094C35.1655 31.249 35.2168 30.9194 35.3193 30.6206C35.4219 30.3218 35.5684 30.0625 35.7588 29.8428C35.9521 29.623 36.1865 29.4546 36.4619 29.3374C36.7373 29.2173 37.0479 29.1572 37.3936 29.1572C37.7305 29.1572 38.0293 29.2129 38.29 29.3242C38.5508 29.4355 38.769 29.5938 38.9448 29.7988C39.1235 30.0039 39.2583 30.25 39.3491 30.5371C39.4399 30.8213 39.4854 31.1377 39.4854 31.4863V32.0137H35.7061V31.1699H38.2417V31.0732C38.2417 30.8975 38.2095 30.7407 38.145 30.603C38.0835 30.4624 37.9897 30.3511 37.8638 30.269C37.7378 30.187 37.5767 30.146 37.3804 30.146C37.2134 30.146 37.0698 30.1826 36.9497 30.2559C36.8296 30.3291 36.7314 30.4316 36.6553 30.5635C36.582 30.6953 36.5264 30.8506 36.4883 31.0293C36.4531 31.2051 36.4355 31.3984 36.4355 31.6094V31.7852C36.4355 31.9756 36.4619 32.1514 36.5146 32.3125C36.5703 32.4736 36.6479 32.6128 36.7476 32.73C36.8501 32.8472 36.9731 32.938 37.1167 33.0024C37.2632 33.0669 37.4287 33.0991 37.6133 33.0991C37.8418 33.0991 38.0542 33.0552 38.2505 32.9673C38.4497 32.8765 38.6211 32.7402 38.7646 32.5586L39.3799 33.2266C39.2803 33.3701 39.144 33.5078 38.9712 33.6396C38.8013 33.7715 38.5962 33.8799 38.356 33.9648C38.1157 34.0469 37.8418 34.0879 37.5342 34.0879ZM41.542 27.25V34H40.272V27.25H41.542ZM43.9238 29.2451V34H42.6538V29.2451H43.9238ZM42.5747 28.0059C42.5747 27.8213 42.6392 27.6689 42.7681 27.5488C42.897 27.4287 43.0698 27.3687 43.2866 27.3687C43.5005 27.3687 43.6719 27.4287 43.8008 27.5488C43.9326 27.6689 43.9985 27.8213 43.9985 28.0059C43.9985 28.1904 43.9326 28.3428 43.8008 28.4629C43.6719 28.583 43.5005 28.6431 43.2866 28.6431C43.0698 28.6431 42.897 28.583 42.7681 28.4629C42.6392 28.3428 42.5747 28.1904 42.5747 28.0059ZM46.5869 33.0771L47.6416 29.2451H48.9644L47.3604 34H46.5605L46.5869 33.0771ZM45.8618 29.2451L46.9209 33.0815L46.9429 34H46.1387L44.5347 29.2451H45.8618ZM51.6582 34.0879C51.2891 34.0879 50.958 34.0293 50.665 33.9121C50.3721 33.792 50.123 33.6265 49.918 33.4155C49.7158 33.2046 49.5605 32.96 49.4521 32.6816C49.3438 32.4004 49.2896 32.1016 49.2896 31.7852V31.6094C49.2896 31.249 49.3408 30.9194 49.4434 30.6206C49.5459 30.3218 49.6924 30.0625 49.8828 29.8428C50.0762 29.623 50.3105 29.4546 50.5859 29.3374C50.8613 29.2173 51.1719 29.1572 51.5176 29.1572C51.8545 29.1572 52.1533 29.2129 52.4141 29.3242C52.6748 29.4355 52.8931 29.5938 53.0688 29.7988C53.2476 30.0039 53.3823 30.25 53.4731 30.5371C53.564 30.8213 53.6094 31.1377 53.6094 31.4863V32.0137H49.8301V31.1699H52.3657V31.0732C52.3657 30.8975 52.3335 30.7407 52.269 30.603C52.2075 30.4624 52.1138 30.3511 51.9878 30.269C51.8618 30.187 51.7007 30.146 51.5044 30.146C51.3374 30.146 51.1938 30.1826 51.0737 30.2559C50.9536 30.3291 50.8555 30.4316 50.7793 30.5635C50.7061 30.6953 50.6504 30.8506 50.6123 31.0293C50.5771 31.2051 50.5596 31.3984 50.5596 31.6094V31.7852C50.5596 31.9756 50.5859 32.1514 50.6387 32.3125C50.6943 32.4736 50.772 32.6128 50.8716 32.73C50.9741 32.8472 51.0972 32.938 51.2407 33.0024C51.3872 33.0669 51.5527 33.0991 51.7373 33.0991C51.9658 33.0991 52.1782 33.0552 52.3745 32.9673C52.5737 32.8765 52.7451 32.7402 52.8887 32.5586L53.5039 33.2266C53.4043 33.3701 53.2681 33.5078 53.0952 33.6396C52.9253 33.7715 52.7202 33.8799 52.48 33.9648C52.2397 34.0469 51.9658 34.0879 51.6582 34.0879ZM55.5957 30.2822V34H54.3301V29.2451H55.521L55.5957 30.2822ZM57.0283 29.2144L57.0063 30.3877C56.9448 30.3789 56.8701 30.3716 56.7822 30.3657C56.6973 30.3569 56.6196 30.3525 56.5493 30.3525C56.3706 30.3525 56.2153 30.376 56.0835 30.4229C55.9546 30.4668 55.8462 30.5327 55.7583 30.6206C55.6733 30.7085 55.6089 30.8154 55.5649 30.9414C55.5239 31.0674 55.5005 31.2109 55.4946 31.3721L55.2397 31.293C55.2397 30.9854 55.2705 30.7026 55.332 30.4448C55.3936 30.1841 55.4829 29.957 55.6001 29.7637C55.7202 29.5703 55.8667 29.4209 56.0396 29.3154C56.2124 29.21 56.4102 29.1572 56.6328 29.1572C56.7031 29.1572 56.7749 29.1631 56.8481 29.1748C56.9214 29.1836 56.9814 29.1968 57.0283 29.2144ZM58.9619 29.2451V34H57.6919V29.2451H58.9619ZM57.6128 28.0059C57.6128 27.8213 57.6772 27.6689 57.8062 27.5488C57.9351 27.4287 58.1079 27.3687 58.3247 27.3687C58.5386 27.3687 58.71 27.4287 58.8389 27.5488C58.9707 27.6689 59.0366 27.8213 59.0366 28.0059C59.0366 28.1904 58.9707 28.3428 58.8389 28.4629C58.71 28.583 58.5386 28.6431 58.3247 28.6431C58.1079 28.6431 57.9351 28.583 57.8062 28.4629C57.6772 28.3428 57.6128 28.1904 57.6128 28.0059ZM61.2471 30.2603V34H59.9814V29.2451H61.168L61.2471 30.2603ZM61.0625 31.4556H60.7197C60.7197 31.104 60.7651 30.7876 60.856 30.5063C60.9468 30.2222 61.0742 29.9805 61.2383 29.7812C61.4023 29.5791 61.5972 29.4253 61.8228 29.3198C62.0513 29.2114 62.3062 29.1572 62.5874 29.1572C62.8101 29.1572 63.0137 29.1895 63.1982 29.2539C63.3828 29.3184 63.541 29.4209 63.6729 29.5615C63.8076 29.7021 63.9102 29.8882 63.9805 30.1196C64.0537 30.3511 64.0903 30.6338 64.0903 30.9678V34H62.8159V30.9634C62.8159 30.7524 62.7866 30.5884 62.728 30.4712C62.6694 30.354 62.583 30.272 62.4688 30.2251C62.3574 30.1753 62.2197 30.1504 62.0557 30.1504C61.8857 30.1504 61.7378 30.1841 61.6118 30.2515C61.4888 30.3188 61.3862 30.4126 61.3042 30.5327C61.2251 30.6499 61.165 30.7876 61.124 30.9458C61.083 31.104 61.0625 31.2739 61.0625 31.4556ZM68.063 29.2451H69.21V33.8418C69.21 34.2754 69.1133 34.6431 68.9199 34.9448C68.7295 35.2495 68.4629 35.4795 68.1201 35.6348C67.7773 35.793 67.3789 35.8721 66.9248 35.8721C66.7256 35.8721 66.5146 35.8457 66.292 35.793C66.0723 35.7402 65.8613 35.6582 65.6592 35.5469C65.46 35.4355 65.293 35.2949 65.1582 35.125L65.7163 34.3779C65.8628 34.5479 66.0327 34.6797 66.2261 34.7734C66.4194 34.8701 66.6333 34.9185 66.8677 34.9185C67.0962 34.9185 67.2896 34.876 67.4478 34.791C67.606 34.709 67.7275 34.5874 67.8125 34.4263C67.8975 34.2681 67.9399 34.0762 67.9399 33.8506V30.3438L68.063 29.2451ZM64.8638 31.6797V31.5874C64.8638 31.2241 64.9077 30.8945 64.9956 30.5986C65.0864 30.2998 65.2139 30.0435 65.3779 29.8296C65.5449 29.6157 65.7471 29.4502 65.9844 29.333C66.2217 29.2158 66.4897 29.1572 66.7886 29.1572C67.105 29.1572 67.3701 29.2158 67.584 29.333C67.7979 29.4502 67.9736 29.6172 68.1113 29.834C68.249 30.0479 68.356 30.3013 68.4321 30.5942C68.5112 30.8843 68.5728 31.2021 68.6167 31.5479V31.75C68.5728 32.0811 68.5068 32.3887 68.4189 32.6729C68.3311 32.957 68.2153 33.2061 68.0718 33.4199C67.9282 33.6309 67.7495 33.7949 67.5356 33.9121C67.3247 34.0293 67.0728 34.0879 66.7798 34.0879C66.4868 34.0879 66.2217 34.0278 65.9844 33.9077C65.75 33.7876 65.5493 33.6191 65.3823 33.4023C65.2153 33.1855 65.0864 32.9307 64.9956 32.6377C64.9077 32.3447 64.8638 32.0254 64.8638 31.6797ZM66.1294 31.5874V31.6797C66.1294 31.876 66.1484 32.0591 66.1865 32.229C66.2246 32.3989 66.2832 32.5498 66.3623 32.6816C66.4443 32.8105 66.5454 32.9116 66.6655 32.9849C66.7886 33.0552 66.9336 33.0903 67.1006 33.0903C67.332 33.0903 67.521 33.042 67.6675 32.9453C67.814 32.8457 67.9238 32.7095 67.9971 32.5366C68.0703 32.3638 68.1128 32.1646 68.1245 31.939V31.3633C68.1187 31.1787 68.0938 31.0132 68.0498 30.8667C68.0059 30.7173 67.9443 30.5898 67.8652 30.4844C67.7861 30.3789 67.6836 30.2969 67.5576 30.2383C67.4316 30.1797 67.2822 30.1504 67.1094 30.1504C66.9424 30.1504 66.7974 30.1885 66.6743 30.2646C66.5542 30.3379 66.4531 30.439 66.3711 30.5679C66.292 30.6968 66.2319 30.8491 66.1909 31.0249C66.1499 31.1978 66.1294 31.3853 66.1294 31.5874ZM75.8457 32.3257C75.8457 32.2114 75.8281 32.1089 75.793 32.0181C75.7607 31.9243 75.6992 31.8394 75.6084 31.7632C75.5176 31.6841 75.3901 31.6064 75.2261 31.5303C75.062 31.4541 74.8496 31.375 74.5889 31.293C74.2988 31.1992 74.0234 31.0938 73.7627 30.9766C73.5049 30.8594 73.2764 30.7231 73.0771 30.5679C72.8809 30.4097 72.7256 30.2266 72.6113 30.0186C72.5 29.8105 72.4443 29.5688 72.4443 29.2935C72.4443 29.0269 72.5029 28.7852 72.6201 28.5684C72.7373 28.3486 72.9014 28.1611 73.1123 28.0059C73.3232 27.8477 73.5723 27.7261 73.8594 27.6411C74.1494 27.5562 74.4673 27.5137 74.813 27.5137C75.2847 27.5137 75.6963 27.5986 76.0479 27.7686C76.3994 27.9385 76.6719 28.1714 76.8652 28.4673C77.0615 28.7632 77.1597 29.1016 77.1597 29.4824H75.8501C75.8501 29.2949 75.8105 29.1309 75.7314 28.9902C75.6553 28.8467 75.5381 28.7339 75.3799 28.6519C75.2246 28.5698 75.0283 28.5288 74.791 28.5288C74.5625 28.5288 74.3721 28.564 74.2197 28.6343C74.0674 28.7017 73.9531 28.7939 73.877 28.9111C73.8008 29.0254 73.7627 29.1543 73.7627 29.2979C73.7627 29.4062 73.7891 29.5044 73.8418 29.5923C73.8975 29.6802 73.9795 29.7622 74.0879 29.8384C74.1963 29.9146 74.3296 29.9863 74.4878 30.0537C74.646 30.1211 74.8291 30.187 75.0371 30.2515C75.3857 30.3569 75.6919 30.4756 75.9556 30.6074C76.2222 30.7393 76.4448 30.8872 76.6235 31.0513C76.8022 31.2153 76.937 31.4014 77.0278 31.6094C77.1187 31.8174 77.1641 32.0532 77.1641 32.3169C77.1641 32.5952 77.1099 32.8442 77.0015 33.064C76.8931 33.2837 76.7363 33.4697 76.5312 33.6221C76.3262 33.7744 76.0815 33.8901 75.7974 33.9692C75.5132 34.0483 75.1953 34.0879 74.8438 34.0879C74.5273 34.0879 74.2153 34.0469 73.9077 33.9648C73.6001 33.8799 73.3203 33.7524 73.0684 33.5825C72.8193 33.4126 72.6201 33.1958 72.4707 32.9321C72.3213 32.6685 72.2466 32.3564 72.2466 31.9961H73.5693C73.5693 32.1953 73.6001 32.3638 73.6616 32.5015C73.7231 32.6392 73.8096 32.7505 73.9209 32.8354C74.0352 32.9204 74.1699 32.9819 74.3252 33.02C74.4834 33.0581 74.6562 33.0771 74.8438 33.0771C75.0723 33.0771 75.2598 33.0449 75.4062 32.9805C75.5557 32.916 75.6655 32.8267 75.7358 32.7124C75.8091 32.5981 75.8457 32.4692 75.8457 32.3257ZM80.3105 29.2451V30.1416H77.542V29.2451H80.3105ZM78.2275 28.0718H79.4932V32.5674C79.4932 32.7051 79.5107 32.8105 79.5459 32.8838C79.584 32.957 79.6396 33.0083 79.7129 33.0376C79.7861 33.064 79.8784 33.0771 79.9897 33.0771C80.0688 33.0771 80.1392 33.0742 80.2007 33.0684C80.2651 33.0596 80.3193 33.0508 80.3633 33.042L80.3677 33.9736C80.2593 34.0088 80.1421 34.0366 80.0161 34.0571C79.8901 34.0776 79.751 34.0879 79.5986 34.0879C79.3203 34.0879 79.0771 34.0425 78.8691 33.9517C78.6641 33.8579 78.5059 33.7085 78.3945 33.5034C78.2832 33.2983 78.2275 33.0288 78.2275 32.6948V28.0718ZM83.2197 34.0879C82.8506 34.0879 82.5195 34.0293 82.2266 33.9121C81.9336 33.792 81.6846 33.6265 81.4795 33.4155C81.2773 33.2046 81.1221 32.96 81.0137 32.6816C80.9053 32.4004 80.8511 32.1016 80.8511 31.7852V31.6094C80.8511 31.249 80.9023 30.9194 81.0049 30.6206C81.1074 30.3218 81.2539 30.0625 81.4443 29.8428C81.6377 29.623 81.8721 29.4546 82.1475 29.3374C82.4229 29.2173 82.7334 29.1572 83.0791 29.1572C83.416 29.1572 83.7148 29.2129 83.9756 29.3242C84.2363 29.4355 84.4546 29.5938 84.6304 29.7988C84.8091 30.0039 84.9438 30.25 85.0347 30.5371C85.1255 30.8213 85.1709 31.1377 85.1709 31.4863V32.0137H81.3916V31.1699H83.9272V31.0732C83.9272 30.8975 83.895 30.7407 83.8306 30.603C83.769 30.4624 83.6753 30.3511 83.5493 30.269C83.4233 30.187 83.2622 30.146 83.0659 30.146C82.8989 30.146 82.7554 30.1826 82.6353 30.2559C82.5151 30.3291 82.417 30.4316 82.3408 30.5635C82.2676 30.6953 82.2119 30.8506 82.1738 31.0293C82.1387 31.2051 82.1211 31.3984 82.1211 31.6094V31.7852C82.1211 31.9756 82.1475 32.1514 82.2002 32.3125C82.2559 32.4736 82.3335 32.6128 82.4331 32.73C82.5356 32.8472 82.6587 32.938 82.8022 33.0024C82.9487 33.0669 83.1143 33.0991 83.2988 33.0991C83.5273 33.0991 83.7397 33.0552 83.936 32.9673C84.1353 32.8765 84.3066 32.7402 84.4502 32.5586L85.0654 33.2266C84.9658 33.3701 84.8296 33.5078 84.6567 33.6396C84.4868 33.7715 84.2817 33.8799 84.0415 33.9648C83.8013 34.0469 83.5273 34.0879 83.2197 34.0879ZM87.2275 27.25V34H85.9575V27.25H87.2275ZM89.6094 27.25V34H88.3394V27.25H89.6094ZM93.2217 32.9277V30.8096C93.2217 30.6572 93.1968 30.5269 93.147 30.4185C93.0972 30.3071 93.0195 30.2207 92.9141 30.1592C92.8115 30.0977 92.6782 30.0669 92.5142 30.0669C92.3735 30.0669 92.252 30.0918 92.1494 30.1416C92.0469 30.1885 91.9678 30.2573 91.9121 30.3481C91.8564 30.436 91.8286 30.54 91.8286 30.6602H90.563C90.563 30.458 90.6099 30.2661 90.7036 30.0845C90.7974 29.9028 90.9336 29.7432 91.1123 29.6055C91.291 29.4648 91.5034 29.355 91.7495 29.2759C91.9985 29.1968 92.2769 29.1572 92.5845 29.1572C92.9536 29.1572 93.2817 29.2188 93.5688 29.3418C93.856 29.4648 94.0815 29.6494 94.2456 29.8955C94.4126 30.1416 94.4961 30.4492 94.4961 30.8184V32.853C94.4961 33.1138 94.5122 33.3276 94.5444 33.4946C94.5767 33.6587 94.6235 33.8022 94.6851 33.9253V34H93.4062C93.3447 33.8711 93.2979 33.71 93.2656 33.5166C93.2363 33.3203 93.2217 33.124 93.2217 32.9277ZM93.3887 31.104L93.3975 31.8203H92.6899C92.5229 31.8203 92.3779 31.8394 92.2549 31.8774C92.1318 31.9155 92.0308 31.9697 91.9517 32.04C91.8726 32.1074 91.814 32.1865 91.7759 32.2773C91.7407 32.3682 91.7231 32.4678 91.7231 32.5762C91.7231 32.6846 91.748 32.7827 91.7979 32.8706C91.8477 32.9556 91.9194 33.0229 92.0132 33.0728C92.1069 33.1196 92.2168 33.1431 92.3428 33.1431C92.5332 33.1431 92.6987 33.105 92.8394 33.0288C92.98 32.9526 93.0884 32.8589 93.1646 32.7476C93.2437 32.6362 93.2847 32.5308 93.2876 32.4312L93.6216 32.9673C93.5747 33.0874 93.5103 33.2119 93.4282 33.3408C93.3491 33.4697 93.248 33.5913 93.125 33.7056C93.002 33.8169 92.854 33.9092 92.6812 33.9824C92.5083 34.0527 92.3032 34.0879 92.0659 34.0879C91.7642 34.0879 91.4902 34.0278 91.2441 33.9077C91.001 33.7847 90.8076 33.6162 90.6641 33.4023C90.5234 33.1855 90.4531 32.9395 90.4531 32.6641C90.4531 32.415 90.5 32.1938 90.5938 32.0005C90.6875 31.8071 90.8252 31.6445 91.0068 31.5127C91.1914 31.3779 91.4214 31.2769 91.6968 31.2095C91.9722 31.1392 92.2915 31.104 92.6548 31.104H93.3887ZM96.7373 30.2822V34H95.4717V29.2451H96.6626L96.7373 30.2822ZM98.1699 29.2144L98.1479 30.3877C98.0864 30.3789 98.0117 30.3716 97.9238 30.3657C97.8389 30.3569 97.7612 30.3525 97.6909 30.3525C97.5122 30.3525 97.3569 30.376 97.2251 30.4229C97.0962 30.4668 96.9878 30.5327 96.8999 30.6206C96.8149 30.7085 96.7505 30.8154 96.7065 30.9414C96.6655 31.0674 96.6421 31.2109 96.6362 31.3721L96.3813 31.293C96.3813 30.9854 96.4121 30.7026 96.4736 30.4448C96.5352 30.1841 96.6245 29.957 96.7417 29.7637C96.8618 29.5703 97.0083 29.4209 97.1812 29.3154C97.354 29.21 97.5518 29.1572 97.7744 29.1572C97.8447 29.1572 97.9165 29.1631 97.9897 29.1748C98.063 29.1836 98.123 29.1968 98.1699 29.2144ZM104.564 33.0508L106.295 34.4219L105.465 35.1426L103.76 33.7715L104.564 33.0508ZM106.339 30.6514V30.9546C106.339 31.4409 106.273 31.8774 106.142 32.2642C106.013 32.6509 105.827 32.9805 105.583 33.2529C105.34 33.5225 105.053 33.729 104.722 33.8726C104.391 34.0161 104.023 34.0879 103.619 34.0879C103.218 34.0879 102.85 34.0161 102.516 33.8726C102.182 33.729 101.894 33.5225 101.65 33.2529C101.407 32.9805 101.218 32.6509 101.083 32.2642C100.952 31.8774 100.886 31.4409 100.886 30.9546V30.6514C100.886 30.1621 100.952 29.7256 101.083 29.3418C101.218 28.9551 101.406 28.6255 101.646 28.353C101.886 28.0806 102.173 27.8726 102.507 27.729C102.841 27.5854 103.209 27.5137 103.61 27.5137C104.015 27.5137 104.382 27.5854 104.713 27.729C105.047 27.8726 105.336 28.0806 105.579 28.353C105.822 28.6255 106.01 28.9551 106.142 29.3418C106.273 29.7256 106.339 30.1621 106.339 30.6514ZM105.008 30.9546V30.6426C105.008 30.3027 104.976 30.0039 104.911 29.7461C104.85 29.4883 104.759 29.2715 104.639 29.0957C104.521 28.9199 104.376 28.7881 104.204 28.7002C104.031 28.6094 103.833 28.564 103.61 28.564C103.388 28.564 103.19 28.6094 103.017 28.7002C102.844 28.7881 102.699 28.9199 102.582 29.0957C102.465 29.2715 102.375 29.4883 102.314 29.7461C102.252 30.0039 102.222 30.3027 102.222 30.6426V30.9546C102.222 31.2915 102.252 31.5903 102.314 31.8511C102.375 32.1089 102.465 32.3271 102.582 32.5059C102.702 32.6816 102.849 32.8149 103.021 32.9058C103.197 32.9966 103.396 33.042 103.619 33.042C103.842 33.042 104.038 32.9966 104.208 32.9058C104.381 32.8149 104.526 32.6816 104.643 32.5059C104.763 32.3271 104.854 32.1089 104.916 31.8511C104.977 31.5903 105.008 31.2915 105.008 30.9546ZM110.026 32.8618V29.2451H111.292V34H110.101L110.026 32.8618ZM110.167 31.8862L110.541 31.8774C110.541 32.1938 110.504 32.4883 110.431 32.7607C110.357 33.0303 110.248 33.2646 110.101 33.4639C109.955 33.6602 109.77 33.814 109.547 33.9253C109.325 34.0337 109.062 34.0879 108.761 34.0879C108.529 34.0879 108.315 34.0557 108.119 33.9912C107.926 33.9238 107.759 33.8198 107.618 33.6792C107.48 33.5356 107.372 33.3525 107.293 33.1299C107.217 32.9043 107.179 32.6333 107.179 32.3169V29.2451H108.444V32.3257C108.444 32.4663 108.46 32.585 108.493 32.6816C108.528 32.7783 108.576 32.8574 108.638 32.9189C108.699 32.9805 108.771 33.0244 108.853 33.0508C108.938 33.0771 109.032 33.0903 109.134 33.0903C109.395 33.0903 109.6 33.0376 109.75 32.9321C109.902 32.8267 110.009 32.6831 110.07 32.5015C110.135 32.3169 110.167 32.1118 110.167 31.8862ZM114.825 32.9277V30.8096C114.825 30.6572 114.8 30.5269 114.75 30.4185C114.701 30.3071 114.623 30.2207 114.518 30.1592C114.415 30.0977 114.282 30.0669 114.118 30.0669C113.977 30.0669 113.855 30.0918 113.753 30.1416C113.65 30.1885 113.571 30.2573 113.516 30.3481C113.46 30.436 113.432 30.54 113.432 30.6602H112.167C112.167 30.458 112.213 30.2661 112.307 30.0845C112.401 29.9028 112.537 29.7432 112.716 29.6055C112.895 29.4648 113.107 29.355 113.353 29.2759C113.602 29.1968 113.88 29.1572 114.188 29.1572C114.557 29.1572 114.885 29.2188 115.172 29.3418C115.459 29.4648 115.685 29.6494 115.849 29.8955C116.016 30.1416 116.1 30.4492 116.1 30.8184V32.853C116.1 33.1138 116.116 33.3276 116.148 33.4946C116.18 33.6587 116.227 33.8022 116.289 33.9253V34H115.01C114.948 33.8711 114.901 33.71 114.869 33.5166C114.84 33.3203 114.825 33.124 114.825 32.9277ZM114.992 31.104L115.001 31.8203H114.293C114.126 31.8203 113.981 31.8394 113.858 31.8774C113.735 31.9155 113.634 31.9697 113.555 32.04C113.476 32.1074 113.417 32.1865 113.379 32.2773C113.344 32.3682 113.327 32.4678 113.327 32.5762C113.327 32.6846 113.352 32.7827 113.401 32.8706C113.451 32.9556 113.523 33.0229 113.617 33.0728C113.71 33.1196 113.82 33.1431 113.946 33.1431C114.137 33.1431 114.302 33.105 114.443 33.0288C114.583 32.9526 114.692 32.8589 114.768 32.7476C114.847 32.6362 114.888 32.5308 114.891 32.4312L115.225 32.9673C115.178 33.0874 115.114 33.2119 115.032 33.3408C114.953 33.4697 114.852 33.5913 114.729 33.7056C114.605 33.8169 114.458 33.9092 114.285 33.9824C114.112 34.0527 113.907 34.0879 113.669 34.0879C113.368 34.0879 113.094 34.0278 112.848 33.9077C112.604 33.7847 112.411 33.6162 112.268 33.4023C112.127 33.1855 112.057 32.9395 112.057 32.6641C112.057 32.415 112.104 32.1938 112.197 32.0005C112.291 31.8071 112.429 31.6445 112.61 31.5127C112.795 31.3779 113.025 31.2769 113.3 31.2095C113.576 31.1392 113.895 31.104 114.258 31.104H114.992ZM118.411 27.25V34H117.141V27.25H118.411ZM120.793 29.2451V34H119.523V29.2451H120.793ZM119.444 28.0059C119.444 27.8213 119.508 27.6689 119.637 27.5488C119.766 27.4287 119.939 27.3687 120.156 27.3687C120.37 27.3687 120.541 27.4287 120.67 27.5488C120.802 27.6689 120.868 27.8213 120.868 28.0059C120.868 28.1904 120.802 28.3428 120.67 28.4629C120.541 28.583 120.37 28.6431 120.156 28.6431C119.939 28.6431 119.766 28.583 119.637 28.4629C119.508 28.3428 119.444 28.1904 119.444 28.0059ZM124.168 29.2451V30.1416H121.399V29.2451H124.168ZM122.085 28.0718H123.351V32.5674C123.351 32.7051 123.368 32.8105 123.403 32.8838C123.441 32.957 123.497 33.0083 123.57 33.0376C123.644 33.064 123.736 33.0771 123.847 33.0771C123.926 33.0771 123.997 33.0742 124.058 33.0684C124.123 33.0596 124.177 33.0508 124.221 33.042L124.225 33.9736C124.117 34.0088 124 34.0366 123.874 34.0571C123.748 34.0776 123.608 34.0879 123.456 34.0879C123.178 34.0879 122.935 34.0425 122.727 33.9517C122.521 33.8579 122.363 33.7085 122.252 33.5034C122.141 33.2983 122.085 33.0288 122.085 32.6948V28.0718ZM126.299 33.4639L127.561 29.2451H128.918L127.007 34.7163C126.966 34.8364 126.91 34.9653 126.84 35.103C126.772 35.2407 126.68 35.3711 126.563 35.4941C126.449 35.6201 126.304 35.7227 126.128 35.8018C125.955 35.8809 125.743 35.9204 125.491 35.9204C125.371 35.9204 125.272 35.9131 125.196 35.8984C125.12 35.8838 125.029 35.8633 124.924 35.8369V34.9097C124.956 34.9097 124.99 34.9097 125.025 34.9097C125.06 34.9126 125.094 34.9141 125.126 34.9141C125.293 34.9141 125.429 34.895 125.535 34.8569C125.64 34.8188 125.725 34.7603 125.79 34.6812C125.854 34.605 125.905 34.5054 125.943 34.3823L126.299 33.4639ZM125.772 29.2451L126.805 32.6904L126.985 34.0308L126.124 34.123L124.414 29.2451H125.772ZM133.287 32.9849L134.561 27.6016H135.273L135.436 28.498L134.078 34H133.313L133.287 32.9849ZM132.632 27.6016L133.687 32.9849L133.599 34H132.746L131.327 27.6016H132.632ZM136.556 32.9629L137.598 27.6016H138.903L137.488 34H136.635L136.556 32.9629ZM135.673 27.6016L136.956 33.0068L136.921 34H136.156L134.79 28.4937L134.965 27.6016H135.673ZM141.588 34.0879C141.219 34.0879 140.888 34.0293 140.595 33.9121C140.302 33.792 140.053 33.6265 139.848 33.4155C139.646 33.2046 139.49 32.96 139.382 32.6816C139.273 32.4004 139.219 32.1016 139.219 31.7852V31.6094C139.219 31.249 139.271 30.9194 139.373 30.6206C139.476 30.3218 139.622 30.0625 139.812 29.8428C140.006 29.623 140.24 29.4546 140.516 29.3374C140.791 29.2173 141.102 29.1572 141.447 29.1572C141.784 29.1572 142.083 29.2129 142.344 29.3242C142.604 29.4355 142.823 29.5938 142.999 29.7988C143.177 30.0039 143.312 30.25 143.403 30.5371C143.494 30.8213 143.539 31.1377 143.539 31.4863V32.0137H139.76V31.1699H142.295V31.0732C142.295 30.8975 142.263 30.7407 142.199 30.603C142.137 30.4624 142.043 30.3511 141.917 30.269C141.792 30.187 141.63 30.146 141.434 30.146C141.267 30.146 141.124 30.1826 141.003 30.2559C140.883 30.3291 140.785 30.4316 140.709 30.5635C140.636 30.6953 140.58 30.8506 140.542 31.0293C140.507 31.2051 140.489 31.3984 140.489 31.6094V31.7852C140.489 31.9756 140.516 32.1514 140.568 32.3125C140.624 32.4736 140.702 32.6128 140.801 32.73C140.904 32.8472 141.027 32.938 141.17 33.0024C141.317 33.0669 141.482 33.0991 141.667 33.0991C141.896 33.0991 142.108 33.0552 142.304 32.9673C142.503 32.8765 142.675 32.7402 142.818 32.5586L143.434 33.2266C143.334 33.3701 143.198 33.5078 143.025 33.6396C142.855 33.7715 142.65 33.8799 142.41 33.9648C142.169 34.0469 141.896 34.0879 141.588 34.0879ZM144.26 27.25H145.525V32.9102L145.398 34H144.26V27.25ZM148.536 31.5742V31.6665C148.536 32.021 148.498 32.3462 148.421 32.6421C148.348 32.938 148.234 33.1943 148.079 33.4111C147.923 33.625 147.73 33.792 147.499 33.9121C147.27 34.0293 147 34.0879 146.69 34.0879C146.4 34.0879 146.148 34.0293 145.934 33.9121C145.723 33.7949 145.546 33.6294 145.402 33.4155C145.259 33.2017 145.143 32.9512 145.055 32.6641C144.967 32.377 144.901 32.0635 144.857 31.7236V31.5215C144.901 31.1816 144.967 30.8682 145.055 30.5811C145.143 30.2939 145.259 30.0435 145.402 29.8296C145.546 29.6157 145.723 29.4502 145.934 29.333C146.145 29.2158 146.394 29.1572 146.681 29.1572C146.995 29.1572 147.267 29.2173 147.499 29.3374C147.733 29.4546 147.926 29.6216 148.079 29.8384C148.234 30.0522 148.348 30.3071 148.421 30.603C148.498 30.896 148.536 31.2197 148.536 31.5742ZM147.27 31.6665V31.5742C147.27 31.3809 147.255 31.1992 147.226 31.0293C147.2 30.8564 147.153 30.7056 147.085 30.5767C147.018 30.4448 146.926 30.3408 146.809 30.2646C146.694 30.1885 146.546 30.1504 146.365 30.1504C146.192 30.1504 146.045 30.1797 145.925 30.2383C145.805 30.2969 145.706 30.3789 145.626 30.4844C145.55 30.5898 145.493 30.7158 145.455 30.8623C145.417 31.0059 145.394 31.1641 145.385 31.3369V31.9126C145.394 32.144 145.432 32.3491 145.499 32.5278C145.569 32.7036 145.675 32.8428 145.815 32.9453C145.959 33.0449 146.145 33.0947 146.374 33.0947C146.552 33.0947 146.7 33.0596 146.817 32.9893C146.935 32.9189 147.025 32.8193 147.09 32.6904C147.157 32.5615 147.204 32.4106 147.23 32.2378C147.257 32.062 147.27 31.8716 147.27 31.6665ZM151.893 32.686C151.893 32.5952 151.867 32.5132 151.814 32.4399C151.761 32.3667 151.663 32.2993 151.52 32.2378C151.379 32.1733 151.175 32.1147 150.909 32.062C150.668 32.0093 150.444 31.9434 150.236 31.8643C150.031 31.7822 149.853 31.6841 149.7 31.5698C149.551 31.4556 149.434 31.3208 149.349 31.1655C149.264 31.0073 149.221 30.8271 149.221 30.625C149.221 30.4258 149.264 30.2383 149.349 30.0625C149.437 29.8867 149.561 29.7314 149.722 29.5967C149.886 29.459 150.085 29.3521 150.32 29.2759C150.557 29.1968 150.824 29.1572 151.12 29.1572C151.533 29.1572 151.887 29.2231 152.183 29.355C152.482 29.4868 152.71 29.6685 152.869 29.8999C153.03 30.1284 153.11 30.3892 153.11 30.6821H151.845C151.845 30.5591 151.818 30.4492 151.766 30.3525C151.716 30.2529 151.637 30.1753 151.528 30.1196C151.423 30.061 151.285 30.0317 151.115 30.0317C150.975 30.0317 150.853 30.0566 150.75 30.1064C150.648 30.1533 150.569 30.2178 150.513 30.2998C150.46 30.3789 150.434 30.4668 150.434 30.5635C150.434 30.6367 150.449 30.7026 150.478 30.7612C150.51 30.8169 150.562 30.8682 150.632 30.915C150.702 30.9619 150.793 31.0059 150.904 31.0469C151.019 31.085 151.159 31.1201 151.326 31.1523C151.669 31.2227 151.975 31.3149 152.245 31.4292C152.514 31.5405 152.728 31.6929 152.886 31.8862C153.044 32.0767 153.124 32.3271 153.124 32.6377C153.124 32.8486 153.077 33.042 152.983 33.2178C152.889 33.3936 152.754 33.5474 152.579 33.6792C152.403 33.8081 152.192 33.9092 151.946 33.9824C151.703 34.0527 151.429 34.0879 151.124 34.0879C150.682 34.0879 150.307 34.0088 149.999 33.8506C149.694 33.6924 149.463 33.4917 149.305 33.2485C149.149 33.0024 149.072 32.7505 149.072 32.4927H150.271C150.277 32.6655 150.321 32.8047 150.403 32.9102C150.488 33.0156 150.595 33.0918 150.724 33.1387C150.856 33.1855 150.998 33.209 151.15 33.209C151.314 33.209 151.451 33.187 151.559 33.1431C151.667 33.0962 151.75 33.0347 151.805 32.9585C151.864 32.8794 151.893 32.7886 151.893 32.686ZM155.281 29.2451V34H154.011V29.2451H155.281ZM153.932 28.0059C153.932 27.8213 153.997 27.6689 154.125 27.5488C154.254 27.4287 154.427 27.3687 154.644 27.3687C154.858 27.3687 155.029 27.4287 155.158 27.5488C155.29 27.6689 155.356 27.8213 155.356 28.0059C155.356 28.1904 155.29 28.3428 155.158 28.4629C155.029 28.583 154.858 28.6431 154.644 28.6431C154.427 28.6431 154.254 28.583 154.125 28.4629C153.997 28.3428 153.932 28.1904 153.932 28.0059ZM158.656 29.2451V30.1416H155.888V29.2451H158.656ZM156.573 28.0718H157.839V32.5674C157.839 32.7051 157.856 32.8105 157.892 32.8838C157.93 32.957 157.985 33.0083 158.059 33.0376C158.132 33.064 158.224 33.0771 158.335 33.0771C158.415 33.0771 158.485 33.0742 158.546 33.0684C158.611 33.0596 158.665 33.0508 158.709 33.042L158.713 33.9736C158.605 34.0088 158.488 34.0366 158.362 34.0571C158.236 34.0776 158.097 34.0879 157.944 34.0879C157.666 34.0879 157.423 34.0425 157.215 33.9517C157.01 33.8579 156.852 33.7085 156.74 33.5034C156.629 33.2983 156.573 33.0288 156.573 32.6948V28.0718ZM161.565 34.0879C161.196 34.0879 160.865 34.0293 160.572 33.9121C160.279 33.792 160.03 33.6265 159.825 33.4155C159.623 33.2046 159.468 32.96 159.359 32.6816C159.251 32.4004 159.197 32.1016 159.197 31.7852V31.6094C159.197 31.249 159.248 30.9194 159.351 30.6206C159.453 30.3218 159.6 30.0625 159.79 29.8428C159.983 29.623 160.218 29.4546 160.493 29.3374C160.769 29.2173 161.079 29.1572 161.425 29.1572C161.762 29.1572 162.061 29.2129 162.321 29.3242C162.582 29.4355 162.8 29.5938 162.976 29.7988C163.155 30.0039 163.29 30.25 163.38 30.5371C163.471 30.8213 163.517 31.1377 163.517 31.4863V32.0137H159.737V31.1699H162.273V31.0732C162.273 30.8975 162.241 30.7407 162.176 30.603C162.115 30.4624 162.021 30.3511 161.895 30.269C161.769 30.187 161.608 30.146 161.412 30.146C161.245 30.146 161.101 30.1826 160.981 30.2559C160.861 30.3291 160.763 30.4316 160.687 30.5635C160.613 30.6953 160.558 30.8506 160.52 31.0293C160.484 31.2051 160.467 31.3984 160.467 31.6094V31.7852C160.467 31.9756 160.493 32.1514 160.546 32.3125C160.602 32.4736 160.679 32.6128 160.779 32.73C160.881 32.8472 161.004 32.938 161.148 33.0024C161.294 33.0669 161.46 33.0991 161.645 33.0991C161.873 33.0991 162.085 33.0552 162.282 32.9673C162.481 32.8765 162.652 32.7402 162.796 32.5586L163.411 33.2266C163.312 33.3701 163.175 33.5078 163.002 33.6396C162.833 33.7715 162.627 33.8799 162.387 33.9648C162.147 34.0469 161.873 34.0879 161.565 34.0879ZM166.808 32.686C166.808 32.5952 166.782 32.5132 166.729 32.4399C166.676 32.3667 166.578 32.2993 166.435 32.2378C166.294 32.1733 166.09 32.1147 165.824 32.062C165.583 32.0093 165.359 31.9434 165.151 31.8643C164.946 31.7822 164.768 31.6841 164.615 31.5698C164.466 31.4556 164.349 31.3208 164.264 31.1655C164.179 31.0073 164.136 30.8271 164.136 30.625C164.136 30.4258 164.179 30.2383 164.264 30.0625C164.352 29.8867 164.476 29.7314 164.637 29.5967C164.801 29.459 165 29.3521 165.235 29.2759C165.472 29.1968 165.739 29.1572 166.035 29.1572C166.448 29.1572 166.802 29.2231 167.098 29.355C167.397 29.4868 167.625 29.6685 167.784 29.8999C167.945 30.1284 168.025 30.3892 168.025 30.6821H166.76C166.76 30.5591 166.733 30.4492 166.681 30.3525C166.631 30.2529 166.552 30.1753 166.443 30.1196C166.338 30.061 166.2 30.0317 166.03 30.0317C165.89 30.0317 165.768 30.0566 165.666 30.1064C165.563 30.1533 165.484 30.2178 165.428 30.2998C165.375 30.3789 165.349 30.4668 165.349 30.5635C165.349 30.6367 165.364 30.7026 165.393 30.7612C165.425 30.8169 165.477 30.8682 165.547 30.915C165.617 30.9619 165.708 31.0059 165.819 31.0469C165.934 31.085 166.074 31.1201 166.241 31.1523C166.584 31.2227 166.89 31.3149 167.16 31.4292C167.429 31.5405 167.643 31.6929 167.801 31.8862C167.959 32.0767 168.039 32.3271 168.039 32.6377C168.039 32.8486 167.992 33.042 167.898 33.2178C167.804 33.3936 167.669 33.5474 167.494 33.6792C167.318 33.8081 167.107 33.9092 166.861 33.9824C166.618 34.0527 166.344 34.0879 166.039 34.0879C165.597 34.0879 165.222 34.0088 164.914 33.8506C164.609 33.6924 164.378 33.4917 164.22 33.2485C164.064 33.0024 163.987 32.7505 163.987 32.4927H165.187C165.192 32.6655 165.236 32.8047 165.318 32.9102C165.403 33.0156 165.51 33.0918 165.639 33.1387C165.771 33.1855 165.913 33.209 166.065 33.209C166.229 33.209 166.366 33.187 166.474 33.1431C166.583 33.0962 166.665 33.0347 166.72 32.9585C166.779 32.8794 166.808 32.7886 166.808 32.686ZM31.105 45H29.8306V39.8232C29.8306 39.4629 29.9009 39.1597 30.0415 38.9136C30.1851 38.6646 30.3857 38.4771 30.6436 38.3511C30.9043 38.2222 31.2134 38.1577 31.5708 38.1577C31.688 38.1577 31.8008 38.1665 31.9092 38.1841C32.0176 38.1987 32.123 38.2178 32.2256 38.2412L32.2124 39.1948C32.1567 39.1802 32.0981 39.1699 32.0366 39.1641C31.9751 39.1582 31.9033 39.1553 31.8213 39.1553C31.6689 39.1553 31.5386 39.1816 31.4302 39.2344C31.3247 39.2842 31.2441 39.3589 31.1885 39.4585C31.1328 39.5581 31.105 39.6797 31.105 39.8232V45ZM32.0542 40.2451V41.1416H29.123V40.2451H32.0542ZM32.5156 42.6709V42.5786C32.5156 42.23 32.5654 41.9092 32.665 41.6162C32.7646 41.3203 32.9097 41.064 33.1001 40.8472C33.2905 40.6304 33.5249 40.4619 33.8032 40.3418C34.0815 40.2188 34.4009 40.1572 34.7612 40.1572C35.1216 40.1572 35.4424 40.2188 35.7236 40.3418C36.0049 40.4619 36.2407 40.6304 36.4312 40.8472C36.6245 41.064 36.771 41.3203 36.8706 41.6162C36.9702 41.9092 37.02 42.23 37.02 42.5786V42.6709C37.02 43.0166 36.9702 43.3374 36.8706 43.6333C36.771 43.9263 36.6245 44.1826 36.4312 44.4023C36.2407 44.6191 36.0063 44.7876 35.728 44.9077C35.4497 45.0278 35.1304 45.0879 34.77 45.0879C34.4097 45.0879 34.0889 45.0278 33.8076 44.9077C33.5293 44.7876 33.2935 44.6191 33.1001 44.4023C32.9097 44.1826 32.7646 43.9263 32.665 43.6333C32.5654 43.3374 32.5156 43.0166 32.5156 42.6709ZM33.7812 42.5786V42.6709C33.7812 42.8701 33.7988 43.0562 33.834 43.229C33.8691 43.4019 33.9248 43.5542 34.001 43.686C34.0801 43.8149 34.1826 43.916 34.3086 43.9893C34.4346 44.0625 34.5884 44.0991 34.77 44.0991C34.9458 44.0991 35.0967 44.0625 35.2227 43.9893C35.3486 43.916 35.4497 43.8149 35.5259 43.686C35.6021 43.5542 35.6577 43.4019 35.6929 43.229C35.731 43.0562 35.75 42.8701 35.75 42.6709V42.5786C35.75 42.3853 35.731 42.2036 35.6929 42.0337C35.6577 41.8608 35.6006 41.7085 35.5215 41.5767C35.4453 41.4419 35.3442 41.3364 35.2183 41.2603C35.0923 41.1841 34.9399 41.146 34.7612 41.146C34.5825 41.146 34.4302 41.1841 34.3042 41.2603C34.1812 41.3364 34.0801 41.4419 34.001 41.5767C33.9248 41.7085 33.8691 41.8608 33.834 42.0337C33.7988 42.2036 33.7812 42.3853 33.7812 42.5786ZM39.0635 41.2822V45H37.7979V40.2451H38.9888L39.0635 41.2822ZM40.4961 40.2144L40.4741 41.3877C40.4126 41.3789 40.3379 41.3716 40.25 41.3657C40.165 41.3569 40.0874 41.3525 40.0171 41.3525C39.8384 41.3525 39.6831 41.376 39.5513 41.4229C39.4224 41.4668 39.314 41.5327 39.2261 41.6206C39.1411 41.7085 39.0767 41.8154 39.0327 41.9414C38.9917 42.0674 38.9683 42.2109 38.9624 42.3721L38.7075 42.293C38.7075 41.9854 38.7383 41.7026 38.7998 41.4448C38.8613 41.1841 38.9507 40.957 39.0679 40.7637C39.188 40.5703 39.3345 40.4209 39.5073 40.3154C39.6802 40.21 39.8779 40.1572 40.1006 40.1572C40.1709 40.1572 40.2427 40.1631 40.3159 40.1748C40.3892 40.1836 40.4492 40.1968 40.4961 40.2144ZM45.9058 42.7192H44.2754V41.6909H45.9058C46.1577 41.6909 46.3628 41.6499 46.521 41.5679C46.6792 41.4829 46.7949 41.3657 46.8682 41.2163C46.9414 41.0669 46.978 40.8984 46.978 40.7109C46.978 40.5205 46.9414 40.3433 46.8682 40.1792C46.7949 40.0151 46.6792 39.8833 46.521 39.7837C46.3628 39.6841 46.1577 39.6343 45.9058 39.6343H44.7324V45H43.4141V38.6016H45.9058C46.4067 38.6016 46.8359 38.6924 47.1934 38.874C47.5537 39.0527 47.8291 39.3003 48.0195 39.6167C48.21 39.9331 48.3052 40.2949 48.3052 40.7021C48.3052 41.1152 48.21 41.4727 48.0195 41.7744C47.8291 42.0762 47.5537 42.3091 47.1934 42.4731C46.8359 42.6372 46.4067 42.7192 45.9058 42.7192ZM50.4014 41.2822V45H49.1357V40.2451H50.3267L50.4014 41.2822ZM51.834 40.2144L51.812 41.3877C51.7505 41.3789 51.6758 41.3716 51.5879 41.3657C51.5029 41.3569 51.4253 41.3525 51.355 41.3525C51.1763 41.3525 51.021 41.376 50.8892 41.4229C50.7603 41.4668 50.6519 41.5327 50.564 41.6206C50.479 41.7085 50.4146 41.8154 50.3706 41.9414C50.3296 42.0674 50.3062 42.2109 50.3003 42.3721L50.0454 42.293C50.0454 41.9854 50.0762 41.7026 50.1377 41.4448C50.1992 41.1841 50.2886 40.957 50.4058 40.7637C50.5259 40.5703 50.6724 40.4209 50.8452 40.3154C51.0181 40.21 51.2158 40.1572 51.4385 40.1572C51.5088 40.1572 51.5806 40.1631 51.6538 40.1748C51.7271 40.1836 51.7871 40.1968 51.834 40.2144ZM52.0977 42.6709V42.5786C52.0977 42.23 52.1475 41.9092 52.2471 41.6162C52.3467 41.3203 52.4917 41.064 52.6821 40.8472C52.8726 40.6304 53.1069 40.4619 53.3853 40.3418C53.6636 40.2188 53.9829 40.1572 54.3433 40.1572C54.7036 40.1572 55.0244 40.2188 55.3057 40.3418C55.5869 40.4619 55.8228 40.6304 56.0132 40.8472C56.2065 41.064 56.353 41.3203 56.4526 41.6162C56.5522 41.9092 56.6021 42.23 56.6021 42.5786V42.6709C56.6021 43.0166 56.5522 43.3374 56.4526 43.6333C56.353 43.9263 56.2065 44.1826 56.0132 44.4023C55.8228 44.6191 55.5884 44.7876 55.3101 44.9077C55.0317 45.0278 54.7124 45.0879 54.3521 45.0879C53.9917 45.0879 53.6709 45.0278 53.3896 44.9077C53.1113 44.7876 52.8755 44.6191 52.6821 44.4023C52.4917 44.1826 52.3467 43.9263 52.2471 43.6333C52.1475 43.3374 52.0977 43.0166 52.0977 42.6709ZM53.3633 42.5786V42.6709C53.3633 42.8701 53.3809 43.0562 53.416 43.229C53.4512 43.4019 53.5068 43.5542 53.583 43.686C53.6621 43.8149 53.7646 43.916 53.8906 43.9893C54.0166 44.0625 54.1704 44.0991 54.3521 44.0991C54.5278 44.0991 54.6787 44.0625 54.8047 43.9893C54.9307 43.916 55.0317 43.8149 55.1079 43.686C55.1841 43.5542 55.2397 43.4019 55.2749 43.229C55.313 43.0562 55.332 42.8701 55.332 42.6709V42.5786C55.332 42.3853 55.313 42.2036 55.2749 42.0337C55.2397 41.8608 55.1826 41.7085 55.1035 41.5767C55.0273 41.4419 54.9263 41.3364 54.8003 41.2603C54.6743 41.1841 54.522 41.146 54.3433 41.146C54.1646 41.146 54.0122 41.1841 53.8862 41.2603C53.7632 41.3364 53.6621 41.4419 53.583 41.5767C53.5068 41.7085 53.4512 41.8608 53.416 42.0337C53.3809 42.2036 53.3633 42.3853 53.3633 42.5786ZM58.9927 45H57.7183V39.8232C57.7183 39.4629 57.7886 39.1597 57.9292 38.9136C58.0728 38.6646 58.2734 38.4771 58.5312 38.3511C58.792 38.2222 59.1011 38.1577 59.4585 38.1577C59.5757 38.1577 59.6885 38.1665 59.7969 38.1841C59.9053 38.1987 60.0107 38.2178 60.1133 38.2412L60.1001 39.1948C60.0444 39.1802 59.9858 39.1699 59.9243 39.1641C59.8628 39.1582 59.791 39.1553 59.709 39.1553C59.5566 39.1553 59.4263 39.1816 59.3179 39.2344C59.2124 39.2842 59.1318 39.3589 59.0762 39.4585C59.0205 39.5581 58.9927 39.6797 58.9927 39.8232V45ZM59.9419 40.2451V41.1416H57.0107V40.2451H59.9419ZM62.6885 45.0879C62.3193 45.0879 61.9883 45.0293 61.6953 44.9121C61.4023 44.792 61.1533 44.6265 60.9482 44.4155C60.7461 44.2046 60.5908 43.96 60.4824 43.6816C60.374 43.4004 60.3198 43.1016 60.3198 42.7852V42.6094C60.3198 42.249 60.3711 41.9194 60.4736 41.6206C60.5762 41.3218 60.7227 41.0625 60.9131 40.8428C61.1064 40.623 61.3408 40.4546 61.6162 40.3374C61.8916 40.2173 62.2021 40.1572 62.5479 40.1572C62.8848 40.1572 63.1836 40.2129 63.4443 40.3242C63.7051 40.4355 63.9233 40.5938 64.0991 40.7988C64.2778 41.0039 64.4126 41.25 64.5034 41.5371C64.5942 41.8213 64.6396 42.1377 64.6396 42.4863V43.0137H60.8604V42.1699H63.396V42.0732C63.396 41.8975 63.3638 41.7407 63.2993 41.603C63.2378 41.4624 63.144 41.3511 63.0181 41.269C62.8921 41.187 62.731 41.146 62.5347 41.146C62.3677 41.146 62.2241 41.1826 62.104 41.2559C61.9839 41.3291 61.8857 41.4316 61.8096 41.5635C61.7363 41.6953 61.6807 41.8506 61.6426 42.0293C61.6074 42.2051 61.5898 42.3984 61.5898 42.6094V42.7852C61.5898 42.9756 61.6162 43.1514 61.6689 43.3125C61.7246 43.4736 61.8022 43.6128 61.9019 43.73C62.0044 43.8472 62.1274 43.938 62.271 44.0024C62.4175 44.0669 62.583 44.0991 62.7676 44.0991C62.9961 44.0991 63.2085 44.0552 63.4048 43.9673C63.604 43.8765 63.7754 43.7402 63.9189 43.5586L64.5342 44.2266C64.4346 44.3701 64.2983 44.5078 64.1255 44.6396C63.9556 44.7715 63.7505 44.8799 63.5103 44.9648C63.27 45.0469 62.9961 45.0879 62.6885 45.0879ZM67.9312 43.686C67.9312 43.5952 67.9048 43.5132 67.8521 43.4399C67.7993 43.3667 67.7012 43.2993 67.5576 43.2378C67.417 43.1733 67.2134 43.1147 66.9468 43.062C66.7065 43.0093 66.4824 42.9434 66.2744 42.8643C66.0693 42.7822 65.8906 42.6841 65.7383 42.5698C65.5889 42.4556 65.4717 42.3208 65.3867 42.1655C65.3018 42.0073 65.2593 41.8271 65.2593 41.625C65.2593 41.4258 65.3018 41.2383 65.3867 41.0625C65.4746 40.8867 65.5991 40.7314 65.7603 40.5967C65.9243 40.459 66.1235 40.3521 66.3579 40.2759C66.5952 40.1968 66.8618 40.1572 67.1577 40.1572C67.5708 40.1572 67.9253 40.2231 68.2212 40.355C68.52 40.4868 68.7485 40.6685 68.9067 40.8999C69.0679 41.1284 69.1484 41.3892 69.1484 41.6821H67.8828C67.8828 41.5591 67.8564 41.4492 67.8037 41.3525C67.7539 41.2529 67.6748 41.1753 67.5664 41.1196C67.4609 41.061 67.3232 41.0317 67.1533 41.0317C67.0127 41.0317 66.8911 41.0566 66.7886 41.1064C66.686 41.1533 66.6069 41.2178 66.5513 41.2998C66.4985 41.3789 66.4722 41.4668 66.4722 41.5635C66.4722 41.6367 66.4868 41.7026 66.5161 41.7612C66.5483 41.8169 66.5996 41.8682 66.6699 41.915C66.7402 41.9619 66.8311 42.0059 66.9424 42.0469C67.0566 42.085 67.1973 42.1201 67.3643 42.1523C67.707 42.2227 68.0132 42.3149 68.2827 42.4292C68.5522 42.5405 68.7661 42.6929 68.9243 42.8862C69.0825 43.0767 69.1616 43.3271 69.1616 43.6377C69.1616 43.8486 69.1147 44.042 69.021 44.2178C68.9272 44.3936 68.7925 44.5474 68.6167 44.6792C68.4409 44.8081 68.23 44.9092 67.9839 44.9824C67.7407 45.0527 67.4668 45.0879 67.1621 45.0879C66.7197 45.0879 66.3447 45.0088 66.0371 44.8506C65.7324 44.6924 65.501 44.4917 65.3428 44.2485C65.1875 44.0024 65.1099 43.7505 65.1099 43.4927H66.3096C66.3154 43.6655 66.3594 43.8047 66.4414 43.9102C66.5264 44.0156 66.6333 44.0918 66.7622 44.1387C66.894 44.1855 67.0361 44.209 67.1885 44.209C67.3525 44.209 67.4888 44.187 67.5972 44.1431C67.7056 44.0962 67.7876 44.0347 67.8433 43.9585C67.9019 43.8794 67.9312 43.7886 67.9312 43.686ZM72.5542 43.686C72.5542 43.5952 72.5278 43.5132 72.4751 43.4399C72.4224 43.3667 72.3242 43.2993 72.1807 43.2378C72.04 43.1733 71.8364 43.1147 71.5698 43.062C71.3296 43.0093 71.1055 42.9434 70.8975 42.8643C70.6924 42.7822 70.5137 42.6841 70.3613 42.5698C70.2119 42.4556 70.0947 42.3208 70.0098 42.1655C69.9248 42.0073 69.8823 41.8271 69.8823 41.625C69.8823 41.4258 69.9248 41.2383 70.0098 41.0625C70.0977 40.8867 70.2222 40.7314 70.3833 40.5967C70.5474 40.459 70.7466 40.3521 70.981 40.2759C71.2183 40.1968 71.4849 40.1572 71.7808 40.1572C72.1938 40.1572 72.5483 40.2231 72.8442 40.355C73.1431 40.4868 73.3716 40.6685 73.5298 40.8999C73.6909 41.1284 73.7715 41.3892 73.7715 41.6821H72.5059C72.5059 41.5591 72.4795 41.4492 72.4268 41.3525C72.377 41.2529 72.2979 41.1753 72.1895 41.1196C72.084 41.061 71.9463 41.0317 71.7764 41.0317C71.6357 41.0317 71.5142 41.0566 71.4116 41.1064C71.3091 41.1533 71.23 41.2178 71.1743 41.2998C71.1216 41.3789 71.0952 41.4668 71.0952 41.5635C71.0952 41.6367 71.1099 41.7026 71.1392 41.7612C71.1714 41.8169 71.2227 41.8682 71.293 41.915C71.3633 41.9619 71.4541 42.0059 71.5654 42.0469C71.6797 42.085 71.8203 42.1201 71.9873 42.1523C72.3301 42.2227 72.6362 42.3149 72.9058 42.4292C73.1753 42.5405 73.3892 42.6929 73.5474 42.8862C73.7056 43.0767 73.7847 43.3271 73.7847 43.6377C73.7847 43.8486 73.7378 44.042 73.644 44.2178C73.5503 44.3936 73.4155 44.5474 73.2397 44.6792C73.064 44.8081 72.853 44.9092 72.6069 44.9824C72.3638 45.0527 72.0898 45.0879 71.7852 45.0879C71.3428 45.0879 70.9678 45.0088 70.6602 44.8506C70.3555 44.6924 70.124 44.4917 69.9658 44.2485C69.8105 44.0024 69.7329 43.7505 69.7329 43.4927H70.9326C70.9385 43.6655 70.9824 43.8047 71.0645 43.9102C71.1494 44.0156 71.2563 44.0918 71.3853 44.1387C71.5171 44.1855 71.6592 44.209 71.8115 44.209C71.9756 44.209 72.1118 44.187 72.2202 44.1431C72.3286 44.0962 72.4106 44.0347 72.4663 43.9585C72.5249 43.8794 72.5542 43.7886 72.5542 43.686ZM75.9424 40.2451V45H74.6724V40.2451H75.9424ZM74.5933 39.0059C74.5933 38.8213 74.6577 38.6689 74.7866 38.5488C74.9155 38.4287 75.0884 38.3687 75.3052 38.3687C75.519 38.3687 75.6904 38.4287 75.8193 38.5488C75.9512 38.6689 76.0171 38.8213 76.0171 39.0059C76.0171 39.1904 75.9512 39.3428 75.8193 39.4629C75.6904 39.583 75.519 39.6431 75.3052 39.6431C75.0884 39.6431 74.9155 39.583 74.7866 39.4629C74.6577 39.3428 74.5933 39.1904 74.5933 39.0059ZM76.7861 42.6709V42.5786C76.7861 42.23 76.8359 41.9092 76.9355 41.6162C77.0352 41.3203 77.1802 41.064 77.3706 40.8472C77.561 40.6304 77.7954 40.4619 78.0737 40.3418C78.3521 40.2188 78.6714 40.1572 79.0317 40.1572C79.3921 40.1572 79.7129 40.2188 79.9941 40.3418C80.2754 40.4619 80.5112 40.6304 80.7017 40.8472C80.895 41.064 81.0415 41.3203 81.1411 41.6162C81.2407 41.9092 81.2905 42.23 81.2905 42.5786V42.6709C81.2905 43.0166 81.2407 43.3374 81.1411 43.6333C81.0415 43.9263 80.895 44.1826 80.7017 44.4023C80.5112 44.6191 80.2769 44.7876 79.9985 44.9077C79.7202 45.0278 79.4009 45.0879 79.0405 45.0879C78.6802 45.0879 78.3594 45.0278 78.0781 44.9077C77.7998 44.7876 77.564 44.6191 77.3706 44.4023C77.1802 44.1826 77.0352 43.9263 76.9355 43.6333C76.8359 43.3374 76.7861 43.0166 76.7861 42.6709ZM78.0518 42.5786V42.6709C78.0518 42.8701 78.0693 43.0562 78.1045 43.229C78.1396 43.4019 78.1953 43.5542 78.2715 43.686C78.3506 43.8149 78.4531 43.916 78.5791 43.9893C78.7051 44.0625 78.8589 44.0991 79.0405 44.0991C79.2163 44.0991 79.3672 44.0625 79.4932 43.9893C79.6191 43.916 79.7202 43.8149 79.7964 43.686C79.8726 43.5542 79.9282 43.4019 79.9634 43.229C80.0015 43.0562 80.0205 42.8701 80.0205 42.6709V42.5786C80.0205 42.3853 80.0015 42.2036 79.9634 42.0337C79.9282 41.8608 79.8711 41.7085 79.792 41.5767C79.7158 41.4419 79.6147 41.3364 79.4888 41.2603C79.3628 41.1841 79.2104 41.146 79.0317 41.146C78.853 41.146 78.7007 41.1841 78.5747 41.2603C78.4517 41.3364 78.3506 41.4419 78.2715 41.5767C78.1953 41.7085 78.1396 41.8608 78.1045 42.0337C78.0693 42.2036 78.0518 42.3853 78.0518 42.5786ZM83.3076 41.2603V45H82.042V40.2451H83.2285L83.3076 41.2603ZM83.123 42.4556H82.7803C82.7803 42.104 82.8257 41.7876 82.9165 41.5063C83.0073 41.2222 83.1348 40.9805 83.2988 40.7812C83.4629 40.5791 83.6577 40.4253 83.8833 40.3198C84.1118 40.2114 84.3667 40.1572 84.6479 40.1572C84.8706 40.1572 85.0742 40.1895 85.2588 40.2539C85.4434 40.3184 85.6016 40.4209 85.7334 40.5615C85.8682 40.7021 85.9707 40.8882 86.041 41.1196C86.1143 41.3511 86.1509 41.6338 86.1509 41.9678V45H84.8765V41.9634C84.8765 41.7524 84.8472 41.5884 84.7886 41.4712C84.73 41.354 84.6436 41.272 84.5293 41.2251C84.418 41.1753 84.2803 41.1504 84.1162 41.1504C83.9463 41.1504 83.7983 41.1841 83.6724 41.2515C83.5493 41.3188 83.4468 41.4126 83.3647 41.5327C83.2856 41.6499 83.2256 41.7876 83.1846 41.9458C83.1436 42.104 83.123 42.2739 83.123 42.4556ZM89.6797 43.9277V41.8096C89.6797 41.6572 89.6548 41.5269 89.605 41.4185C89.5552 41.3071 89.4775 41.2207 89.3721 41.1592C89.2695 41.0977 89.1362 41.0669 88.9722 41.0669C88.8315 41.0669 88.71 41.0918 88.6074 41.1416C88.5049 41.1885 88.4258 41.2573 88.3701 41.3481C88.3145 41.436 88.2866 41.54 88.2866 41.6602H87.021C87.021 41.458 87.0679 41.2661 87.1616 41.0845C87.2554 40.9028 87.3916 40.7432 87.5703 40.6055C87.749 40.4648 87.9614 40.355 88.2075 40.2759C88.4565 40.1968 88.7349 40.1572 89.0425 40.1572C89.4116 40.1572 89.7397 40.2188 90.0269 40.3418C90.314 40.4648 90.5396 40.6494 90.7036 40.8955C90.8706 41.1416 90.9541 41.4492 90.9541 41.8184V43.853C90.9541 44.1138 90.9702 44.3276 91.0024 44.4946C91.0347 44.6587 91.0815 44.8022 91.1431 44.9253V45H89.8643C89.8027 44.8711 89.7559 44.71 89.7236 44.5166C89.6943 44.3203 89.6797 44.124 89.6797 43.9277ZM89.8467 42.104L89.8555 42.8203H89.1479C88.981 42.8203 88.8359 42.8394 88.7129 42.8774C88.5898 42.9155 88.4888 42.9697 88.4097 43.04C88.3306 43.1074 88.272 43.1865 88.2339 43.2773C88.1987 43.3682 88.1812 43.4678 88.1812 43.5762C88.1812 43.6846 88.2061 43.7827 88.2559 43.8706C88.3057 43.9556 88.3774 44.0229 88.4712 44.0728C88.5649 44.1196 88.6748 44.1431 88.8008 44.1431C88.9912 44.1431 89.1567 44.105 89.2974 44.0288C89.438 43.9526 89.5464 43.8589 89.6226 43.7476C89.7017 43.6362 89.7427 43.5308 89.7456 43.4312L90.0796 43.9673C90.0327 44.0874 89.9683 44.2119 89.8862 44.3408C89.8071 44.4697 89.7061 44.5913 89.583 44.7056C89.46 44.8169 89.312 44.9092 89.1392 44.9824C88.9663 45.0527 88.7612 45.0879 88.5239 45.0879C88.2222 45.0879 87.9482 45.0278 87.7021 44.9077C87.459 44.7847 87.2656 44.6162 87.1221 44.4023C86.9814 44.1855 86.9111 43.9395 86.9111 43.6641C86.9111 43.415 86.958 43.1938 87.0518 43.0005C87.1455 42.8071 87.2832 42.6445 87.4648 42.5127C87.6494 42.3779 87.8794 42.2769 88.1548 42.2095C88.4302 42.1392 88.7495 42.104 89.1128 42.104H89.8467ZM93.2656 38.25V45H91.9956V38.25H93.2656ZM96.8823 43.686C96.8823 43.5952 96.856 43.5132 96.8032 43.4399C96.7505 43.3667 96.6523 43.2993 96.5088 43.2378C96.3682 43.1733 96.1646 43.1147 95.8979 43.062C95.6577 43.0093 95.4336 42.9434 95.2256 42.8643C95.0205 42.7822 94.8418 42.6841 94.6895 42.5698C94.54 42.4556 94.4229 42.3208 94.3379 42.1655C94.2529 42.0073 94.2104 41.8271 94.2104 41.625C94.2104 41.4258 94.2529 41.2383 94.3379 41.0625C94.4258 40.8867 94.5503 40.7314 94.7114 40.5967C94.8755 40.459 95.0747 40.3521 95.3091 40.2759C95.5464 40.1968 95.813 40.1572 96.1089 40.1572C96.522 40.1572 96.8765 40.2231 97.1724 40.355C97.4712 40.4868 97.6997 40.6685 97.8579 40.8999C98.019 41.1284 98.0996 41.3892 98.0996 41.6821H96.834C96.834 41.5591 96.8076 41.4492 96.7549 41.3525C96.7051 41.2529 96.626 41.1753 96.5176 41.1196C96.4121 41.061 96.2744 41.0317 96.1045 41.0317C95.9639 41.0317 95.8423 41.0566 95.7397 41.1064C95.6372 41.1533 95.5581 41.2178 95.5024 41.2998C95.4497 41.3789 95.4233 41.4668 95.4233 41.5635C95.4233 41.6367 95.438 41.7026 95.4673 41.7612C95.4995 41.8169 95.5508 41.8682 95.6211 41.915C95.6914 41.9619 95.7822 42.0059 95.8936 42.0469C96.0078 42.085 96.1484 42.1201 96.3154 42.1523C96.6582 42.2227 96.9644 42.3149 97.2339 42.4292C97.5034 42.5405 97.7173 42.6929 97.8755 42.8862C98.0337 43.0767 98.1128 43.3271 98.1128 43.6377C98.1128 43.8486 98.0659 44.042 97.9722 44.2178C97.8784 44.3936 97.7437 44.5474 97.5679 44.6792C97.3921 44.8081 97.1812 44.9092 96.9351 44.9824C96.6919 45.0527 96.418 45.0879 96.1133 45.0879C95.6709 45.0879 95.2959 45.0088 94.9883 44.8506C94.6836 44.6924 94.4521 44.4917 94.2939 44.2485C94.1387 44.0024 94.061 43.7505 94.061 43.4927H95.2607C95.2666 43.6655 95.3105 43.8047 95.3926 43.9102C95.4775 44.0156 95.5845 44.0918 95.7134 44.1387C95.8452 44.1855 95.9873 44.209 96.1396 44.209C96.3037 44.209 96.4399 44.187 96.5483 44.1431C96.6567 44.0962 96.7388 44.0347 96.7944 43.9585C96.853 43.8794 96.8823 43.7886 96.8823 43.686Z" fill="black"/>
<path d="M23.326 20.8888C24.0261 20.3838 24.8047 19.822 25.6667 19.1868C24.6222 19.4346 23.6924 19.6648 22.8569 19.872C19.0226 20.822 17.1048 21.2969 15.4559 20.6382C13.8098 19.9806 12.626 18.2709 10.2646 14.8541L10.2538 14.8387C9.73601 14.0895 9.16002 13.2563 8.50974 12.3333C8.79414 13.4291 9.0568 14.4047 9.29317 15.2816C10.377 19.3053 10.9188 21.3178 10.3554 23.0016C9.7929 24.6828 8.19521 25.8376 5.00212 28.141L4.98788 28.1517C4.2877 28.6567 3.50901 29.2185 2.64702 29.8536C3.69164 29.606 4.62132 29.3758 5.45696 29.1686C9.2912 28.2186 11.2089 27.7435 12.8578 28.4022C14.5039 29.0598 15.6878 30.7695 18.0491 34.1864L18.06 34.2018C18.5777 34.951 19.1538 35.7842 19.8039 36.7071C19.5196 35.6114 19.2569 34.6359 19.0206 33.7589C17.9367 29.7351 17.3949 27.7226 17.9584 26.0388C18.5209 24.3578 20.1186 23.203 23.3115 20.8995L23.326 20.8888Z" fill="black"/>
</g>
<defs>
<clipPath id="clip0_35_10">
<rect width="180" height="50" fill="white"/>
</clipPath>
</defs>
</svg>
