<?xml version="1.0" encoding="UTF-8"?>
<svg xmlns="http://www.w3.org/2000/svg" xmlns:xlink="http://www.w3.org/1999/xlink" width="3873" height="3873" viewBox="0 0 3873 3873">
<defs>
<clipPath id="clip-0">
<path clip-rule="evenodd" d="M 1936.5 0 C 3006 0 3873 867 3873 1936.5 C 3873 3006 3006 3873 1936.5 3873 C 867 3873 0 3006 0 1936.5 C 0 867 867 0 1936.5 0 "/>
</clipPath>
<radialGradient id="radial-pattern-0" gradientUnits="userSpaceOnUse" cx="0" cy="0" fx="0" fy="0" r="1549.19" gradientTransform="matrix(1, 0, 0, 1, 1936.5, 1936.5)">
<stop offset="0" stop-color="rgb(33.201599%, 33.201599%, 33.201599%)" stop-opacity="1"/>
<stop offset="0.0078125" stop-color="rgb(32.876587%, 32.876587%, 32.876587%)" stop-opacity="1"/>
<stop offset="0.0195312" stop-color="rgb(32.485962%, 32.485962%, 32.485962%)" stop-opacity="1"/>
<stop offset="0.03125" stop-color="rgb(32.095337%, 32.095337%, 32.095337%)" stop-opacity="1"/>
<stop offset="0.0429688" stop-color="rgb(31.704712%, 31.704712%, 31.704712%)" stop-opacity="1"/>
<stop offset="0.0546875" stop-color="rgb(31.314087%, 31.314087%, 31.314087%)" stop-opacity="1"/>
<stop offset="0.0664062" stop-color="rgb(30.923462%, 30.923462%, 30.923462%)" stop-opacity="1"/>
<stop offset="0.078125" stop-color="rgb(30.532837%, 30.532837%, 30.532837%)" stop-opacity="1"/>
<stop offset="0.0898438" stop-color="rgb(30.142212%, 30.142212%, 30.142212%)" stop-opacity="1"/>
<stop offset="0.101562" stop-color="rgb(29.751587%, 29.751587%, 29.751587%)" stop-opacity="1"/>
<stop offset="0.113281" stop-color="rgb(29.360962%, 29.360962%, 29.360962%)" stop-opacity="1"/>
<stop offset="0.125" stop-color="rgb(28.970337%, 28.970337%, 28.970337%)" stop-opacity="1"/>
<stop offset="0.136719" stop-color="rgb(28.579712%, 28.579712%, 28.579712%)" stop-opacity="1"/>
<stop offset="0.148438" stop-color="rgb(28.189087%, 28.189087%, 28.189087%)" stop-opacity="1"/>
<stop offset="0.160156" stop-color="rgb(27.798462%, 27.798462%, 27.798462%)" stop-opacity="1"/>
<stop offset="0.171875" stop-color="rgb(27.407837%, 27.407837%, 27.407837%)" stop-opacity="1"/>
<stop offset="0.183594" stop-color="rgb(27.017212%, 27.017212%, 27.017212%)" stop-opacity="1"/>
<stop offset="0.195312" stop-color="rgb(26.626587%, 26.626587%, 26.626587%)" stop-opacity="1"/>
<stop offset="0.207031" stop-color="rgb(26.235962%, 26.235962%, 26.235962%)" stop-opacity="1"/>
<stop offset="0.21875" stop-color="rgb(25.845337%, 25.845337%, 25.845337%)" stop-opacity="1"/>
<stop offset="0.230469" stop-color="rgb(25.454712%, 25.454712%, 25.454712%)" stop-opacity="1"/>
<stop offset="0.242188" stop-color="rgb(25.064087%, 25.064087%, 25.064087%)" stop-opacity="1"/>
<stop offset="0.253906" stop-color="rgb(24.737549%, 24.737549%, 24.737549%)" stop-opacity="1"/>
<stop offset="0.261719" stop-color="rgb(24.478149%, 24.478149%, 24.478149%)" stop-opacity="1"/>
<stop offset="0.269531" stop-color="rgb(24.217224%, 24.217224%, 24.217224%)" stop-opacity="1"/>
<stop offset="0.277344" stop-color="rgb(23.956299%, 23.956299%, 23.956299%)" stop-opacity="1"/>
<stop offset="0.285156" stop-color="rgb(23.696899%, 23.696899%, 23.696899%)" stop-opacity="1"/>
<stop offset="0.292969" stop-color="rgb(23.435974%, 23.435974%, 23.435974%)" stop-opacity="1"/>
<stop offset="0.300781" stop-color="rgb(23.175049%, 23.175049%, 23.175049%)" stop-opacity="1"/>
<stop offset="0.308594" stop-color="rgb(22.915649%, 22.915649%, 22.915649%)" stop-opacity="1"/>
<stop offset="0.316406" stop-color="rgb(22.654724%, 22.654724%, 22.654724%)" stop-opacity="1"/>
<stop offset="0.324219" stop-color="rgb(22.393799%, 22.393799%, 22.393799%)" stop-opacity="1"/>
<stop offset="0.332031" stop-color="rgb(22.134399%, 22.134399%, 22.134399%)" stop-opacity="1"/>
<stop offset="0.339844" stop-color="rgb(21.873474%, 21.873474%, 21.873474%)" stop-opacity="1"/>
<stop offset="0.347656" stop-color="rgb(21.612549%, 21.612549%, 21.612549%)" stop-opacity="1"/>
<stop offset="0.355469" stop-color="rgb(21.353149%, 21.353149%, 21.353149%)" stop-opacity="1"/>
<stop offset="0.363281" stop-color="rgb(21.092224%, 21.092224%, 21.092224%)" stop-opacity="1"/>
<stop offset="0.371094" stop-color="rgb(20.831299%, 20.831299%, 20.831299%)" stop-opacity="1"/>
<stop offset="0.378906" stop-color="rgb(20.571899%, 20.571899%, 20.571899%)" stop-opacity="1"/>
<stop offset="0.386719" stop-color="rgb(20.310974%, 20.310974%, 20.310974%)" stop-opacity="1"/>
<stop offset="0.394531" stop-color="rgb(20.050049%, 20.050049%, 20.050049%)" stop-opacity="1"/>
<stop offset="0.402344" stop-color="rgb(19.790649%, 19.790649%, 19.790649%)" stop-opacity="1"/>
<stop offset="0.410156" stop-color="rgb(19.529724%, 19.529724%, 19.529724%)" stop-opacity="1"/>
<stop offset="0.417969" stop-color="rgb(19.268799%, 19.268799%, 19.268799%)" stop-opacity="1"/>
<stop offset="0.425781" stop-color="rgb(19.009399%, 19.009399%, 19.009399%)" stop-opacity="1"/>
<stop offset="0.433594" stop-color="rgb(18.748474%, 18.748474%, 18.748474%)" stop-opacity="1"/>
<stop offset="0.441406" stop-color="rgb(18.487549%, 18.487549%, 18.487549%)" stop-opacity="1"/>
<stop offset="0.449219" stop-color="rgb(18.228149%, 18.228149%, 18.228149%)" stop-opacity="1"/>
<stop offset="0.457031" stop-color="rgb(17.967224%, 17.967224%, 17.967224%)" stop-opacity="1"/>
<stop offset="0.464844" stop-color="rgb(17.706299%, 17.706299%, 17.706299%)" stop-opacity="1"/>
<stop offset="0.472656" stop-color="rgb(17.446899%, 17.446899%, 17.446899%)" stop-opacity="1"/>
<stop offset="0.480469" stop-color="rgb(17.185974%, 17.185974%, 17.185974%)" stop-opacity="1"/>
<stop offset="0.488281" stop-color="rgb(16.925049%, 16.925049%, 16.925049%)" stop-opacity="1"/>
<stop offset="0.496094" stop-color="rgb(16.665649%, 16.665649%, 16.665649%)" stop-opacity="1"/>
<stop offset="0.503906" stop-color="rgb(16.340637%, 16.340637%, 16.340637%)" stop-opacity="1"/>
<stop offset="0.515625" stop-color="rgb(15.950012%, 15.950012%, 15.950012%)" stop-opacity="1"/>
<stop offset="0.527344" stop-color="rgb(15.559387%, 15.559387%, 15.559387%)" stop-opacity="1"/>
<stop offset="0.539062" stop-color="rgb(15.168762%, 15.168762%, 15.168762%)" stop-opacity="1"/>
<stop offset="0.550781" stop-color="rgb(14.778137%, 14.778137%, 14.778137%)" stop-opacity="1"/>
<stop offset="0.5625" stop-color="rgb(14.387512%, 14.387512%, 14.387512%)" stop-opacity="1"/>
<stop offset="0.574219" stop-color="rgb(13.996887%, 13.996887%, 13.996887%)" stop-opacity="1"/>
<stop offset="0.585938" stop-color="rgb(13.606262%, 13.606262%, 13.606262%)" stop-opacity="1"/>
<stop offset="0.597656" stop-color="rgb(13.215637%, 13.215637%, 13.215637%)" stop-opacity="1"/>
<stop offset="0.609375" stop-color="rgb(12.825012%, 12.825012%, 12.825012%)" stop-opacity="1"/>
<stop offset="0.621094" stop-color="rgb(12.434387%, 12.434387%, 12.434387%)" stop-opacity="1"/>
<stop offset="0.632812" stop-color="rgb(12.107849%, 12.107849%, 12.107849%)" stop-opacity="1"/>
<stop offset="0.640625" stop-color="rgb(11.846924%, 11.846924%, 11.846924%)" stop-opacity="1"/>
<stop offset="0.648438" stop-color="rgb(11.587524%, 11.587524%, 11.587524%)" stop-opacity="1"/>
<stop offset="0.65625" stop-color="rgb(11.326599%, 11.326599%, 11.326599%)" stop-opacity="1"/>
<stop offset="0.664062" stop-color="rgb(11.065674%, 11.065674%, 11.065674%)" stop-opacity="1"/>
<stop offset="0.671875" stop-color="rgb(10.806274%, 10.806274%, 10.806274%)" stop-opacity="1"/>
<stop offset="0.679688" stop-color="rgb(10.545349%, 10.545349%, 10.545349%)" stop-opacity="1"/>
<stop offset="0.6875" stop-color="rgb(10.284424%, 10.284424%, 10.284424%)" stop-opacity="1"/>
<stop offset="0.695312" stop-color="rgb(10.025024%, 10.025024%, 10.025024%)" stop-opacity="1"/>
<stop offset="0.703125" stop-color="rgb(9.764099%, 9.764099%, 9.764099%)" stop-opacity="1"/>
<stop offset="0.710938" stop-color="rgb(9.503174%, 9.503174%, 9.503174%)" stop-opacity="1"/>
<stop offset="0.71875" stop-color="rgb(9.243774%, 9.243774%, 9.243774%)" stop-opacity="1"/>
<stop offset="0.726562" stop-color="rgb(8.982849%, 8.982849%, 8.982849%)" stop-opacity="1"/>
<stop offset="0.734375" stop-color="rgb(8.721924%, 8.721924%, 8.721924%)" stop-opacity="1"/>
<stop offset="0.742188" stop-color="rgb(8.462524%, 8.462524%, 8.462524%)" stop-opacity="1"/>
<stop offset="0.75" stop-color="rgb(8.201599%, 8.201599%, 8.201599%)" stop-opacity="1"/>
<stop offset="0.757812" stop-color="rgb(7.876587%, 7.876587%, 7.876587%)" stop-opacity="1"/>
<stop offset="0.769531" stop-color="rgb(7.485962%, 7.485962%, 7.485962%)" stop-opacity="1"/>
<stop offset="0.78125" stop-color="rgb(7.095337%, 7.095337%, 7.095337%)" stop-opacity="1"/>
<stop offset="0.792969" stop-color="rgb(6.704712%, 6.704712%, 6.704712%)" stop-opacity="1"/>
<stop offset="0.804688" stop-color="rgb(6.314087%, 6.314087%, 6.314087%)" stop-opacity="1"/>
<stop offset="0.816406" stop-color="rgb(5.987549%, 5.987549%, 5.987549%)" stop-opacity="1"/>
<stop offset="0.824219" stop-color="rgb(5.728149%, 5.728149%, 5.728149%)" stop-opacity="1"/>
<stop offset="0.832031" stop-color="rgb(5.467224%, 5.467224%, 5.467224%)" stop-opacity="1"/>
<stop offset="0.839844" stop-color="rgb(5.206299%, 5.206299%, 5.206299%)" stop-opacity="1"/>
<stop offset="0.847656" stop-color="rgb(4.946899%, 4.946899%, 4.946899%)" stop-opacity="1"/>
<stop offset="0.855469" stop-color="rgb(4.685974%, 4.685974%, 4.685974%)" stop-opacity="1"/>
<stop offset="0.863281" stop-color="rgb(4.425049%, 4.425049%, 4.425049%)" stop-opacity="1"/>
<stop offset="0.871094" stop-color="rgb(4.165649%, 4.165649%, 4.165649%)" stop-opacity="1"/>
<stop offset="0.878906" stop-color="rgb(3.840637%, 3.840637%, 3.840637%)" stop-opacity="1"/>
<stop offset="0.890625" stop-color="rgb(3.450012%, 3.450012%, 3.450012%)" stop-opacity="1"/>
<stop offset="0.902344" stop-color="rgb(3.059387%, 3.059387%, 3.059387%)" stop-opacity="1"/>
<stop offset="0.914062" stop-color="rgb(2.732849%, 2.732849%, 2.732849%)" stop-opacity="1"/>
<stop offset="0.921875" stop-color="rgb(2.471924%, 2.471924%, 2.471924%)" stop-opacity="1"/>
<stop offset="0.929688" stop-color="rgb(2.212524%, 2.212524%, 2.212524%)" stop-opacity="1"/>
<stop offset="0.9375" stop-color="rgb(1.951599%, 1.951599%, 1.951599%)" stop-opacity="1"/>
<stop offset="0.945312" stop-color="rgb(1.626587%, 1.626587%, 1.626587%)" stop-opacity="1"/>
<stop offset="0.957031" stop-color="rgb(1.300049%, 1.300049%, 1.300049%)" stop-opacity="1"/>
<stop offset="0.964844" stop-color="rgb(1.040649%, 1.040649%, 1.040649%)" stop-opacity="1"/>
<stop offset="0.972656" stop-color="rgb(0.715637%, 0.715637%, 0.715637%)" stop-opacity="1"/>
<stop offset="0.984375" stop-color="rgb(0.389099%, 0.389099%, 0.389099%)" stop-opacity="1"/>
<stop offset="0.992188" stop-color="rgb(0.1297%, 0.1297%, 0.1297%)" stop-opacity="1"/>
<stop offset="1" stop-color="rgb(0%, 0%, 0%)" stop-opacity="1"/>
</radialGradient>
</defs>
<g clip-path="url(#clip-0)">
<rect x="-387.3" y="-387.3" width="4647.6" height="4647.6" fill="url(#radial-pattern-0)"/>
</g>
<path fill-rule="evenodd" fill="rgb(100%, 100%, 99.609375%)" fill-opacity="1" d="M 1293.800781 1968.699219 C 1148.898438 1939.699219 1039.601562 1811.398438 1039.601562 1658.300781 C 1039.601562 1483.601562 1181.800781 1341.699219 1356.199219 1341.699219 C 1358.699219 1341.699219 1361.199219 1341.699219 1363.699219 1341.699219 C 1414.601562 1229.5 1528 1155.300781 1652.300781 1155.300781 C 1684.398438 1155.300781 1715.699219 1159.898438 1745.699219 1169.5 C 1801.199219 1016 1948 911.800781 2113.101562 911.800781 C 2328.699219 911.800781 2503.898438 1087 2503.898438 1302.601562 C 2503.898438 1315.898438 2503.101562 1328.898438 2501.800781 1342.199219 C 2506.800781 1341.800781 2511.800781 1341.800781 2516.800781 1341.800781 C 2691.5 1341.800781 2833.398438 1484 2833.398438 1658.398438 C 2834.101562 1811.398438 2724.601562 1939.699219 2579.699219 1968.800781 C 2598.699219 1933.601562 2609.398438 1893.398438 2609.398438 1850.699219 C 2609.398438 1713.300781 2497.398438 1601.300781 2360 1601.300781 L 1513.398438 1601.300781 C 1376 1601.300781 1264 1713.300781 1264 1850.699219 C 1264 1893.300781 1274.800781 1933.5 1293.800781 1968.699219 "/>
<path fill-rule="evenodd" fill="rgb(100%, 100%, 99.609375%)" fill-opacity="1" d="M 2248.898438 2462.398438 C 2234.699219 2462.398438 2223.5 2473.699219 2223.5 2487.800781 C 2223.5 2502 2234.800781 2513.199219 2248.898438 2513.199219 C 2263.101562 2513.199219 2274.300781 2501.898438 2274.300781 2487.800781 C 2273.898438 2473.699219 2262.601562 2462.398438 2248.898438 2462.398438 Z M 2248.898438 2573.300781 C 2201.800781 2573.300781 2163.398438 2534.898438 2163.398438 2487.800781 C 2163.398438 2440.699219 2201.800781 2402.300781 2248.898438 2402.300781 C 2296 2402.300781 2334.398438 2440.699219 2334.398438 2487.800781 C 2334.398438 2535 2296 2573.300781 2248.898438 2573.300781 Z M 2075 2517.898438 L 1569.101562 2517.898438 C 1552.398438 2517.898438 1539.101562 2504.601562 1539.101562 2487.898438 C 1539.101562 2471.199219 1552.398438 2457.898438 1569.101562 2457.898438 L 2075 2457.898438 C 2091.699219 2457.898438 2105 2471.199219 2105 2487.898438 C 2105 2504.5 2091.601562 2517.898438 2075 2517.898438 Z M 2360 2677.199219 L 1513.398438 2677.199219 C 1409.101562 2677.199219 1324.101562 2592.101562 1324.101562 2487.898438 C 1324.101562 2383.601562 1409.199219 2298.601562 1513.398438 2298.601562 L 2360 2298.601562 C 2464.300781 2298.601562 2549.300781 2383.699219 2549.300781 2487.898438 C 2549.398438 2592.101562 2464.699219 2677.199219 2360 2677.199219 "/>
<path fill-rule="evenodd" fill="rgb(100%, 100%, 99.609375%)" fill-opacity="1" d="M 1936.699219 2847.398438 C 1920 2847.398438 1906.699219 2834.101562 1906.699219 2817.398438 L 1906.699219 2647.199219 C 1906.699219 2630.5 1920 2617.199219 1936.699219 2617.199219 C 1953.398438 2617.199219 1966.699219 2630.5 1966.699219 2647.199219 L 1966.699219 2817.398438 C 1966.699219 2834 1953.398438 2847.398438 1936.699219 2847.398438 "/>
<path fill-rule="evenodd" fill="rgb(100%, 100%, 99.609375%)" fill-opacity="1" d="M 1936.699219 2961.199219 C 1888.699219 2961.199219 1849.5 2922 1849.5 2874 C 1849.5 2826 1888.699219 2786.800781 1936.699219 2786.800781 C 1984.699219 2786.800781 2023.898438 2826 2023.898438 2874 C 2023.898438 2922 1984.699219 2961.199219 1936.699219 2961.199219 "/>
<path fill-rule="evenodd" fill="rgb(100%, 100%, 99.609375%)" fill-opacity="1" d="M 2248.898438 2143.800781 C 2234.699219 2143.800781 2223.5 2155.101562 2223.5 2169.199219 C 2223.5 2183.398438 2234.800781 2194.601562 2248.898438 2194.601562 C 2263.101562 2194.601562 2274.300781 2183.300781 2274.300781 2169.199219 C 2273.898438 2155 2262.601562 2143.800781 2248.898438 2143.800781 Z M 2248.898438 2254.699219 C 2201.800781 2254.699219 2163.398438 2216.300781 2163.398438 2169.199219 C 2163.398438 2122.101562 2201.800781 2083.699219 2248.898438 2083.699219 C 2296 2083.699219 2334.398438 2122.101562 2334.398438 2169.199219 C 2334.398438 2216.300781 2296 2254.699219 2248.898438 2254.699219 Z M 2075 2199.199219 L 1569.101562 2199.199219 C 1552.398438 2199.199219 1539.101562 2185.898438 1539.101562 2169.199219 C 1539.101562 2152.5 1552.398438 2139.199219 1569.101562 2139.199219 L 2075 2139.199219 C 2091.699219 2139.199219 2105 2152.5 2105 2169.199219 C 2105 2185.898438 2091.601562 2199.199219 2075 2199.199219 Z M 2360 2358.601562 L 1513.398438 2358.601562 C 1409.101562 2358.601562 1324.101562 2273.5 1324.101562 2169.300781 C 1324.101562 2065 1409.199219 1980 1513.398438 1980 L 2360 1980 C 2464.300781 1980 2549.300781 2065.101562 2549.300781 2169.300781 C 2549.398438 2273.5 2464.699219 2358.601562 2360 2358.601562 "/>
<path fill-rule="evenodd" fill="rgb(100%, 100%, 99.609375%)" fill-opacity="1" d="M 2248.898438 1825.101562 C 2234.699219 1825.101562 2223.5 1836.398438 2223.5 1850.5 C 2223.5 1864.601562 2234.800781 1875.898438 2248.898438 1875.898438 C 2263.101562 1875.898438 2274.300781 1864.601562 2274.300781 1850.5 C 2273.898438 1836.398438 2262.601562 1825.101562 2248.898438 1825.101562 Z M 2248.898438 1936.101562 C 2201.800781 1936.101562 2163.398438 1897.699219 2163.398438 1850.601562 C 2163.398438 1803.5 2201.800781 1765.101562 2248.898438 1765.101562 C 2296 1765.101562 2334.398438 1803.5 2334.398438 1850.601562 C 2334.398438 1897.699219 2296 1936.101562 2248.898438 1936.101562 Z M 2075 1880.601562 L 1569.101562 1880.601562 C 1552.398438 1880.601562 1539.101562 1867.300781 1539.101562 1850.601562 C 1539.101562 1833.898438 1552.398438 1820.601562 1569.101562 1820.601562 L 2075 1820.601562 C 2091.699219 1820.601562 2105 1833.898438 2105 1850.601562 C 2105 1867.300781 2091.601562 1880.601562 2075 1880.601562 Z M 2360 2039.898438 L 1513.398438 2039.898438 C 1409.101562 2039.898438 1324.101562 1954.800781 1324.101562 1850.601562 C 1324.101562 1746.398438 1409.199219 1661.300781 1513.398438 1661.300781 L 2360 1661.300781 C 2464.300781 1661.300781 2549.300781 1746.398438 2549.300781 1850.601562 C 2549.398438 1954.800781 2464.699219 2039.898438 2360 2039.898438 "/>
</svg>
