<svg width="1071" height="1740" viewBox="0 0 1071 1740" fill="none" xmlns="http://www.w3.org/2000/svg">
<path fill-rule="evenodd" clip-rule="evenodd" d="M464.431 1264.35C470.446 1261.99 560.919 1263.4 575.286 1263.4C609.036 1263.4 602.536 1258.32 602.536 1292.88V1516C602.536 1527.04 604.708 1562.36 600.818 1570.12L576.278 1570.46C564.966 1570.02 555.985 1542.13 533.247 1542.21C509.052 1542.29 505.216 1570.47 489.169 1570.54C483.267 1570.57 470.665 1571.09 465.571 1570.1L463.696 1494.93C463.29 1462.57 462.685 1269.44 464.431 1264.35ZM125.368 1682.39C126.134 1672.11 141.341 1627.86 144.927 1614.17C150.911 1591.31 158.501 1568.72 164.646 1545.84C167.548 1535.02 172.427 1522.81 174.907 1512.09C177.204 1502.18 181.462 1487.6 184.9 1478.02C188.646 1467.59 191.333 1454.54 194.642 1443.72C197.86 1433.19 202.548 1420.35 204.888 1409.81L224.81 1341.73C228.306 1332.01 232.376 1317.77 234.829 1307.65C237.485 1296.69 242.048 1284.83 245.087 1273.92C248.728 1260.85 244.185 1263.4 278.431 1263.4L366.505 1263.43C390.087 1263.66 384.583 1263.19 378.29 1285.47C352.657 1376.22 324.794 1467.17 298.032 1557.68C288.626 1589.49 276.63 1628.04 268.001 1659.71C260.435 1687.46 263.216 1682.67 246.798 1682.92C227.837 1683.2 232.161 1676.57 220.427 1664.97C198.485 1643.29 180.72 1658.89 164.353 1676.75C157.821 1683.87 158.411 1683.27 148.196 1682.97C140.318 1682.74 133.318 1683.29 125.368 1682.39ZM686.978 1264.02C707.286 1262.26 789.259 1263.4 815.638 1263.4C822.548 1263.4 823.259 1263.72 824.599 1270.48C826.228 1278.73 866.318 1413.54 867.388 1416.39L883.208 1469.56C887.278 1483.2 895.548 1509.67 898.618 1522.08C904.318 1545.04 915.146 1577.55 921.818 1602.32C928.939 1628.79 937.407 1654.93 944.759 1682.39C937.318 1683.33 930.368 1682.82 922.919 1682.93C912.376 1683.09 912.798 1684.3 905.689 1676.85C887.806 1658.12 869.907 1642.02 847.876 1666.96C833.028 1683.78 842.556 1682.62 817.497 1683.02C805.349 1683.21 808.708 1680.38 805.778 1671.43C800.298 1654.72 794.786 1631.95 789.907 1618.32C785.939 1607.24 783.286 1594.01 779.599 1582.66C775.927 1571.39 772.087 1558.65 769.189 1547.18C763.536 1524.79 755.247 1499.3 748.298 1477.04C740.966 1453.6 735.068 1429.11 727.669 1405.72C722.646 1389.84 686.337 1270.45 686.978 1264.02ZM60.1066 1204.77C58.5128 1195.22 59.212 1182.18 59.3253 1172.24C59.5636 1150.94 56.4464 1150.14 69.5753 1150.89C90.2589 1152.08 114.65 1150.95 135.751 1150.95H801.278C866.778 1150.95 936.337 1151.72 1001.54 1150.82C1008.12 1150.72 1010.86 1149.77 1011.29 1156.8C1011.79 1164.94 1011.52 1200.18 1010.45 1205.19C733.349 1206.36 455.091 1205.45 177.884 1205.45C160.903 1205.45 68.8995 1206.65 60.1066 1204.77ZM396.216 198.353C402.677 196.142 666.825 195.79 674.177 198.15L674.556 251.661L395.747 251.579L396.216 198.353ZM458.704 139.701C458.536 137.411 468.243 87.2006 469.583 81.0795C473.712 62.2318 471.509 56.9232 480.396 56.6303C498.489 56.0404 494.04 55.0599 506.38 65.2201C519.872 76.3412 531.107 93.2318 552.138 81.3803C564.876 74.2006 571.857 57.642 579.126 56.7201C583.517 56.1615 591.626 56.4428 595.868 57.5404L611.657 139.911L458.704 139.701ZM143.142 198.079C154.946 195.982 295.876 196.99 321.501 197.271C342.81 197.513 338.275 187.622 338.267 257.72C338.263 272.22 335.497 288.783 346.095 300.181C357.2 312.13 372.876 309.283 387.599 309.271L693.056 309.263C708.298 309.251 720.407 309.591 728.427 294.04C738.357 274.822 727.318 218.341 733.407 197.54C758.458 197.392 915.497 195.591 926.985 198.22C927.607 341.251 927.958 484.302 927.349 627.341C927.298 641.079 925.939 651.193 936.825 661.31C945.575 669.431 957.376 671.173 968.056 665.822C991.157 654.251 984.888 620.951 984.888 596.712V339.122C984.888 320.482 986.126 182.962 984.599 168.181C981.146 134.943 951.048 140.173 926.728 140.15C898.318 140.13 869.907 140.15 841.497 140.15C810.728 140.15 691.388 141.701 670.696 139.411C667.618 123.443 660.587 92.8099 658.528 79.6498C657.177 71.0599 654.939 57.1732 652.657 49.1029C648.169 33.2201 649.907 9.50135 629.247 0.98963C625.118 -0.709589 566.837 0.27088 557.958 0.380255C548.638 0.481818 544.278 10.0209 536.978 14.9232L515.032 0.372442C513.54 -0.127558 445.013 -0.0181822 442.325 0.55213C440.443 0.942755 433.544 5.87244 431.587 7.75135C420.728 18.1615 422.15 33.9115 418.138 47.9428C414.927 59.1732 409.54 91.4896 405.693 108.22C404.103 115.142 402.208 132.15 399.919 137.841L322.482 140.15C256.11 141.142 189.657 140.142 123.278 140.142C110.739 140.142 102.548 139.501 93.6066 149.521C84.048 160.232 85.5792 168.622 85.7081 182.122C85.8331 195.161 85.6847 208.29 85.6847 221.341C85.6847 373.81 88.587 1084.6 84.3683 1093.13L29.3956 1093.48C11.673 1094.67 6.25111 1105.66 1.30189 1120.13C-0.944206 1126.7 0.391731 1215.15 0.419075 1229.73C0.430794 1236.42 3.75501 1245.18 7.30579 1250.88C11.2589 1257.22 16.9347 1259.96 23.7824 1262.15C37.4777 1266.54 172.454 1260.34 185.751 1263.86L177.614 1300.21C174.341 1312.18 169.806 1324.5 166.872 1336.51C160.978 1360.67 151.47 1385.41 145.185 1409.57C139.122 1432.86 131.294 1460.06 123.607 1482.79C115.775 1505.94 110.681 1532.68 102.427 1555.45L70.2277 1664.97C64.6183 1687.75 46.2628 1717.73 70.8956 1735.03C81.3683 1742.38 101.013 1739.17 113.728 1739.17C123.036 1739.17 176.45 1741.14 182.708 1737.15C187.841 1733.88 190.966 1729.65 196.079 1727.2L220.021 1739.17C231.446 1738.99 243.044 1739.17 254.493 1739.17C274.618 1739.17 298.466 1745.5 308.587 1723.27C311.939 1715.9 314.759 1704.2 316.892 1696.14C320.954 1680.8 336.63 1627.2 340.478 1616.32C346.314 1599.8 369.681 1519.87 372.157 1508.31C374.306 1498.3 395.603 1426.35 399.798 1414.24C401.728 1408.67 400.607 1404.5 405.196 1401.87L406.173 1585.9C406.173 1600.09 404.939 1610.77 416.771 1620.9C427.525 1630.1 442.314 1628.01 455.587 1628.01C470.907 1628.01 486.228 1628.01 501.552 1628.02C527.216 1628.06 523.798 1619.11 533.271 1613.9L566.669 1628.03C582.626 1628.04 598.587 1628.01 614.548 1628.01C629.196 1628.01 641.618 1629.77 652.306 1617.92C662.376 1606.75 660.068 1592.41 660.068 1578.24C660.068 1546.33 660.068 1514.4 660.068 1482.49C660.068 1470.79 658.357 1392.99 661.466 1388.2C667.849 1406.26 674.735 1424.77 679.298 1443.59C683.646 1461.56 690.017 1481.45 695.298 1499.36L716.087 1568.58C724.278 1595 736.146 1643.86 744.427 1665.73C752.767 1687.76 757.228 1734.41 779.376 1739.04C787.286 1740.69 838.396 1738.96 851.099 1739.19C865.747 1739.45 864.669 1732.51 874.439 1727.32L887.536 1737.12C893.138 1741.04 947.646 1739.17 956.407 1739.17C969.189 1739.17 988.677 1742.37 999.235 1735.03C1011.28 1726.67 1013.63 1715.72 1010.86 1701.82C1008.57 1690.3 1002.87 1676.67 999.966 1664.81C997.056 1652.92 992.068 1640.46 989.208 1628.74C986.267 1616.65 982.196 1604.41 978.509 1592.5C974.857 1580.73 972.169 1567.7 967.966 1556.17C959.618 1533.29 954.696 1505.9 946.556 1482.75C942.157 1470.24 928.767 1423.86 925.286 1410.18C920.626 1391.84 882.177 1271.62 883.696 1264.83L1042.37 1262.99C1071.17 1259.18 1069.8 1232.17 1070.07 1210.5C1070.4 1184.17 1070.76 1156.2 1070.22 1129.95C1070.01 1120.13 1066.74 1107.81 1058.99 1101.23C1048.41 1092.26 1039.39 1093.26 1026.27 1093.43C999.568 1093.77 972.607 1093.42 945.876 1093.42H302.372C275.31 1093.42 160.884 1094.99 143.571 1092.59L142.771 309.431C142.771 283.572 141.36 219.513 143.142 198.079Z" fill="white"/>
<path fill-rule="evenodd" clip-rule="evenodd" d="M853.247 769.88C847.786 785.65 809.517 794.951 817.997 826.052C821.208 837.829 832.368 845.982 844.466 846.251C872.599 846.88 885.657 802.642 899.009 818.443C906.196 826.951 913.177 835.88 920.298 844.443C937.477 865.111 948.317 881.072 949.618 909.064C950.817 935.111 936.216 954.29 915.977 969.013C896.247 983.361 861.356 976.54 841.278 965.587C790.458 937.884 647.556 786.9 605.536 733.079C589.786 712.9 578.677 694.501 576.567 668.162C574.376 640.751 592.536 624.931 612.767 611.142C631.106 598.642 669.419 610.783 687.907 620.072C708.138 630.232 725.208 644.802 742.106 659.712C756.716 672.603 777.278 690.802 790.106 704.923L757.837 736.173C732.446 761.162 757.977 789.372 778.056 786.951C799.259 784.4 819.056 752.853 830.958 747.021L853.247 769.88ZM446.532 578.001C433.446 545.29 439.454 499.33 432.638 468.443L424.681 436.681C431.595 434.763 492.138 438.853 501.56 440.603C526.384 445.22 539.587 447.732 558.145 466.38C612.825 521.33 558.497 610.931 497.739 609.04C478.692 608.451 454.017 596.712 446.532 578.001ZM325.653 399.451C328.337 419.201 354.86 422.462 366.556 443.47C377.892 463.83 378.419 492.232 379.458 514.931C381.653 562.912 384.419 606.861 424.431 639.353C438.876 651.079 465.536 663.63 484.005 665.103C493.747 665.872 513.591 661.263 519.087 670.521C528.556 686.482 503.536 705.173 592.407 808.451C644.036 868.462 700.806 927.525 761.786 978.064C797.806 1007.91 827.325 1029.86 875.817 1033.64C925.528 1037.52 958.599 1017.2 986.528 977.31C1042.7 897.048 970.907 808.15 915.895 750.212C876.395 708.611 785.317 616.31 741.688 585.443C713.438 565.451 684.567 552.49 650.837 548.56C633.985 546.603 635.716 538.74 637.145 524.361C641.388 481.74 614.645 435.9 580.977 410.99C543.876 383.552 500.833 372.361 455.712 366.74C428.095 363.302 402.06 364.263 374.376 364.263C362.591 364.271 348.63 364.142 338.044 370.021C328.181 375.49 324.224 388.9 325.653 399.451Z" fill="black"/>
<path fill-rule="evenodd" clip-rule="evenodd" d="M125.368 1682.39C133.317 1683.29 140.317 1682.74 148.196 1682.97C158.411 1683.27 157.821 1683.87 164.353 1676.75C180.72 1658.89 198.485 1643.29 220.427 1664.97C232.161 1676.57 227.837 1683.2 246.798 1682.92C263.216 1682.67 260.435 1687.46 268.001 1659.71C276.63 1628.04 288.626 1589.49 298.032 1557.68C324.794 1467.17 352.657 1376.22 378.29 1285.47C384.583 1263.19 390.087 1263.66 366.505 1263.43L278.431 1263.4C244.185 1263.4 248.728 1260.85 245.087 1273.92C242.048 1284.83 237.485 1296.69 234.829 1307.65C232.376 1317.77 228.306 1332.01 224.81 1341.73L204.888 1409.81C202.548 1420.35 197.86 1433.19 194.642 1443.72C191.333 1454.54 188.646 1467.59 184.899 1478.02C181.462 1487.6 177.204 1502.18 174.907 1512.09C172.427 1522.81 167.548 1535.02 164.646 1545.84C158.501 1568.72 150.911 1591.31 144.927 1614.17C141.341 1627.86 126.134 1672.11 125.368 1682.39Z" fill="black"/>
<path fill-rule="evenodd" clip-rule="evenodd" d="M824.599 1270.48C823.259 1263.72 822.548 1263.4 815.638 1263.4C789.259 1263.4 707.286 1262.26 686.978 1264.02C686.337 1270.45 722.646 1389.84 727.669 1405.72C735.067 1429.11 740.966 1453.6 748.298 1477.04C755.247 1499.3 763.536 1524.79 769.189 1547.18C772.087 1558.65 775.927 1571.39 779.599 1582.66C783.286 1594.01 785.939 1607.24 789.907 1618.32C794.786 1631.95 800.298 1654.72 805.778 1671.43C808.708 1680.38 805.349 1683.21 817.497 1683.02C842.556 1682.62 833.028 1683.78 847.876 1666.96C869.907 1642.02 887.806 1658.12 905.689 1676.85C912.798 1684.3 912.376 1683.09 922.919 1682.93C930.368 1682.82 937.317 1683.33 944.759 1682.39C937.407 1654.93 928.939 1628.79 921.817 1602.32C915.146 1577.55 904.317 1545.04 898.618 1522.08C895.548 1509.67 887.278 1483.2 883.208 1469.56L867.388 1416.39C866.317 1413.54 826.228 1278.73 824.599 1270.48Z" fill="black"/>
<path fill-rule="evenodd" clip-rule="evenodd" d="M873.388 880.95C909.716 872.361 923.235 923.783 888.786 936.04C873.216 941.575 857.259 930.15 853.356 915.232C849.497 900.497 858.677 884.427 873.388 880.95ZM853.247 769.88L830.958 747.021C819.056 752.853 799.259 784.4 778.056 786.95C757.978 789.372 732.446 761.161 757.837 736.173L790.106 704.923C777.278 690.802 756.716 672.603 742.106 659.712C725.208 644.802 708.138 630.232 687.907 620.072C669.419 610.783 631.106 598.642 612.767 611.142C592.536 624.931 574.376 640.751 576.567 668.161C578.677 694.501 589.786 712.9 605.536 733.079C647.556 786.9 790.458 937.884 841.278 965.587C861.356 976.54 896.247 983.361 915.978 969.013C936.216 954.29 950.817 935.111 949.618 909.064C948.317 881.072 937.478 865.111 920.298 844.443C913.177 835.88 906.196 826.95 899.009 818.443C885.657 802.642 872.599 846.88 844.466 846.251C832.368 845.982 821.208 837.829 817.997 826.052C809.517 794.95 847.786 785.65 853.247 769.88Z" fill="white"/>
<path fill-rule="evenodd" clip-rule="evenodd" d="M60.1063 1204.77C68.8993 1206.65 160.903 1205.45 177.884 1205.45C455.091 1205.45 733.349 1206.36 1010.45 1205.19C1011.52 1200.18 1011.79 1164.94 1011.29 1156.8C1010.86 1149.77 1008.12 1150.72 1001.54 1150.82C936.337 1151.72 866.778 1150.95 801.278 1150.95H135.751C114.649 1150.95 90.2587 1152.08 69.5751 1150.89C56.4462 1150.14 59.5634 1150.94 59.3251 1172.24C59.2118 1182.18 58.5126 1195.22 60.1063 1204.77Z" fill="black"/>
<path fill-rule="evenodd" clip-rule="evenodd" d="M464.431 1264.35C462.685 1269.44 463.29 1462.57 463.696 1494.93L465.571 1570.1C470.665 1571.09 483.267 1570.57 489.169 1570.54C505.216 1570.47 509.052 1542.29 533.247 1542.21C555.985 1542.13 564.966 1570.02 576.278 1570.46L600.817 1570.12C604.708 1562.36 602.536 1527.04 602.536 1516V1292.88C602.536 1258.32 609.036 1263.4 575.286 1263.4C560.919 1263.4 470.446 1261.99 464.431 1264.35Z" fill="black"/>
<path fill-rule="evenodd" clip-rule="evenodd" d="M424.681 436.681L432.638 468.443C439.454 499.33 433.446 545.29 446.532 578.001C454.017 596.712 478.692 608.451 497.739 609.04C558.497 610.931 612.825 521.33 558.146 466.38C539.587 447.732 526.384 445.22 501.56 440.603C492.138 438.853 431.595 434.763 424.681 436.681Z" fill="white"/>
<path fill-rule="evenodd" clip-rule="evenodd" d="M873.388 880.951C858.677 884.427 849.497 900.497 853.356 915.232C857.259 930.15 873.216 941.576 888.786 936.04C923.235 923.783 909.716 872.361 873.388 880.951Z" fill="black"/>
</svg>
