<svg width="658" height="373" viewBox="0 0 658 373" fill="none" xmlns="http://www.w3.org/2000/svg">
<mask id="mask0_14_360" style="mask-type:luminance" maskUnits="userSpaceOnUse" x="0" y="343" width="658" height="30">
<path d="M0.5 343.661V371.86H657.5V343.661H0.5Z" fill="white" stroke="white"/>
</mask>
<g mask="url(#mask0_14_360)">
<path d="M0.5 343.671V371.86H657.5V343.671H0.5Z" fill="white" stroke="black"/>
</g>
<path d="M224.656 166.468C220.615 234.994 207.786 279.411 188.471 343.818H222.917C241.63 279.977 254.657 233.868 259.219 166.468H224.656Z" fill="white" stroke="white"/>
<path d="M259.755 165.968H224.185C220.165 234.927 207.265 279.42 187.8 344.317H223.292C242.111 280.119 255.213 233.843 259.755 165.968Z" stroke="black" stroke-width="0.5" stroke-miterlimit="2.6131"/>
<path fill-rule="evenodd" clip-rule="evenodd" d="M245.57 108.622L206.166 170.9H285.487L245.57 108.622Z" fill="white" stroke="white" stroke-width="0.5" stroke-miterlimit="2.6131"/>
<path d="M162.133 215.713C158.082 265.207 145.273 297.343 126.012 343.818H160.421C179.114 297.673 192.12 264.358 196.694 215.713H162.133Z" fill="white" stroke="white"/>
<path d="M197.244 215.213H161.672C157.65 265.129 144.743 297.329 125.265 344.317H160.758C179.59 297.836 192.699 264.344 197.244 215.213Z" stroke="black" stroke-width="0.5" stroke-miterlimit="2.6131"/>
<path d="M105.821 261.406C101.349 292.564 92.7659 314.292 76.5067 343.817H109.726C124.967 314.489 130.65 292.175 135.915 261.406H105.821Z" fill="white" stroke="black"/>
<path d="M136.509 260.906H105.389C100.908 292.478 92.2415 314.313 75.6617 344.317H110.031C125.505 314.609 131.194 292.101 136.509 260.906Z" stroke="white" stroke-width="0.5" stroke-miterlimit="2.6131"/>
<path d="M51.2833 291.231C47.7833 308.656 41.9915 323.526 28.0548 343.818H61.2296C74.4613 325.276 78.2068 310.152 82.3839 291.231H51.2833Z" fill="white" stroke="white"/>
<path d="M83.007 290.731H50.8748C47.3529 308.483 41.5067 323.519 27.1065 344.317H61.4883C75.0448 325.396 78.7563 310.021 83.007 290.731Z" stroke="black" stroke-width="0.5" stroke-miterlimit="2.6131"/>
<path fill-rule="evenodd" clip-rule="evenodd" d="M245.38 109.342L331.346 0.381226L332.558 1.65615L247.41 113.196L245.38 109.342Z" fill="white"/>
<path d="M245.38 109.342L331.346 0.381294L332.558 1.65621L247.41 113.196L245.38 109.342Z" stroke="white" stroke-width="0.5" stroke-miterlimit="2.6131"/>
<path d="M176.364 130.714L182.034 134.282L182.499 134.575L182.163 135.01C154.147 171.343 110.649 211.46 48.8759 263.926V266.889C99.949 226.882 160.102 170.965 186.391 137.553L186.67 137.2L187.051 137.439L193.213 141.314L194.76 120.637L176.364 130.714Z" fill="white" stroke="white"/>
<path d="M332.28 0.704712L462.594 153.599L467.334 149.047L332.868 0.587524L332.28 0.704712Z" fill="white" stroke="white"/>
<path d="M602.736 97.6042V229.787H598.487L598.485 229.776H518.006V259.658H518.722V343.817H533.01V259.658H598.7V343.817H612.623V97.6042H602.736Z" fill="white" stroke="black"/>
<path d="M601.736 98.0759C601.622 98.2504 601.498 98.4729 601.373 98.7517C600.968 99.6496 600.565 101.004 600.176 102.79C599.4 106.352 598.697 111.527 598.105 117.943C596.922 130.77 596.19 148.502 596.19 168.094C596.19 193.858 597.458 216.387 599.346 228.787H601.736V98.0759Z" fill="white" stroke="black"/>
<mask id="mask1_14_360" style="mask-type:luminance" maskUnits="userSpaceOnUse" x="598" y="260" width="3" height="85">
<path d="M598.622 260.585V343.977H600.418V260.585H598.622Z" fill="white" stroke="white"/>
</mask>
<g mask="url(#mask1_14_360)">
<mask id="mask2_14_360" style="mask-type:luminance" maskUnits="userSpaceOnUse" x="598" y="260" width="3" height="85">
<path d="M599.718 262.633L599.732 262.575L600.197 260.658H598.701V343.817H599.718V262.633Z" fill="white" stroke="white"/>
</mask>
<g mask="url(#mask2_14_360)">
<path d="M574.067 335.937L600.26 344.461L624.966 268.537L598.774 260.013L574.067 335.937Z" fill="url(#paint0_linear_14_360)" stroke="black"/>
</g>
</g>
<path d="M602.862 88.3213V97.1064H614.896V88.3213H602.862Z" fill="white" stroke="white"/>
<path d="M534.275 119.531L472.791 134.008V142.234L547.068 139.503L549.129 116.034L534.275 119.531Z" fill="white" stroke="white"/>
<path d="M564.593 94.5701C559.642 95.202 556.974 95.7461 554.541 96.9412C552.074 98.1525 549.826 100.039 545.713 103.455L547.888 106.182L548.105 106.454L547.926 106.752C545.069 111.513 542.402 120.122 539.386 135.677C536.392 151.122 533.063 173.352 528.843 205.34H590.264C590.241 153.87 586.561 127.791 581.119 114.563C578.397 107.948 575.255 104.604 571.961 102.88C568.65 101.147 565.111 101.007 561.463 100.962L560.393 100.948L561.09 100.136L564.593 96.0574V94.5701Z" fill="white" stroke="black"/>
<path d="M530.722 47.9858L538.207 89.1655H552.265V103.29C558.852 98.2407 564.467 96.2254 569.264 96.6978V89.1655H575.656L581.33 47.9858H530.722Z" fill="white" stroke="white"/>
<path d="M528.551 142.942L528.431 143.021L528.289 143.026L471.713 144.865V153.105L533.964 164.131L561.621 149.798L561.962 120.588L528.551 142.942Z" fill="white" stroke="white"/>
<path d="M551.445 253.573C550.877 253.613 550.302 253.652 549.721 253.688C542.422 254.147 534.158 254.393 524.635 255.327C524.631 255.357 524.628 255.386 524.625 255.416C527.985 255.122 531.5 254.932 535.081 254.747C538.883 254.55 542.761 254.356 546.623 254.042C548.237 253.91 549.847 253.755 551.445 253.573Z" fill="white" stroke="black"/>
<path d="M566.775 98.0427C562.509 98.1233 557.423 100.311 551.367 105.269C551.373 105.369 551.393 105.515 551.434 105.707C551.522 106.117 551.673 106.644 551.831 107.197C551.986 107.738 552.148 108.306 552.243 108.76C552.29 108.986 552.326 109.208 552.332 109.397C552.335 109.491 552.332 109.599 552.308 109.705C552.287 109.804 552.234 109.961 552.092 110.084C550.784 111.213 549.576 113.223 548.468 115.988C547.365 118.741 546.382 122.187 545.497 126.134C543.727 134.027 542.358 143.864 541.176 154.037C539.992 164.217 539.001 174.684 537.978 183.886C536.959 193.064 535.908 200.978 534.609 205.966C531.642 217.358 526 241.604 524.553 254.331C532.974 253.506 540.43 253.215 547.052 252.844C553.845 252.465 559.75 252 564.966 250.796C570.172 249.593 574.677 247.657 578.674 244.342C582.673 241.023 586.192 236.299 589.387 229.48C589.571 229.088 589.929 228.936 590.228 228.87C590.516 228.807 590.863 228.799 591.159 228.787H591.16C591.609 228.769 592.1 228.769 592.515 228.771C592.651 228.772 592.777 228.772 592.891 228.773C592.27 221.547 592.336 207.98 592.075 192.279C591.807 176.145 591.189 157.717 589.121 141.441C588.087 133.303 586.693 125.715 584.803 119.227C582.911 112.733 580.532 107.376 577.552 103.674C574.582 99.9848 571.039 97.9622 566.775 98.0427Z" fill="white" stroke="black"/>
<path fill-rule="evenodd" clip-rule="evenodd" d="M590.809 229.303C590.927 229.296 591.051 229.293 591.18 229.287C591.253 229.285 591.328 229.281 591.404 229.28L590.718 227.395L590.809 229.303Z" fill="white"/>
<path fill-rule="evenodd" clip-rule="evenodd" d="M534.115 205.839C534.137 206.35 534.166 206.209 534.108 206.82C534.676 209.133 537.364 211.683 539.189 213.114C536.368 210.085 535.993 209.939 534.115 205.839Z" fill="white"/>
<path d="M569.264 95.553C564.313 96.1852 561.645 96.7289 559.211 97.9241C556.744 99.1354 554.497 101.021 550.384 104.437L556.416 111.998L569.264 97.0413V95.553Z" fill="white" stroke="black"/>
<path d="M451.614 134.014L456.961 135.855L457.281 135.964L457.298 136.302L457.667 143.721L472.198 142.259L474.782 141.511L471.445 133.197L467.598 131.235L455.632 130.155L451.614 134.014Z" fill="white" stroke="black"/>
<path d="M462.337 142.041L463.821 143.681L463.835 143.696L463.847 143.712L465.151 145.41L465.26 145.553L465.253 145.734L465.101 149.708L465.083 150.143L464.651 150.186L459.516 150.698L459.272 150.722L459.104 150.544L455.616 146.856L455.522 150.644L457.887 153.405L469.854 155.601L472.754 153.755L474.871 145.208L471.059 143.236L462.342 142.017L462.337 142.041Z" fill="white" stroke="black"/>
<mask id="path-33-inside-1_14_360" fill="white">
<path fill-rule="evenodd" clip-rule="evenodd" d="M470.606 155.715L469.955 156.129L457.621 153.865L455.017 150.824L455.05 149.508L458.077 153.41L470.606 155.715Z"/>
</mask>
<path fill-rule="evenodd" clip-rule="evenodd" d="M470.606 155.715L469.955 156.129L457.621 153.865L455.017 150.824L455.05 149.508L458.077 153.41L470.606 155.715Z" fill="white"/>
<path d="M470.606 155.715L470.787 154.731L473.29 155.191L471.143 156.558L470.606 155.715ZM469.955 156.129L470.492 156.973L470.161 157.184L469.775 157.113L469.955 156.129ZM457.621 153.865L457.44 154.849L457.092 154.785L456.861 154.516L457.621 153.865ZM455.017 150.824L454.257 151.474L454.007 151.182L454.017 150.798L455.017 150.824ZM455.05 149.508L454.05 149.482L454.122 146.679L455.84 148.895L455.05 149.508ZM458.077 153.41L457.896 154.393L457.52 154.324L457.286 154.022L458.077 153.41ZM470.606 155.715L471.143 156.558L470.492 156.973L469.955 156.129L469.418 155.286L470.069 154.871L470.606 155.715ZM469.955 156.129L469.775 157.113L457.44 154.849L457.621 153.865L457.802 152.882L470.136 155.145L469.955 156.129ZM457.621 153.865L456.861 154.516L454.257 151.474L455.017 150.824L455.776 150.173L458.381 153.215L457.621 153.865ZM455.017 150.824L454.017 150.798L454.05 149.482L455.05 149.508L456.05 149.533L456.016 150.849L455.017 150.824ZM455.05 149.508L455.84 148.895L458.867 152.797L458.077 153.41L457.286 154.022L454.26 150.121L455.05 149.508ZM458.077 153.41L458.257 152.426L470.787 154.731L470.606 155.715L470.425 156.698L457.896 154.393L458.077 153.41Z" fill="white" mask="url(#path-33-inside-1_14_360)"/>
<path d="M411.061 329.239L430.771 330.949L495.729 260.305L496.377 210.818L411.061 329.239Z" fill="white" stroke="white"/>
<path d="M440.047 289.006L490.16 222.334L493.697 214.539L440.047 289.006Z" fill="#E5E5E5" stroke="black"/>
<path d="M423.384 322.146C418.411 321.816 412.984 321.969 409.21 322.5C399.829 323.822 393.663 326.206 389.843 329.661C386.158 332.994 384.594 337.382 384.506 342.977L435.324 342.703C435.374 341.047 435.661 339.368 435.996 337.734C436.368 335.919 436.789 334.184 437.036 332.524C437.281 330.872 437.34 329.362 437.009 328.033C436.683 326.722 435.973 325.564 434.63 324.606C433.736 323.969 432.196 323.43 430.205 323.012C428.23 322.597 425.87 322.312 423.384 322.146Z" fill="white" stroke="black"/>
<path d="M390.189 329.168C390.052 329.284 389.916 329.4 389.784 329.519C386.141 332.787 384.594 337.09 384.507 342.575H385.002C385.087 337.098 386.585 332.625 390.189 329.168Z" fill="#E5E5E5" stroke="black"/>
<path d="M493.805 206.339L465.847 342.723H486.043L518.129 229.556L518.609 229.692V229.193H581.327V206.339H493.805Z" fill="white" stroke="white"/>
<path d="M493.806 206.339L482.113 263.382L494.402 206.958L494.48 206.602L494.842 206.567L497.191 206.339H493.806Z" fill="#E5E5E5" stroke="black"/>
<path d="M509.429 260.238L517.005 233.517V231.908L509.429 260.238Z" fill="white" stroke="black"/>
<path d="M477.893 325.12C474.132 324.844 469.969 324.946 466.379 325.351L465.669 325.436C456.38 326.616 450.274 328.744 446.495 331.824C442.871 334.777 441.333 338.651 441.237 343.586H489.988C490.019 342.141 490.173 340.659 490.322 339.212C490.49 337.588 490.65 336.007 490.635 334.514C490.607 331.543 489.89 329.022 487.237 327.316C486.335 326.736 485.017 326.258 483.395 325.888C481.781 325.52 479.899 325.266 477.893 325.12Z" fill="white" stroke="black"/>
<path d="M446.031 331.965C442.743 334.709 441.333 338.248 441.237 342.702H441.733C441.823 338.4 443.088 334.816 446.031 331.965Z" fill="#E5E5E5" stroke="black"/>
<defs>
<linearGradient id="paint0_linear_14_360" x1="611.747" y1="263.71" x2="586.729" y2="340.584" gradientUnits="userSpaceOnUse">
<stop stop-color="white"/>
<stop offset="0.5" stop-color="white"/>
<stop offset="0.75" stop-color="white"/>
<stop offset="0.8125" stop-color="white"/>
<stop offset="0.816406" stop-color="#FEFEFE"/>
<stop offset="0.820312" stop-color="#FDFEFE"/>
<stop offset="0.824219" stop-color="#FCFDFD"/>
<stop offset="0.828125" stop-color="#FBFCFC"/>
<stop offset="0.832031" stop-color="#F9FCFC"/>
<stop offset="0.835937" stop-color="#F8FBFB"/>
<stop offset="0.839844" stop-color="#F7FAFA"/>
<stop offset="0.84375" stop-color="#F6F9F9"/>
<stop offset="0.847656" stop-color="#F4F8F9"/>
<stop offset="0.851563" stop-color="#F3F8F8"/>
<stop offset="0.855469" stop-color="#F2F7F7"/>
<stop offset="0.859375" stop-color="#F0F6F6"/>
<stop offset="0.863281" stop-color="#EFF5F5"/>
<stop offset="0.867188" stop-color="#EEF5F5"/>
<stop offset="0.871094" stop-color="#EDF4F4"/>
<stop offset="0.875" stop-color="#EBF3F3"/>
<stop offset="0.878906" stop-color="#EAF2F2"/>
<stop offset="0.882812" stop-color="#E9F1F2"/>
<stop offset="0.886719" stop-color="#E8F1F1"/>
<stop offset="0.890625" stop-color="#E6F0F0"/>
<stop offset="0.894531" stop-color="#E5EFEF"/>
<stop offset="0.898437" stop-color="#E4EEEF"/>
<stop offset="0.902344" stop-color="#E3EEEE"/>
<stop offset="0.90625" stop-color="#E1EDED"/>
<stop offset="0.910156" stop-color="#E0ECEC"/>
<stop offset="0.914063" stop-color="#DFEBEC"/>
<stop offset="0.917969" stop-color="#DDEBEB"/>
<stop offset="0.921875" stop-color="#DCEAEA"/>
<stop offset="0.925781" stop-color="#DBE9E9"/>
<stop offset="0.929688" stop-color="#DAE8E8"/>
<stop offset="0.933594" stop-color="#D8E7E8"/>
<stop offset="0.9375" stop-color="#D7E7E7"/>
<stop offset="0.941406" stop-color="#D6E6E6"/>
<stop offset="0.945312" stop-color="#D5E5E5"/>
<stop offset="0.949219" stop-color="#D3E4E5"/>
<stop offset="0.953125" stop-color="#D2E4E4"/>
<stop offset="0.957031" stop-color="#D1E3E3"/>
<stop offset="0.960937" stop-color="#D0E2E2"/>
<stop offset="0.964844" stop-color="#CEE1E2"/>
<stop offset="0.96875" stop-color="#CDE0E1"/>
<stop offset="0.972656" stop-color="#CCE0E0"/>
<stop offset="0.976563" stop-color="#CADFDF"/>
<stop offset="0.980469" stop-color="#C9DEDF"/>
<stop offset="0.984375" stop-color="#C8DDDE"/>
<stop offset="0.988281" stop-color="#C7DDDD"/>
<stop offset="0.992188" stop-color="#C5DCDC"/>
<stop offset="0.996094" stop-color="#C4DBDB"/>
<stop offset="1" stop-color="#C3DADB"/>
</linearGradient>
</defs>
</svg>
