<svg width="1383" height="1376" viewBox="0 0 1383 1376" fill="none" xmlns="http://www.w3.org/2000/svg">
<rect y="-42" width="1383" height="1418" fill="black"/>
<path d="M144.422 1296.71H395.91V864.301C311.051 893.988 227 914.859 144.422 926.762V1296.71Z" fill="white"/>
<path d="M529.801 1296.71H781.289V672.059C697.531 726.141 613.352 772.48 529.801 810.449V1296.71Z" fill="white"/>
<path d="M915.191 1296.71H1166.68V418.16H1109.02C1056.91 465.738 991.379 521.699 915.191 578.762V1296.71Z" fill="white"/>
<path d="M1167 371.635L1147.96 0L831.059 119.241L923.299 188.547C915.215 201.341 906.889 214.054 898.33 226.637C873.06 263.689 845.961 299.699 817.269 334.263C788.57 368.836 758.271 401.98 726.474 433.495C710.564 449.226 694.245 464.488 677.581 479.34C669.272 486.816 660.788 494.024 652.303 501.29C643.735 508.376 635.166 515.544 626.422 522.408C556.736 577.861 480.91 625.08 399.894 661.081C379.676 670.217 359.061 678.311 338.24 685.979L322.548 691.515C317.32 693.413 312.022 694.975 306.751 696.724C296.211 700.261 285.547 703.271 274.877 706.406C232.118 718.514 188.359 727.369 144 733.284C188.548 736.614 233.592 736.981 278.716 733.834C289.979 732.924 301.299 732.144 312.562 730.804C318.194 730.156 323.871 729.696 329.492 728.887L346.408 726.607C368.932 723.261 391.501 719.38 413.905 714.363C503.665 694.815 591.955 662.089 676.286 618.583C686.866 613.203 697.294 607.499 707.764 601.822C718.14 595.973 728.561 590.148 738.828 584.018C759.411 571.844 779.777 559.101 799.833 545.729C839.915 518.941 878.933 489.897 916.717 458.721C954.497 427.526 991.048 394.245 1026.32 358.79C1043.71 341.272 1060.81 323.23 1077.59 304.458L1167 371.635Z" fill="white"/>
</svg>
