<svg width="658" height="412" viewBox="0 0 658 412" fill="none" xmlns="http://www.w3.org/2000/svg">
<rect width="658" height="412" fill="black"/>
<mask id="mask0_15_54" style="mask-type:luminance" maskUnits="userSpaceOnUse" x="0" y="355" width="658" height="30">
<path d="M0.5 356.301V384.5H657.5V356.301H0.5Z" fill="white" stroke="white"/>
</mask>
<g mask="url(#mask0_15_54)">
<path d="M0.5 356.311V384.5H657.5V356.311H0.5Z" fill="white" stroke="white"/>
</g>
<path d="M224.656 179.108C220.615 247.634 207.786 292.051 188.471 356.458H222.917C241.63 292.618 254.657 246.508 259.219 179.108H224.656Z" fill="white" stroke="white"/>
<path fill-rule="evenodd" clip-rule="evenodd" d="M245.57 121.262L206.166 183.54H285.487L245.57 121.262Z" fill="white" stroke="white" stroke-width="0.5" stroke-miterlimit="2.6131"/>
<path d="M161.868 228.5C157.817 277.994 145.008 310.13 125.748 356.604H160.156C178.849 310.46 191.856 277.145 196.429 228.5H161.868Z" fill="white" stroke="white"/>
<path fill-rule="evenodd" clip-rule="evenodd" d="M136.509 273.546H105.389C100.908 305.118 92.2415 326.953 75.6617 356.957H110.031C125.505 327.249 131.194 304.742 136.509 273.546Z" fill="white"/>
<path d="M136.509 273.546H105.389C100.908 305.118 92.2415 326.953 75.6617 356.957H110.031C125.505 327.249 131.194 304.742 136.509 273.546Z" stroke="white" stroke-width="0.5" stroke-miterlimit="2.6131"/>
<path d="M51.2833 303.871C47.7833 321.296 41.9915 336.166 28.0548 356.458H61.2296C74.4613 337.916 78.2068 322.792 82.3839 303.871H51.2833Z" fill="white" stroke="white"/>
<path d="M83.007 303.371H50.8748C47.3529 321.123 41.5067 336.159 27.1065 356.957H61.4883C75.0448 338.036 78.7563 322.661 83.007 303.371Z" stroke="white" stroke-width="0.5" stroke-miterlimit="2.6131"/>
<path fill-rule="evenodd" clip-rule="evenodd" d="M245.38 121.982L331.346 13.0214L332.558 14.2963L247.41 125.836L245.38 121.982Z" fill="white"/>
<path d="M245.38 121.982L331.346 13.0214L332.558 14.2963L247.41 125.836L245.38 121.982Z" stroke="white" stroke-width="0.5" stroke-miterlimit="2.6131"/>
<path d="M176.364 143.354L182.034 146.922L182.499 147.215L182.163 147.651C154.147 183.983 110.649 224.101 48.8759 276.566V279.53C99.949 239.523 160.102 183.606 186.391 150.194L186.67 149.84L187.051 150.079L193.213 153.954L194.76 133.278L176.364 143.354Z" fill="white" stroke="white"/>
<path d="M332.28 13.3448L462.594 166.239L467.334 161.688L332.868 13.2277L332.28 13.3448Z" fill="white" stroke="white"/>
<path d="M602.736 110.244V242.427H598.487L598.485 242.416H518.006V272.298H518.722V356.457H533.01V272.298H598.7V356.457H612.623V110.244H602.736Z" fill="white" stroke="black"/>
<path d="M601.736 110.716C601.622 110.891 601.498 111.113 601.373 111.392C600.968 112.29 600.565 113.645 600.176 115.43C599.4 118.992 598.697 124.167 598.105 130.583C596.922 143.41 596.19 161.142 596.19 180.735C596.19 206.498 597.458 229.027 599.346 241.427H601.736V110.716Z" fill="white" stroke="black"/>
<mask id="mask1_15_54" style="mask-type:luminance" maskUnits="userSpaceOnUse" x="598" y="272" width="3" height="86">
<path d="M598.622 273.225V356.617H600.418V273.225H598.622Z" fill="white" stroke="white"/>
</mask>
<g mask="url(#mask1_15_54)">
<mask id="mask2_15_54" style="mask-type:luminance" maskUnits="userSpaceOnUse" x="598" y="272" width="3" height="85">
<path d="M599.718 275.274L599.732 275.215L600.197 273.298H598.701V356.457H599.718V275.274Z" fill="white" stroke="white"/>
</mask>
<g mask="url(#mask2_15_54)">
<path d="M574.067 348.577L600.26 357.101L624.966 281.177L598.774 272.653L574.067 348.577Z" fill="url(#paint0_linear_15_54)" stroke="black"/>
</g>
</g>
<path d="M602.862 100.961V109.747H614.896V100.961H602.862Z" fill="white" stroke="white"/>
<path d="M534.275 132.171L472.791 146.648V154.874L547.068 152.143L549.129 128.674L534.275 132.171Z" fill="white" stroke="white"/>
<path d="M564.593 107.21C559.642 107.842 556.974 108.386 554.541 109.581C552.074 110.793 549.826 112.679 545.713 116.095L547.888 118.823L548.105 119.094L547.926 119.392C545.069 124.153 542.402 132.762 539.386 148.318C536.392 163.763 533.063 185.992 528.843 217.98H590.264C590.241 166.51 586.561 140.431 581.119 127.203C578.397 120.588 575.255 117.244 571.961 115.52C568.65 113.787 565.111 113.648 561.463 113.602L560.393 113.588L561.09 112.777L564.593 108.698V107.21Z" fill="white" stroke="black"/>
<path d="M530.722 60.626L538.207 101.806H552.265V115.93C558.852 110.881 564.467 108.866 569.264 109.338V101.806H575.656L581.33 60.626H530.722Z" fill="white" stroke="white"/>
<path d="M528.551 155.582L528.431 155.661L528.289 155.666L471.713 157.505V165.745L533.964 176.771L561.621 162.438L561.962 133.228L528.551 155.582Z" fill="white" stroke="white"/>
<path d="M551.445 266.213C550.877 266.253 550.302 266.292 549.721 266.328C542.422 266.787 534.158 267.033 524.635 267.967C524.631 267.997 524.628 268.026 524.625 268.056C527.985 267.762 531.5 267.572 535.081 267.387C538.883 267.19 542.761 266.997 546.623 266.682C548.237 266.551 549.847 266.396 551.445 266.213Z" fill="white" stroke="black"/>
<path d="M566.775 110.683C562.509 110.763 557.423 112.951 551.367 117.909C551.373 118.009 551.393 118.155 551.434 118.347C551.522 118.757 551.673 119.284 551.831 119.837C551.986 120.379 552.148 120.946 552.243 121.401C552.29 121.626 552.326 121.848 552.332 122.037C552.335 122.131 552.332 122.239 552.308 122.345C552.287 122.444 552.234 122.601 552.092 122.724C550.784 123.853 549.576 125.863 548.468 128.628C547.365 131.381 546.382 134.827 545.497 138.774C543.727 146.667 542.358 156.504 541.176 166.677C539.992 176.858 539.001 187.324 537.978 196.527C536.959 205.705 535.908 213.618 534.609 218.606C531.642 229.998 526 254.244 524.553 266.971C532.974 266.146 540.43 265.855 547.052 265.485C553.845 265.105 559.75 264.64 564.966 263.436C570.172 262.234 574.677 260.298 578.674 256.982C582.673 253.664 586.192 248.939 589.387 242.12C589.571 241.728 589.929 241.576 590.228 241.51C590.516 241.447 590.863 241.439 591.159 241.427H591.16C591.609 241.409 592.1 241.409 592.515 241.411C592.651 241.412 592.777 241.412 592.891 241.413C592.27 234.187 592.336 220.62 592.075 204.919C591.807 188.785 591.189 170.357 589.121 154.081C588.087 145.943 586.693 138.355 584.803 131.867C582.911 125.373 580.532 120.016 577.552 116.314C574.582 112.625 571.039 110.602 566.775 110.683Z" fill="white" stroke="black"/>
<path fill-rule="evenodd" clip-rule="evenodd" d="M590.809 241.943C590.927 241.936 591.051 241.933 591.18 241.927C591.253 241.925 591.328 241.922 591.404 241.92L590.718 240.035L590.809 241.943Z" fill="white"/>
<path fill-rule="evenodd" clip-rule="evenodd" d="M534.115 218.479C534.137 218.99 534.166 218.85 534.108 219.46C534.676 221.773 537.364 224.323 539.189 225.754C536.368 222.725 535.993 222.579 534.115 218.479Z" fill="white"/>
<path d="M569.264 108.193C564.313 108.825 561.645 109.369 559.211 110.564C556.744 111.776 554.497 113.662 550.384 117.077L556.416 124.638L569.264 109.681V108.193Z" fill="white" stroke="black"/>
<path d="M451.614 146.654L456.961 148.495L457.281 148.604L457.298 148.942L457.667 156.361L472.198 154.899L474.782 154.151L471.445 145.837L467.598 143.875L455.632 142.795L451.614 146.654Z" fill="white" stroke="black"/>
<path d="M462.337 154.681L463.821 156.321L463.835 156.336L463.847 156.353L465.151 158.05L465.26 158.193L465.253 158.374L465.101 162.349L465.083 162.783L464.651 162.826L459.516 163.338L459.272 163.362L459.104 163.185L455.616 159.496L455.522 163.284L457.887 166.045L469.854 168.241L472.754 166.396L474.871 157.849L471.059 155.876L462.342 154.657L462.337 154.681Z" fill="white" stroke="black"/>
<mask id="path-32-inside-1_15_54" fill="white">
<path fill-rule="evenodd" clip-rule="evenodd" d="M470.606 168.355L469.955 168.769L457.621 166.505L455.017 163.464L455.05 162.148L458.077 166.05L470.606 168.355Z"/>
</mask>
<path fill-rule="evenodd" clip-rule="evenodd" d="M470.606 168.355L469.955 168.769L457.621 166.505L455.017 163.464L455.05 162.148L458.077 166.05L470.606 168.355Z" fill="white"/>
<path d="M470.606 168.355L470.787 167.371L473.29 167.832L471.143 169.198L470.606 168.355ZM469.955 168.769L470.492 169.613L470.161 169.824L469.775 169.753L469.955 168.769ZM457.621 166.505L457.44 167.489L457.092 167.425L456.861 167.156L457.621 166.505ZM455.017 163.464L454.257 164.114L454.007 163.823L454.017 163.438L455.017 163.464ZM455.05 162.148L454.05 162.122L454.122 159.319L455.84 161.535L455.05 162.148ZM458.077 166.05L457.896 167.033L457.52 166.964L457.286 166.663L458.077 166.05ZM470.606 168.355L471.143 169.198L470.492 169.613L469.955 168.769L469.418 167.926L470.069 167.511L470.606 168.355ZM469.955 168.769L469.775 169.753L457.44 167.489L457.621 166.505L457.802 165.522L470.136 167.786L469.955 168.769ZM457.621 166.505L456.861 167.156L454.257 164.114L455.017 163.464L455.776 162.813L458.381 165.855L457.621 166.505ZM455.017 163.464L454.017 163.438L454.05 162.122L455.05 162.148L456.05 162.173L456.016 163.489L455.017 163.464ZM455.05 162.148L455.84 161.535L458.867 165.437L458.077 166.05L457.286 166.663L454.26 162.761L455.05 162.148ZM458.077 166.05L458.257 165.066L470.787 167.371L470.606 168.355L470.425 169.338L457.896 167.033L458.077 166.05Z" fill="white" mask="url(#path-32-inside-1_15_54)"/>
<path d="M411.061 341.88L430.771 343.589L495.729 272.945L496.377 223.459L411.061 341.88Z" fill="white" stroke="white"/>
<path d="M440.047 301.646L490.16 234.975L493.697 227.179L440.047 301.646Z" fill="#E5E5E5" stroke="black"/>
<path d="M423.384 334.787C418.411 334.456 412.984 334.609 409.21 335.14C399.829 336.463 393.663 338.847 389.843 342.301C386.158 345.634 384.594 350.022 384.506 355.617L435.324 355.343C435.374 353.687 435.661 352.008 435.996 350.375C436.368 348.559 436.789 346.824 437.036 345.165C437.281 343.512 437.34 342.003 437.009 340.673C436.683 339.363 435.973 338.204 434.63 337.247C433.736 336.609 432.196 336.07 430.205 335.652C428.23 335.237 425.87 334.952 423.384 334.787Z" fill="white" stroke="black"/>
<path d="M390.189 341.808C390.052 341.924 389.916 342.04 389.784 342.159C386.141 345.428 384.594 349.73 384.507 355.215H385.002C385.087 349.738 386.585 345.265 390.189 341.808Z" fill="#E5E5E5" stroke="black"/>
<path d="M493.805 218.979L465.847 355.363H486.043L518.129 242.196L518.609 242.332V241.833H581.327V218.979H493.805Z" fill="white" stroke="white"/>
<path d="M493.806 218.979L482.113 276.022L494.402 219.599L494.48 219.242L494.842 219.207L497.191 218.979H493.806Z" fill="#E5E5E5" stroke="black"/>
<path d="M509.429 272.878L517.005 246.157V244.548L509.429 272.878Z" fill="white" stroke="black"/>
<path d="M477.893 337.76C474.132 337.484 469.969 337.587 466.379 337.991L465.669 338.076C456.38 339.256 450.274 341.384 446.495 344.464C442.871 347.417 441.333 351.291 441.237 356.227H489.988C490.019 354.781 490.173 353.299 490.322 351.853C490.49 350.228 490.65 348.648 490.635 347.154C490.607 344.184 489.89 341.662 487.237 339.956C486.335 339.376 485.017 338.898 483.395 338.528C481.781 338.16 479.899 337.907 477.893 337.76Z" fill="white" stroke="black"/>
<path d="M446.031 344.605C442.743 347.349 441.333 350.888 441.237 355.342H441.733C441.823 351.04 443.088 347.457 446.031 344.605Z" fill="#E5E5E5" stroke="black"/>
<defs>
<linearGradient id="paint0_linear_15_54" x1="611.747" y1="276.35" x2="586.729" y2="353.224" gradientUnits="userSpaceOnUse">
<stop stop-color="white"/>
<stop offset="0.5" stop-color="white"/>
<stop offset="0.75" stop-color="white"/>
<stop offset="0.8125" stop-color="white"/>
<stop offset="0.816406" stop-color="#FEFEFE"/>
<stop offset="0.820312" stop-color="#FDFEFE"/>
<stop offset="0.824219" stop-color="#FCFDFD"/>
<stop offset="0.828125" stop-color="#FBFCFC"/>
<stop offset="0.832031" stop-color="#F9FCFC"/>
<stop offset="0.835937" stop-color="#F8FBFB"/>
<stop offset="0.839844" stop-color="#F7FAFA"/>
<stop offset="0.84375" stop-color="#F6F9F9"/>
<stop offset="0.847656" stop-color="#F4F8F9"/>
<stop offset="0.851563" stop-color="#F3F8F8"/>
<stop offset="0.855469" stop-color="#F2F7F7"/>
<stop offset="0.859375" stop-color="#F0F6F6"/>
<stop offset="0.863281" stop-color="#EFF5F5"/>
<stop offset="0.867188" stop-color="#EEF5F5"/>
<stop offset="0.871094" stop-color="#EDF4F4"/>
<stop offset="0.875" stop-color="#EBF3F3"/>
<stop offset="0.878906" stop-color="#EAF2F2"/>
<stop offset="0.882812" stop-color="#E9F1F2"/>
<stop offset="0.886719" stop-color="#E8F1F1"/>
<stop offset="0.890625" stop-color="#E6F0F0"/>
<stop offset="0.894531" stop-color="#E5EFEF"/>
<stop offset="0.898437" stop-color="#E4EEEF"/>
<stop offset="0.902344" stop-color="#E3EEEE"/>
<stop offset="0.90625" stop-color="#E1EDED"/>
<stop offset="0.910156" stop-color="#E0ECEC"/>
<stop offset="0.914063" stop-color="#DFEBEC"/>
<stop offset="0.917969" stop-color="#DDEBEB"/>
<stop offset="0.921875" stop-color="#DCEAEA"/>
<stop offset="0.925781" stop-color="#DBE9E9"/>
<stop offset="0.929688" stop-color="#DAE8E8"/>
<stop offset="0.933594" stop-color="#D8E7E8"/>
<stop offset="0.9375" stop-color="#D7E7E7"/>
<stop offset="0.941406" stop-color="#D6E6E6"/>
<stop offset="0.945312" stop-color="#D5E5E5"/>
<stop offset="0.949219" stop-color="#D3E4E5"/>
<stop offset="0.953125" stop-color="#D2E4E4"/>
<stop offset="0.957031" stop-color="#D1E3E3"/>
<stop offset="0.960937" stop-color="#D0E2E2"/>
<stop offset="0.964844" stop-color="#CEE1E2"/>
<stop offset="0.96875" stop-color="#CDE0E1"/>
<stop offset="0.972656" stop-color="#CCE0E0"/>
<stop offset="0.976563" stop-color="#CADFDF"/>
<stop offset="0.980469" stop-color="#C9DEDF"/>
<stop offset="0.984375" stop-color="#C8DDDE"/>
<stop offset="0.988281" stop-color="#C7DDDD"/>
<stop offset="0.992188" stop-color="#C5DCDC"/>
<stop offset="0.996094" stop-color="#C4DBDB"/>
<stop offset="1" stop-color="#C3DADB"/>
</linearGradient>
</defs>
</svg>
