<svg width="241" height="23" viewBox="0 0 241 23" fill="none" xmlns="http://www.w3.org/2000/svg">
<rect width="241" height="23" fill="black"/>
<path d="M9.37526 5.90254C9.26543 5.33463 9.14318 4.70302 8.99988 4C8.85626 4.70484 8.73433 5.33494 8.62488 5.9013C8.12233 8.50004 7.8708 9.79974 7.00581 10.6166C6.14233 11.4322 4.7694 11.6703 2.02693 12.1434L2.01451 12.1456C1.41314 12.2493 0.74433 12.3648 0 12.5001C0.746299 12.6359 1.41343 12.7511 2.01315 12.8544C4.76472 13.3289 6.14088 13.5665 7.00581 14.3834C7.86949 15.1989 8.12149 16.4956 8.62235 19.0857L8.62488 19.0974C8.73466 19.6654 8.85682 20.297 9.00012 21C9.14388 20.2952 9.26581 19.6651 9.37526 19.0987C9.87781 16.5 10.1292 15.2003 10.9942 14.3834C11.8577 13.5679 13.2306 13.3297 15.9731 12.8567L15.9856 12.8544C16.5869 12.7507 17.2558 12.6352 18 12.4999C17.2537 12.3641 16.5867 12.249 15.9869 12.1456C13.2353 11.6711 11.8591 11.4336 10.9942 10.6166C10.1307 9.80107 9.87865 8.50442 9.37765 5.91432L9.37526 5.90254Z" fill="white"/>
<path d="M231.375 5.90254C231.265 5.33463 231.143 4.70302 231 4C230.856 4.70484 230.734 5.33494 230.625 5.9013C230.122 8.50004 229.871 9.79974 229.006 10.6166C228.142 11.4322 226.769 11.6703 224.027 12.1434L224.015 12.1456C223.413 12.2493 222.744 12.3648 222 12.5001C222.746 12.6359 223.413 12.7511 224.013 12.8544C226.765 13.3289 228.141 13.5665 229.006 14.3834C229.869 15.1989 230.121 16.4956 230.622 19.0857L230.625 19.0974C230.735 19.6654 230.857 20.297 231 21C231.144 20.2952 231.266 19.6651 231.375 19.0987C231.878 16.5 232.129 15.2003 232.994 14.3834C233.858 13.5679 235.231 13.3297 237.973 12.8567L237.986 12.8544C238.587 12.7507 239.256 12.6352 240 12.4999C239.254 12.3641 238.587 12.249 237.987 12.1456C235.235 11.6711 233.859 11.4336 232.994 10.6166C232.131 9.80107 231.879 8.50442 231.378 5.91432L231.375 5.90254Z" fill="white"/>
<path d="M22.4834 15.458C22.4834 15.2529 22.5186 15.1182 22.5889 15.0537C22.6592 14.9834 22.7998 14.9482 23.0107 14.9482H24.751C24.9736 14.9482 25.1318 14.9805 25.2256 15.0449C25.3252 15.1094 25.3838 15.2471 25.4014 15.458C25.4189 15.71 25.5332 15.9561 25.7441 16.1963C26.0723 16.5889 26.6611 16.7852 27.5107 16.7852C27.7744 16.7852 28.0029 16.7676 28.1963 16.7324C28.3955 16.6973 28.5801 16.6387 28.75 16.5566C28.9199 16.4688 29.0488 16.3428 29.1367 16.1787C29.2246 16.0146 29.2686 15.8096 29.2686 15.5635C29.2686 15.3701 29.2129 15.2061 29.1016 15.0713C28.9902 14.9307 28.8203 14.8164 28.5918 14.7285C28.3633 14.6406 28.1348 14.5674 27.9062 14.5088C27.6836 14.4502 27.3936 14.3799 27.0361 14.2979C26.6787 14.21 26.3799 14.1279 26.1396 14.0518C25.7119 13.917 25.3545 13.791 25.0674 13.6738C24.7803 13.5566 24.4697 13.3984 24.1357 13.1992C23.8076 13 23.5439 12.7832 23.3447 12.5488C23.1455 12.3145 22.9785 12.0186 22.8438 11.6611C22.7148 11.3037 22.6504 10.9053 22.6504 10.4658C22.6504 9.90332 22.7705 9.39648 23.0107 8.94531C23.2568 8.48828 23.585 8.11621 23.9951 7.8291C24.4053 7.54199 24.8682 7.31934 25.3838 7.16113C25.8994 7.00293 26.4443 6.91211 27.0186 6.88867C27.4873 6.88867 27.9443 6.92969 28.3896 7.01172C28.8408 7.09375 29.2744 7.22852 29.6904 7.41602C30.1064 7.59766 30.4697 7.82031 30.7803 8.08398C31.0908 8.3418 31.3398 8.66406 31.5273 9.05078C31.7148 9.43164 31.8086 9.85059 31.8086 10.3076C31.8086 10.5186 31.7734 10.6562 31.7031 10.7207C31.6387 10.7793 31.501 10.8086 31.29 10.8086H29.5234C29.4824 10.8086 29.4443 10.8057 29.4092 10.7998C29.374 10.7881 29.3418 10.7793 29.3125 10.7734C29.2891 10.7617 29.2656 10.7441 29.2422 10.7207C29.2188 10.6914 29.2012 10.6709 29.1895 10.6592C29.1777 10.6475 29.1602 10.6211 29.1367 10.5801C29.1191 10.5391 29.1074 10.5127 29.1016 10.501C29.1016 10.4893 29.0928 10.46 29.0752 10.4131C29.0576 10.3604 29.0459 10.3311 29.04 10.3252C28.9639 10.1377 28.8379 9.95605 28.6621 9.78027C28.498 9.62793 28.2725 9.51074 27.9854 9.42871C27.7041 9.34082 27.4199 9.29688 27.1328 9.29688C26.9043 9.29688 26.6758 9.32617 26.4473 9.38477C26.2246 9.4375 26.0166 9.54883 25.8232 9.71875C25.6357 9.88281 25.542 10.0908 25.542 10.3428C25.542 10.5479 25.6328 10.7412 25.8145 10.9229C25.9961 11.0986 26.2334 11.248 26.5264 11.3711C26.8252 11.4941 27.1182 11.5996 27.4053 11.6875C27.6924 11.7754 27.9883 11.8604 28.293 11.9424C28.5977 12.0244 28.8027 12.0859 28.9082 12.127C29.6934 12.3672 30.2559 12.584 30.5957 12.7773C31.6094 13.3516 32.1162 14.2568 32.1162 15.4932C32.1162 16.3252 31.9053 17.0283 31.4834 17.6025C31.0674 18.1768 30.5049 18.5986 29.7959 18.8682C29.0928 19.1377 28.2695 19.2725 27.3262 19.2725C26.8691 19.2725 26.4121 19.2227 25.9551 19.123C25.5039 19.0234 25.0674 18.8682 24.6455 18.6572C24.2295 18.4404 23.8604 18.1855 23.5381 17.8926C23.2158 17.5996 22.958 17.2422 22.7646 16.8203C22.5771 16.3984 22.4834 15.9443 22.4834 15.458ZM33.3643 9.17383V7.67969C33.3643 7.50391 33.4023 7.37207 33.4785 7.28418C33.5605 7.19629 33.6982 7.15234 33.8916 7.15234H42.2412C42.4346 7.15234 42.5693 7.19629 42.6455 7.28418C42.7217 7.37207 42.7598 7.50391 42.7598 7.67969V9.17383C42.7598 9.34961 42.7217 9.48145 42.6455 9.56934C42.5693 9.65137 42.4346 9.69238 42.2412 9.69238H39.4902V18.4814C39.4902 18.6748 39.4463 18.8096 39.3584 18.8857C39.2705 18.9619 39.1387 19 38.9629 19H37.1787C37.0029 19 36.8711 18.9619 36.7832 18.8857C36.7012 18.8096 36.6602 18.6748 36.6602 18.4814V9.69238H33.8916C33.6924 9.69238 33.5547 9.65137 33.4785 9.56934C33.4023 9.48145 33.3643 9.34961 33.3643 9.17383ZM44.5703 18.4814V7.67969C44.5703 7.50391 44.6084 7.37207 44.6846 7.28418C44.7607 7.19629 44.8955 7.15234 45.0889 7.15234H52.8496C53.043 7.15234 53.1777 7.19629 53.2539 7.28418C53.3301 7.37207 53.3682 7.50391 53.3682 7.67969V9.17383C53.3682 9.34961 53.3301 9.48145 53.2539 9.56934C53.1777 9.65137 53.043 9.69238 52.8496 9.69238H47.4092V11.6523H52.2344C52.4277 11.6523 52.5625 11.6963 52.6387 11.7842C52.7148 11.8721 52.7529 12.0039 52.7529 12.1797V13.5859C52.7529 13.7617 52.7148 13.8936 52.6387 13.9814C52.5625 14.0635 52.4277 14.1045 52.2344 14.1045H47.4092V16.4775H53.1484C53.3418 16.4775 53.4766 16.5215 53.5527 16.6094C53.6348 16.6973 53.6758 16.8291 53.6758 17.0049V18.4814C53.6758 18.6572 53.6377 18.7891 53.5615 18.877C53.4854 18.959 53.3477 19 53.1484 19H45.0889C44.8955 19 44.7607 18.959 44.6846 18.877C44.6084 18.7891 44.5703 18.6572 44.5703 18.4814ZM55.8555 18.4814V7.67969C55.8555 7.48047 55.8965 7.34277 55.9785 7.2666C56.0664 7.19043 56.1982 7.15234 56.374 7.15234H58.1582C58.334 7.15234 58.4629 7.19043 58.5449 7.2666C58.6328 7.34277 58.6768 7.48047 58.6768 7.67969V16.4775H63.8623C64.0557 16.4775 64.1904 16.5215 64.2666 16.6094C64.3428 16.6973 64.3809 16.8291 64.3809 17.0049V18.4814C64.3809 18.6572 64.3428 18.7891 64.2666 18.877C64.1904 18.959 64.0557 19 63.8623 19H56.374C56.1807 19 56.0459 18.959 55.9697 18.877C55.8936 18.7891 55.8555 18.6572 55.8555 18.4814ZM66.332 18.4814V7.67969C66.332 7.48047 66.373 7.34277 66.4551 7.2666C66.543 7.19043 66.6748 7.15234 66.8506 7.15234H68.6348C68.8105 7.15234 68.9395 7.19043 69.0215 7.2666C69.1094 7.34277 69.1533 7.48047 69.1533 7.67969V16.4775H74.3389C74.5322 16.4775 74.667 16.5215 74.7432 16.6094C74.8193 16.6973 74.8574 16.8291 74.8574 17.0049V18.4814C74.8574 18.6572 74.8193 18.7891 74.7432 18.877C74.667 18.959 74.5322 19 74.3389 19H66.8506C66.6572 19 66.5225 18.959 66.4463 18.877C66.3701 18.7891 66.332 18.6572 66.332 18.4814ZM75.7891 18.833C75.7715 18.7861 75.7598 18.7422 75.7539 18.7012C75.7539 18.6367 75.7744 18.5693 75.8154 18.499L79.8145 7.71484C79.8848 7.52148 79.9756 7.38086 80.0869 7.29297C80.2041 7.19922 80.3594 7.15234 80.5527 7.15234H82.2754C82.4688 7.15234 82.6182 7.19629 82.7236 7.28418C82.835 7.37207 82.9316 7.51562 83.0137 7.71484L86.9951 18.499C87.0361 18.5635 87.0566 18.6309 87.0566 18.7012C87.0566 18.748 87.0449 18.792 87.0215 18.833C86.9746 18.9443 86.8633 19 86.6875 19H84.7979C84.5986 19 84.4521 18.9648 84.3584 18.8945C84.2646 18.8184 84.1826 18.6748 84.1123 18.4639L83.6113 17.04H79.1992L78.6982 18.4639C78.6279 18.6748 78.5459 18.8184 78.4521 18.8945C78.3584 18.9648 78.2119 19 78.0127 19H76.123C75.9473 19 75.8359 18.9443 75.7891 18.833ZM80.0605 14.5176H82.7588L81.4141 10.5361L80.0605 14.5176ZM88.6035 18.4814V7.69727C88.6035 7.52148 88.6387 7.38965 88.709 7.30176C88.7793 7.21387 88.9111 7.16992 89.1045 7.16992H93.6396C94.5713 7.16992 95.3008 7.26367 95.8281 7.45117C96.3555 7.63281 96.8213 7.92578 97.2256 8.33008C97.5596 8.65234 97.8145 9.05957 97.9902 9.55176C98.1719 10.0381 98.2627 10.5713 98.2627 11.1514C98.2627 12.0244 98.0049 12.7861 97.4893 13.4365C96.9736 14.0869 96.3994 14.5205 95.7666 14.7373L98.2979 18.4199C98.3564 18.502 98.3857 18.584 98.3857 18.666C98.3916 18.7129 98.3828 18.7598 98.3594 18.8066C98.3125 18.9355 98.2041 19 98.0342 19H95.9072C95.6963 19 95.5264 18.9619 95.3975 18.8857C95.2744 18.8037 95.1455 18.6631 95.0107 18.4639L93.0596 15.5635C92.9834 15.458 92.9307 15.3438 92.9014 15.2207C92.8779 15.0918 92.8662 14.8984 92.8662 14.6406V13.208C92.8662 13.0322 92.9043 12.9004 92.9805 12.8125C93.0566 12.7246 93.1914 12.6807 93.3848 12.6807H93.7451C94.1963 12.6807 94.5947 12.54 94.9404 12.2588C95.2861 11.9775 95.459 11.6318 95.459 11.2217C95.459 10.7646 95.3008 10.3955 94.9844 10.1143C94.668 9.83301 94.2725 9.69238 93.7979 9.69238H91.4072V18.4814C91.4072 18.6748 91.3633 18.8096 91.2754 18.8857C91.1934 18.9619 91.0645 19 90.8887 19H89.1045C88.9346 19 88.8086 18.9648 88.7266 18.8945C88.6445 18.8184 88.6035 18.6807 88.6035 18.4814ZM104.45 7.67969C104.438 7.63281 104.433 7.58594 104.433 7.53906C104.427 7.46289 104.441 7.38965 104.477 7.31934C104.523 7.20801 104.623 7.15234 104.775 7.15234H106.753C106.876 7.15234 106.981 7.16992 107.069 7.20508C107.163 7.24023 107.236 7.29297 107.289 7.36328C107.342 7.43359 107.38 7.49219 107.403 7.53906C107.427 7.58594 107.45 7.65039 107.474 7.73242L109.258 13.8496L110.98 7.73242C111.086 7.3457 111.291 7.15234 111.596 7.15234H112.853C113.146 7.15234 113.345 7.3457 113.45 7.73242L115.19 13.8496L116.975 7.73242C117.068 7.3457 117.309 7.15234 117.695 7.15234H119.603C119.749 7.15234 119.846 7.20801 119.893 7.31934C119.922 7.37793 119.937 7.44238 119.937 7.5127C119.937 7.56543 119.928 7.62109 119.91 7.67969L116.597 18.6221C116.591 18.6514 116.579 18.6865 116.562 18.7275C116.544 18.7686 116.494 18.8242 116.412 18.8945C116.33 18.9648 116.23 19 116.113 19H114.602C114.461 19 114.341 18.9648 114.241 18.8945C114.147 18.8242 114.086 18.7539 114.057 18.6836L114.021 18.5869L112.229 12.8477L110.427 18.5869C110.421 18.6162 110.406 18.6543 110.383 18.7012C110.359 18.748 110.298 18.8096 110.198 18.8857C110.104 18.9619 109.987 19 109.847 19H108.265C108.147 19 108.048 18.9678 107.966 18.9033C107.89 18.8389 107.84 18.7773 107.816 18.7188L107.781 18.6221L104.45 7.67969ZM121.65 18.4814V7.67969C121.65 7.50391 121.688 7.37207 121.765 7.28418C121.841 7.19629 121.976 7.15234 122.169 7.15234H129.93C130.123 7.15234 130.258 7.19629 130.334 7.28418C130.41 7.37207 130.448 7.50391 130.448 7.67969V9.17383C130.448 9.34961 130.41 9.48145 130.334 9.56934C130.258 9.65137 130.123 9.69238 129.93 9.69238H124.489V11.6523H129.314C129.508 11.6523 129.643 11.6963 129.719 11.7842C129.795 11.8721 129.833 12.0039 129.833 12.1797V13.5859C129.833 13.7617 129.795 13.8936 129.719 13.9814C129.643 14.0635 129.508 14.1045 129.314 14.1045H124.489V16.4775H130.229C130.422 16.4775 130.557 16.5215 130.633 16.6094C130.715 16.6973 130.756 16.8291 130.756 17.0049V18.4814C130.756 18.6572 130.718 18.7891 130.642 18.877C130.565 18.959 130.428 19 130.229 19H122.169C121.976 19 121.841 18.959 121.765 18.877C121.688 18.7891 121.65 18.6572 121.65 18.4814ZM132.936 18.4814V7.66211C132.936 7.48633 132.974 7.35449 133.05 7.2666C133.126 7.17871 133.261 7.13477 133.454 7.13477H138.49C139.199 7.13477 139.829 7.22559 140.38 7.40723C140.931 7.58301 141.37 7.82617 141.698 8.13672C142.026 8.44141 142.272 8.78711 142.437 9.17383C142.606 9.55469 142.691 9.96191 142.691 10.3955C142.691 10.7354 142.647 11.0518 142.56 11.3447C142.478 11.6318 142.381 11.8604 142.27 12.0303C142.164 12.2002 142.041 12.3525 141.9 12.4873C141.76 12.6221 141.651 12.7129 141.575 12.7598C141.499 12.8008 141.432 12.8359 141.373 12.8652C141.432 12.8887 141.508 12.9268 141.602 12.9795C141.695 13.0264 141.83 13.126 142.006 13.2783C142.188 13.4248 142.349 13.5918 142.489 13.7793C142.63 13.9668 142.753 14.2188 142.858 14.5352C142.97 14.8457 143.025 15.1826 143.025 15.5459C143.025 16.6592 142.636 17.5146 141.856 18.1123C141.077 18.7041 140.04 19 138.745 19H133.454C133.261 19 133.126 18.959 133.05 18.877C132.974 18.7891 132.936 18.6572 132.936 18.4814ZM135.757 16.4424H138.78C139.706 16.4424 140.169 16.0527 140.169 15.2734C140.169 14.541 139.671 14.1748 138.675 14.1748H138.262C138.062 14.1748 137.925 14.1338 137.849 14.0518C137.772 13.9639 137.734 13.832 137.734 13.6562V12.2852C137.734 12.1094 137.772 11.9805 137.849 11.8984C137.925 11.8105 138.062 11.7666 138.262 11.7666H138.49C139.486 11.7666 139.984 11.4062 139.984 10.6855C139.984 10.3047 139.861 10.041 139.615 9.89453C139.369 9.74805 138.994 9.6748 138.49 9.6748H135.757V16.4424ZM149.16 18.833C149.143 18.7861 149.131 18.7422 149.125 18.7012C149.125 18.6367 149.146 18.5693 149.187 18.499L153.186 7.71484C153.256 7.52148 153.347 7.38086 153.458 7.29297C153.575 7.19922 153.73 7.15234 153.924 7.15234H155.646C155.84 7.15234 155.989 7.19629 156.095 7.28418C156.206 7.37207 156.303 7.51562 156.385 7.71484L160.366 18.499C160.407 18.5635 160.428 18.6309 160.428 18.7012C160.428 18.748 160.416 18.792 160.393 18.833C160.346 18.9443 160.234 19 160.059 19H158.169C157.97 19 157.823 18.9648 157.729 18.8945C157.636 18.8184 157.554 18.6748 157.483 18.4639L156.982 17.04H152.57L152.069 18.4639C151.999 18.6748 151.917 18.8184 151.823 18.8945C151.729 18.9648 151.583 19 151.384 19H149.494C149.318 19 149.207 18.9443 149.16 18.833ZM153.432 14.5176H156.13L154.785 10.5361L153.432 14.5176ZM161.614 15.3613V10.9316C161.614 10.3809 161.714 9.87695 161.913 9.41992C162.112 8.96289 162.376 8.58203 162.704 8.27734C163.032 7.9668 163.407 7.70605 163.829 7.49512C164.257 7.28418 164.69 7.13184 165.13 7.03809C165.575 6.93848 166.018 6.88867 166.457 6.88867C166.914 6.88867 167.368 6.93848 167.819 7.03809C168.276 7.1377 168.713 7.29297 169.129 7.50391C169.545 7.71484 169.914 7.96387 170.236 8.25098C170.559 8.53809 170.813 8.88672 171.001 9.29688C171.194 9.70117 171.291 10.1348 171.291 10.5977C171.291 10.8086 171.256 10.9463 171.186 11.0107C171.121 11.0693 170.983 11.0986 170.772 11.0986H169.023C168.906 11.0986 168.812 11.0781 168.742 11.0371C168.672 10.9902 168.628 10.9434 168.61 10.8965C168.593 10.8496 168.572 10.7793 168.549 10.6855C168.531 10.5859 168.517 10.5186 168.505 10.4834C168.394 10.1729 168.165 9.91211 167.819 9.70117C167.474 9.49023 167.02 9.38477 166.457 9.38477C165.865 9.38477 165.385 9.56641 165.016 9.92969C164.652 10.2871 164.471 10.7559 164.471 11.3359V14.9482C164.471 15.5166 164.649 15.9619 165.007 16.2842C165.37 16.6064 165.854 16.7676 166.457 16.7676C167.078 16.7676 167.564 16.6123 167.916 16.3018C168.273 15.9912 168.452 15.5049 168.452 14.8428H166.835C166.636 14.8428 166.498 14.8018 166.422 14.7197C166.346 14.6318 166.308 14.5 166.308 14.3242V12.918C166.308 12.7422 166.346 12.6104 166.422 12.5225C166.504 12.4346 166.642 12.3906 166.835 12.3906H170.772C170.966 12.3906 171.101 12.4346 171.177 12.5225C171.253 12.6104 171.291 12.7422 171.291 12.918V15.5283C171.262 16.0264 171.139 16.4863 170.922 16.9082C170.711 17.3301 170.441 17.6846 170.113 17.9717C169.785 18.2529 169.413 18.4961 168.997 18.7012C168.581 18.9004 168.159 19.0439 167.731 19.1318C167.304 19.2256 166.879 19.2725 166.457 19.2725C166.012 19.2725 165.569 19.2285 165.13 19.1406C164.696 19.0527 164.266 18.9092 163.838 18.71C163.41 18.5049 163.032 18.2559 162.704 17.9629C162.382 17.6699 162.118 17.3008 161.913 16.8555C161.714 16.4043 161.614 15.9062 161.614 15.3613ZM173.611 18.4814V7.67969C173.611 7.50391 173.649 7.37207 173.726 7.28418C173.802 7.19629 173.937 7.15234 174.13 7.15234H181.891C182.084 7.15234 182.219 7.19629 182.295 7.28418C182.371 7.37207 182.409 7.50391 182.409 7.67969V9.17383C182.409 9.34961 182.371 9.48145 182.295 9.56934C182.219 9.65137 182.084 9.69238 181.891 9.69238H176.45V11.6523H181.275C181.469 11.6523 181.604 11.6963 181.68 11.7842C181.756 11.8721 181.794 12.0039 181.794 12.1797V13.5859C181.794 13.7617 181.756 13.8936 181.68 13.9814C181.604 14.0635 181.469 14.1045 181.275 14.1045H176.45V16.4775H182.189C182.383 16.4775 182.518 16.5215 182.594 16.6094C182.676 16.6973 182.717 16.8291 182.717 17.0049V18.4814C182.717 18.6572 182.679 18.7891 182.603 18.877C182.526 18.959 182.389 19 182.189 19H174.13C173.937 19 173.802 18.959 173.726 18.877C173.649 18.7891 173.611 18.6572 173.611 18.4814ZM184.896 18.4814V7.67969C184.896 7.50391 184.935 7.37207 185.011 7.28418C185.087 7.19629 185.222 7.15234 185.415 7.15234H187.103C187.231 7.15234 187.346 7.17871 187.445 7.23145C187.545 7.28418 187.618 7.33984 187.665 7.39844C187.712 7.45703 187.779 7.55371 187.867 7.68848C187.891 7.72363 187.908 7.75 187.92 7.76758L191.734 13.9199V7.67969C191.734 7.48047 191.775 7.34277 191.857 7.2666C191.945 7.19043 192.077 7.15234 192.253 7.15234H193.984C194.16 7.15234 194.289 7.19043 194.371 7.2666C194.459 7.34277 194.503 7.48047 194.503 7.67969V18.4814C194.503 18.6572 194.465 18.7891 194.389 18.877C194.312 18.959 194.178 19 193.984 19H192.341C192.294 19 192.247 18.9971 192.2 18.9912C192.159 18.9854 192.118 18.9766 192.077 18.9648C192.042 18.9473 192.01 18.9355 191.98 18.9297C191.957 18.918 191.928 18.8945 191.893 18.8594C191.863 18.8242 191.84 18.8008 191.822 18.7891C191.805 18.7773 191.778 18.748 191.743 18.7012C191.714 18.6543 191.693 18.625 191.682 18.6133C191.67 18.5957 191.644 18.5576 191.603 18.499C191.567 18.4404 191.544 18.4023 191.532 18.3848L187.718 12.2148V18.4814C187.718 18.6748 187.674 18.8096 187.586 18.8857C187.504 18.9619 187.375 19 187.199 19H185.415C185.239 19 185.107 18.9619 185.02 18.8857C184.938 18.8096 184.896 18.6748 184.896 18.4814ZM196.788 15.2031V10.958C196.788 10.4131 196.885 9.91211 197.078 9.45508C197.277 8.99219 197.538 8.6084 197.86 8.30371C198.188 7.99316 198.563 7.72949 198.985 7.5127C199.407 7.2959 199.838 7.1377 200.277 7.03809C200.723 6.93848 201.165 6.88867 201.604 6.88867C202.173 6.88867 202.721 6.96191 203.248 7.1084C203.775 7.25488 204.256 7.46582 204.689 7.74121C205.129 8.01074 205.489 8.36816 205.771 8.81348C206.058 9.25879 206.23 9.75684 206.289 10.3076C206.289 10.5186 206.248 10.6592 206.166 10.7295C206.09 10.7939 205.943 10.8262 205.727 10.8262H204.004C203.893 10.8262 203.805 10.8027 203.74 10.7559C203.676 10.7031 203.617 10.6152 203.564 10.4922C203.512 10.3691 203.477 10.2959 203.459 10.2725C203.266 9.96777 203.028 9.74805 202.747 9.61328C202.466 9.47266 202.085 9.40234 201.604 9.40234C201.001 9.40234 200.518 9.56348 200.154 9.88574C199.791 10.208 199.609 10.6475 199.609 11.2041V14.9482C199.609 15.5166 199.791 15.959 200.154 16.2754C200.518 16.5918 201.001 16.75 201.604 16.75C202.12 16.75 202.548 16.6504 202.888 16.4512C203.228 16.2461 203.43 15.9385 203.494 15.5283C203.512 15.4111 203.526 15.3262 203.538 15.2734C203.55 15.2148 203.573 15.1504 203.608 15.0801C203.644 15.0039 203.69 14.9512 203.749 14.9219C203.813 14.8926 203.893 14.8779 203.986 14.8779H205.744C205.938 14.8779 206.075 14.9277 206.157 15.0273C206.245 15.1211 206.289 15.2764 206.289 15.4932C206.289 15.9443 206.198 16.3721 206.017 16.7764C205.835 17.1807 205.589 17.5322 205.278 17.8311C204.974 18.1299 204.619 18.3906 204.215 18.6133C203.816 18.8301 203.392 18.9941 202.94 19.1055C202.495 19.2168 202.05 19.2725 201.604 19.2725C201.165 19.2725 200.723 19.2227 200.277 19.123C199.838 19.0234 199.407 18.8652 198.985 18.6484C198.563 18.4316 198.188 18.1709 197.86 17.8662C197.538 17.5557 197.277 17.1719 197.078 16.7148C196.885 16.252 196.788 15.748 196.788 15.2031ZM207.414 7.32812C207.461 7.21094 207.563 7.15234 207.722 7.15234H209.796C210.013 7.15234 210.177 7.1875 210.288 7.25781C210.399 7.32227 210.517 7.46875 210.64 7.69727L212.749 11.5645L214.779 7.69727C214.891 7.46875 215.002 7.32227 215.113 7.25781C215.225 7.1875 215.389 7.15234 215.605 7.15234H217.557C217.715 7.15234 217.814 7.21094 217.855 7.32812C217.879 7.38086 217.891 7.43066 217.891 7.47754C217.891 7.54199 217.873 7.60352 217.838 7.66211L214.129 14.5527V18.4814C214.129 18.6748 214.085 18.8096 213.997 18.8857C213.915 18.9619 213.786 19 213.61 19H211.809C211.627 19 211.495 18.9648 211.413 18.8945C211.331 18.8184 211.29 18.6807 211.29 18.4814V14.5527L207.44 7.66211C207.405 7.60352 207.388 7.54199 207.388 7.47754C207.388 7.43066 207.396 7.38086 207.414 7.32812Z" fill="white"/>
</svg>
