<svg width="180" height="25" viewBox="0 0 180 25" fill="none" xmlns="http://www.w3.org/2000/svg">
<g clip-path="url(#clip0_20_6)">
<rect width="180" height="25" fill="white"/>
<rect width="180" height="25" fill="white"/>
<path d="M30.8047 15.6514C30.8047 15.4229 30.7695 15.2178 30.6992 15.0361C30.6348 14.8486 30.5117 14.6787 30.3301 14.5264C30.1484 14.3682 29.8936 14.2129 29.5654 14.0605C29.2373 13.9082 28.8125 13.75 28.291 13.5859C27.7109 13.3984 27.1602 13.1875 26.6387 12.9531C26.123 12.7188 25.666 12.4463 25.2676 12.1357C24.875 11.8193 24.5645 11.4531 24.3359 11.0371C24.1133 10.6211 24.002 10.1377 24.002 9.58691C24.002 9.05371 24.1191 8.57031 24.3535 8.13672C24.5879 7.69727 24.916 7.32227 25.3379 7.01172C25.7598 6.69531 26.2578 6.45215 26.832 6.28223C27.4121 6.1123 28.0479 6.02734 28.7393 6.02734C29.6826 6.02734 30.5059 6.19727 31.209 6.53711C31.9121 6.87695 32.457 7.34277 32.8438 7.93457C33.2363 8.52637 33.4326 9.20312 33.4326 9.96484H30.8135C30.8135 9.58984 30.7344 9.26172 30.5762 8.98047C30.4238 8.69336 30.1895 8.46777 29.873 8.30371C29.5625 8.13965 29.1699 8.05762 28.6953 8.05762C28.2383 8.05762 27.8574 8.12793 27.5527 8.26855C27.248 8.40332 27.0195 8.58789 26.8672 8.82227C26.7148 9.05078 26.6387 9.30859 26.6387 9.5957C26.6387 9.8125 26.6914 10.0088 26.7969 10.1846C26.9082 10.3604 27.0723 10.5244 27.2891 10.6768C27.5059 10.8291 27.7725 10.9727 28.0889 11.1074C28.4053 11.2422 28.7715 11.374 29.1875 11.5029C29.8848 11.7139 30.4971 11.9512 31.0244 12.2148C31.5576 12.4785 32.0029 12.7744 32.3604 13.1025C32.7178 13.4307 32.9873 13.8027 33.1689 14.2188C33.3506 14.6348 33.4414 15.1064 33.4414 15.6338C33.4414 16.1904 33.333 16.6885 33.1162 17.1279C32.8994 17.5674 32.5859 17.9395 32.1758 18.2441C31.7656 18.5488 31.2764 18.7803 30.708 18.9385C30.1396 19.0967 29.5039 19.1758 28.8008 19.1758C28.168 19.1758 27.5439 19.0938 26.9287 18.9297C26.3135 18.7598 25.7539 18.5049 25.25 18.165C24.752 17.8252 24.3535 17.3916 24.0547 16.8643C23.7559 16.3369 23.6064 15.7129 23.6064 14.9922H26.252C26.252 15.3906 26.3135 15.7275 26.4365 16.0029C26.5596 16.2783 26.7324 16.501 26.9551 16.6709C27.1836 16.8408 27.4531 16.9639 27.7637 17.04C28.0801 17.1162 28.4258 17.1543 28.8008 17.1543C29.2578 17.1543 29.6328 17.0898 29.9258 16.9609C30.2246 16.832 30.4443 16.6533 30.585 16.4248C30.7314 16.1963 30.8047 15.9385 30.8047 15.6514ZM39.7344 9.49023V11.2832H34.1973V9.49023H39.7344ZM35.5684 7.14355H38.0996V16.1348C38.0996 16.4102 38.1348 16.6211 38.2051 16.7676C38.2812 16.9141 38.3926 17.0166 38.5391 17.0752C38.6855 17.1279 38.8701 17.1543 39.0928 17.1543C39.251 17.1543 39.3916 17.1484 39.5146 17.1367C39.6436 17.1191 39.752 17.1016 39.8398 17.084L39.8486 18.9473C39.6318 19.0176 39.3975 19.0732 39.1455 19.1143C38.8936 19.1553 38.6152 19.1758 38.3105 19.1758C37.7539 19.1758 37.2676 19.085 36.8516 18.9033C36.4414 18.7158 36.125 18.417 35.9023 18.0068C35.6797 17.5967 35.5684 17.0576 35.5684 16.3896V7.14355ZM45.5527 19.1758C44.8145 19.1758 44.1523 19.0586 43.5664 18.8242C42.9805 18.584 42.4824 18.2529 42.0723 17.8311C41.668 17.4092 41.3574 16.9199 41.1406 16.3633C40.9238 15.8008 40.8154 15.2031 40.8154 14.5703V14.2188C40.8154 13.498 40.918 12.8389 41.123 12.2412C41.3281 11.6436 41.6211 11.125 42.002 10.6855C42.3887 10.2461 42.8574 9.90918 43.4082 9.6748C43.959 9.43457 44.5801 9.31445 45.2715 9.31445C45.9453 9.31445 46.543 9.42578 47.0645 9.64844C47.5859 9.87109 48.0225 10.1875 48.374 10.5977C48.7314 11.0078 49.001 11.5 49.1826 12.0742C49.3643 12.6426 49.4551 13.2754 49.4551 13.9727V15.0273H41.8965V13.3398H46.9678V13.1465C46.9678 12.7949 46.9033 12.4814 46.7744 12.2061C46.6514 11.9248 46.4639 11.7021 46.2119 11.5381C45.96 11.374 45.6377 11.292 45.2451 11.292C44.9111 11.292 44.624 11.3652 44.3838 11.5117C44.1436 11.6582 43.9473 11.8633 43.7949 12.127C43.6484 12.3906 43.5371 12.7012 43.4609 13.0586C43.3906 13.4102 43.3555 13.7969 43.3555 14.2188V14.5703C43.3555 14.9512 43.4082 15.3027 43.5137 15.625C43.625 15.9473 43.7803 16.2256 43.9795 16.46C44.1846 16.6943 44.4307 16.876 44.7178 17.0049C45.0107 17.1338 45.3418 17.1982 45.7109 17.1982C46.168 17.1982 46.5928 17.1104 46.9854 16.9346C47.3838 16.7529 47.7266 16.4805 48.0137 16.1172L49.2441 17.4531C49.0449 17.7402 48.7725 18.0156 48.4268 18.2793C48.0869 18.543 47.6768 18.7598 47.1963 18.9297C46.7158 19.0938 46.168 19.1758 45.5527 19.1758ZM53.5684 5.5V19H51.0283V5.5H53.5684ZM58.332 5.5V19H55.792V5.5H58.332ZM65.5566 16.8555V12.6191C65.5566 12.3145 65.5068 12.0537 65.4072 11.8369C65.3076 11.6143 65.1523 11.4414 64.9414 11.3184C64.7363 11.1953 64.4697 11.1338 64.1416 11.1338C63.8604 11.1338 63.6172 11.1836 63.4121 11.2832C63.207 11.377 63.0488 11.5146 62.9375 11.6963C62.8262 11.8721 62.7705 12.0801 62.7705 12.3203H60.2393C60.2393 11.916 60.333 11.5322 60.5205 11.1689C60.708 10.8057 60.9805 10.4863 61.3379 10.2109C61.6953 9.92969 62.1201 9.70996 62.6123 9.55176C63.1104 9.39355 63.667 9.31445 64.2822 9.31445C65.0205 9.31445 65.6768 9.4375 66.251 9.68359C66.8252 9.92969 67.2764 10.2988 67.6045 10.791C67.9385 11.2832 68.1055 11.8984 68.1055 12.6367V16.7061C68.1055 17.2275 68.1377 17.6553 68.2021 17.9893C68.2666 18.3174 68.3604 18.6045 68.4834 18.8506V19H65.9258C65.8027 18.7422 65.709 18.4199 65.6445 18.0332C65.5859 17.6406 65.5566 17.248 65.5566 16.8555ZM65.8906 13.208L65.9082 14.6406H64.4932C64.1592 14.6406 63.8691 14.6787 63.623 14.7549C63.377 14.8311 63.1748 14.9395 63.0166 15.0801C62.8584 15.2148 62.7412 15.373 62.665 15.5547C62.5947 15.7363 62.5596 15.9355 62.5596 16.1523C62.5596 16.3691 62.6094 16.5654 62.709 16.7412C62.8086 16.9111 62.9521 17.0459 63.1396 17.1455C63.3271 17.2393 63.5469 17.2861 63.7988 17.2861C64.1797 17.2861 64.5107 17.21 64.792 17.0576C65.0732 16.9053 65.29 16.7178 65.4424 16.4951C65.6006 16.2725 65.6826 16.0615 65.6885 15.8623L66.3564 16.9346C66.2627 17.1748 66.1338 17.4238 65.9697 17.6816C65.8115 17.9395 65.6094 18.1826 65.3633 18.4111C65.1172 18.6338 64.8213 18.8184 64.4756 18.9648C64.1299 19.1055 63.7197 19.1758 63.2451 19.1758C62.6416 19.1758 62.0938 19.0557 61.6016 18.8154C61.1152 18.5693 60.7285 18.2324 60.4414 17.8047C60.1602 17.3711 60.0195 16.8789 60.0195 16.3281C60.0195 15.8301 60.1133 15.3877 60.3008 15.001C60.4883 14.6143 60.7637 14.2891 61.127 14.0254C61.4961 13.7559 61.9561 13.5537 62.5068 13.4189C63.0576 13.2783 63.6963 13.208 64.4229 13.208H65.8906ZM72.5879 11.5645V19H70.0566V9.49023H72.4385L72.5879 11.5645ZM75.4531 9.42871L75.4092 11.7754C75.2861 11.7578 75.1367 11.7432 74.9609 11.7314C74.791 11.7139 74.6357 11.7051 74.4951 11.7051C74.1377 11.7051 73.8271 11.752 73.5635 11.8457C73.3057 11.9336 73.0889 12.0654 72.9131 12.2412C72.7432 12.417 72.6143 12.6309 72.5264 12.8828C72.4443 13.1348 72.3975 13.4219 72.3857 13.7441L71.876 13.5859C71.876 12.9707 71.9375 12.4053 72.0605 11.8896C72.1836 11.3682 72.3623 10.9141 72.5967 10.5273C72.8369 10.1406 73.1299 9.8418 73.4756 9.63086C73.8213 9.41992 74.2168 9.31445 74.6621 9.31445C74.8027 9.31445 74.9463 9.32617 75.0928 9.34961C75.2393 9.36719 75.3594 9.39355 75.4531 9.42871ZM84.374 16.9697L86.9229 6.20312H88.3467L88.6719 7.99609L85.9561 19H84.4268L84.374 16.9697ZM83.0645 6.20312L85.1738 16.9697L84.998 19H83.293L80.4541 6.20312H83.0645ZM90.9131 16.9258L92.9961 6.20312H95.6064L92.7764 19H91.0713L90.9131 16.9258ZM89.1465 6.20312L91.7129 17.0137L91.6426 19H90.1133L87.3799 7.9873L87.7314 6.20312H89.1465ZM100.977 19.1758C100.238 19.1758 99.5762 19.0586 98.9902 18.8242C98.4043 18.584 97.9062 18.2529 97.4961 17.8311C97.0918 17.4092 96.7812 16.9199 96.5645 16.3633C96.3477 15.8008 96.2393 15.2031 96.2393 14.5703V14.2188C96.2393 13.498 96.3418 12.8389 96.5469 12.2412C96.752 11.6436 97.0449 11.125 97.4258 10.6855C97.8125 10.2461 98.2812 9.90918 98.832 9.6748C99.3828 9.43457 100.004 9.31445 100.695 9.31445C101.369 9.31445 101.967 9.42578 102.488 9.64844C103.01 9.87109 103.446 10.1875 103.798 10.5977C104.155 11.0078 104.425 11.5 104.606 12.0742C104.788 12.6426 104.879 13.2754 104.879 13.9727V15.0273H97.3203V13.3398H102.392V13.1465C102.392 12.7949 102.327 12.4814 102.198 12.2061C102.075 11.9248 101.888 11.7021 101.636 11.5381C101.384 11.374 101.062 11.292 100.669 11.292C100.335 11.292 100.048 11.3652 99.8076 11.5117C99.5674 11.6582 99.3711 11.8633 99.2188 12.127C99.0723 12.3906 98.9609 12.7012 98.8848 13.0586C98.8145 13.4102 98.7793 13.7969 98.7793 14.2188V14.5703C98.7793 14.9512 98.832 15.3027 98.9375 15.625C99.0488 15.9473 99.2041 16.2256 99.4033 16.46C99.6084 16.6943 99.8545 16.876 100.142 17.0049C100.435 17.1338 100.766 17.1982 101.135 17.1982C101.592 17.1982 102.017 17.1104 102.409 16.9346C102.808 16.7529 103.15 16.4805 103.438 16.1172L104.668 17.4531C104.469 17.7402 104.196 18.0156 103.851 18.2793C103.511 18.543 103.101 18.7598 102.62 18.9297C102.14 19.0938 101.592 19.1758 100.977 19.1758ZM106.32 5.5H108.852V16.8203L108.597 19H106.32V5.5ZM114.872 14.1484V14.333C114.872 15.042 114.796 15.6924 114.644 16.2842C114.497 16.876 114.269 17.3887 113.958 17.8223C113.647 18.25 113.261 18.584 112.798 18.8242C112.341 19.0586 111.802 19.1758 111.181 19.1758C110.601 19.1758 110.097 19.0586 109.669 18.8242C109.247 18.5898 108.893 18.2588 108.605 17.8311C108.318 17.4033 108.087 16.9023 107.911 16.3281C107.735 15.7539 107.604 15.127 107.516 14.4473V14.043C107.604 13.3633 107.735 12.7363 107.911 12.1621C108.087 11.5879 108.318 11.0869 108.605 10.6592C108.893 10.2314 109.247 9.90039 109.669 9.66602C110.091 9.43164 110.589 9.31445 111.163 9.31445C111.79 9.31445 112.335 9.43457 112.798 9.6748C113.267 9.90918 113.653 10.2432 113.958 10.6768C114.269 11.1045 114.497 11.6143 114.644 12.2061C114.796 12.792 114.872 13.4395 114.872 14.1484ZM112.341 14.333V14.1484C112.341 13.7617 112.312 13.3984 112.253 13.0586C112.2 12.7129 112.106 12.4111 111.972 12.1533C111.837 11.8896 111.652 11.6816 111.418 11.5293C111.189 11.377 110.894 11.3008 110.53 11.3008C110.185 11.3008 109.892 11.3594 109.651 11.4766C109.411 11.5938 109.212 11.7578 109.054 11.9688C108.901 12.1797 108.787 12.4316 108.711 12.7246C108.635 13.0117 108.588 13.3281 108.57 13.6738V14.8252C108.588 15.2881 108.664 15.6982 108.799 16.0557C108.939 16.4072 109.15 16.6855 109.432 16.8906C109.719 17.0898 110.091 17.1895 110.548 17.1895C110.905 17.1895 111.201 17.1191 111.436 16.9785C111.67 16.8379 111.852 16.6387 111.98 16.3809C112.115 16.123 112.209 15.8213 112.262 15.4756C112.314 15.124 112.341 14.7432 112.341 14.333ZM127.748 15.6514C127.748 15.4229 127.713 15.2178 127.643 15.0361C127.578 14.8486 127.455 14.6787 127.273 14.5264C127.092 14.3682 126.837 14.2129 126.509 14.0605C126.181 13.9082 125.756 13.75 125.234 13.5859C124.654 13.3984 124.104 13.1875 123.582 12.9531C123.066 12.7188 122.609 12.4463 122.211 12.1357C121.818 11.8193 121.508 11.4531 121.279 11.0371C121.057 10.6211 120.945 10.1377 120.945 9.58691C120.945 9.05371 121.062 8.57031 121.297 8.13672C121.531 7.69727 121.859 7.32227 122.281 7.01172C122.703 6.69531 123.201 6.45215 123.775 6.28223C124.355 6.1123 124.991 6.02734 125.683 6.02734C126.626 6.02734 127.449 6.19727 128.152 6.53711C128.855 6.87695 129.4 7.34277 129.787 7.93457C130.18 8.52637 130.376 9.20312 130.376 9.96484H127.757C127.757 9.58984 127.678 9.26172 127.52 8.98047C127.367 8.69336 127.133 8.46777 126.816 8.30371C126.506 8.13965 126.113 8.05762 125.639 8.05762C125.182 8.05762 124.801 8.12793 124.496 8.26855C124.191 8.40332 123.963 8.58789 123.811 8.82227C123.658 9.05078 123.582 9.30859 123.582 9.5957C123.582 9.8125 123.635 10.0088 123.74 10.1846C123.852 10.3604 124.016 10.5244 124.232 10.6768C124.449 10.8291 124.716 10.9727 125.032 11.1074C125.349 11.2422 125.715 11.374 126.131 11.5029C126.828 11.7139 127.44 11.9512 127.968 12.2148C128.501 12.4785 128.946 12.7744 129.304 13.1025C129.661 13.4307 129.931 13.8027 130.112 14.2188C130.294 14.6348 130.385 15.1064 130.385 15.6338C130.385 16.1904 130.276 16.6885 130.06 17.1279C129.843 17.5674 129.529 17.9395 129.119 18.2441C128.709 18.5488 128.22 18.7803 127.651 18.9385C127.083 19.0967 126.447 19.1758 125.744 19.1758C125.111 19.1758 124.487 19.0938 123.872 18.9297C123.257 18.7598 122.697 18.5049 122.193 18.165C121.695 17.8252 121.297 17.3916 120.998 16.8643C120.699 16.3369 120.55 15.7129 120.55 14.9922H123.195C123.195 15.3906 123.257 15.7275 123.38 16.0029C123.503 16.2783 123.676 16.501 123.898 16.6709C124.127 16.8408 124.396 16.9639 124.707 17.04C125.023 17.1162 125.369 17.1543 125.744 17.1543C126.201 17.1543 126.576 17.0898 126.869 16.9609C127.168 16.832 127.388 16.6533 127.528 16.4248C127.675 16.1963 127.748 15.9385 127.748 15.6514ZM136.678 9.49023V11.2832H131.141V9.49023H136.678ZM132.512 7.14355H135.043V16.1348C135.043 16.4102 135.078 16.6211 135.148 16.7676C135.225 16.9141 135.336 17.0166 135.482 17.0752C135.629 17.1279 135.813 17.1543 136.036 17.1543C136.194 17.1543 136.335 17.1484 136.458 17.1367C136.587 17.1191 136.695 17.1016 136.783 17.084L136.792 18.9473C136.575 19.0176 136.341 19.0732 136.089 19.1143C135.837 19.1553 135.559 19.1758 135.254 19.1758C134.697 19.1758 134.211 19.085 133.795 18.9033C133.385 18.7158 133.068 18.417 132.846 18.0068C132.623 17.5967 132.512 17.0576 132.512 16.3896V7.14355ZM143.744 16.7236V9.49023H146.275V19H143.894L143.744 16.7236ZM144.025 14.7725L144.772 14.7549C144.772 15.3877 144.699 15.9766 144.553 16.5215C144.406 17.0605 144.187 17.5293 143.894 17.9277C143.601 18.3203 143.231 18.6279 142.786 18.8506C142.341 19.0674 141.816 19.1758 141.213 19.1758C140.75 19.1758 140.322 19.1113 139.93 18.9824C139.543 18.8477 139.209 18.6396 138.928 18.3584C138.652 18.0713 138.436 17.7051 138.277 17.2598C138.125 16.8086 138.049 16.2666 138.049 15.6338V9.49023H140.58V15.6514C140.58 15.9326 140.612 16.1699 140.677 16.3633C140.747 16.5566 140.844 16.7148 140.967 16.8379C141.09 16.9609 141.233 17.0488 141.397 17.1016C141.567 17.1543 141.755 17.1807 141.96 17.1807C142.481 17.1807 142.892 17.0752 143.19 16.8643C143.495 16.6533 143.709 16.3662 143.832 16.0029C143.961 15.6338 144.025 15.2236 144.025 14.7725ZM153.825 16.9258V5.5H156.374V19H154.08L153.825 16.9258ZM147.813 14.3594V14.1748C147.813 13.4482 147.896 12.7891 148.06 12.1973C148.224 11.5996 148.464 11.0869 148.78 10.6592C149.097 10.2314 149.486 9.90039 149.949 9.66602C150.412 9.43164 150.939 9.31445 151.531 9.31445C152.088 9.31445 152.574 9.43164 152.99 9.66602C153.412 9.90039 153.77 10.2344 154.062 10.668C154.361 11.0957 154.602 11.6025 154.783 12.1885C154.965 12.7686 155.097 13.4043 155.179 14.0957V14.5C155.097 15.1621 154.965 15.7773 154.783 16.3457C154.602 16.9141 154.361 17.4121 154.062 17.8398C153.77 18.2617 153.412 18.5898 152.99 18.8242C152.568 19.0586 152.076 19.1758 151.514 19.1758C150.922 19.1758 150.395 19.0557 149.932 18.8154C149.475 18.5752 149.088 18.2383 148.771 17.8047C148.461 17.3711 148.224 16.8613 148.06 16.2754C147.896 15.6895 147.813 15.0508 147.813 14.3594ZM150.345 14.1748V14.3594C150.345 14.752 150.374 15.1182 150.433 15.458C150.497 15.7979 150.6 16.0996 150.74 16.3633C150.887 16.6211 151.074 16.8232 151.303 16.9697C151.537 17.1104 151.821 17.1807 152.155 17.1807C152.589 17.1807 152.946 17.084 153.228 16.8906C153.509 16.6914 153.723 16.4189 153.869 16.0732C154.021 15.7275 154.109 15.3291 154.133 14.8779V13.7266C154.115 13.3574 154.062 13.0264 153.975 12.7334C153.893 12.4346 153.77 12.1797 153.605 11.9688C153.447 11.7578 153.248 11.5938 153.008 11.4766C152.773 11.3594 152.495 11.3008 152.173 11.3008C151.845 11.3008 151.563 11.377 151.329 11.5293C151.095 11.6758 150.904 11.8779 150.758 12.1357C150.617 12.3936 150.512 12.6982 150.441 13.0498C150.377 13.3955 150.345 13.7705 150.345 14.1748ZM161.023 9.49023V19H158.483V9.49023H161.023ZM158.325 7.01172C158.325 6.64258 158.454 6.33789 158.712 6.09766C158.97 5.85742 159.315 5.7373 159.749 5.7373C160.177 5.7373 160.52 5.85742 160.777 6.09766C161.041 6.33789 161.173 6.64258 161.173 7.01172C161.173 7.38086 161.041 7.68555 160.777 7.92578C160.52 8.16602 160.177 8.28613 159.749 8.28613C159.315 8.28613 158.97 8.16602 158.712 7.92578C158.454 7.68555 158.325 7.38086 158.325 7.01172ZM162.711 14.3418V14.1572C162.711 13.46 162.811 12.8184 163.01 12.2324C163.209 11.6406 163.499 11.1279 163.88 10.6943C164.261 10.2607 164.729 9.92383 165.286 9.68359C165.843 9.4375 166.481 9.31445 167.202 9.31445C167.923 9.31445 168.564 9.4375 169.127 9.68359C169.689 9.92383 170.161 10.2607 170.542 10.6943C170.929 11.1279 171.222 11.6406 171.421 12.2324C171.62 12.8184 171.72 13.46 171.72 14.1572V14.3418C171.72 15.0332 171.62 15.6748 171.421 16.2666C171.222 16.8525 170.929 17.3652 170.542 17.8047C170.161 18.2383 169.692 18.5752 169.136 18.8154C168.579 19.0557 167.94 19.1758 167.22 19.1758C166.499 19.1758 165.857 19.0557 165.295 18.8154C164.738 18.5752 164.267 18.2383 163.88 17.8047C163.499 17.3652 163.209 16.8525 163.01 16.2666C162.811 15.6748 162.711 15.0332 162.711 14.3418ZM165.242 14.1572V14.3418C165.242 14.7402 165.277 15.1123 165.348 15.458C165.418 15.8037 165.529 16.1084 165.682 16.3721C165.84 16.6299 166.045 16.832 166.297 16.9785C166.549 17.125 166.856 17.1982 167.22 17.1982C167.571 17.1982 167.873 17.125 168.125 16.9785C168.377 16.832 168.579 16.6299 168.731 16.3721C168.884 16.1084 168.995 15.8037 169.065 15.458C169.142 15.1123 169.18 14.7402 169.18 14.3418V14.1572C169.18 13.7705 169.142 13.4072 169.065 13.0674C168.995 12.7217 168.881 12.417 168.723 12.1533C168.57 11.8838 168.368 11.6729 168.116 11.5205C167.864 11.3682 167.56 11.292 167.202 11.292C166.845 11.292 166.54 11.3682 166.288 11.5205C166.042 11.6729 165.84 11.8838 165.682 12.1533C165.529 12.417 165.418 12.7217 165.348 13.0674C165.277 13.4072 165.242 13.7705 165.242 14.1572Z" fill="black"/>
<path d="M19.1174 9.70034C19.5865 9.36193 20.1082 8.98547 20.6858 8.55989C19.9859 8.7259 19.363 8.88018 18.8031 9.01898C16.2339 9.65556 14.9489 9.97376 13.844 9.53237C12.741 9.09178 11.9478 7.94618 10.3656 5.65674L10.3583 5.64642C10.0114 5.14439 9.62542 4.5861 9.1897 3.96764C9.38026 4.70187 9.55626 5.35558 9.71464 5.94317C10.4409 8.63925 10.8039 9.98776 10.4264 11.116C10.0495 12.2425 8.97894 13.0163 6.83939 14.5597L6.82985 14.5669C6.36069 14.9053 5.83892 15.2817 5.26134 15.7072C5.9613 15.5413 6.58423 15.3871 7.14416 15.2483C9.71332 14.6117 10.9983 14.2934 12.1031 14.7347C13.2061 15.1754 13.9994 16.3209 15.5816 18.6104L15.5889 18.6208C15.9358 19.1228 16.3218 19.6811 16.7574 20.2995C16.5669 19.5653 16.3909 18.9116 16.2326 18.324C15.5063 15.6279 15.1432 14.2794 15.5208 13.1511C15.8978 12.0247 16.9683 11.251 19.1078 9.70746L19.1174 9.70034Z" fill="black"/>
</g>
<defs>
<clipPath id="clip0_20_6">
<rect width="180" height="25" fill="white"/>
</clipPath>
</defs>
</svg>
