<?xml version="1.0" encoding="UTF-8"?>
<svg xmlns="http://www.w3.org/2000/svg" xmlns:xlink="http://www.w3.org/1999/xlink" width="3873" height="3873" viewBox="0 0 3873 3873">
<defs>
<clipPath id="clip-0">
<path clip-rule="evenodd" d="M 1936.5 0 C 3006 0 3873 867 3873 1936.5 C 3873 3006 3006 3873 1936.5 3873 C 867 3873 0 3006 0 1936.5 C 0 867 867 0 1936.5 0 "/>
</clipPath>
<radialGradient id="radial-pattern-0" gradientUnits="userSpaceOnUse" cx="0" cy="0" fx="0" fy="0" r="1549.19" gradientTransform="matrix(1, 0, 0, 1, 1936.5, 1936.5)">
<stop offset="0" stop-color="rgb(33.201599%, 33.201599%, 33.201599%)" stop-opacity="1"/>
<stop offset="0.0078125" stop-color="rgb(32.876587%, 32.876587%, 32.876587%)" stop-opacity="1"/>
<stop offset="0.0195312" stop-color="rgb(32.485962%, 32.485962%, 32.485962%)" stop-opacity="1"/>
<stop offset="0.03125" stop-color="rgb(32.095337%, 32.095337%, 32.095337%)" stop-opacity="1"/>
<stop offset="0.0429688" stop-color="rgb(31.704712%, 31.704712%, 31.704712%)" stop-opacity="1"/>
<stop offset="0.0546875" stop-color="rgb(31.314087%, 31.314087%, 31.314087%)" stop-opacity="1"/>
<stop offset="0.0664062" stop-color="rgb(30.923462%, 30.923462%, 30.923462%)" stop-opacity="1"/>
<stop offset="0.078125" stop-color="rgb(30.532837%, 30.532837%, 30.532837%)" stop-opacity="1"/>
<stop offset="0.0898438" stop-color="rgb(30.142212%, 30.142212%, 30.142212%)" stop-opacity="1"/>
<stop offset="0.101562" stop-color="rgb(29.751587%, 29.751587%, 29.751587%)" stop-opacity="1"/>
<stop offset="0.113281" stop-color="rgb(29.360962%, 29.360962%, 29.360962%)" stop-opacity="1"/>
<stop offset="0.125" stop-color="rgb(28.970337%, 28.970337%, 28.970337%)" stop-opacity="1"/>
<stop offset="0.136719" stop-color="rgb(28.579712%, 28.579712%, 28.579712%)" stop-opacity="1"/>
<stop offset="0.148438" stop-color="rgb(28.189087%, 28.189087%, 28.189087%)" stop-opacity="1"/>
<stop offset="0.160156" stop-color="rgb(27.798462%, 27.798462%, 27.798462%)" stop-opacity="1"/>
<stop offset="0.171875" stop-color="rgb(27.407837%, 27.407837%, 27.407837%)" stop-opacity="1"/>
<stop offset="0.183594" stop-color="rgb(27.017212%, 27.017212%, 27.017212%)" stop-opacity="1"/>
<stop offset="0.195312" stop-color="rgb(26.626587%, 26.626587%, 26.626587%)" stop-opacity="1"/>
<stop offset="0.207031" stop-color="rgb(26.235962%, 26.235962%, 26.235962%)" stop-opacity="1"/>
<stop offset="0.21875" stop-color="rgb(25.845337%, 25.845337%, 25.845337%)" stop-opacity="1"/>
<stop offset="0.230469" stop-color="rgb(25.454712%, 25.454712%, 25.454712%)" stop-opacity="1"/>
<stop offset="0.242188" stop-color="rgb(25.064087%, 25.064087%, 25.064087%)" stop-opacity="1"/>
<stop offset="0.253906" stop-color="rgb(24.737549%, 24.737549%, 24.737549%)" stop-opacity="1"/>
<stop offset="0.261719" stop-color="rgb(24.478149%, 24.478149%, 24.478149%)" stop-opacity="1"/>
<stop offset="0.269531" stop-color="rgb(24.217224%, 24.217224%, 24.217224%)" stop-opacity="1"/>
<stop offset="0.277344" stop-color="rgb(23.956299%, 23.956299%, 23.956299%)" stop-opacity="1"/>
<stop offset="0.285156" stop-color="rgb(23.696899%, 23.696899%, 23.696899%)" stop-opacity="1"/>
<stop offset="0.292969" stop-color="rgb(23.435974%, 23.435974%, 23.435974%)" stop-opacity="1"/>
<stop offset="0.300781" stop-color="rgb(23.175049%, 23.175049%, 23.175049%)" stop-opacity="1"/>
<stop offset="0.308594" stop-color="rgb(22.915649%, 22.915649%, 22.915649%)" stop-opacity="1"/>
<stop offset="0.316406" stop-color="rgb(22.654724%, 22.654724%, 22.654724%)" stop-opacity="1"/>
<stop offset="0.324219" stop-color="rgb(22.393799%, 22.393799%, 22.393799%)" stop-opacity="1"/>
<stop offset="0.332031" stop-color="rgb(22.134399%, 22.134399%, 22.134399%)" stop-opacity="1"/>
<stop offset="0.339844" stop-color="rgb(21.873474%, 21.873474%, 21.873474%)" stop-opacity="1"/>
<stop offset="0.347656" stop-color="rgb(21.612549%, 21.612549%, 21.612549%)" stop-opacity="1"/>
<stop offset="0.355469" stop-color="rgb(21.353149%, 21.353149%, 21.353149%)" stop-opacity="1"/>
<stop offset="0.363281" stop-color="rgb(21.092224%, 21.092224%, 21.092224%)" stop-opacity="1"/>
<stop offset="0.371094" stop-color="rgb(20.831299%, 20.831299%, 20.831299%)" stop-opacity="1"/>
<stop offset="0.378906" stop-color="rgb(20.571899%, 20.571899%, 20.571899%)" stop-opacity="1"/>
<stop offset="0.386719" stop-color="rgb(20.310974%, 20.310974%, 20.310974%)" stop-opacity="1"/>
<stop offset="0.394531" stop-color="rgb(20.050049%, 20.050049%, 20.050049%)" stop-opacity="1"/>
<stop offset="0.402344" stop-color="rgb(19.790649%, 19.790649%, 19.790649%)" stop-opacity="1"/>
<stop offset="0.410156" stop-color="rgb(19.529724%, 19.529724%, 19.529724%)" stop-opacity="1"/>
<stop offset="0.417969" stop-color="rgb(19.268799%, 19.268799%, 19.268799%)" stop-opacity="1"/>
<stop offset="0.425781" stop-color="rgb(19.009399%, 19.009399%, 19.009399%)" stop-opacity="1"/>
<stop offset="0.433594" stop-color="rgb(18.748474%, 18.748474%, 18.748474%)" stop-opacity="1"/>
<stop offset="0.441406" stop-color="rgb(18.487549%, 18.487549%, 18.487549%)" stop-opacity="1"/>
<stop offset="0.449219" stop-color="rgb(18.228149%, 18.228149%, 18.228149%)" stop-opacity="1"/>
<stop offset="0.457031" stop-color="rgb(17.967224%, 17.967224%, 17.967224%)" stop-opacity="1"/>
<stop offset="0.464844" stop-color="rgb(17.706299%, 17.706299%, 17.706299%)" stop-opacity="1"/>
<stop offset="0.472656" stop-color="rgb(17.446899%, 17.446899%, 17.446899%)" stop-opacity="1"/>
<stop offset="0.480469" stop-color="rgb(17.185974%, 17.185974%, 17.185974%)" stop-opacity="1"/>
<stop offset="0.488281" stop-color="rgb(16.925049%, 16.925049%, 16.925049%)" stop-opacity="1"/>
<stop offset="0.496094" stop-color="rgb(16.665649%, 16.665649%, 16.665649%)" stop-opacity="1"/>
<stop offset="0.503906" stop-color="rgb(16.340637%, 16.340637%, 16.340637%)" stop-opacity="1"/>
<stop offset="0.515625" stop-color="rgb(15.950012%, 15.950012%, 15.950012%)" stop-opacity="1"/>
<stop offset="0.527344" stop-color="rgb(15.559387%, 15.559387%, 15.559387%)" stop-opacity="1"/>
<stop offset="0.539062" stop-color="rgb(15.168762%, 15.168762%, 15.168762%)" stop-opacity="1"/>
<stop offset="0.550781" stop-color="rgb(14.778137%, 14.778137%, 14.778137%)" stop-opacity="1"/>
<stop offset="0.5625" stop-color="rgb(14.387512%, 14.387512%, 14.387512%)" stop-opacity="1"/>
<stop offset="0.574219" stop-color="rgb(13.996887%, 13.996887%, 13.996887%)" stop-opacity="1"/>
<stop offset="0.585938" stop-color="rgb(13.606262%, 13.606262%, 13.606262%)" stop-opacity="1"/>
<stop offset="0.597656" stop-color="rgb(13.215637%, 13.215637%, 13.215637%)" stop-opacity="1"/>
<stop offset="0.609375" stop-color="rgb(12.825012%, 12.825012%, 12.825012%)" stop-opacity="1"/>
<stop offset="0.621094" stop-color="rgb(12.434387%, 12.434387%, 12.434387%)" stop-opacity="1"/>
<stop offset="0.632812" stop-color="rgb(12.107849%, 12.107849%, 12.107849%)" stop-opacity="1"/>
<stop offset="0.640625" stop-color="rgb(11.846924%, 11.846924%, 11.846924%)" stop-opacity="1"/>
<stop offset="0.648438" stop-color="rgb(11.587524%, 11.587524%, 11.587524%)" stop-opacity="1"/>
<stop offset="0.65625" stop-color="rgb(11.326599%, 11.326599%, 11.326599%)" stop-opacity="1"/>
<stop offset="0.664062" stop-color="rgb(11.065674%, 11.065674%, 11.065674%)" stop-opacity="1"/>
<stop offset="0.671875" stop-color="rgb(10.806274%, 10.806274%, 10.806274%)" stop-opacity="1"/>
<stop offset="0.679688" stop-color="rgb(10.545349%, 10.545349%, 10.545349%)" stop-opacity="1"/>
<stop offset="0.6875" stop-color="rgb(10.284424%, 10.284424%, 10.284424%)" stop-opacity="1"/>
<stop offset="0.695312" stop-color="rgb(10.025024%, 10.025024%, 10.025024%)" stop-opacity="1"/>
<stop offset="0.703125" stop-color="rgb(9.764099%, 9.764099%, 9.764099%)" stop-opacity="1"/>
<stop offset="0.710938" stop-color="rgb(9.503174%, 9.503174%, 9.503174%)" stop-opacity="1"/>
<stop offset="0.71875" stop-color="rgb(9.243774%, 9.243774%, 9.243774%)" stop-opacity="1"/>
<stop offset="0.726562" stop-color="rgb(8.982849%, 8.982849%, 8.982849%)" stop-opacity="1"/>
<stop offset="0.734375" stop-color="rgb(8.721924%, 8.721924%, 8.721924%)" stop-opacity="1"/>
<stop offset="0.742188" stop-color="rgb(8.462524%, 8.462524%, 8.462524%)" stop-opacity="1"/>
<stop offset="0.75" stop-color="rgb(8.201599%, 8.201599%, 8.201599%)" stop-opacity="1"/>
<stop offset="0.757812" stop-color="rgb(7.876587%, 7.876587%, 7.876587%)" stop-opacity="1"/>
<stop offset="0.769531" stop-color="rgb(7.485962%, 7.485962%, 7.485962%)" stop-opacity="1"/>
<stop offset="0.78125" stop-color="rgb(7.095337%, 7.095337%, 7.095337%)" stop-opacity="1"/>
<stop offset="0.792969" stop-color="rgb(6.704712%, 6.704712%, 6.704712%)" stop-opacity="1"/>
<stop offset="0.804688" stop-color="rgb(6.314087%, 6.314087%, 6.314087%)" stop-opacity="1"/>
<stop offset="0.816406" stop-color="rgb(5.987549%, 5.987549%, 5.987549%)" stop-opacity="1"/>
<stop offset="0.824219" stop-color="rgb(5.728149%, 5.728149%, 5.728149%)" stop-opacity="1"/>
<stop offset="0.832031" stop-color="rgb(5.467224%, 5.467224%, 5.467224%)" stop-opacity="1"/>
<stop offset="0.839844" stop-color="rgb(5.206299%, 5.206299%, 5.206299%)" stop-opacity="1"/>
<stop offset="0.847656" stop-color="rgb(4.946899%, 4.946899%, 4.946899%)" stop-opacity="1"/>
<stop offset="0.855469" stop-color="rgb(4.685974%, 4.685974%, 4.685974%)" stop-opacity="1"/>
<stop offset="0.863281" stop-color="rgb(4.425049%, 4.425049%, 4.425049%)" stop-opacity="1"/>
<stop offset="0.871094" stop-color="rgb(4.165649%, 4.165649%, 4.165649%)" stop-opacity="1"/>
<stop offset="0.878906" stop-color="rgb(3.840637%, 3.840637%, 3.840637%)" stop-opacity="1"/>
<stop offset="0.890625" stop-color="rgb(3.450012%, 3.450012%, 3.450012%)" stop-opacity="1"/>
<stop offset="0.902344" stop-color="rgb(3.059387%, 3.059387%, 3.059387%)" stop-opacity="1"/>
<stop offset="0.914062" stop-color="rgb(2.732849%, 2.732849%, 2.732849%)" stop-opacity="1"/>
<stop offset="0.921875" stop-color="rgb(2.471924%, 2.471924%, 2.471924%)" stop-opacity="1"/>
<stop offset="0.929688" stop-color="rgb(2.212524%, 2.212524%, 2.212524%)" stop-opacity="1"/>
<stop offset="0.9375" stop-color="rgb(1.951599%, 1.951599%, 1.951599%)" stop-opacity="1"/>
<stop offset="0.945312" stop-color="rgb(1.626587%, 1.626587%, 1.626587%)" stop-opacity="1"/>
<stop offset="0.957031" stop-color="rgb(1.300049%, 1.300049%, 1.300049%)" stop-opacity="1"/>
<stop offset="0.964844" stop-color="rgb(1.040649%, 1.040649%, 1.040649%)" stop-opacity="1"/>
<stop offset="0.972656" stop-color="rgb(0.715637%, 0.715637%, 0.715637%)" stop-opacity="1"/>
<stop offset="0.984375" stop-color="rgb(0.389099%, 0.389099%, 0.389099%)" stop-opacity="1"/>
<stop offset="0.992188" stop-color="rgb(0.1297%, 0.1297%, 0.1297%)" stop-opacity="1"/>
<stop offset="1" stop-color="rgb(0%, 0%, 0%)" stop-opacity="1"/>
</radialGradient>
</defs>
<g clip-path="url(#clip-0)">
<rect x="-387.3" y="-387.3" width="4647.6" height="4647.6" fill="url(#radial-pattern-0)"/>
</g>
<path fill-rule="evenodd" fill="rgb(100%, 100%, 99.609375%)" fill-opacity="1" d="M 1569.898438 1887.101562 L 1078.5 1887.101562 C 1061.800781 1887.101562 1048.5 1873.800781 1048.5 1857.101562 C 1048.5 1840.398438 1061.800781 1827.101562 1078.5 1827.101562 L 1569.898438 1827.101562 C 1586.601562 1827.101562 1599.898438 1840.398438 1599.898438 1857.101562 C 1599.898438 1873.800781 1586.601562 1887.101562 1569.898438 1887.101562 "/>
<path fill-rule="evenodd" fill="rgb(100%, 100%, 99.609375%)" fill-opacity="1" d="M 1569.898438 1649.5 L 1078.5 1649.5 C 1061.800781 1649.5 1048.5 1636.199219 1048.5 1619.5 C 1048.5 1602.800781 1061.800781 1589.5 1078.5 1589.5 L 1569.898438 1589.5 C 1586.601562 1589.5 1599.898438 1602.800781 1599.898438 1619.5 C 1599.898438 1636.199219 1586.601562 1649.5 1569.898438 1649.5 "/>
<path fill-rule="evenodd" fill="rgb(100%, 100%, 99.609375%)" fill-opacity="1" d="M 1051.398438 1523.601562 C 1007.601562 1523.601562 972.199219 1559 972.199219 1602.800781 L 972.199219 1873.699219 C 972.199219 1917.5 1007.601562 1952.898438 1051.398438 1952.898438 L 1401.101562 1952.898438 C 1406.898438 1952.898438 1412.800781 1954.601562 1417.800781 1957.898438 L 1567.898438 2057.898438 L 1567.898438 1982.898438 C 1567.898438 1966.199219 1581.199219 1952.898438 1597.898438 1952.898438 C 1641.699219 1952.898438 1677.101562 1917.5 1677.101562 1873.699219 L 1677.101562 1602.800781 C 1677.101562 1559 1641.699219 1523.601562 1597.898438 1523.601562 Z M 1597.398438 2143.898438 C 1591.601562 2143.898438 1585.699219 2142.199219 1580.699219 2138.898438 L 1391.5 2013 L 1051 2013 C 974.300781 2013 911.800781 1950.5 911.800781 1873.800781 L 911.800781 1602.898438 C 911.800781 1526.199219 974.300781 1463.699219 1051 1463.699219 L 1597 1463.699219 C 1673.699219 1463.699219 1736.199219 1526.199219 1736.199219 1602.898438 L 1736.199219 1873.800781 C 1736.199219 1940.101562 1689.5 1995.898438 1627 2009.699219 L 1627 2113.898438 C 1627 2125.199219 1620.699219 2135.199219 1611.199219 2140.199219 C 1607 2142.601562 1602.398438 2143.898438 1597.398438 2143.898438 "/>
<path fill-rule="evenodd" fill="rgb(100%, 100%, 99.609375%)" fill-opacity="1" d="M 1569.898438 1768.300781 L 1078.5 1768.300781 C 1061.800781 1768.300781 1048.5 1755 1048.5 1738.300781 C 1048.5 1721.601562 1061.800781 1708.300781 1078.5 1708.300781 L 1569.898438 1708.300781 C 1586.601562 1708.300781 1599.898438 1721.601562 1599.898438 1738.300781 C 1599.898438 1755 1586.601562 1768.300781 1569.898438 1768.300781 "/>
<path fill-rule="evenodd" fill="rgb(100%, 100%, 99.609375%)" fill-opacity="1" d="M 1980.101562 2772 C 1963.398438 2772 1950.101562 2758.699219 1950.101562 2742 L 1950.101562 2417.699219 C 1950.101562 2401 1963.398438 2387.699219 1980.101562 2387.699219 C 1996.800781 2387.699219 2010.101562 2401 2010.101562 2417.699219 L 2010.101562 2742 C 2010.101562 2758.199219 1996.300781 2772 1980.101562 2772 "/>
<path fill-rule="evenodd" fill="rgb(100%, 100%, 99.609375%)" fill-opacity="1" d="M 2651.5 2772 C 2634.800781 2772 2621.5 2758.699219 2621.5 2742 L 2621.5 2417.699219 C 2621.5 2401 2634.800781 2387.699219 2651.5 2387.699219 C 2668.199219 2387.699219 2681.5 2401 2681.5 2417.699219 L 2681.5 2742 C 2681.601562 2758.199219 2668.199219 2772 2651.5 2772 "/>
<path fill-rule="evenodd" fill="rgb(100%, 100%, 99.609375%)" fill-opacity="1" d="M 1730.800781 2712 L 2900.800781 2712 L 2900.800781 2317.300781 C 2900.800781 2239.398438 2837.398438 2176 2759.5 2176 L 2505.699219 2176 C 2491.101562 2267.699219 2411.5 2338.101562 2315.601562 2338.101562 C 2219.699219 2338.101562 2140.101562 2267.699219 2125.5 2176 L 1871.699219 2176 C 1793.800781 2176 1730.398438 2239.398438 1730.398438 2317.300781 L 1730.398438 2712 Z M 2930.800781 2772 L 1700.800781 2772 C 1684.101562 2772 1670.800781 2758.699219 1670.800781 2742 L 1670.800781 2317.300781 C 1670.800781 2206.398438 1761.199219 2116 1872.101562 2116 L 2153.898438 2116 C 2170.601562 2116 2183.898438 2129.300781 2183.898438 2146 C 2183.898438 2218.898438 2243.101562 2278.101562 2316 2278.101562 C 2388.898438 2278.101562 2448.101562 2218.898438 2448.101562 2146 C 2448.101562 2129.300781 2461.398438 2116 2478.101562 2116 L 2759.898438 2116 C 2870.800781 2116 2961.199219 2206.398438 2961.199219 2317.300781 L 2961.199219 2742 C 2960.800781 2758.199219 2947.5 2772 2930.800781 2772 "/>
<path fill-rule="evenodd" fill="rgb(100%, 100%, 99.609375%)" fill-opacity="1" d="M 2183.5 2068.398438 L 2183.5 2145.5 C 2183.5 2218.398438 2242.699219 2277.601562 2315.601562 2277.601562 C 2388.5 2277.601562 2447.699219 2218.398438 2447.699219 2145.5 L 2447.699219 2068.398438 C 2406 2085.5 2361 2094.199219 2315.601562 2094.199219 C 2270.199219 2094.699219 2225.601562 2085.5 2183.5 2068.398438 Z M 2315.601562 2337.699219 C 2209.699219 2337.699219 2123.398438 2251.398438 2123.398438 2145.601562 L 2123.398438 2020.101562 C 2123.398438 2009.300781 2129.199219 1999.300781 2138.398438 1993.800781 C 2147.601562 1988.398438 2159.199219 1988.398438 2168.398438 1993.800781 C 2213 2020.101562 2263.898438 2033.800781 2315.5 2033.800781 C 2367.199219 2033.800781 2418 2020 2462.601562 1993.800781 C 2471.800781 1988.398438 2483.398438 1988.398438 2492.601562 1993.800781 C 2501.800781 1999.199219 2507.601562 2009.199219 2507.601562 2020.101562 L 2507.601562 2145.601562 C 2508.199219 2251.800781 2421.898438 2337.699219 2315.601562 2337.699219 "/>
<path fill-rule="evenodd" fill="rgb(100%, 100%, 99.609375%)" fill-opacity="1" d="M 1898.398438 1578.199219 C 1890.5 1578.199219 1883 1575.300781 1877.101562 1569.398438 C 1871.300781 1563.601562 1868.300781 1556.101562 1868.300781 1548.101562 C 1868.300781 1301.300781 2069.199219 1100.898438 2315.5 1100.898438 C 2562.300781 1100.898438 2762.699219 1301.800781 2762.699219 1548.101562 C 2762.699219 1564.800781 2749.398438 1578.101562 2732.699219 1578.101562 L 2732.300781 1548.101562 L 2702.699219 1548.101562 C 2702.699219 1334.699219 2528.898438 1160.898438 2315.5 1160.898438 C 2102.898438 1160.898438 1930 1333 1928.300781 1545.199219 C 1928.300781 1546 1928.300781 1546.898438 1928.300781 1548.101562 C 1928.300781 1564.800781 1915.398438 1578.101562 1898.699219 1578.5 L 1898.398438 1578.199219 C 1898.800781 1578.199219 1898.398438 1578.199219 1898.398438 1578.199219 "/>
<path fill-rule="evenodd" fill="rgb(100%, 100%, 99.609375%)" fill-opacity="1" d="M 2315.601562 1256.5 C 2154.699219 1256.5 2023.800781 1387.398438 2023.800781 1548.300781 L 2023.800781 1743.398438 C 2023.800781 1904.300781 2154.699219 2035.199219 2315.601562 2035.199219 C 2476.5 2035.199219 2607.398438 1904.300781 2607.398438 1743.398438 L 2607.398438 1548.300781 C 2607.398438 1387.300781 2476.5 1256.5 2315.601562 1256.5 Z M 2315.601562 2094.699219 C 2121.800781 2094.699219 1963.800781 1937.101562 1963.800781 1742.898438 L 1963.800781 1547.800781 C 1963.800781 1354 2121.398438 1196 2315.601562 1196 C 2509.800781 1196 2667.398438 1353.601562 2667.398438 1547.800781 L 2667.398438 1742.898438 C 2667.398438 1936.699219 2509.800781 2094.699219 2315.601562 2094.699219 "/>
<path fill-rule="evenodd" fill="rgb(100%, 100%, 99.609375%)" fill-opacity="1" d="M 2397.300781 1625.300781 C 2359 1625.300781 2324.800781 1619.898438 2302.699219 1605.699219 C 2285.601562 1594.898438 2274.800781 1579 2271.898438 1559.898438 C 2271.5 1558.199219 2271.5 1556.601562 2266.898438 1553.601562 C 2228.601562 1529 2088.898438 1552.300781 2002.199219 1576.898438 C 1986.398438 1581.5 1969.699219 1572.300781 1965.101562 1556.101562 C 1960.5 1540.300781 1969.699219 1523.601562 1985.898438 1519 C 2025.101562 1507.699219 2224.300781 1455.199219 2298.898438 1502.699219 C 2316.800781 1514 2327.699219 1530.601562 2331 1550.199219 C 2331 1551 2331.398438 1552.699219 2334.800781 1554.800781 C 2374.800781 1580.601562 2531.101562 1553.5 2629.101562 1526 C 2644.898438 1521.398438 2661.601562 1531 2666.199219 1546.800781 C 2670.800781 1562.601562 2661.199219 1579.300781 2645.398438 1583.898438 C 2614.398438 1592.800781 2492.699219 1625.300781 2397.300781 1625.300781 "/>
<path fill-rule="evenodd" fill="rgb(100%, 100%, 99.609375%)" fill-opacity="1" d="M 1898.800781 1578.199219 C 1879.199219 1578.199219 1863.398438 1594 1863.398438 1613.601562 L 1863.398438 1677.398438 C 1863.398438 1697 1879.199219 1712.800781 1898.800781 1712.800781 L 1964.199219 1712.800781 L 1964.199219 1577.800781 L 1898.800781 1577.800781 Z M 1994.199219 1772.898438 L 1898.800781 1772.898438 C 1846.300781 1772.898438 1803.300781 1730 1803.300781 1677.5 L 1803.300781 1613.699219 C 1803.300781 1561.199219 1846.199219 1518.199219 1898.800781 1518.199219 L 1994.199219 1518.199219 C 2010.898438 1518.199219 2024.199219 1531.5 2024.199219 1548.199219 L 2024.199219 1743.300781 C 2024.199219 1759.601562 2010.898438 1772.898438 1994.199219 1772.898438 "/>
<path fill-rule="evenodd" fill="rgb(100%, 100%, 99.609375%)" fill-opacity="1" d="M 2667.398438 1712.898438 L 2732.800781 1712.898438 C 2752.398438 1712.898438 2768.199219 1697.101562 2768.199219 1677.5 L 2768.199219 1613.699219 C 2768.199219 1594.101562 2752.398438 1578.300781 2732.800781 1578.300781 L 2667.398438 1578.300781 Z M 2732.800781 1772.898438 L 2637.300781 1772.898438 C 2620.601562 1772.898438 2607.300781 1759.601562 2607.300781 1742.898438 L 2607.300781 1547.800781 C 2607.300781 1531.101562 2620.601562 1517.800781 2637.300781 1517.800781 L 2732.800781 1517.800781 C 2785.300781 1517.800781 2828.300781 1560.699219 2828.300781 1613.300781 L 2828.300781 1677.101562 C 2828.300781 1730 2785.300781 1772.898438 2732.800781 1772.898438 "/>
<path fill-rule="evenodd" fill="rgb(100%, 100%, 99.609375%)" fill-opacity="1" d="M 2627.398438 1944.601562 L 2395.699219 1944.601562 C 2379 1944.601562 2365.699219 1931.300781 2365.699219 1914.601562 C 2365.699219 1897.898438 2379 1884.601562 2395.699219 1884.601562 L 2627.398438 1884.601562 C 2658.199219 1884.601562 2683.300781 1859.601562 2683.300781 1828.699219 L 2683.300781 1742.800781 C 2683.300781 1726.101562 2696.601562 1712.800781 2713.300781 1712.800781 C 2730 1712.800781 2743.300781 1726.101562 2743.300781 1742.800781 L 2743.300781 1828.699219 C 2742.800781 1892.5 2691.101562 1944.601562 2627.398438 1944.601562 "/>
<path fill-rule="evenodd" fill="rgb(100%, 100%, 99.609375%)" fill-opacity="1" d="M 2335.601562 1884.601562 C 2318.898438 1884.601562 2305.601562 1897.898438 2305.601562 1914.601562 C 2305.601562 1931.300781 2318.898438 1944.601562 2335.601562 1944.601562 C 2352.300781 1944.601562 2365.601562 1931.300781 2365.601562 1914.601562 C 2365.601562 1897.898438 2351.898438 1884.601562 2335.601562 1884.601562 Z M 2335.601562 2004.199219 C 2286 2004.199219 2245.601562 1963.800781 2245.601562 1914.199219 C 2245.601562 1864.601562 2286 1824.199219 2335.601562 1824.199219 C 2385.199219 1824.199219 2425.601562 1864.601562 2425.601562 1914.199219 C 2425.601562 1963.800781 2385.199219 2004.199219 2335.601562 2004.199219 "/>
</svg>
