<svg width="91" height="50" viewBox="0 0 91 50" fill="none" xmlns="http://www.w3.org/2000/svg">
<path d="M90 0H0V50H90V0Z" fill="white"/>
<mask id="mask0_1_67" style="mask-type:luminance" maskUnits="userSpaceOnUse" x="24" y="3" width="38" height="44">
<path d="M24.5605 3.27832H61.294V46.726H24.5605V3.27832Z" fill="white"/>
</mask>
<g mask="url(#mask0_1_67)">
<mask id="mask1_1_67" style="mask-type:luminance" maskUnits="userSpaceOnUse" x="24" y="3" width="38" height="44">
<path d="M61.1266 12.7701C60.912 10.8902 60.4211 9.06837 59.4832 7.36252C57.652 4.03495 54.5125 2.66588 50.7006 3.60222C47.3727 4.41923 44.6149 6.16028 42.1079 8.2316C40.9122 9.21953 39.7532 10.2359 38.3925 11.0365C37.181 11.7487 35.9333 12.3342 34.6493 12.7942C33.1179 13.3422 31.3501 13.0471 30.2022 11.9753C29.5641 11.3791 28.6538 11.0247 27.6539 11.0777C26.0227 11.1655 24.6931 12.3595 24.5798 13.8407C24.4464 15.5842 25.9625 17.0359 27.8517 17.0359C28.7827 17.0359 29.6227 16.6835 30.2197 16.117C30.9419 15.4313 31.9464 15.0536 32.9895 15.0097C35.6803 14.8981 38.3339 14.2809 40.9502 13.1491C42.7978 12.3497 44.3847 11.2079 45.9951 10.0867C47.6221 8.95483 49.3453 7.95991 51.3509 7.46064C53.9476 6.81383 55.8522 7.67664 56.8564 9.9442C57.2489 10.8297 57.4422 11.7585 57.5481 12.7052C57.7369 14.3827 57.6433 16.0533 57.3661 17.716C56.8686 20.6981 56.0251 23.564 54.1608 26.1291C52.758 28.0594 51.9294 30.2416 51.0923 32.4103C50.2057 34.7068 49.4126 37.0346 48.3098 39.2583C48.2637 39.3516 48.2894 39.5261 48.1069 39.5187C47.8658 38.5592 47.6595 37.6019 47.3818 36.6619C46.903 35.04 46.2925 33.4645 45.0867 32.1463C44.0613 31.0256 42.7529 30.386 41.069 30.2442C41.6042 30.8662 42.0143 31.4802 42.3334 32.1437C43.233 34.0132 43.6356 35.9973 43.9887 37.9939C44.3099 39.8101 44.4762 41.6491 44.9143 43.4482C45.1512 44.419 45.3997 45.3934 46.0808 46.208C46.4805 46.6871 47.2255 46.8221 47.7918 46.5106C48.2345 46.2666 48.5822 45.9267 48.8917 45.5581C50.3006 43.8834 51.2552 41.9801 52.1936 40.0724C53.2699 37.8844 53.9937 35.5783 54.8669 33.3218C55.6193 31.3766 56.398 29.4407 57.6703 27.712C58.5538 26.5121 59.2395 25.2255 59.7564 23.8646C61.1245 20.2606 61.5584 16.5545 61.1266 12.7701Z" fill="white"/>
</mask>
<g mask="url(#mask1_1_67)">
<mask id="mask2_1_67" style="mask-type:luminance" maskUnits="userSpaceOnUse" x="24" y="3" width="38" height="44">
<path d="M61.1266 12.7701C60.912 10.8902 60.4211 9.06837 59.4832 7.36252C57.652 4.03495 54.5125 2.66588 50.7006 3.60222C47.3727 4.41923 44.6149 6.16028 42.1079 8.2316C40.9122 9.21953 39.7532 10.2359 38.3925 11.0365C37.181 11.7487 35.9333 12.3342 34.6493 12.7942C33.1179 13.3422 31.3501 13.0471 30.2022 11.9753C29.5641 11.3791 28.6538 11.0247 27.6539 11.0777C26.0227 11.1655 24.6931 12.3595 24.5798 13.8407C24.4464 15.5842 25.9625 17.0359 27.8517 17.0359C28.7827 17.0359 29.6227 16.6835 30.2197 16.117C30.9419 15.4313 31.9464 15.0536 32.9895 15.0097C35.6803 14.8981 38.3339 14.2809 40.9502 13.1491C42.7978 12.3497 44.3847 11.2079 45.9951 10.0867C47.6221 8.95483 49.3453 7.95991 51.3509 7.46064C53.9476 6.81383 55.8522 7.67664 56.8564 9.9442C57.2489 10.8297 57.4422 11.7585 57.5481 12.7052C57.7369 14.3827 57.6433 16.0533 57.3661 17.716C56.8686 20.6981 56.0251 23.564 54.1608 26.1291C52.758 28.0594 51.9294 30.2416 51.0923 32.4103C50.2057 34.7068 49.4126 37.0346 48.3098 39.2583C48.2637 39.3516 48.2894 39.5261 48.1069 39.5187C47.8658 38.5592 47.6595 37.6019 47.3818 36.6619C46.903 35.04 46.2925 33.4645 45.0867 32.1463C44.0613 31.0256 42.7529 30.386 41.069 30.2442C41.6042 30.8662 42.0143 31.4802 42.3334 32.1437C43.233 34.0132 43.6356 35.9973 43.9887 37.9939C44.3099 39.8101 44.4762 41.6491 44.9143 43.4482C45.1512 44.419 45.3997 45.3934 46.0808 46.208C46.4805 46.6871 47.2255 46.8221 47.7918 46.5106C48.2345 46.2666 48.5822 45.9267 48.8917 45.5581C50.3006 43.8834 51.2552 41.9801 52.1936 40.0724C53.2699 37.8844 53.9937 35.5783 54.8669 33.3218C55.6193 31.3766 56.398 29.4407 57.6703 27.712C58.5538 26.5121 59.2395 25.2255 59.7564 23.8646C61.1245 20.2606 61.5584 16.5545 61.1266 12.7701Z" fill="white"/>
</mask>
<g mask="url(#mask2_1_67)">
<path d="M81.3092 11.8927L32.2009 -11.0481L4.69507 37.5955L53.8034 60.5365L81.3092 11.8927Z" fill="url(#paint0_linear_1_67)"/>
</g>
</g>
</g>
<path d="M50.3308 19.9958C49.0711 19.9386 47.9597 20.5328 47.3699 21.4395C46.8412 22.2524 45.9374 22.803 44.9225 23.016C41.5827 23.7177 38.6425 25.2024 36.104 27.4685C32.9345 30.2975 30.9792 33.763 29.7524 37.5957C29.5247 38.3072 29.3415 39.0307 29.1192 39.8137C29.0517 39.7007 29.0204 39.6561 28.9965 39.6075C27.8118 37.2304 26.9721 34.7381 26.0127 32.2853C25.1598 30.1049 24.263 27.941 22.849 25.9929C22.3278 25.2752 21.8762 24.5288 21.5371 23.7272C20.1531 20.4559 19.698 17.069 20.0773 13.5948C20.2455 12.0531 20.651 10.556 21.5248 9.19591C22.8806 7.08537 25.0698 6.17503 27.7074 6.65991C29.2722 6.94735 30.8316 7.23794 32.4334 7.31944C34.7597 7.43733 37.0503 7.28451 39.2904 6.68053C39.9046 6.51461 40.5059 6.31086 41.0513 5.98194C39.9164 6.0552 38.7938 6.00038 37.6747 5.88734C35.9004 5.70736 34.2467 5.14728 32.6099 4.54427C30.699 3.83962 28.7857 3.16069 26.6935 3.02607C24.6099 2.8912 22.6824 3.27009 20.9738 4.38661C19.0632 5.63484 17.9288 7.38639 17.1714 9.35673C15.9537 12.5236 15.7892 15.7844 16.2063 19.0859C16.6351 22.4797 17.793 25.6235 19.9021 28.4955C21.1747 30.2291 21.8558 32.236 22.5788 34.204C23.7115 37.2877 24.847 40.3694 26.5722 43.239C27.1875 44.2623 27.7909 45.2949 28.6681 46.1599C29.9461 47.4205 30.9454 47.2616 31.7005 45.6886C32.1979 44.6529 32.4419 43.5531 32.6318 42.4441C33.1919 39.1753 34.2612 36.0581 36.0794 33.1786C38.2385 29.7597 40.9771 27.1119 44.3911 25.3305C45.646 24.6758 47.1993 24.6945 48.4183 25.4025C48.9224 25.6943 49.5216 25.8644 50.165 25.8644C52.0314 25.8644 53.5297 24.435 53.3988 22.7193C53.2868 21.2501 51.9553 20.0691 50.3308 19.9958Z" fill="#2E2A2B"/>
<rect y="14" width="75" height="16" fill="white"/>
<path d="M23.252 21.1C23.252 21.3947 23.2 21.6763 23.096 21.945C22.992 22.2137 22.8447 22.4737 22.654 22.725C22.4633 22.9763 22.238 23.2233 21.978 23.466C21.7267 23.7 21.4493 23.9297 21.146 24.155C20.8253 24.3977 20.4527 24.6317 20.028 24.857C19.6033 25.0823 19.1743 25.2817 18.741 25.455C18.3163 25.637 17.9133 25.78 17.532 25.884C17.1507 25.988 16.843 26.04 16.609 26.04C16.453 26.04 16.3403 26.0183 16.271 25.975C16.193 25.9403 16.154 25.8537 16.154 25.715C16.154 25.6197 16.1887 25.507 16.258 25.377C16.3273 25.247 16.3967 25.182 16.466 25.182C16.5353 25.182 16.5873 25.2037 16.622 25.247C16.648 25.2903 16.661 25.338 16.661 25.39C16.661 25.416 16.661 25.4377 16.661 25.455C16.6523 25.4723 16.648 25.4853 16.648 25.494V25.52C16.9773 25.4853 17.4193 25.3813 17.974 25.208C18.52 25.0433 19.1743 24.753 19.937 24.337C20.2663 24.155 20.5913 23.9427 20.912 23.7C21.2327 23.4487 21.5187 23.1843 21.77 22.907C22.03 22.621 22.238 22.3263 22.394 22.023C22.55 21.711 22.628 21.4077 22.628 21.113C22.628 20.905 22.5197 20.6927 22.303 20.476C22.095 20.2507 21.8263 20.0427 21.497 19.852C21.1763 19.6527 20.8253 19.4837 20.444 19.345C20.0627 19.1977 19.7073 19.098 19.378 19.046C19.3867 19.0893 19.3997 19.1977 19.417 19.371C19.4343 19.5357 19.4603 19.7307 19.495 19.956C19.5297 20.1813 19.5687 20.424 19.612 20.684C19.664 20.9353 19.7203 21.1693 19.781 21.386C19.8503 21.6287 19.8937 21.8107 19.911 21.932C19.937 22.0447 19.9543 22.14 19.963 22.218C19.9717 22.3047 19.9847 22.4173 20.002 22.556C20.028 22.686 20.0453 22.8247 20.054 22.972C20.0713 23.1107 20.0843 23.245 20.093 23.375C20.1103 23.4963 20.119 23.5917 20.119 23.661C20.119 23.739 20.1017 23.8213 20.067 23.908C20.041 23.9947 20.0063 24.038 19.963 24.038C19.859 24.038 19.7853 24.0033 19.742 23.934C19.7073 23.856 19.6727 23.7303 19.638 23.557C19.612 23.375 19.5773 23.141 19.534 22.855C19.4907 22.569 19.4083 22.218 19.287 21.802C19.1137 21.2213 18.9923 20.6753 18.923 20.164C18.8537 19.644 18.8103 19.2323 18.793 18.929C18.793 18.929 18.7713 18.929 18.728 18.929C18.6933 18.9203 18.6413 18.916 18.572 18.916C18.5113 18.916 18.4377 18.916 18.351 18.916C18.273 18.9073 18.1993 18.903 18.13 18.903C17.9827 18.903 17.8483 18.9333 17.727 18.994C17.6057 19.046 17.506 19.1067 17.428 19.176C17.3413 19.2453 17.272 19.3103 17.22 19.371C17.1593 19.423 17.1203 19.449 17.103 19.449C17.0423 19.449 16.96 19.436 16.856 19.41C16.7433 19.3753 16.687 19.3147 16.687 19.228C16.687 19.1153 16.7433 19.0027 16.856 18.89C16.96 18.7687 17.09 18.6647 17.246 18.578C17.402 18.4827 17.571 18.409 17.753 18.357C17.935 18.2963 18.104 18.266 18.26 18.266C18.52 18.266 18.8233 18.3007 19.17 18.37C19.5167 18.4393 19.872 18.5347 20.236 18.656C20.6087 18.7773 20.9727 18.9247 21.328 19.098C21.692 19.2713 22.017 19.462 22.303 19.67C22.589 19.878 22.8187 20.1033 22.992 20.346C23.1653 20.5887 23.252 20.84 23.252 21.1ZM27.4151 21.035C27.4151 21.0957 27.3891 21.1477 27.3371 21.191C27.2851 21.2257 27.2245 21.256 27.1551 21.282C27.0858 21.308 27.0165 21.3297 26.9471 21.347C26.8778 21.3557 26.8215 21.36 26.7781 21.36C26.6481 21.36 26.5615 21.3513 26.5181 21.334C26.4748 21.3167 26.4401 21.308 26.4141 21.308C26.1975 21.308 26.0241 21.3253 25.8941 21.36C25.7641 21.3947 25.6601 21.451 25.5821 21.529C25.5128 21.607 25.4651 21.7067 25.4391 21.828C25.4218 21.9407 25.4131 22.0793 25.4131 22.244C25.4131 22.5213 25.4218 22.7423 25.4391 22.907C25.4651 23.0717 25.4868 23.206 25.5041 23.31C25.5301 23.414 25.5518 23.4963 25.5691 23.557C25.5951 23.609 25.6081 23.661 25.6081 23.713C25.6081 23.7823 25.5691 23.856 25.4911 23.934C25.4218 24.012 25.3568 24.051 25.2961 24.051C25.1921 24.051 25.0968 23.96 25.0101 23.778C24.9321 23.5873 24.8628 23.3663 24.8021 23.115C24.7501 22.855 24.7068 22.5993 24.6721 22.348C24.6375 22.0967 24.6201 21.906 24.6201 21.776C24.6201 21.6287 24.6331 21.49 24.6591 21.36C24.6851 21.2213 24.7198 21.1043 24.7631 21.009C24.8065 20.905 24.8541 20.8227 24.9061 20.762C24.9581 20.7013 25.0101 20.671 25.0621 20.671C25.1055 20.671 25.1401 20.6883 25.1661 20.723C25.1921 20.749 25.2138 20.7837 25.2311 20.827C25.2485 20.8617 25.2658 20.8963 25.2831 20.931C25.3091 20.957 25.3395 20.97 25.3741 20.97C25.4521 20.97 25.5778 20.931 25.7511 20.853C25.9245 20.775 26.1368 20.736 26.3881 20.736C26.6221 20.736 26.7955 20.7447 26.9081 20.762C27.0295 20.7707 27.1465 20.7967 27.2591 20.84C27.2851 20.8487 27.3155 20.8703 27.3501 20.905C27.3935 20.931 27.4151 20.9743 27.4151 21.035ZM29.2924 24.168C29.2924 24.22 29.2664 24.272 29.2144 24.324C29.1624 24.3673 29.1018 24.4107 29.0324 24.454C28.9718 24.4887 28.9111 24.519 28.8504 24.545C28.7898 24.5623 28.7551 24.571 28.7464 24.571C28.6684 24.571 28.6078 24.5537 28.5644 24.519C28.5298 24.4757 28.4994 24.4323 28.4734 24.389C28.4561 24.337 28.4431 24.2893 28.4344 24.246C28.4344 24.2027 28.4344 24.1723 28.4344 24.155C28.4344 24.1203 28.4431 24.077 28.4604 24.025C28.4778 23.9643 28.5038 23.908 28.5384 23.856C28.5731 23.804 28.6121 23.7607 28.6554 23.726C28.7074 23.6827 28.7638 23.661 28.8244 23.661C28.9371 23.661 29.0411 23.7087 29.1364 23.804C29.2404 23.8993 29.2924 24.0207 29.2924 24.168ZM40.859 23.115C40.859 23.505 40.7896 23.8127 40.651 24.038C40.5123 24.2547 40.3086 24.4583 40.04 24.649C39.9706 24.6923 39.8753 24.7443 39.754 24.805C39.6326 24.8657 39.4983 24.922 39.351 24.974C39.2036 25.026 39.0476 25.0693 38.883 25.104C38.7183 25.1387 38.5666 25.156 38.428 25.156C38.038 25.156 37.7433 25.1127 37.544 25.026C37.3446 24.948 37.245 24.8527 37.245 24.74C37.245 24.6187 37.2796 24.519 37.349 24.441C37.4183 24.363 37.479 24.3197 37.531 24.311L37.674 24.415C37.7173 24.4583 37.778 24.506 37.856 24.558C37.934 24.6013 38.0596 24.623 38.233 24.623C38.3976 24.623 38.597 24.597 38.831 24.545C39.065 24.4843 39.286 24.3977 39.494 24.285C39.7106 24.1637 39.8926 24.0163 40.04 23.843C40.196 23.6697 40.274 23.4703 40.274 23.245C40.274 23.0457 40.1223 22.8637 39.819 22.699C39.5243 22.5257 39.0563 22.4087 38.415 22.348C38.0856 22.322 37.7606 22.283 37.44 22.231C37.1193 22.1703 36.829 22.0923 36.569 21.997C36.3176 21.893 36.114 21.7673 35.958 21.62C35.802 21.464 35.724 21.2733 35.724 21.048C35.724 20.8313 35.7846 20.6233 35.906 20.424C36.0273 20.2247 36.1746 20.0427 36.348 19.878C36.53 19.7047 36.7163 19.553 36.907 19.423C37.0976 19.293 37.258 19.1847 37.388 19.098C37.492 19.0373 37.635 18.9593 37.817 18.864C38.0076 18.76 38.207 18.6647 38.415 18.578C38.6316 18.4827 38.844 18.4047 39.052 18.344C39.2686 18.2747 39.4506 18.24 39.598 18.24C39.7713 18.24 39.8883 18.2877 39.949 18.383C40.0096 18.4783 40.04 18.6127 40.04 18.786C40.04 18.9333 40.0226 19.0893 39.988 19.254C39.9533 19.4187 39.9143 19.579 39.871 19.735C39.8276 19.891 39.7843 20.0297 39.741 20.151C39.7063 20.2637 39.6803 20.3373 39.663 20.372C39.6283 20.45 39.5893 20.502 39.546 20.528C39.5026 20.554 39.4723 20.567 39.455 20.567C39.4203 20.567 39.403 20.5453 39.403 20.502C39.403 20.476 39.4073 20.4283 39.416 20.359C39.4333 20.281 39.4506 20.19 39.468 20.086C39.494 19.982 39.5113 19.8693 39.52 19.748C39.5373 19.6267 39.546 19.5053 39.546 19.384C39.546 19.1933 39.5373 19.0547 39.52 18.968C39.5026 18.8813 39.4333 18.838 39.312 18.838C39.1906 18.838 39.026 18.8727 38.818 18.942C38.61 19.0027 38.3976 19.0807 38.181 19.176C37.947 19.28 37.7173 19.4143 37.492 19.579C37.2753 19.7437 37.0803 19.9127 36.907 20.086C36.7336 20.2593 36.5906 20.4283 36.478 20.593C36.374 20.749 36.322 20.8747 36.322 20.97C36.322 21.074 36.3913 21.1737 36.53 21.269C36.6773 21.3557 36.8593 21.4337 37.076 21.503C37.3013 21.5723 37.5483 21.633 37.817 21.685C38.0856 21.737 38.35 21.776 38.61 21.802C38.8266 21.828 39.065 21.8627 39.325 21.906C39.585 21.9493 39.8276 22.0187 40.053 22.114C40.2783 22.2093 40.469 22.3393 40.625 22.504C40.781 22.66 40.859 22.8637 40.859 23.115ZM47.3467 23.778C47.3467 23.8473 47.325 23.908 47.2817 23.96C47.2384 24.012 47.1864 24.0553 47.1257 24.09C47.065 24.116 47 24.1377 46.9307 24.155C46.87 24.1723 46.818 24.181 46.7747 24.181C46.5927 24.181 46.4367 24.0857 46.3067 23.895C46.1767 23.6957 46.0684 23.479 45.9817 23.245C45.895 23.0023 45.83 22.777 45.7867 22.569C45.752 22.361 45.7347 22.2483 45.7347 22.231C45.6827 22.3263 45.6264 22.4867 45.5657 22.712C45.5137 22.9373 45.4487 23.167 45.3707 23.401C45.2927 23.6263 45.193 23.83 45.0717 24.012C44.959 24.1853 44.8117 24.272 44.6297 24.272C44.543 24.272 44.4607 24.22 44.3827 24.116C44.3047 24.012 44.231 23.8777 44.1617 23.713C44.0924 23.5483 44.023 23.362 43.9537 23.154C43.893 22.946 43.828 22.7423 43.7587 22.543C43.698 22.3437 43.6374 22.1573 43.5767 21.984C43.516 21.802 43.4554 21.659 43.3947 21.555C43.3427 21.685 43.295 21.8627 43.2517 22.088C43.217 22.3133 43.1867 22.5517 43.1607 22.803C43.1347 23.0457 43.113 23.2883 43.0957 23.531C43.0784 23.7737 43.0697 23.986 43.0697 24.168C43.0697 24.2893 43.035 24.376 42.9657 24.428C42.905 24.48 42.84 24.506 42.7707 24.506C42.6754 24.506 42.58 24.4453 42.4847 24.324C42.3894 24.194 42.294 24.0293 42.1987 23.83C42.1034 23.6307 42.0124 23.4053 41.9257 23.154C41.8477 22.9027 41.774 22.6513 41.7047 22.4C41.644 22.1487 41.5964 21.9103 41.5617 21.685C41.527 21.451 41.5097 21.256 41.5097 21.1C41.5097 20.9873 41.514 20.8833 41.5227 20.788C41.5314 20.71 41.5357 20.6363 41.5357 20.567C41.5444 20.4977 41.5487 20.4587 41.5487 20.45C41.5487 20.424 41.54 20.4067 41.5227 20.398C41.514 20.3893 41.5097 20.3677 41.5097 20.333C41.5097 20.307 41.54 20.268 41.6007 20.216C41.67 20.1553 41.7394 20.125 41.8087 20.125C41.93 20.125 42.008 20.151 42.0427 20.203C42.086 20.255 42.1077 20.3157 42.1077 20.385C42.1077 20.411 42.1034 20.45 42.0947 20.502C42.0947 20.554 42.0947 20.671 42.0947 20.853C42.0947 20.9743 42.1164 21.1563 42.1597 21.399C42.203 21.6417 42.255 21.8887 42.3157 22.14C42.3764 22.3913 42.437 22.6253 42.4977 22.842C42.567 23.05 42.6234 23.18 42.6667 23.232C42.684 23.1973 42.6927 23.1583 42.6927 23.115C42.7014 23.063 42.71 23.024 42.7187 22.998L42.8617 21.932C42.8964 21.6633 42.9657 21.3817 43.0697 21.087C43.1824 20.7837 43.2994 20.5497 43.4207 20.385C43.464 20.3157 43.5117 20.281 43.5637 20.281C43.6157 20.281 43.6634 20.32 43.7067 20.398C43.854 20.6407 43.9624 20.8833 44.0317 21.126C44.1097 21.36 44.1747 21.594 44.2267 21.828C44.2874 22.0533 44.3524 22.283 44.4217 22.517C44.4997 22.7423 44.6167 22.972 44.7727 23.206C44.842 23.0933 44.9287 22.9113 45.0327 22.66C45.1367 22.4 45.2407 22.14 45.3447 21.88C45.4574 21.62 45.5614 21.3947 45.6567 21.204C45.752 21.0047 45.8257 20.905 45.8777 20.905C45.9037 20.905 45.947 20.9093 46.0077 20.918C46.0684 20.9267 46.1117 20.931 46.1377 20.931C46.2157 20.931 46.2807 21.022 46.3327 21.204C46.3847 21.3773 46.428 21.5853 46.4627 21.828C46.506 22.062 46.545 22.3003 46.5797 22.543C46.623 22.777 46.6707 22.9547 46.7227 23.076C46.7574 23.1627 46.8094 23.245 46.8787 23.323C46.948 23.401 47.0174 23.4747 47.0867 23.544C47.1734 23.622 47.26 23.7 47.3467 23.778ZM49.1591 19.02C49.1591 19.0373 49.1287 19.072 49.0681 19.124C49.0074 19.176 48.9337 19.2323 48.8471 19.293C48.7691 19.345 48.6867 19.3927 48.6001 19.436C48.5134 19.4793 48.4441 19.501 48.3921 19.501C48.3574 19.501 48.3097 19.501 48.2491 19.501C48.1971 19.4923 48.1407 19.475 48.0801 19.449C48.0281 19.423 47.9804 19.3883 47.9371 19.345C47.8937 19.293 47.8721 19.228 47.8721 19.15C47.8721 19.0287 47.9154 18.916 48.0021 18.812C48.0887 18.6993 48.2014 18.643 48.3401 18.643C48.3661 18.643 48.4224 18.656 48.5091 18.682C48.6044 18.6993 48.6997 18.7253 48.7951 18.76C48.8904 18.7947 48.9727 18.8337 49.0421 18.877C49.1201 18.9203 49.1591 18.968 49.1591 19.02ZM49.5881 23.882C49.5881 23.9427 49.5404 23.9947 49.4451 24.038C49.3584 24.0813 49.2934 24.103 49.2501 24.103C49.1634 24.103 49.0854 24.0467 49.0161 23.934C48.9467 23.8213 48.8861 23.6913 48.8341 23.544C48.7821 23.3967 48.7387 23.258 48.7041 23.128C48.6694 22.9893 48.6434 22.894 48.6261 22.842C48.6001 22.7553 48.5654 22.6513 48.5221 22.53C48.4787 22.4087 48.4354 22.2917 48.3921 22.179C48.3574 22.0663 48.3271 21.9667 48.3011 21.88C48.2751 21.7933 48.2621 21.7457 48.2621 21.737C48.2621 21.6157 48.2837 21.503 48.3271 21.399C48.3791 21.295 48.4397 21.243 48.5091 21.243C48.5871 21.243 48.6694 21.3037 48.7561 21.425C48.8427 21.5463 48.9251 21.7023 49.0031 21.893C49.0897 22.075 49.1677 22.2787 49.2371 22.504C49.3064 22.7207 49.3671 22.9287 49.4191 23.128C49.4711 23.3187 49.5101 23.4877 49.5361 23.635C49.5707 23.7737 49.5881 23.856 49.5881 23.882ZM53.8556 19.124C53.743 19.254 53.5826 19.384 53.3746 19.514C53.1666 19.6353 52.9586 19.748 52.7506 19.852C52.5426 19.956 52.3606 20.047 52.2046 20.125C52.0486 20.1943 51.9706 20.242 51.9706 20.268C51.9706 20.294 51.988 20.372 52.0226 20.502C52.0573 20.632 52.0963 20.788 52.1396 20.97C52.1916 21.1433 52.2436 21.3253 52.2956 21.516C52.3476 21.7067 52.391 21.8757 52.4256 22.023C52.443 22.1097 52.4646 22.2223 52.4906 22.361C52.5166 22.4997 52.5383 22.6383 52.5556 22.777C52.5816 22.9157 52.6033 23.0413 52.6206 23.154C52.638 23.258 52.6466 23.3143 52.6466 23.323C52.6466 23.453 52.625 23.5873 52.5816 23.726C52.5383 23.8647 52.469 23.934 52.3736 23.934C52.3216 23.934 52.274 23.9123 52.2306 23.869C52.1873 23.8257 52.1483 23.778 52.1136 23.726C52.079 23.6653 52.053 23.609 52.0356 23.557C52.0183 23.505 52.0096 23.466 52.0096 23.44C52.0096 23.4227 52.0096 23.3967 52.0096 23.362C52.0183 23.3273 52.0226 23.2883 52.0226 23.245C52.0226 23.0803 51.9966 22.842 51.9446 22.53C51.9273 22.4347 51.8926 22.2873 51.8406 22.088C51.7886 21.8887 51.7366 21.685 51.6846 21.477C51.624 21.2343 51.5546 20.97 51.4766 20.684C51.442 20.5627 51.4203 20.502 51.4116 20.502C51.351 20.502 51.247 20.541 51.0996 20.619C50.961 20.6883 50.8006 20.7793 50.6186 20.892C50.4366 20.996 50.246 21.113 50.0466 21.243C49.8473 21.3643 49.661 21.4813 49.4876 21.594C49.3143 21.698 49.167 21.789 49.0456 21.867C48.9156 21.9363 48.8376 21.971 48.8116 21.971C48.699 21.971 48.608 21.932 48.5386 21.854C48.4693 21.776 48.4346 21.6893 48.4346 21.594C48.4346 21.542 48.5083 21.4683 48.6556 21.373C48.7943 21.269 48.972 21.1563 49.1886 21.035C49.3966 20.9137 49.6263 20.788 49.8776 20.658C50.1203 20.528 50.3456 20.411 50.5536 20.307C50.7703 20.203 50.948 20.1163 51.0866 20.047C51.234 19.9777 51.3076 19.943 51.3076 19.943C51.2296 19.5443 51.1646 19.189 51.1126 18.877C51.0693 18.6083 51.026 18.3613 50.9826 18.136C50.948 17.9107 50.9306 17.7893 50.9306 17.772C50.9306 17.6593 50.9523 17.577 50.9956 17.525C51.0476 17.4643 51.104 17.434 51.1646 17.434C51.26 17.434 51.3206 17.499 51.3466 17.629C51.442 18.097 51.5286 18.513 51.6066 18.877C51.6933 19.241 51.7756 19.5357 51.8536 19.761C51.9316 19.7437 52.066 19.696 52.2566 19.618C52.4473 19.5313 52.6466 19.4403 52.8546 19.345C53.0626 19.2497 53.249 19.1673 53.4136 19.098C53.587 19.02 53.6866 18.981 53.7126 18.981C53.7646 18.981 53.795 18.9983 53.8036 19.033C53.821 19.0677 53.8383 19.098 53.8556 19.124ZM58.722 22.595C58.7653 22.6383 58.787 22.6643 58.787 22.673C58.787 22.6903 58.761 22.7423 58.709 22.829C58.6657 22.9157 58.605 23.0067 58.527 23.102C58.449 23.1973 58.3623 23.284 58.267 23.362C58.1803 23.4313 58.0937 23.466 58.007 23.466C57.825 23.466 57.6777 23.4313 57.565 23.362C57.4523 23.284 57.357 23.1887 57.279 23.076C57.2097 22.9633 57.1533 22.842 57.11 22.712C57.0753 22.5733 57.045 22.4433 57.019 22.322C57.0017 22.2613 56.9843 22.231 56.967 22.231C56.941 22.231 56.889 22.3263 56.811 22.517C56.733 22.699 56.6463 22.9027 56.551 23.128C56.4643 23.3447 56.3777 23.5483 56.291 23.739C56.213 23.921 56.161 24.012 56.135 24.012C55.979 24.012 55.8447 23.947 55.732 23.817C55.628 23.6783 55.5413 23.5223 55.472 23.349C55.4113 23.167 55.3637 22.985 55.329 22.803C55.2943 22.6123 55.2727 22.465 55.264 22.361C55.238 22.127 55.1817 21.737 55.095 21.191C55.0083 20.645 54.9347 19.982 54.874 19.202C54.8567 19.0373 54.835 18.89 54.809 18.76C54.7917 18.6213 54.77 18.4697 54.744 18.305C54.718 18.1403 54.6963 17.954 54.679 17.746C54.6617 17.538 54.653 17.2823 54.653 16.979C54.653 16.9617 54.6573 16.9053 54.666 16.81C54.6747 16.7147 54.6877 16.6107 54.705 16.498C54.7223 16.3853 54.7483 16.2857 54.783 16.199C54.8263 16.1123 54.874 16.069 54.926 16.069C54.9867 16.069 55.043 16.108 55.095 16.186C55.147 16.2553 55.1903 16.3377 55.225 16.433C55.2683 16.5283 55.2987 16.6193 55.316 16.706C55.3333 16.7927 55.342 16.8533 55.342 16.888C55.342 17.018 55.3333 17.1393 55.316 17.252C55.2987 17.3647 55.29 17.4687 55.29 17.564C55.29 17.694 55.2987 17.8587 55.316 18.058C55.342 18.2573 55.3723 18.461 55.407 18.669C55.4417 18.877 55.472 19.0807 55.498 19.28C55.524 19.4707 55.5457 19.6267 55.563 19.748C55.563 19.7567 55.5717 19.8173 55.589 19.93C55.6063 20.0427 55.6237 20.1857 55.641 20.359C55.667 20.5237 55.6887 20.7057 55.706 20.905C55.732 21.0957 55.758 21.2863 55.784 21.477C55.81 21.659 55.8317 21.8237 55.849 21.971C55.875 22.1097 55.8923 22.2093 55.901 22.27C55.901 22.296 55.9053 22.335 55.914 22.387C55.9313 22.4303 55.9443 22.4823 55.953 22.543C55.9703 22.6037 55.9877 22.66 56.005 22.712C56.0223 22.764 56.044 22.803 56.07 22.829C56.122 22.725 56.187 22.5647 56.265 22.348C56.3517 22.1313 56.4383 21.9103 56.525 21.685C56.6203 21.4597 56.707 21.2647 56.785 21.1C56.8717 20.9267 56.9453 20.84 57.006 20.84C57.0753 20.84 57.1317 20.853 57.175 20.879C57.2183 20.905 57.2747 20.9267 57.344 20.944C57.4307 20.9787 57.474 21.0263 57.474 21.087C57.474 21.139 57.4827 21.204 57.5 21.282C57.5173 21.386 57.5433 21.5247 57.578 21.698C57.6213 21.8627 57.669 22.0273 57.721 22.192C57.773 22.348 57.8337 22.4823 57.903 22.595C57.9723 22.7077 58.0417 22.764 58.111 22.764C58.1457 22.764 58.1933 22.7207 58.254 22.634C58.3147 22.5387 58.397 22.4867 58.501 22.478C58.5183 22.478 58.5487 22.491 58.592 22.517C58.6353 22.5343 58.6787 22.5603 58.722 22.595Z" fill="black"/>
<path d="M56.309 34V31.825H56.912C57.128 31.825 57.311 31.858 57.461 31.924C57.611 31.988 57.733 32.075 57.827 32.185C57.921 32.293 57.989 32.413 58.031 32.545C58.075 32.677 58.097 32.809 58.097 32.941C58.097 33.103 58.068 33.25 58.01 33.382C57.954 33.512 57.875 33.623 57.773 33.715C57.673 33.807 57.558 33.878 57.428 33.928C57.298 33.976 57.161 34 57.017 34H56.309ZM56.621 33.697H56.957C57.115 33.697 57.255 33.667 57.377 33.607C57.499 33.547 57.595 33.459 57.665 33.343C57.737 33.227 57.773 33.086 57.773 32.92C57.773 32.784 57.75 32.667 57.704 32.569C57.66 32.469 57.601 32.387 57.527 32.323C57.453 32.257 57.37 32.208 57.278 32.176C57.186 32.144 57.092 32.128 56.996 32.128H56.621V33.697ZM59.0926 34.03C58.9486 34.03 58.8246 34.002 58.7206 33.946C58.6166 33.888 58.5366 33.809 58.4806 33.709C58.4246 33.607 58.3966 33.492 58.3966 33.364C58.3966 33.24 58.4276 33.128 58.4896 33.028C58.5536 32.926 58.6386 32.845 58.7446 32.785C58.8506 32.725 58.9686 32.695 59.0986 32.695C59.2666 32.695 59.4056 32.744 59.5156 32.842C59.6276 32.938 59.7026 33.074 59.7406 33.25L58.7176 33.604L58.6456 33.43L59.4676 33.13L59.4046 33.172C59.3806 33.108 59.3426 33.053 59.2906 33.007C59.2386 32.959 59.1676 32.935 59.0776 32.935C58.9656 32.935 58.8736 32.974 58.8016 33.052C58.7316 33.128 58.6966 33.226 58.6966 33.346C58.6966 33.474 58.7346 33.577 58.8106 33.655C58.8866 33.733 58.9826 33.772 59.0986 33.772C59.1526 33.772 59.2046 33.763 59.2546 33.745C59.3046 33.725 59.3516 33.699 59.3956 33.667L59.5336 33.892C59.4696 33.934 59.3986 33.968 59.3206 33.994C59.2446 34.018 59.1686 34.03 59.0926 34.03ZM60.3538 32.746L60.3808 33.037L60.3688 32.995C60.4088 32.905 60.4728 32.833 60.5608 32.779C60.6508 32.725 60.7558 32.698 60.8758 32.698C60.9938 32.698 61.0908 32.733 61.1668 32.803C61.2428 32.871 61.2818 32.961 61.2838 33.073V34H60.9808V33.178C60.9788 33.114 60.9598 33.062 60.9238 33.022C60.8878 32.98 60.8318 32.958 60.7558 32.956C60.6498 32.956 60.5608 33 60.4888 33.088C60.4188 33.176 60.3838 33.289 60.3838 33.427V34H60.0808V32.746H60.3538ZM61.8795 32.197H62.1855V32.749H62.5215V32.986H62.1855V34H61.8795V32.986H61.6575V32.749H61.8795V32.197ZM63.3802 34.03C63.2622 34.03 63.1552 34.005 63.0592 33.955C62.9632 33.905 62.8872 33.832 62.8312 33.736C62.7752 33.638 62.7472 33.517 62.7472 33.373C62.7472 33.233 62.7762 33.113 62.8342 33.013C62.8942 32.911 62.9722 32.833 63.0682 32.779C63.1662 32.723 63.2722 32.695 63.3862 32.695C63.5062 32.695 63.6052 32.72 63.6832 32.77C63.7612 32.82 63.8212 32.88 63.8632 32.95L63.8452 32.998L63.8752 32.746H64.1542V34H63.8512V33.682L63.8812 33.757C63.8732 33.773 63.8562 33.796 63.8302 33.826C63.8042 33.856 63.7702 33.887 63.7282 33.919C63.6862 33.949 63.6352 33.975 63.5752 33.997C63.5172 34.019 63.4522 34.03 63.3802 34.03ZM63.4612 33.781C63.5612 33.781 63.6452 33.755 63.7132 33.703C63.7832 33.649 63.8292 33.576 63.8512 33.484V33.226C63.8272 33.144 63.7782 33.076 63.7042 33.022C63.6322 32.968 63.5482 32.941 63.4522 32.941C63.3802 32.941 63.3142 32.959 63.2542 32.995C63.1942 33.029 63.1462 33.078 63.1102 33.142C63.0742 33.204 63.0562 33.276 63.0562 33.358C63.0562 33.438 63.0742 33.51 63.1102 33.574C63.1482 33.638 63.1982 33.689 63.2602 33.727C63.3222 33.763 63.3892 33.781 63.4612 33.781ZM64.6276 31.669H64.9306V34H64.6276V31.669ZM67.4676 33.835C67.4336 33.857 67.3846 33.884 67.3206 33.916C67.2586 33.946 67.1846 33.972 67.0986 33.994C67.0146 34.016 66.9226 34.026 66.8226 34.024C66.6526 34.022 66.5006 33.992 66.3666 33.934C66.2326 33.876 66.1176 33.797 66.0216 33.697C65.9276 33.595 65.8556 33.479 65.8056 33.349C65.7556 33.217 65.7306 33.077 65.7306 32.929C65.7306 32.765 65.7566 32.615 65.8086 32.479C65.8626 32.341 65.9376 32.222 66.0336 32.122C66.1296 32.02 66.2426 31.941 66.3726 31.885C66.5046 31.829 66.6486 31.801 66.8046 31.801C66.9366 31.801 67.0566 31.819 67.1646 31.855C67.2726 31.891 67.3636 31.932 67.4376 31.978L67.3116 32.272C67.2536 32.232 67.1816 32.194 67.0956 32.158C67.0116 32.122 66.9176 32.104 66.8136 32.104C66.6776 32.104 66.5516 32.14 66.4356 32.212C66.3216 32.284 66.2296 32.381 66.1596 32.503C66.0916 32.625 66.0576 32.762 66.0576 32.914C66.0576 33.068 66.0886 33.206 66.1506 33.328C66.2146 33.45 66.3046 33.546 66.4206 33.616C66.5366 33.686 66.6726 33.721 66.8286 33.721C66.9406 33.721 67.0386 33.704 67.1226 33.67C67.2086 33.636 67.2786 33.597 67.3326 33.553L67.4676 33.835ZM67.8766 31.669H68.1796V34H67.8766V31.669ZM68.653 32.746H68.956V34H68.653V32.746ZM68.638 32.296C68.638 32.25 68.656 32.211 68.692 32.179C68.73 32.147 68.771 32.131 68.815 32.131C68.859 32.131 68.899 32.147 68.935 32.179C68.971 32.211 68.989 32.25 68.989 32.296C68.989 32.346 68.971 32.386 68.935 32.416C68.899 32.446 68.859 32.461 68.815 32.461C68.771 32.461 68.73 32.446 68.692 32.416C68.656 32.386 68.638 32.346 68.638 32.296ZM69.7024 32.746L69.7294 33.037L69.7174 32.995C69.7574 32.905 69.8214 32.833 69.9094 32.779C69.9994 32.725 70.1044 32.698 70.2244 32.698C70.3424 32.698 70.4394 32.733 70.5154 32.803C70.5914 32.871 70.6304 32.961 70.6324 33.073V34H70.3294V33.178C70.3274 33.114 70.3084 33.062 70.2724 33.022C70.2364 32.98 70.1804 32.958 70.1044 32.956C69.9984 32.956 69.9094 33 69.8374 33.088C69.7674 33.176 69.7324 33.289 69.7324 33.427V34H69.4294V32.746H69.7024ZM71.1081 32.746H71.4111V34H71.1081V32.746ZM71.0931 32.296C71.0931 32.25 71.1111 32.211 71.1471 32.179C71.1851 32.147 71.2261 32.131 71.2701 32.131C71.3141 32.131 71.3541 32.147 71.3901 32.179C71.4261 32.211 71.4441 32.25 71.4441 32.296C71.4441 32.346 71.4261 32.386 71.3901 32.416C71.3541 32.446 71.3141 32.461 71.2701 32.461C71.2261 32.461 71.1851 32.446 71.1471 32.416C71.1111 32.386 71.0931 32.346 71.0931 32.296ZM72.9105 33.883C72.8545 33.929 72.7865 33.965 72.7065 33.991C72.6285 34.017 72.5495 34.03 72.4695 34.03C72.3335 34.03 72.2125 34.003 72.1065 33.949C72.0025 33.895 71.9215 33.819 71.8635 33.721C71.8055 33.623 71.7765 33.507 71.7765 33.373C71.7765 33.237 71.8075 33.12 71.8695 33.022C71.9315 32.924 72.0125 32.849 72.1125 32.797C72.2145 32.743 72.3235 32.716 72.4395 32.716C72.5435 32.716 72.6345 32.73 72.7125 32.758C72.7925 32.786 72.8615 32.825 72.9195 32.875L72.7695 33.07C72.7355 33.042 72.6925 33.017 72.6405 32.995C72.5885 32.973 72.5305 32.962 72.4665 32.962C72.3945 32.962 72.3285 32.98 72.2685 33.016C72.2105 33.052 72.1645 33.101 72.1305 33.163C72.0965 33.225 72.0795 33.295 72.0795 33.373C72.0795 33.449 72.0965 33.518 72.1305 33.58C72.1665 33.642 72.2155 33.691 72.2775 33.727C72.3415 33.763 72.4135 33.781 72.4935 33.781C72.5455 33.781 72.5935 33.773 72.6375 33.757C72.6835 33.741 72.7235 33.72 72.7575 33.694L72.9105 33.883Z" fill="black"/>
<path d="M1 14L16 13.5L20 14L1 14Z" fill="#2E2A2B"/>
<path d="M71.0126 30.0231L56.0126 29.5231L52.0126 30.0231L71.0126 30.0231Z" fill="#29BAF1"/>
<defs>
<linearGradient id="paint0_linear_1_67" x1="54.0274" y1="-0.851922" x2="30.4469" y2="49.6255" gradientUnits="userSpaceOnUse">
<stop stop-color="#5CCAF4"/>
<stop offset="0.125" stop-color="#5CCAF4"/>
<stop offset="0.132812" stop-color="#5BCAF4"/>
<stop offset="0.136719" stop-color="#5AC9F4"/>
<stop offset="0.140625" stop-color="#5AC9F4"/>
<stop offset="0.144531" stop-color="#59C9F4"/>
<stop offset="0.148438" stop-color="#59C9F4"/>
<stop offset="0.15625" stop-color="#58C9F4"/>
<stop offset="0.164062" stop-color="#58C9F4"/>
<stop offset="0.171875" stop-color="#57C8F4"/>
<stop offset="0.175781" stop-color="#56C8F4"/>
<stop offset="0.179688" stop-color="#55C8F4"/>
<stop offset="0.1875" stop-color="#55C8F4"/>
<stop offset="0.195312" stop-color="#54C7F3"/>
<stop offset="0.199219" stop-color="#53C7F3"/>
<stop offset="0.203125" stop-color="#52C7F3"/>
<stop offset="0.210938" stop-color="#52C7F3"/>
<stop offset="0.21875" stop-color="#51C6F3"/>
<stop offset="0.226562" stop-color="#50C6F3"/>
<stop offset="0.234375" stop-color="#50C6F3"/>
<stop offset="0.238281" stop-color="#4EC6F3"/>
<stop offset="0.242188" stop-color="#4EC5F3"/>
<stop offset="0.25" stop-color="#4DC5F3"/>
<stop offset="0.257813" stop-color="#4DC5F3"/>
<stop offset="0.265625" stop-color="#4CC5F3"/>
<stop offset="0.269531" stop-color="#4BC5F3"/>
<stop offset="0.273438" stop-color="#4AC4F3"/>
<stop offset="0.277344" stop-color="#4AC4F3"/>
<stop offset="0.28125" stop-color="#49C4F3"/>
<stop offset="0.289062" stop-color="#49C4F3"/>
<stop offset="0.292969" stop-color="#48C4F3"/>
<stop offset="0.296875" stop-color="#47C3F3"/>
<stop offset="0.300781" stop-color="#47C3F3"/>
<stop offset="0.304688" stop-color="#46C3F3"/>
<stop offset="0.3125" stop-color="#46C3F3"/>
<stop offset="0.320312" stop-color="#45C3F3"/>
<stop offset="0.328125" stop-color="#45C2F3"/>
<stop offset="0.332031" stop-color="#44C2F2"/>
<stop offset="0.335938" stop-color="#43C2F2"/>
<stop offset="0.34375" stop-color="#43C2F2"/>
<stop offset="0.351563" stop-color="#42C2F2"/>
<stop offset="0.359375" stop-color="#41C1F2"/>
<stop offset="0.363281" stop-color="#40C1F2"/>
<stop offset="0.367188" stop-color="#40C1F2"/>
<stop offset="0.371094" stop-color="#3FC1F2"/>
<stop offset="0.375" stop-color="#3FC0F2"/>
<stop offset="0.382812" stop-color="#3EC0F2"/>
<stop offset="0.386719" stop-color="#3DC0F2"/>
<stop offset="0.390625" stop-color="#3DC0F2"/>
<stop offset="0.394531" stop-color="#3CC0F2"/>
<stop offset="0.398438" stop-color="#3CC0F2"/>
<stop offset="0.40625" stop-color="#3BBFF2"/>
<stop offset="0.414063" stop-color="#3BBFF2"/>
<stop offset="0.421875" stop-color="#3ABFF2"/>
<stop offset="0.425781" stop-color="#39BFF2"/>
<stop offset="0.429688" stop-color="#38BEF2"/>
<stop offset="0.4375" stop-color="#38BEF2"/>
<stop offset="0.445312" stop-color="#37BEF2"/>
<stop offset="0.449219" stop-color="#36BEF2"/>
<stop offset="0.453125" stop-color="#35BDF2"/>
<stop offset="0.460938" stop-color="#35BDF2"/>
<stop offset="0.46875" stop-color="#34BDF1"/>
<stop offset="0.476563" stop-color="#33BDF1"/>
<stop offset="0.480469" stop-color="#32BDF1"/>
<stop offset="0.484375" stop-color="#32BCF1"/>
<stop offset="0.488281" stop-color="#31BCF1"/>
<stop offset="0.492188" stop-color="#31BCF1"/>
<stop offset="0.5" stop-color="#30BCF1"/>
<stop offset="0.507813" stop-color="#30BCF1"/>
<stop offset="0.515625" stop-color="#2FBBF1"/>
<stop offset="0.519531" stop-color="#2EBBF1"/>
<stop offset="0.523438" stop-color="#2DBBF1"/>
<stop offset="0.53125" stop-color="#2DBBF1"/>
<stop offset="0.539062" stop-color="#2CBAF1"/>
<stop offset="0.542969" stop-color="#2BBAF1"/>
<stop offset="0.546875" stop-color="#2ABAF1"/>
<stop offset="0.554688" stop-color="#2ABAF1"/>
<stop offset="0.5625" stop-color="#29BAF1"/>
<stop offset="0.570312" stop-color="#28B9F1"/>
<stop offset="0.574219" stop-color="#27B9F1"/>
<stop offset="0.578125" stop-color="#27B9F1"/>
<stop offset="0.582031" stop-color="#26B9F1"/>
<stop offset="0.585938" stop-color="#26B8F1"/>
<stop offset="0.59375" stop-color="#25B8F1"/>
<stop offset="0.601563" stop-color="#25B8F1"/>
<stop offset="0.609375" stop-color="#24B8F0"/>
<stop offset="0.613281" stop-color="#23B8F0"/>
<stop offset="0.617188" stop-color="#22B7F0"/>
<stop offset="0.625" stop-color="#22B7F0"/>
<stop offset="0.632812" stop-color="#21B7F0"/>
<stop offset="0.636719" stop-color="#20B7F0"/>
<stop offset="0.640625" stop-color="#1FB6F0"/>
<stop offset="0.648438" stop-color="#1FB6F0"/>
<stop offset="0.65625" stop-color="#1EB6F0"/>
<stop offset="0.664062" stop-color="#1DB6F0"/>
<stop offset="0.667969" stop-color="#1CB6F0"/>
<stop offset="0.671875" stop-color="#1CB5F0"/>
<stop offset="0.675781" stop-color="#1BB5F0"/>
<stop offset="0.679688" stop-color="#1BB5F0"/>
<stop offset="0.6875" stop-color="#1AB5F0"/>
<stop offset="0.691406" stop-color="#19B5F0"/>
<stop offset="0.695313" stop-color="#19B4F0"/>
<stop offset="0.699219" stop-color="#18B4F0"/>
<stop offset="0.703125" stop-color="#18B4F0"/>
<stop offset="0.710938" stop-color="#17B4F0"/>
<stop offset="0.71875" stop-color="#17B4F0"/>
<stop offset="0.726563" stop-color="#16B3F0"/>
<stop offset="0.730469" stop-color="#15B3F0"/>
<stop offset="0.734375" stop-color="#14B3EF"/>
<stop offset="0.742188" stop-color="#14B3EF"/>
<stop offset="0.75" stop-color="#13B3EF"/>
<stop offset="0.757812" stop-color="#12B2EF"/>
<stop offset="0.761719" stop-color="#12B2EF"/>
<stop offset="0.765625" stop-color="#11B2EF"/>
<stop offset="0.769531" stop-color="#10B2EF"/>
<stop offset="0.773438" stop-color="#10B1EF"/>
<stop offset="0.78125" stop-color="#0FB1EF"/>
<stop offset="0.785156" stop-color="#0FB1EF"/>
<stop offset="0.789062" stop-color="#0EB1EF"/>
<stop offset="0.792969" stop-color="#0DB1EF"/>
<stop offset="0.796875" stop-color="#0DB0EF"/>
<stop offset="0.804688" stop-color="#0CB0EF"/>
<stop offset="0.8125" stop-color="#0CB0EF"/>
<stop offset="0.820313" stop-color="#0BB0EF"/>
<stop offset="0.824219" stop-color="#0AB0EF"/>
<stop offset="0.828125" stop-color="#09AFEF"/>
<stop offset="0.835938" stop-color="#09AFEF"/>
<stop offset="0.84375" stop-color="#08AFEF"/>
<stop offset="0.847656" stop-color="#07AFEF"/>
<stop offset="0.851562" stop-color="#06AEEF"/>
<stop offset="0.859375" stop-color="#06AEEF"/>
<stop offset="0.875" stop-color="#05AEEE"/>
<stop offset="0.882813" stop-color="#05ADEE"/>
<stop offset="0.890625" stop-color="#05ADEE"/>
<stop offset="0.90625" stop-color="#05ADEE"/>
<stop offset="0.914063" stop-color="#05ADEE"/>
<stop offset="0.921875" stop-color="#06ACED"/>
<stop offset="0.929688" stop-color="#06ACED"/>
<stop offset="0.9375" stop-color="#06ACED"/>
<stop offset="0.953125" stop-color="#06ABED"/>
<stop offset="0.960938" stop-color="#05ABEC"/>
<stop offset="0.96875" stop-color="#05AAEC"/>
<stop offset="0.976562" stop-color="#05AAEC"/>
<stop offset="0.984375" stop-color="#05AAEC"/>
<stop offset="1" stop-color="#05AAEB"/>
</linearGradient>
</defs>
</svg>
