<svg width="378" height="378" viewBox="0 0 378 378" fill="none" xmlns="http://www.w3.org/2000/svg">
<path fill-rule="evenodd" clip-rule="evenodd" d="M188.613 0C292.777 0 377.223 84.4414 377.223 188.609C377.223 292.781 292.777 377.223 188.613 377.223C84.4453 377.223 0 292.781 0 188.609C0 84.4414 84.4453 0 188.613 0Z" fill="white"/>
<path fill-rule="evenodd" clip-rule="evenodd" d="M79.2461 103.609H297.969C303.375 103.609 307.793 108.031 307.793 113.43V263.781C307.793 269.191 303.375 273.609 297.969 273.609H79.2461C73.8437 273.609 69.4258 269.191 69.4258 263.781V113.43C69.4258 108.031 73.8437 103.609 79.2461 103.609Z" fill="black"/>
<path fill-rule="evenodd" clip-rule="evenodd" d="M281.422 115.859H95.8008C95.7109 115.859 95.625 115.871 95.5391 115.883L160.5 174.723L162.379 176.422L188.617 200.191L281.68 115.883C281.605 115.871 281.512 115.859 281.422 115.859Z" fill="white"/>
<path fill-rule="evenodd" clip-rule="evenodd" d="M234.871 210.633L218.254 193.16L187.801 220.75L159.879 195.461L94.457 261.332C94.6289 261.34 94.8047 261.352 94.9805 261.352H280.605C281.363 261.352 282.094 261.211 282.762 260.973L253.129 229.82L234.871 210.633Z" fill="white"/>
<path fill-rule="evenodd" clip-rule="evenodd" d="M293.551 126.16L229.969 183.762L244.168 198.68L268.055 223.812L294.281 251.371C294.48 250.82 294.586 250.223 294.586 249.602V129.371C294.586 128.18 294.207 127.082 293.551 126.16Z" fill="white"/>
<path fill-rule="evenodd" clip-rule="evenodd" d="M83.6055 252.711L149.797 186.062L83.6719 126.16C83.0195 127.082 82.6367 128.18 82.6367 129.371V249.602C82.6367 250.75 82.9961 251.812 83.6055 252.711Z" fill="white"/>
</svg>
