<svg width="80" height="80" viewBox="0 0 80 80" fill="none" xmlns="http://www.w3.org/2000/svg">
<circle cx="40" cy="40" r="40" fill="white"/>
<mask id="mask0_12_24" style="mask-type:luminance" maskUnits="userSpaceOnUse" x="27" y="22" width="38" height="44">
<path d="M27.5605 22.2783H64.294V65.726H27.5605V22.2783Z" fill="white"/>
</mask>
<g mask="url(#mask0_12_24)">
<mask id="mask1_12_24" style="mask-type:luminance" maskUnits="userSpaceOnUse" x="27" y="22" width="38" height="44">
<path d="M64.1268 31.7701C63.9122 29.8902 63.4213 28.0684 62.4834 26.3625C60.6522 23.035 57.5127 21.6659 53.7008 22.6022C50.3729 23.4192 47.6151 25.1603 45.1081 27.2316C43.9124 28.2195 42.7534 29.2359 41.3927 30.0365C40.1812 30.7487 38.9335 31.3342 37.6495 31.7942C36.1181 32.3422 34.3503 32.0471 33.2024 30.9753C32.5643 30.3791 31.654 30.0247 30.6541 30.0777C29.0229 30.1655 27.6933 31.3595 27.58 32.8407C27.4466 34.5842 28.9627 36.0359 30.8519 36.0359C31.7829 36.0359 32.6229 35.6835 33.2199 35.117C33.9421 34.4313 34.9466 34.0536 35.9897 34.0097C38.6805 33.8981 41.3341 33.2809 43.9504 32.1491C45.798 31.3497 47.3849 30.2079 48.9953 29.0867C50.6223 27.9548 52.3455 26.9599 54.3511 26.4606C56.9478 25.8138 58.8524 26.6766 59.8566 28.9442C60.2491 29.8297 60.4424 30.7585 60.5483 31.7052C60.7371 33.3827 60.6435 35.0533 60.3663 36.716C59.8688 39.6981 59.0253 42.564 57.161 45.1291C55.7582 47.0594 54.9296 49.2416 54.0925 51.4103C53.2059 53.7068 52.4128 56.0346 51.31 58.2583C51.2639 58.3516 51.2896 58.5261 51.1071 58.5187C50.866 57.5592 50.6597 56.6019 50.382 55.6619C49.9032 54.04 49.2927 52.4645 48.0869 51.1463C47.0615 50.0256 45.7531 49.386 44.0692 49.2442C44.6044 49.8662 45.0145 50.4802 45.3336 51.1437C46.2332 53.0132 46.6358 54.9973 46.9889 56.9939C47.3101 58.8101 47.4764 60.6491 47.9145 62.4482C48.1514 63.419 48.3999 64.3934 49.081 65.208C49.4807 65.6871 50.2257 65.8221 50.792 65.5106C51.2347 65.2666 51.5824 64.9267 51.8919 64.5581C53.3008 62.8834 54.2554 60.9801 55.1938 59.0724C56.2701 56.8844 56.9939 54.5783 57.8671 52.3218C58.6195 50.3766 59.3982 48.4407 60.6705 46.712C61.554 45.5121 62.2397 44.2255 62.7566 42.8646C64.1247 39.2606 64.5586 35.5545 64.1268 31.7701Z" fill="white"/>
</mask>
<g mask="url(#mask1_12_24)">
<mask id="mask2_12_24" style="mask-type:luminance" maskUnits="userSpaceOnUse" x="27" y="22" width="38" height="44">
<path d="M64.1268 31.7701C63.9122 29.8902 63.4213 28.0684 62.4834 26.3625C60.6522 23.035 57.5127 21.6659 53.7008 22.6022C50.3729 23.4192 47.6151 25.1603 45.1081 27.2316C43.9124 28.2195 42.7534 29.2359 41.3927 30.0365C40.1812 30.7487 38.9335 31.3342 37.6495 31.7942C36.1181 32.3422 34.3503 32.0471 33.2024 30.9753C32.5643 30.3791 31.654 30.0247 30.6541 30.0777C29.0229 30.1655 27.6933 31.3595 27.58 32.8407C27.4466 34.5842 28.9627 36.0359 30.8519 36.0359C31.7829 36.0359 32.6229 35.6835 33.2199 35.117C33.9421 34.4313 34.9466 34.0536 35.9897 34.0097C38.6805 33.8981 41.3341 33.2809 43.9504 32.1491C45.798 31.3497 47.3849 30.2079 48.9953 29.0867C50.6223 27.9548 52.3455 26.9599 54.3511 26.4606C56.9478 25.8138 58.8524 26.6766 59.8566 28.9442C60.2491 29.8297 60.4424 30.7585 60.5483 31.7052C60.7371 33.3827 60.6435 35.0533 60.3663 36.716C59.8688 39.6981 59.0253 42.564 57.161 45.1291C55.7582 47.0594 54.9296 49.2416 54.0925 51.4103C53.2059 53.7068 52.4128 56.0346 51.31 58.2583C51.2639 58.3516 51.2896 58.5261 51.1071 58.5187C50.866 57.5592 50.6597 56.6019 50.382 55.6619C49.9032 54.04 49.2927 52.4645 48.0869 51.1463C47.0615 50.0256 45.7531 49.386 44.0692 49.2442C44.6044 49.8662 45.0145 50.4802 45.3336 51.1437C46.2332 53.0132 46.6358 54.9973 46.9889 56.9939C47.3101 58.8101 47.4764 60.6491 47.9145 62.4482C48.1514 63.419 48.3999 64.3934 49.081 65.208C49.4807 65.6871 50.2257 65.8221 50.792 65.5106C51.2347 65.2666 51.5824 64.9267 51.8919 64.5581C53.3008 62.8834 54.2554 60.9801 55.1938 59.0724C56.2701 56.8844 56.9939 54.5783 57.8671 52.3218C58.6195 50.3766 59.3982 48.4407 60.6705 46.712C61.554 45.5121 62.2397 44.2255 62.7566 42.8646C64.1247 39.2606 64.5586 35.5545 64.1268 31.7701Z" fill="white"/>
</mask>
<g mask="url(#mask2_12_24)">
<path d="M84.3094 30.8927L35.2011 7.9519L7.69531 56.5955L56.8036 79.5365L84.3094 30.8927Z" fill="url(#paint0_linear_12_24)"/>
</g>
</g>
</g>
<path d="M53.3308 38.9958C52.0711 38.9386 50.9597 39.5328 50.3699 40.4395C49.8412 41.2524 48.9374 41.803 47.9225 42.016C44.5827 42.7177 41.6425 44.2024 39.104 46.4685C35.9345 49.2975 33.9792 52.763 32.7524 56.5957C32.5247 57.3072 32.3415 58.0307 32.1192 58.8137C32.0517 58.7007 32.0204 58.6561 31.9965 58.6075C30.8118 56.2304 29.9721 53.7381 29.0127 51.2853C28.1598 49.1049 27.263 46.941 25.849 44.9929C25.3278 44.2752 24.8762 43.5288 24.5371 42.7272C23.1531 39.4559 22.698 36.069 23.0773 32.5948C23.2455 31.0531 23.651 29.556 24.5248 28.1959C25.8806 26.0854 28.0698 25.175 30.7074 25.6599C32.2722 25.9473 33.8316 26.2379 35.4334 26.3194C37.7597 26.4373 40.0503 26.2845 42.2904 25.6805C42.9046 25.5146 43.5059 25.3109 44.0513 24.9819C42.9164 25.0552 41.7938 25.0004 40.6747 24.8873C38.9004 24.7074 37.2467 24.1473 35.6099 23.5443C33.699 22.8396 31.7857 22.1607 29.6935 22.0261C27.6099 21.8912 25.6824 22.2701 23.9738 23.3866C22.0632 24.6348 20.9288 26.3864 20.1714 28.3567C18.9537 31.5236 18.7892 34.7844 19.2063 38.0859C19.6351 41.4797 20.793 44.6235 22.9021 47.4955C24.1747 49.2291 24.8558 51.236 25.5788 53.204C26.7115 56.2877 27.847 59.3694 29.5722 62.239C30.1875 63.2623 30.7909 64.2949 31.6681 65.1599C32.9461 66.4205 33.9454 66.2616 34.7005 64.6886C35.1979 63.6529 35.4419 62.5531 35.6318 61.4441C36.1919 58.1753 37.2612 55.0581 39.0794 52.1786C41.2385 48.7597 43.9771 46.1119 47.3911 44.3305C48.646 43.6758 50.1993 43.6945 51.4183 44.4025C51.9224 44.6943 52.5216 44.8644 53.165 44.8644C55.0314 44.8644 56.5297 43.435 56.3988 41.7193C56.2868 40.2501 54.9553 39.0691 53.3308 38.9958Z" fill="#2E2A2B"/>
<path d="M78 33H3V49H78V33Z" fill="white"/>
<path d="M26.2521 40.1C26.2521 40.3947 26.2001 40.6763 26.0961 40.945C25.9921 41.2137 25.8448 41.4737 25.6541 41.725C25.4634 41.9763 25.2381 42.2233 24.9781 42.466C24.7268 42.7 24.4494 42.9297 24.1461 43.155C23.8254 43.3977 23.4528 43.6317 23.0281 43.857C22.6034 44.0823 22.1744 44.2817 21.7411 44.455C21.3164 44.637 20.9134 44.78 20.5321 44.884C20.1508 44.988 19.8431 45.04 19.6091 45.04C19.4531 45.04 19.3404 45.0183 19.2711 44.975C19.1931 44.9403 19.1541 44.8537 19.1541 44.715C19.1541 44.6197 19.1888 44.507 19.2581 44.377C19.3274 44.247 19.3968 44.182 19.4661 44.182C19.5354 44.182 19.5874 44.2037 19.6221 44.247C19.6481 44.2903 19.6611 44.338 19.6611 44.39C19.6611 44.416 19.6611 44.4377 19.6611 44.455C19.6524 44.4723 19.6481 44.4853 19.6481 44.494V44.52C19.9774 44.4853 20.4194 44.3813 20.9741 44.208C21.5201 44.0433 22.1744 43.753 22.9371 43.337C23.2664 43.155 23.5914 42.9427 23.9121 42.7C24.2328 42.4487 24.5188 42.1843 24.7701 41.907C25.0301 41.621 25.2381 41.3263 25.3941 41.023C25.5501 40.711 25.6281 40.4077 25.6281 40.113C25.6281 39.905 25.5198 39.6927 25.3031 39.476C25.0951 39.2507 24.8264 39.0427 24.4971 38.852C24.1764 38.6527 23.8254 38.4837 23.4441 38.345C23.0628 38.1977 22.7074 38.098 22.3781 38.046C22.3868 38.0893 22.3998 38.1977 22.4171 38.371C22.4344 38.5357 22.4604 38.7307 22.4951 38.956C22.5298 39.1813 22.5688 39.424 22.6121 39.684C22.6641 39.9353 22.7204 40.1693 22.7811 40.386C22.8504 40.6287 22.8938 40.8107 22.9111 40.932C22.9371 41.0447 22.9544 41.14 22.9631 41.218C22.9718 41.3047 22.9848 41.4173 23.0021 41.556C23.0281 41.686 23.0454 41.8247 23.0541 41.972C23.0714 42.1107 23.0844 42.245 23.0931 42.375C23.1104 42.4963 23.1191 42.5917 23.1191 42.661C23.1191 42.739 23.1018 42.8213 23.0671 42.908C23.0411 42.9947 23.0064 43.038 22.9631 43.038C22.8591 43.038 22.7854 43.0033 22.7421 42.934C22.7074 42.856 22.6728 42.7303 22.6381 42.557C22.6121 42.375 22.5774 42.141 22.5341 41.855C22.4908 41.569 22.4084 41.218 22.2871 40.802C22.1138 40.2213 21.9924 39.6753 21.9231 39.164C21.8538 38.644 21.8104 38.2323 21.7931 37.929C21.7931 37.929 21.7714 37.929 21.7281 37.929C21.6934 37.9203 21.6414 37.916 21.5721 37.916C21.5114 37.916 21.4378 37.916 21.3511 37.916C21.2731 37.9073 21.1994 37.903 21.1301 37.903C20.9828 37.903 20.8484 37.9333 20.7271 37.994C20.6058 38.046 20.5061 38.1067 20.4281 38.176C20.3414 38.2453 20.2721 38.3103 20.2201 38.371C20.1594 38.423 20.1204 38.449 20.1031 38.449C20.0424 38.449 19.9601 38.436 19.8561 38.41C19.7434 38.3753 19.6871 38.3147 19.6871 38.228C19.6871 38.1153 19.7434 38.0027 19.8561 37.89C19.9601 37.7687 20.0901 37.6647 20.2461 37.578C20.4021 37.4827 20.5711 37.409 20.7531 37.357C20.9351 37.2963 21.1041 37.266 21.2601 37.266C21.5201 37.266 21.8234 37.3007 22.1701 37.37C22.5168 37.4393 22.8721 37.5347 23.2361 37.656C23.6088 37.7773 23.9728 37.9247 24.3281 38.098C24.6921 38.2713 25.0171 38.462 25.3031 38.67C25.5891 38.878 25.8188 39.1033 25.9921 39.346C26.1654 39.5887 26.2521 39.84 26.2521 40.1ZM30.4152 40.035C30.4152 40.0957 30.3892 40.1477 30.3372 40.191C30.2852 40.2257 30.2246 40.256 30.1552 40.282C30.0859 40.308 30.0166 40.3297 29.9472 40.347C29.8779 40.3557 29.8216 40.36 29.7782 40.36C29.6482 40.36 29.5616 40.3513 29.5182 40.334C29.4749 40.3167 29.4402 40.308 29.4142 40.308C29.1976 40.308 29.0242 40.3253 28.8942 40.36C28.7642 40.3947 28.6602 40.451 28.5822 40.529C28.5129 40.607 28.4652 40.7067 28.4392 40.828C28.4219 40.9407 28.4132 41.0793 28.4132 41.244C28.4132 41.5213 28.4219 41.7423 28.4392 41.907C28.4652 42.0717 28.4869 42.206 28.5042 42.31C28.5302 42.414 28.5519 42.4963 28.5692 42.557C28.5952 42.609 28.6082 42.661 28.6082 42.713C28.6082 42.7823 28.5692 42.856 28.4912 42.934C28.4219 43.012 28.3569 43.051 28.2962 43.051C28.1922 43.051 28.0969 42.96 28.0102 42.778C27.9322 42.5873 27.8629 42.3663 27.8022 42.115C27.7502 41.855 27.7069 41.5993 27.6722 41.348C27.6376 41.0967 27.6202 40.906 27.6202 40.776C27.6202 40.6287 27.6332 40.49 27.6592 40.36C27.6852 40.2213 27.7199 40.1043 27.7632 40.009C27.8066 39.905 27.8542 39.8227 27.9062 39.762C27.9582 39.7013 28.0102 39.671 28.0622 39.671C28.1056 39.671 28.1402 39.6883 28.1662 39.723C28.1922 39.749 28.2139 39.7837 28.2312 39.827C28.2486 39.8617 28.2659 39.8963 28.2832 39.931C28.3092 39.957 28.3396 39.97 28.3742 39.97C28.4522 39.97 28.5779 39.931 28.7512 39.853C28.9246 39.775 29.1369 39.736 29.3882 39.736C29.6222 39.736 29.7956 39.7447 29.9082 39.762C30.0296 39.7707 30.1466 39.7967 30.2592 39.84C30.2852 39.8487 30.3156 39.8703 30.3502 39.905C30.3936 39.931 30.4152 39.9743 30.4152 40.035ZM32.2925 43.168C32.2925 43.22 32.2665 43.272 32.2145 43.324C32.1625 43.3673 32.1019 43.4107 32.0325 43.454C31.9719 43.4887 31.9112 43.519 31.8505 43.545C31.7899 43.5623 31.7552 43.571 31.7465 43.571C31.6685 43.571 31.6079 43.5537 31.5645 43.519C31.5299 43.4757 31.4995 43.4323 31.4735 43.389C31.4562 43.337 31.4432 43.2893 31.4345 43.246C31.4345 43.2027 31.4345 43.1723 31.4345 43.155C31.4345 43.1203 31.4432 43.077 31.4605 43.025C31.4779 42.9643 31.5039 42.908 31.5385 42.856C31.5732 42.804 31.6122 42.7607 31.6555 42.726C31.7075 42.6827 31.7639 42.661 31.8245 42.661C31.9372 42.661 32.0412 42.7087 32.1365 42.804C32.2405 42.8993 32.2925 43.0207 32.2925 43.168ZM43.8591 42.115C43.8591 42.505 43.7897 42.8127 43.6511 43.038C43.5124 43.2547 43.3087 43.4583 43.0401 43.649C42.9707 43.6923 42.8754 43.7443 42.7541 43.805C42.6327 43.8657 42.4984 43.922 42.3511 43.974C42.2037 44.026 42.0477 44.0693 41.8831 44.104C41.7184 44.1387 41.5667 44.156 41.4281 44.156C41.0381 44.156 40.7434 44.1127 40.5441 44.026C40.3447 43.948 40.2451 43.8527 40.2451 43.74C40.2451 43.6187 40.2797 43.519 40.3491 43.441C40.4184 43.363 40.4791 43.3197 40.5311 43.311L40.6741 43.415C40.7174 43.4583 40.7781 43.506 40.8561 43.558C40.9341 43.6013 41.0597 43.623 41.2331 43.623C41.3977 43.623 41.5971 43.597 41.8311 43.545C42.0651 43.4843 42.2861 43.3977 42.4941 43.285C42.7107 43.1637 42.8927 43.0163 43.0401 42.843C43.1961 42.6697 43.2741 42.4703 43.2741 42.245C43.2741 42.0457 43.1224 41.8637 42.8191 41.699C42.5244 41.5257 42.0564 41.4087 41.4151 41.348C41.0857 41.322 40.7607 41.283 40.4401 41.231C40.1194 41.1703 39.8291 41.0923 39.5691 40.997C39.3177 40.893 39.1141 40.7673 38.9581 40.62C38.8021 40.464 38.7241 40.2733 38.7241 40.048C38.7241 39.8313 38.7847 39.6233 38.9061 39.424C39.0274 39.2247 39.1747 39.0427 39.3481 38.878C39.5301 38.7047 39.7164 38.553 39.9071 38.423C40.0977 38.293 40.2581 38.1847 40.3881 38.098C40.4921 38.0373 40.6351 37.9593 40.8171 37.864C41.0077 37.76 41.2071 37.6647 41.4151 37.578C41.6317 37.4827 41.8441 37.4047 42.0521 37.344C42.2687 37.2747 42.4507 37.24 42.5981 37.24C42.7714 37.24 42.8884 37.2877 42.9491 37.383C43.0097 37.4783 43.0401 37.6127 43.0401 37.786C43.0401 37.9333 43.0227 38.0893 42.9881 38.254C42.9534 38.4187 42.9144 38.579 42.8711 38.735C42.8277 38.891 42.7844 39.0297 42.7411 39.151C42.7064 39.2637 42.6804 39.3373 42.6631 39.372C42.6284 39.45 42.5894 39.502 42.5461 39.528C42.5027 39.554 42.4724 39.567 42.4551 39.567C42.4204 39.567 42.4031 39.5453 42.4031 39.502C42.4031 39.476 42.4074 39.4283 42.4161 39.359C42.4334 39.281 42.4507 39.19 42.4681 39.086C42.4941 38.982 42.5114 38.8693 42.5201 38.748C42.5374 38.6267 42.5461 38.5053 42.5461 38.384C42.5461 38.1933 42.5374 38.0547 42.5201 37.968C42.5027 37.8813 42.4334 37.838 42.3121 37.838C42.1907 37.838 42.0261 37.8727 41.8181 37.942C41.6101 38.0027 41.3977 38.0807 41.1811 38.176C40.9471 38.28 40.7174 38.4143 40.4921 38.579C40.2754 38.7437 40.0804 38.9127 39.9071 39.086C39.7337 39.2593 39.5907 39.4283 39.4781 39.593C39.3741 39.749 39.3221 39.8747 39.3221 39.97C39.3221 40.074 39.3914 40.1737 39.5301 40.269C39.6774 40.3557 39.8594 40.4337 40.0761 40.503C40.3014 40.5723 40.5484 40.633 40.8171 40.685C41.0857 40.737 41.3501 40.776 41.6101 40.802C41.8267 40.828 42.0651 40.8627 42.3251 40.906C42.5851 40.9493 42.8277 41.0187 43.0531 41.114C43.2784 41.2093 43.4691 41.3393 43.6251 41.504C43.7811 41.66 43.8591 41.8637 43.8591 42.115ZM50.3468 42.778C50.3468 42.8473 50.3251 42.908 50.2818 42.96C50.2385 43.012 50.1865 43.0553 50.1258 43.09C50.0651 43.116 50.0001 43.1377 49.9308 43.155C49.8701 43.1723 49.8181 43.181 49.7748 43.181C49.5928 43.181 49.4368 43.0857 49.3068 42.895C49.1768 42.6957 49.0685 42.479 48.9818 42.245C48.8951 42.0023 48.8301 41.777 48.7868 41.569C48.7521 41.361 48.7348 41.2483 48.7348 41.231C48.6828 41.3263 48.6265 41.4867 48.5658 41.712C48.5138 41.9373 48.4488 42.167 48.3708 42.401C48.2928 42.6263 48.1931 42.83 48.0718 43.012C47.9591 43.1853 47.8118 43.272 47.6298 43.272C47.5431 43.272 47.4608 43.22 47.3828 43.116C47.3048 43.012 47.2311 42.8777 47.1618 42.713C47.0925 42.5483 47.0231 42.362 46.9538 42.154C46.8931 41.946 46.8281 41.7423 46.7588 41.543C46.6981 41.3437 46.6375 41.1573 46.5768 40.984C46.5161 40.802 46.4555 40.659 46.3948 40.555C46.3428 40.685 46.2951 40.8627 46.2518 41.088C46.2171 41.3133 46.1868 41.5517 46.1608 41.803C46.1348 42.0457 46.1131 42.2883 46.0958 42.531C46.0785 42.7737 46.0698 42.986 46.0698 43.168C46.0698 43.2893 46.0351 43.376 45.9658 43.428C45.9051 43.48 45.8401 43.506 45.7708 43.506C45.6755 43.506 45.5801 43.4453 45.4848 43.324C45.3895 43.194 45.2941 43.0293 45.1988 42.83C45.1035 42.6307 45.0125 42.4053 44.9258 42.154C44.8478 41.9027 44.7741 41.6513 44.7048 41.4C44.6441 41.1487 44.5965 40.9103 44.5618 40.685C44.5271 40.451 44.5098 40.256 44.5098 40.1C44.5098 39.9873 44.5141 39.8833 44.5228 39.788C44.5315 39.71 44.5358 39.6363 44.5358 39.567C44.5445 39.4977 44.5488 39.4587 44.5488 39.45C44.5488 39.424 44.5401 39.4067 44.5228 39.398C44.5141 39.3893 44.5098 39.3677 44.5098 39.333C44.5098 39.307 44.5401 39.268 44.6008 39.216C44.6701 39.1553 44.7395 39.125 44.8088 39.125C44.9301 39.125 45.0081 39.151 45.0428 39.203C45.0861 39.255 45.1078 39.3157 45.1078 39.385C45.1078 39.411 45.1035 39.45 45.0948 39.502C45.0948 39.554 45.0948 39.671 45.0948 39.853C45.0948 39.9743 45.1165 40.1563 45.1598 40.399C45.2031 40.6417 45.2551 40.8887 45.3158 41.14C45.3765 41.3913 45.4371 41.6253 45.4978 41.842C45.5671 42.05 45.6235 42.18 45.6668 42.232C45.6841 42.1973 45.6928 42.1583 45.6928 42.115C45.7015 42.063 45.7101 42.024 45.7188 41.998L45.8618 40.932C45.8965 40.6633 45.9658 40.3817 46.0698 40.087C46.1825 39.7837 46.2995 39.5497 46.4208 39.385C46.4641 39.3157 46.5118 39.281 46.5638 39.281C46.6158 39.281 46.6635 39.32 46.7068 39.398C46.8541 39.6407 46.9625 39.8833 47.0318 40.126C47.1098 40.36 47.1748 40.594 47.2268 40.828C47.2875 41.0533 47.3525 41.283 47.4218 41.517C47.4998 41.7423 47.6168 41.972 47.7728 42.206C47.8421 42.0933 47.9288 41.9113 48.0328 41.66C48.1368 41.4 48.2408 41.14 48.3448 40.88C48.4575 40.62 48.5615 40.3947 48.6568 40.204C48.7521 40.0047 48.8258 39.905 48.8778 39.905C48.9038 39.905 48.9471 39.9093 49.0078 39.918C49.0685 39.9267 49.1118 39.931 49.1378 39.931C49.2158 39.931 49.2808 40.022 49.3328 40.204C49.3848 40.3773 49.4281 40.5853 49.4628 40.828C49.5061 41.062 49.5451 41.3003 49.5798 41.543C49.6231 41.777 49.6708 41.9547 49.7228 42.076C49.7575 42.1627 49.8095 42.245 49.8788 42.323C49.9481 42.401 50.0175 42.4747 50.0868 42.544C50.1735 42.622 50.2601 42.7 50.3468 42.778ZM52.1592 38.02C52.1592 38.0373 52.1288 38.072 52.0682 38.124C52.0075 38.176 51.9338 38.2323 51.8472 38.293C51.7692 38.345 51.6868 38.3927 51.6002 38.436C51.5135 38.4793 51.4442 38.501 51.3922 38.501C51.3575 38.501 51.3098 38.501 51.2492 38.501C51.1972 38.4923 51.1408 38.475 51.0802 38.449C51.0282 38.423 50.9805 38.3883 50.9372 38.345C50.8938 38.293 50.8722 38.228 50.8722 38.15C50.8722 38.0287 50.9155 37.916 51.0022 37.812C51.0888 37.6993 51.2015 37.643 51.3402 37.643C51.3662 37.643 51.4225 37.656 51.5092 37.682C51.6045 37.6993 51.6998 37.7253 51.7952 37.76C51.8905 37.7947 51.9728 37.8337 52.0422 37.877C52.1202 37.9203 52.1592 37.968 52.1592 38.02ZM52.5882 42.882C52.5882 42.9427 52.5405 42.9947 52.4452 43.038C52.3585 43.0813 52.2935 43.103 52.2502 43.103C52.1635 43.103 52.0855 43.0467 52.0162 42.934C51.9468 42.8213 51.8862 42.6913 51.8342 42.544C51.7822 42.3967 51.7388 42.258 51.7042 42.128C51.6695 41.9893 51.6435 41.894 51.6262 41.842C51.6002 41.7553 51.5655 41.6513 51.5222 41.53C51.4788 41.4087 51.4355 41.2917 51.3922 41.179C51.3575 41.0663 51.3272 40.9667 51.3012 40.88C51.2752 40.7933 51.2622 40.7457 51.2622 40.737C51.2622 40.6157 51.2838 40.503 51.3272 40.399C51.3792 40.295 51.4398 40.243 51.5092 40.243C51.5872 40.243 51.6695 40.3037 51.7562 40.425C51.8428 40.5463 51.9252 40.7023 52.0032 40.893C52.0898 41.075 52.1678 41.2787 52.2372 41.504C52.3065 41.7207 52.3672 41.9287 52.4192 42.128C52.4712 42.3187 52.5102 42.4877 52.5362 42.635C52.5708 42.7737 52.5882 42.856 52.5882 42.882ZM56.8557 38.124C56.7431 38.254 56.5827 38.384 56.3747 38.514C56.1667 38.6353 55.9587 38.748 55.7507 38.852C55.5427 38.956 55.3607 39.047 55.2047 39.125C55.0487 39.1943 54.9707 39.242 54.9707 39.268C54.9707 39.294 54.9881 39.372 55.0227 39.502C55.0574 39.632 55.0964 39.788 55.1397 39.97C55.1917 40.1433 55.2437 40.3253 55.2957 40.516C55.3477 40.7067 55.3911 40.8757 55.4257 41.023C55.4431 41.1097 55.4647 41.2223 55.4907 41.361C55.5167 41.4997 55.5384 41.6383 55.5557 41.777C55.5817 41.9157 55.6034 42.0413 55.6207 42.154C55.6381 42.258 55.6467 42.3143 55.6467 42.323C55.6467 42.453 55.6251 42.5873 55.5817 42.726C55.5384 42.8647 55.4691 42.934 55.3737 42.934C55.3217 42.934 55.2741 42.9123 55.2307 42.869C55.1874 42.8257 55.1484 42.778 55.1137 42.726C55.0791 42.6653 55.0531 42.609 55.0357 42.557C55.0184 42.505 55.0097 42.466 55.0097 42.44C55.0097 42.4227 55.0097 42.3967 55.0097 42.362C55.0184 42.3273 55.0227 42.2883 55.0227 42.245C55.0227 42.0803 54.9967 41.842 54.9447 41.53C54.9274 41.4347 54.8927 41.2873 54.8407 41.088C54.7887 40.8887 54.7367 40.685 54.6847 40.477C54.6241 40.2343 54.5547 39.97 54.4767 39.684C54.4421 39.5627 54.4204 39.502 54.4117 39.502C54.3511 39.502 54.2471 39.541 54.0997 39.619C53.9611 39.6883 53.8007 39.7793 53.6187 39.892C53.4367 39.996 53.2461 40.113 53.0467 40.243C52.8474 40.3643 52.6611 40.4813 52.4877 40.594C52.3144 40.698 52.1671 40.789 52.0457 40.867C51.9157 40.9363 51.8377 40.971 51.8117 40.971C51.6991 40.971 51.6081 40.932 51.5387 40.854C51.4694 40.776 51.4347 40.6893 51.4347 40.594C51.4347 40.542 51.5084 40.4683 51.6557 40.373C51.7944 40.269 51.9721 40.1563 52.1887 40.035C52.3967 39.9137 52.6264 39.788 52.8777 39.658C53.1204 39.528 53.3457 39.411 53.5537 39.307C53.7704 39.203 53.9481 39.1163 54.0867 39.047C54.2341 38.9777 54.3077 38.943 54.3077 38.943C54.2297 38.5443 54.1647 38.189 54.1127 37.877C54.0694 37.6083 54.0261 37.3613 53.9827 37.136C53.9481 36.9107 53.9307 36.7893 53.9307 36.772C53.9307 36.6593 53.9524 36.577 53.9957 36.525C54.0477 36.4643 54.1041 36.434 54.1647 36.434C54.2601 36.434 54.3207 36.499 54.3467 36.629C54.4421 37.097 54.5287 37.513 54.6067 37.877C54.6934 38.241 54.7757 38.5357 54.8537 38.761C54.9317 38.7437 55.0661 38.696 55.2567 38.618C55.4474 38.5313 55.6467 38.4403 55.8547 38.345C56.0627 38.2497 56.2491 38.1673 56.4137 38.098C56.5871 38.02 56.6867 37.981 56.7127 37.981C56.7647 37.981 56.7951 37.9983 56.8037 38.033C56.8211 38.0677 56.8384 38.098 56.8557 38.124ZM61.7221 41.595C61.7654 41.6383 61.7871 41.6643 61.7871 41.673C61.7871 41.6903 61.7611 41.7423 61.7091 41.829C61.6658 41.9157 61.6051 42.0067 61.5271 42.102C61.4491 42.1973 61.3624 42.284 61.2671 42.362C61.1804 42.4313 61.0938 42.466 61.0071 42.466C60.8251 42.466 60.6778 42.4313 60.5651 42.362C60.4524 42.284 60.3571 42.1887 60.2791 42.076C60.2098 41.9633 60.1534 41.842 60.1101 41.712C60.0754 41.5733 60.0451 41.4433 60.0191 41.322C60.0018 41.2613 59.9844 41.231 59.9671 41.231C59.9411 41.231 59.8891 41.3263 59.8111 41.517C59.7331 41.699 59.6464 41.9027 59.5511 42.128C59.4644 42.3447 59.3778 42.5483 59.2911 42.739C59.2131 42.921 59.1611 43.012 59.1351 43.012C58.9791 43.012 58.8448 42.947 58.7321 42.817C58.6281 42.6783 58.5414 42.5223 58.4721 42.349C58.4114 42.167 58.3638 41.985 58.3291 41.803C58.2944 41.6123 58.2728 41.465 58.2641 41.361C58.2381 41.127 58.1818 40.737 58.0951 40.191C58.0084 39.645 57.9348 38.982 57.8741 38.202C57.8568 38.0373 57.8351 37.89 57.8091 37.76C57.7918 37.6213 57.7701 37.4697 57.7441 37.305C57.7181 37.1403 57.6964 36.954 57.6791 36.746C57.6618 36.538 57.6531 36.2823 57.6531 35.979C57.6531 35.9617 57.6574 35.9053 57.6661 35.81C57.6748 35.7147 57.6878 35.6107 57.7051 35.498C57.7224 35.3853 57.7484 35.2857 57.7831 35.199C57.8264 35.1123 57.8741 35.069 57.9261 35.069C57.9868 35.069 58.0431 35.108 58.0951 35.186C58.1471 35.2553 58.1904 35.3377 58.2251 35.433C58.2684 35.5283 58.2988 35.6193 58.3161 35.706C58.3334 35.7927 58.3421 35.8533 58.3421 35.888C58.3421 36.018 58.3334 36.1393 58.3161 36.252C58.2988 36.3647 58.2901 36.4687 58.2901 36.564C58.2901 36.694 58.2988 36.8587 58.3161 37.058C58.3421 37.2573 58.3724 37.461 58.4071 37.669C58.4418 37.877 58.4721 38.0807 58.4981 38.28C58.5241 38.4707 58.5458 38.6267 58.5631 38.748C58.5631 38.7567 58.5718 38.8173 58.5891 38.93C58.6064 39.0427 58.6238 39.1857 58.6411 39.359C58.6671 39.5237 58.6888 39.7057 58.7061 39.905C58.7321 40.0957 58.7581 40.2863 58.7841 40.477C58.8101 40.659 58.8318 40.8237 58.8491 40.971C58.8751 41.1097 58.8924 41.2093 58.9011 41.27C58.9011 41.296 58.9054 41.335 58.9141 41.387C58.9314 41.4303 58.9444 41.4823 58.9531 41.543C58.9704 41.6037 58.9878 41.66 59.0051 41.712C59.0224 41.764 59.0441 41.803 59.0701 41.829C59.1221 41.725 59.1871 41.5647 59.2651 41.348C59.3518 41.1313 59.4384 40.9103 59.5251 40.685C59.6204 40.4597 59.7071 40.2647 59.7851 40.1C59.8718 39.9267 59.9454 39.84 60.0061 39.84C60.0754 39.84 60.1318 39.853 60.1751 39.879C60.2184 39.905 60.2748 39.9267 60.3441 39.944C60.4308 39.9787 60.4741 40.0263 60.4741 40.087C60.4741 40.139 60.4828 40.204 60.5001 40.282C60.5174 40.386 60.5434 40.5247 60.5781 40.698C60.6214 40.8627 60.6691 41.0273 60.7211 41.192C60.7731 41.348 60.8338 41.4823 60.9031 41.595C60.9724 41.7077 61.0418 41.764 61.1111 41.764C61.1458 41.764 61.1934 41.7207 61.2541 41.634C61.3148 41.5387 61.3971 41.4867 61.5011 41.478C61.5184 41.478 61.5488 41.491 61.5921 41.517C61.6354 41.5343 61.6788 41.5603 61.7221 41.595Z" fill="black"/>
<path d="M59.3091 53V50.825H59.9121C60.1281 50.825 60.3111 50.858 60.4611 50.924C60.6111 50.988 60.7331 51.075 60.8271 51.185C60.9211 51.293 60.9891 51.413 61.0311 51.545C61.0751 51.677 61.0971 51.809 61.0971 51.941C61.0971 52.103 61.0681 52.25 61.0101 52.382C60.9541 52.512 60.8751 52.623 60.7731 52.715C60.6731 52.807 60.5581 52.878 60.4281 52.928C60.2981 52.976 60.1611 53 60.0171 53H59.3091ZM59.6211 52.697H59.9571C60.1151 52.697 60.2551 52.667 60.3771 52.607C60.4991 52.547 60.5951 52.459 60.6651 52.343C60.7371 52.227 60.7731 52.086 60.7731 51.92C60.7731 51.784 60.7501 51.667 60.7041 51.569C60.6601 51.469 60.6011 51.387 60.5271 51.323C60.4531 51.257 60.3701 51.208 60.2781 51.176C60.1861 51.144 60.0921 51.128 59.9961 51.128H59.6211V52.697ZM62.0927 53.03C61.9487 53.03 61.8247 53.002 61.7207 52.946C61.6167 52.888 61.5367 52.809 61.4807 52.709C61.4247 52.607 61.3967 52.492 61.3967 52.364C61.3967 52.24 61.4277 52.128 61.4897 52.028C61.5537 51.926 61.6387 51.845 61.7447 51.785C61.8507 51.725 61.9687 51.695 62.0987 51.695C62.2667 51.695 62.4057 51.744 62.5157 51.842C62.6277 51.938 62.7027 52.074 62.7407 52.25L61.7177 52.604L61.6457 52.43L62.4677 52.13L62.4047 52.172C62.3807 52.108 62.3427 52.053 62.2907 52.007C62.2387 51.959 62.1677 51.935 62.0777 51.935C61.9657 51.935 61.8737 51.974 61.8017 52.052C61.7317 52.128 61.6967 52.226 61.6967 52.346C61.6967 52.474 61.7347 52.577 61.8107 52.655C61.8867 52.733 61.9827 52.772 62.0987 52.772C62.1527 52.772 62.2047 52.763 62.2547 52.745C62.3047 52.725 62.3517 52.699 62.3957 52.667L62.5337 52.892C62.4697 52.934 62.3987 52.968 62.3207 52.994C62.2447 53.018 62.1687 53.03 62.0927 53.03ZM63.3539 51.746L63.3809 52.037L63.3689 51.995C63.4089 51.905 63.4729 51.833 63.5609 51.779C63.6509 51.725 63.7559 51.698 63.8759 51.698C63.9939 51.698 64.0909 51.733 64.1669 51.803C64.2429 51.871 64.2819 51.961 64.2839 52.073V53H63.9809V52.178C63.9789 52.114 63.9599 52.062 63.9239 52.022C63.8879 51.98 63.8319 51.958 63.7559 51.956C63.6499 51.956 63.5609 52 63.4889 52.088C63.4189 52.176 63.3839 52.289 63.3839 52.427V53H63.0809V51.746H63.3539ZM64.8796 51.197H65.1856V51.749H65.5216V51.986H65.1856V53H64.8796V51.986H64.6576V51.749H64.8796V51.197ZM66.3803 53.03C66.2623 53.03 66.1553 53.005 66.0593 52.955C65.9633 52.905 65.8873 52.832 65.8313 52.736C65.7753 52.638 65.7473 52.517 65.7473 52.373C65.7473 52.233 65.7763 52.113 65.8343 52.013C65.8943 51.911 65.9723 51.833 66.0683 51.779C66.1663 51.723 66.2723 51.695 66.3863 51.695C66.5063 51.695 66.6053 51.72 66.6833 51.77C66.7613 51.82 66.8213 51.88 66.8633 51.95L66.8453 51.998L66.8753 51.746H67.1543V53H66.8513V52.682L66.8813 52.757C66.8733 52.773 66.8563 52.796 66.8303 52.826C66.8043 52.856 66.7703 52.887 66.7283 52.919C66.6863 52.949 66.6353 52.975 66.5753 52.997C66.5173 53.019 66.4523 53.03 66.3803 53.03ZM66.4613 52.781C66.5613 52.781 66.6453 52.755 66.7133 52.703C66.7833 52.649 66.8293 52.576 66.8513 52.484V52.226C66.8273 52.144 66.7783 52.076 66.7043 52.022C66.6323 51.968 66.5483 51.941 66.4523 51.941C66.3803 51.941 66.3143 51.959 66.2543 51.995C66.1943 52.029 66.1463 52.078 66.1103 52.142C66.0743 52.204 66.0563 52.276 66.0563 52.358C66.0563 52.438 66.0743 52.51 66.1103 52.574C66.1483 52.638 66.1983 52.689 66.2603 52.727C66.3223 52.763 66.3893 52.781 66.4613 52.781ZM67.6277 50.669H67.9307V53H67.6277V50.669ZM70.4677 52.835C70.4337 52.857 70.3847 52.884 70.3207 52.916C70.2587 52.946 70.1847 52.972 70.0987 52.994C70.0147 53.016 69.9227 53.026 69.8227 53.024C69.6527 53.022 69.5007 52.992 69.3667 52.934C69.2327 52.876 69.1177 52.797 69.0217 52.697C68.9277 52.595 68.8557 52.479 68.8057 52.349C68.7557 52.217 68.7307 52.077 68.7307 51.929C68.7307 51.765 68.7567 51.615 68.8087 51.479C68.8627 51.341 68.9377 51.222 69.0337 51.122C69.1297 51.02 69.2427 50.941 69.3727 50.885C69.5047 50.829 69.6487 50.801 69.8047 50.801C69.9367 50.801 70.0567 50.819 70.1647 50.855C70.2727 50.891 70.3637 50.932 70.4377 50.978L70.3117 51.272C70.2537 51.232 70.1817 51.194 70.0957 51.158C70.0117 51.122 69.9177 51.104 69.8137 51.104C69.6777 51.104 69.5517 51.14 69.4357 51.212C69.3217 51.284 69.2297 51.381 69.1597 51.503C69.0917 51.625 69.0577 51.762 69.0577 51.914C69.0577 52.068 69.0887 52.206 69.1507 52.328C69.2147 52.45 69.3047 52.546 69.4207 52.616C69.5367 52.686 69.6727 52.721 69.8287 52.721C69.9407 52.721 70.0387 52.704 70.1227 52.67C70.2087 52.636 70.2787 52.597 70.3327 52.553L70.4677 52.835ZM70.8767 50.669H71.1797V53H70.8767V50.669ZM71.6531 51.746H71.9561V53H71.6531V51.746ZM71.6381 51.296C71.6381 51.25 71.6561 51.211 71.6921 51.179C71.7301 51.147 71.7711 51.131 71.8151 51.131C71.8591 51.131 71.8991 51.147 71.9351 51.179C71.9711 51.211 71.9891 51.25 71.9891 51.296C71.9891 51.346 71.9711 51.386 71.9351 51.416C71.8991 51.446 71.8591 51.461 71.8151 51.461C71.7711 51.461 71.7301 51.446 71.6921 51.416C71.6561 51.386 71.6381 51.346 71.6381 51.296ZM72.7025 51.746L72.7295 52.037L72.7175 51.995C72.7575 51.905 72.8215 51.833 72.9095 51.779C72.9995 51.725 73.1045 51.698 73.2245 51.698C73.3425 51.698 73.4395 51.733 73.5155 51.803C73.5915 51.871 73.6305 51.961 73.6325 52.073V53H73.3295V52.178C73.3275 52.114 73.3085 52.062 73.2725 52.022C73.2365 51.98 73.1805 51.958 73.1045 51.956C72.9985 51.956 72.9095 52 72.8375 52.088C72.7675 52.176 72.7325 52.289 72.7325 52.427V53H72.4295V51.746H72.7025ZM74.1082 51.746H74.4112V53H74.1082V51.746ZM74.0932 51.296C74.0932 51.25 74.1112 51.211 74.1472 51.179C74.1852 51.147 74.2262 51.131 74.2702 51.131C74.3142 51.131 74.3542 51.147 74.3902 51.179C74.4262 51.211 74.4442 51.25 74.4442 51.296C74.4442 51.346 74.4262 51.386 74.3902 51.416C74.3542 51.446 74.3142 51.461 74.2702 51.461C74.2262 51.461 74.1852 51.446 74.1472 51.416C74.1112 51.386 74.0932 51.346 74.0932 51.296ZM75.9106 52.883C75.8546 52.929 75.7866 52.965 75.7066 52.991C75.6286 53.017 75.5496 53.03 75.4696 53.03C75.3336 53.03 75.2126 53.003 75.1066 52.949C75.0026 52.895 74.9216 52.819 74.8636 52.721C74.8056 52.623 74.7766 52.507 74.7766 52.373C74.7766 52.237 74.8076 52.12 74.8696 52.022C74.9316 51.924 75.0126 51.849 75.1126 51.797C75.2146 51.743 75.3236 51.716 75.4396 51.716C75.5436 51.716 75.6346 51.73 75.7126 51.758C75.7926 51.786 75.8616 51.825 75.9196 51.875L75.7696 52.07C75.7356 52.042 75.6926 52.017 75.6406 51.995C75.5886 51.973 75.5306 51.962 75.4666 51.962C75.3946 51.962 75.3286 51.98 75.2686 52.016C75.2106 52.052 75.1646 52.101 75.1306 52.163C75.0966 52.225 75.0796 52.295 75.0796 52.373C75.0796 52.449 75.0966 52.518 75.1306 52.58C75.1666 52.642 75.2156 52.691 75.2776 52.727C75.3416 52.763 75.4136 52.781 75.4936 52.781C75.5456 52.781 75.5936 52.773 75.6376 52.757C75.6836 52.741 75.7236 52.72 75.7576 52.694L75.9106 52.883Z" fill="black"/>
<path d="M4 33L19 32.5L23 33H4Z" fill="#2E2A2B"/>
<path d="M74.0127 49.0231L59.0127 48.5231L55.0127 49.0231H74.0127Z" fill="#29BAF1"/>
<defs>
<linearGradient id="paint0_linear_12_24" x1="57.0276" y1="18.1481" x2="33.4471" y2="68.6255" gradientUnits="userSpaceOnUse">
<stop stop-color="#5CCAF4"/>
<stop offset="0.125" stop-color="#5CCAF4"/>
<stop offset="0.132812" stop-color="#5BCAF4"/>
<stop offset="0.136719" stop-color="#5AC9F4"/>
<stop offset="0.140625" stop-color="#5AC9F4"/>
<stop offset="0.144531" stop-color="#59C9F4"/>
<stop offset="0.148438" stop-color="#59C9F4"/>
<stop offset="0.15625" stop-color="#58C9F4"/>
<stop offset="0.164062" stop-color="#58C9F4"/>
<stop offset="0.171875" stop-color="#57C8F4"/>
<stop offset="0.175781" stop-color="#56C8F4"/>
<stop offset="0.179688" stop-color="#55C8F4"/>
<stop offset="0.1875" stop-color="#55C8F4"/>
<stop offset="0.195312" stop-color="#54C7F3"/>
<stop offset="0.199219" stop-color="#53C7F3"/>
<stop offset="0.203125" stop-color="#52C7F3"/>
<stop offset="0.210938" stop-color="#52C7F3"/>
<stop offset="0.21875" stop-color="#51C6F3"/>
<stop offset="0.226562" stop-color="#50C6F3"/>
<stop offset="0.234375" stop-color="#50C6F3"/>
<stop offset="0.238281" stop-color="#4EC6F3"/>
<stop offset="0.242188" stop-color="#4EC5F3"/>
<stop offset="0.25" stop-color="#4DC5F3"/>
<stop offset="0.257813" stop-color="#4DC5F3"/>
<stop offset="0.265625" stop-color="#4CC5F3"/>
<stop offset="0.269531" stop-color="#4BC5F3"/>
<stop offset="0.273438" stop-color="#4AC4F3"/>
<stop offset="0.277344" stop-color="#4AC4F3"/>
<stop offset="0.28125" stop-color="#49C4F3"/>
<stop offset="0.289062" stop-color="#49C4F3"/>
<stop offset="0.292969" stop-color="#48C4F3"/>
<stop offset="0.296875" stop-color="#47C3F3"/>
<stop offset="0.300781" stop-color="#47C3F3"/>
<stop offset="0.304688" stop-color="#46C3F3"/>
<stop offset="0.3125" stop-color="#46C3F3"/>
<stop offset="0.320312" stop-color="#45C3F3"/>
<stop offset="0.328125" stop-color="#45C2F3"/>
<stop offset="0.332031" stop-color="#44C2F2"/>
<stop offset="0.335938" stop-color="#43C2F2"/>
<stop offset="0.34375" stop-color="#43C2F2"/>
<stop offset="0.351563" stop-color="#42C2F2"/>
<stop offset="0.359375" stop-color="#41C1F2"/>
<stop offset="0.363281" stop-color="#40C1F2"/>
<stop offset="0.367188" stop-color="#40C1F2"/>
<stop offset="0.371094" stop-color="#3FC1F2"/>
<stop offset="0.375" stop-color="#3FC0F2"/>
<stop offset="0.382812" stop-color="#3EC0F2"/>
<stop offset="0.386719" stop-color="#3DC0F2"/>
<stop offset="0.390625" stop-color="#3DC0F2"/>
<stop offset="0.394531" stop-color="#3CC0F2"/>
<stop offset="0.398438" stop-color="#3CC0F2"/>
<stop offset="0.40625" stop-color="#3BBFF2"/>
<stop offset="0.414063" stop-color="#3BBFF2"/>
<stop offset="0.421875" stop-color="#3ABFF2"/>
<stop offset="0.425781" stop-color="#39BFF2"/>
<stop offset="0.429688" stop-color="#38BEF2"/>
<stop offset="0.4375" stop-color="#38BEF2"/>
<stop offset="0.445312" stop-color="#37BEF2"/>
<stop offset="0.449219" stop-color="#36BEF2"/>
<stop offset="0.453125" stop-color="#35BDF2"/>
<stop offset="0.460938" stop-color="#35BDF2"/>
<stop offset="0.46875" stop-color="#34BDF1"/>
<stop offset="0.476563" stop-color="#33BDF1"/>
<stop offset="0.480469" stop-color="#32BDF1"/>
<stop offset="0.484375" stop-color="#32BCF1"/>
<stop offset="0.488281" stop-color="#31BCF1"/>
<stop offset="0.492188" stop-color="#31BCF1"/>
<stop offset="0.5" stop-color="#30BCF1"/>
<stop offset="0.507813" stop-color="#30BCF1"/>
<stop offset="0.515625" stop-color="#2FBBF1"/>
<stop offset="0.519531" stop-color="#2EBBF1"/>
<stop offset="0.523438" stop-color="#2DBBF1"/>
<stop offset="0.53125" stop-color="#2DBBF1"/>
<stop offset="0.539062" stop-color="#2CBAF1"/>
<stop offset="0.542969" stop-color="#2BBAF1"/>
<stop offset="0.546875" stop-color="#2ABAF1"/>
<stop offset="0.554688" stop-color="#2ABAF1"/>
<stop offset="0.5625" stop-color="#29BAF1"/>
<stop offset="0.570312" stop-color="#28B9F1"/>
<stop offset="0.574219" stop-color="#27B9F1"/>
<stop offset="0.578125" stop-color="#27B9F1"/>
<stop offset="0.582031" stop-color="#26B9F1"/>
<stop offset="0.585938" stop-color="#26B8F1"/>
<stop offset="0.59375" stop-color="#25B8F1"/>
<stop offset="0.601563" stop-color="#25B8F1"/>
<stop offset="0.609375" stop-color="#24B8F0"/>
<stop offset="0.613281" stop-color="#23B8F0"/>
<stop offset="0.617188" stop-color="#22B7F0"/>
<stop offset="0.625" stop-color="#22B7F0"/>
<stop offset="0.632812" stop-color="#21B7F0"/>
<stop offset="0.636719" stop-color="#20B7F0"/>
<stop offset="0.640625" stop-color="#1FB6F0"/>
<stop offset="0.648438" stop-color="#1FB6F0"/>
<stop offset="0.65625" stop-color="#1EB6F0"/>
<stop offset="0.664062" stop-color="#1DB6F0"/>
<stop offset="0.667969" stop-color="#1CB6F0"/>
<stop offset="0.671875" stop-color="#1CB5F0"/>
<stop offset="0.675781" stop-color="#1BB5F0"/>
<stop offset="0.679688" stop-color="#1BB5F0"/>
<stop offset="0.6875" stop-color="#1AB5F0"/>
<stop offset="0.691406" stop-color="#19B5F0"/>
<stop offset="0.695313" stop-color="#19B4F0"/>
<stop offset="0.699219" stop-color="#18B4F0"/>
<stop offset="0.703125" stop-color="#18B4F0"/>
<stop offset="0.710938" stop-color="#17B4F0"/>
<stop offset="0.71875" stop-color="#17B4F0"/>
<stop offset="0.726563" stop-color="#16B3F0"/>
<stop offset="0.730469" stop-color="#15B3F0"/>
<stop offset="0.734375" stop-color="#14B3EF"/>
<stop offset="0.742188" stop-color="#14B3EF"/>
<stop offset="0.75" stop-color="#13B3EF"/>
<stop offset="0.757812" stop-color="#12B2EF"/>
<stop offset="0.761719" stop-color="#12B2EF"/>
<stop offset="0.765625" stop-color="#11B2EF"/>
<stop offset="0.769531" stop-color="#10B2EF"/>
<stop offset="0.773438" stop-color="#10B1EF"/>
<stop offset="0.78125" stop-color="#0FB1EF"/>
<stop offset="0.785156" stop-color="#0FB1EF"/>
<stop offset="0.789062" stop-color="#0EB1EF"/>
<stop offset="0.792969" stop-color="#0DB1EF"/>
<stop offset="0.796875" stop-color="#0DB0EF"/>
<stop offset="0.804688" stop-color="#0CB0EF"/>
<stop offset="0.8125" stop-color="#0CB0EF"/>
<stop offset="0.820313" stop-color="#0BB0EF"/>
<stop offset="0.824219" stop-color="#0AB0EF"/>
<stop offset="0.828125" stop-color="#09AFEF"/>
<stop offset="0.835938" stop-color="#09AFEF"/>
<stop offset="0.84375" stop-color="#08AFEF"/>
<stop offset="0.847656" stop-color="#07AFEF"/>
<stop offset="0.851562" stop-color="#06AEEF"/>
<stop offset="0.859375" stop-color="#06AEEF"/>
<stop offset="0.875" stop-color="#05AEEE"/>
<stop offset="0.882813" stop-color="#05ADEE"/>
<stop offset="0.890625" stop-color="#05ADEE"/>
<stop offset="0.90625" stop-color="#05ADEE"/>
<stop offset="0.914063" stop-color="#05ADEE"/>
<stop offset="0.921875" stop-color="#06ACED"/>
<stop offset="0.929688" stop-color="#06ACED"/>
<stop offset="0.9375" stop-color="#06ACED"/>
<stop offset="0.953125" stop-color="#06ABED"/>
<stop offset="0.960938" stop-color="#05ABEC"/>
<stop offset="0.96875" stop-color="#05AAEC"/>
<stop offset="0.976562" stop-color="#05AAEC"/>
<stop offset="0.984375" stop-color="#05AAEC"/>
<stop offset="1" stop-color="#05AAEB"/>
</linearGradient>
</defs>
</svg>
