<svg width="378" height="378" viewBox="0 0 378 378" fill="none" xmlns="http://www.w3.org/2000/svg">
<path d="M188.613 69.1484C142.82 69.1484 105.695 106.27 105.695 152.07C105.695 159.93 106.813 167.539 108.863 174.75C110.121 179.188 111.504 183.598 113.68 187.59C130.684 218.719 188.609 308.074 188.609 308.074C188.609 308.074 246.543 218.719 263.543 187.59C265.723 183.598 267.102 179.188 268.363 174.75C270.41 167.539 271.531 159.93 271.531 152.07C271.531 106.27 234.406 69.1484 188.613 69.1484ZM188.613 188.57C177.047 188.57 166.73 183.168 160.035 174.75C155.074 168.52 152.102 160.629 152.102 152.07C152.102 131.93 168.48 115.551 188.613 115.551C208.746 115.551 225.121 131.93 225.121 152.07C225.121 160.629 222.148 168.52 217.188 174.75C210.492 183.168 200.176 188.57 188.613 188.57Z" fill="black"/>
<path fill-rule="evenodd" clip-rule="evenodd" d="M105.695 152.07C105.695 106.27 142.82 69.1484 188.613 69.1484C234.406 69.1484 271.531 106.27 271.531 152.07C271.531 159.93 270.41 167.539 268.363 174.75C267.102 179.188 265.723 183.598 263.543 187.59C246.543 218.719 188.609 308.074 188.609 308.074C188.609 308.074 130.684 218.719 113.68 187.59C111.504 183.598 110.121 179.188 108.863 174.75C106.813 167.539 105.695 159.93 105.695 152.07ZM377.227 188.609C377.227 84.4375 292.781 0 188.613 0C84.4453 0 0 84.4375 0 188.609C0 292.777 84.4453 377.223 188.613 377.223C292.781 377.223 377.227 292.777 377.227 188.609Z" fill="white"/>
</svg>
