<svg width="378" height="378" viewBox="0 0 378 378" fill="none" xmlns="http://www.w3.org/2000/svg">
<path fill-rule="evenodd" clip-rule="evenodd" d="M217.121 227.141C225.141 219.996 240.059 203.117 251.469 210.879L251.641 211.023L286.852 236.648C286.891 236.668 298.719 243.859 295.262 255.566C287.121 291.309 263.43 300.887 234.109 294.297C205.281 287.816 170.738 264.312 141.941 235.344C113.148 206.383 89.7891 171.648 83.2891 142.703C76.6914 113.332 86.0781 89.6367 121.301 81.6172C133.012 78.1367 140.199 89.9844 140.219 90.0234L165.852 125.227L165.98 125.398C173.75 136.797 156.879 151.73 149.73 159.762L149.602 159.902C149.359 160.133 150.91 161.133 150.93 161.141L151.371 161.797C156.23 169.801 168.09 183.242 180.871 196.016C183.418 198.578 216.039 228.156 216.969 227.285L217.121 227.141ZM355.418 100.5C323.789 40.7227 260.961 0 188.621 0C84.4414 0 0 84.4375 0 188.605C0 292.773 84.4414 377.215 188.621 377.215C260.961 377.215 323.789 336.484 355.418 276.707H355.398C369.32 250.41 377.219 220.434 377.219 188.605C377.219 156.781 369.32 126.805 355.398 100.5H355.418Z" fill="white"/>
<path fill-rule="evenodd" clip-rule="evenodd" d="M141.941 235.344C170.738 264.312 205.281 287.816 234.129 294.297C263.43 300.887 287.121 291.309 295.262 255.566C298.719 243.859 286.891 236.668 286.852 236.648L251.641 211.023L251.469 210.879C240.059 203.117 225.141 219.996 217.121 227.141L216.969 227.285C216.039 228.156 183.418 198.578 180.871 196.016C168.09 183.242 156.23 169.801 151.371 161.797L150.93 161.141C150.91 161.133 149.359 160.133 149.602 159.902L149.73 159.762C156.879 151.73 173.75 136.797 165.98 125.398L165.852 125.227L140.219 90.0234C140.199 89.9844 133.012 78.1367 121.301 81.6172C86.0782 89.6367 76.6914 113.332 83.2891 142.703C89.7891 171.648 113.148 206.383 141.941 235.344Z" fill="black"/>
</svg>
