<?xml version="1.0" encoding="UTF-8"?>
<svg xmlns="http://www.w3.org/2000/svg" xmlns:xlink="http://www.w3.org/1999/xlink" width="2100" height="2100" viewBox="0 0 2100 2100">
<rect x="-210" y="-210" width="2520" height="2520" fill="rgb(0%, 0%, 0%)" fill-opacity="1"/>
<path fill-rule="evenodd" fill="rgb(100%, 100%, 100%)" fill-opacity="1" d="M 1412.78125 1687.382812 C 1420.800781 1680.238281 1435.71875 1663.359375 1447.128906 1671.121094 L 1447.300781 1671.265625 L 1482.511719 1696.890625 C 1482.550781 1696.910156 1494.378906 1704.101562 1490.921875 1715.808594 C 1482.78125 1751.550781 1459.089844 1761.128906 1429.769531 1754.539062 C 1400.941406 1748.058594 1366.398438 1724.554688 1337.601562 1695.585938 C 1308.808594 1666.625 1285.449219 1631.890625 1278.949219 1602.945312 C 1272.351562 1573.574219 1281.738281 1549.878906 1316.960938 1541.859375 C 1328.671875 1538.378906 1335.859375 1550.226562 1335.878906 1550.265625 L 1361.511719 1585.46875 L 1361.640625 1585.640625 C 1369.410156 1597.039062 1352.539062 1611.972656 1345.390625 1620.003906 L 1345.261719 1620.144531 C 1345.019531 1620.375 1346.570312 1621.375 1346.589844 1621.382812 L 1347.03125 1622.039062 C 1351.890625 1630.042969 1363.75 1643.484375 1376.53125 1656.257812 C 1379.078125 1658.820312 1411.699219 1688.398438 1412.628906 1687.527344 Z M 1551.078125 1560.742188 C 1519.449219 1500.964844 1456.621094 1460.242188 1384.28125 1460.242188 C 1280.101562 1460.242188 1195.660156 1544.679688 1195.660156 1648.847656 C 1195.660156 1753.015625 1280.101562 1837.457031 1384.28125 1837.457031 C 1456.621094 1837.457031 1519.449219 1796.726562 1551.078125 1736.949219 L 1551.058594 1736.949219 C 1564.980469 1710.652344 1572.878906 1680.675781 1572.878906 1648.847656 C 1572.878906 1617.023438 1564.980469 1587.046875 1551.058594 1560.742188 L 1551.078125 1560.742188 "/>
<path fill-rule="evenodd" fill="rgb(0%, 0%, 0%)" fill-opacity="1" d="M 1337.601562 1695.585938 C 1366.398438 1724.554688 1400.941406 1748.058594 1429.789062 1754.539062 C 1459.089844 1761.128906 1482.78125 1751.550781 1490.921875 1715.808594 C 1494.378906 1704.101562 1482.550781 1696.910156 1482.511719 1696.890625 L 1447.300781 1671.265625 L 1447.128906 1671.121094 C 1435.71875 1663.359375 1420.800781 1680.238281 1412.78125 1687.382812 L 1412.628906 1687.527344 C 1411.699219 1688.398438 1379.078125 1658.820312 1376.53125 1656.257812 C 1363.75 1643.484375 1351.890625 1630.042969 1347.03125 1622.039062 L 1346.589844 1621.382812 C 1346.570312 1621.375 1345.019531 1620.375 1345.261719 1620.144531 L 1345.390625 1620.003906 C 1352.539062 1611.972656 1369.410156 1597.039062 1361.640625 1585.640625 L 1361.511719 1585.46875 L 1335.878906 1550.265625 C 1335.859375 1550.226562 1328.671875 1538.378906 1316.960938 1541.859375 C 1281.738281 1549.878906 1272.351562 1573.574219 1278.949219 1602.945312 C 1285.449219 1631.890625 1308.808594 1666.625 1337.601562 1695.585938 "/>
<path fill-rule="evenodd" fill="rgb(100%, 100%, 100%)" fill-opacity="1" d="M 759.644531 1701.964844 C 765.085938 1687.492188 768.1875 1670.699219 768.609375 1653.027344 L 719.902344 1653.027344 L 719.902344 1696.410156 C 733.839844 1696.71875 747.296875 1698.617188 759.644531 1701.964844 "/>
<path fill-rule="evenodd" fill="rgb(100%, 100%, 100%)" fill-opacity="1" d="M 776.960938 1653.027344 C 776.539062 1671.480469 773.316406 1689.097656 767.644531 1704.394531 C 774.496094 1706.699219 780.929688 1709.476562 786.8125 1712.699219 C 791.019531 1708.019531 794.769531 1702.929688 797.996094 1697.492188 C 804.039062 1687.3125 808.242188 1675.921875 810.15625 1663.777344 C 810.710938 1660.253906 811.070312 1656.664062 811.226562 1653.027344 L 776.960938 1653.027344 "/>
<path fill-rule="evenodd" fill="rgb(100%, 100%, 100%)" fill-opacity="1" d="M 776.960938 1644.675781 L 811.226562 1644.675781 C 810.238281 1621.742188 801.132812 1600.882812 786.71875 1584.894531 C 780.855469 1588.121094 774.445312 1590.90625 767.613281 1593.21875 C 773.304688 1608.535156 776.539062 1626.183594 776.960938 1644.675781 "/>
<path fill-rule="evenodd" fill="rgb(100%, 100%, 100%)" fill-opacity="1" d="M 768.609375 1644.675781 C 768.183594 1626.976562 765.074219 1610.152344 759.617188 1595.664062 C 747.289062 1599.035156 733.839844 1600.953125 719.902344 1601.285156 L 719.902344 1644.675781 L 768.609375 1644.675781 "/>
<path fill-rule="evenodd" fill="rgb(100%, 100%, 100%)" fill-opacity="1" d="M 719.902344 1592.933594 C 732.707031 1592.613281 745.042969 1590.894531 756.363281 1587.894531 C 755.152344 1585.289062 753.859375 1582.777344 752.484375 1580.375 C 743.496094 1564.671875 732.058594 1555.308594 719.902344 1553.558594 L 719.902344 1592.933594 "/>
<path fill-rule="evenodd" fill="rgb(100%, 100%, 100%)" fill-opacity="1" d="M 759.734375 1576.226562 C 761.421875 1579.167969 762.988281 1582.261719 764.441406 1585.480469 C 770.175781 1583.5625 775.589844 1581.296875 780.59375 1578.695312 C 770.722656 1569.566406 758.933594 1562.480469 745.898438 1558.132812 C 750.941406 1562.941406 755.597656 1569.003906 759.734375 1576.226562 "/>
<path fill-rule="evenodd" fill="rgb(100%, 100%, 100%)" fill-opacity="1" d="M 711.550781 1592.9375 L 711.550781 1553.558594 C 699.394531 1555.308594 687.953125 1564.671875 678.96875 1580.375 C 677.578125 1582.796875 676.277344 1585.335938 675.058594 1587.964844 C 686.398438 1590.941406 698.746094 1592.640625 711.550781 1592.9375 "/>
<path fill-rule="evenodd" fill="rgb(100%, 100%, 100%)" fill-opacity="1" d="M 666.972656 1585.5625 C 668.433594 1582.316406 670.019531 1579.195312 671.71875 1576.226562 C 675.855469 1569.003906 680.511719 1562.941406 685.554688 1558.132812 C 672.476562 1562.496094 660.644531 1569.613281 650.753906 1578.796875 C 655.78125 1581.390625 661.214844 1583.652344 666.972656 1585.5625 "/>
<path fill-rule="evenodd" fill="rgb(100%, 100%, 100%)" fill-opacity="1" d="M 654.492188 1644.675781 C 654.914062 1626.21875 658.136719 1608.601562 663.804688 1593.304688 C 656.953125 1591 650.523438 1588.226562 644.640625 1585.003906 C 630.277344 1600.976562 621.214844 1621.796875 620.226562 1644.675781 L 654.492188 1644.675781 "/>
<path fill-rule="evenodd" fill="rgb(100%, 100%, 100%)" fill-opacity="1" d="M 671.808594 1595.734375 C 666.367188 1610.207031 663.269531 1627.003906 662.84375 1644.675781 L 711.550781 1644.675781 L 711.550781 1601.289062 C 697.613281 1600.984375 684.15625 1599.085938 671.808594 1595.734375 "/>
<path fill-rule="evenodd" fill="rgb(100%, 100%, 100%)" fill-opacity="1" d="M 711.550781 1653.027344 L 662.84375 1653.027344 C 663.269531 1670.726562 666.378906 1687.546875 671.835938 1702.035156 C 684.164062 1698.667969 697.613281 1696.746094 711.550781 1696.414062 L 711.550781 1653.027344 "/>
<path fill-rule="evenodd" fill="rgb(100%, 100%, 100%)" fill-opacity="1" d="M 663.839844 1704.480469 C 658.148438 1689.164062 654.914062 1671.515625 654.492188 1653.027344 L 620.226562 1653.027344 C 621.214844 1675.957031 630.320312 1696.820312 644.734375 1712.804688 C 650.597656 1709.578125 657.007812 1706.796875 663.839844 1704.480469 "/>
<path fill-rule="evenodd" fill="rgb(100%, 100%, 100%)" fill-opacity="1" d="M 667.011719 1712.21875 C 661.277344 1714.136719 655.863281 1716.402344 650.859375 1719.003906 C 660.730469 1728.136719 672.519531 1735.21875 685.554688 1739.566406 C 680.511719 1734.757812 675.855469 1728.699219 671.71875 1721.476562 C 670.03125 1718.53125 668.464844 1715.441406 667.011719 1712.21875 "/>
<path fill-rule="evenodd" fill="rgb(100%, 100%, 100%)" fill-opacity="1" d="M 678.96875 1717.328125 C 687.953125 1733.027344 699.394531 1742.390625 711.550781 1744.144531 L 711.550781 1704.769531 C 698.746094 1705.085938 686.410156 1706.808594 675.089844 1709.808594 C 676.300781 1712.410156 677.589844 1714.921875 678.96875 1717.328125 "/>
<path fill-rule="evenodd" fill="rgb(100%, 100%, 100%)" fill-opacity="1" d="M 719.902344 1704.761719 L 719.902344 1744.144531 C 732.058594 1742.390625 743.496094 1733.027344 752.484375 1717.328125 C 753.871094 1714.902344 755.175781 1712.367188 756.394531 1709.738281 C 745.054688 1706.761719 732.707031 1705.058594 719.902344 1704.761719 "/>
<path fill-rule="evenodd" fill="rgb(100%, 100%, 100%)" fill-opacity="1" d="M 759.734375 1721.476562 C 755.597656 1728.699219 750.941406 1734.757812 745.898438 1739.566406 C 758.980469 1735.203125 770.808594 1728.085938 780.699219 1718.90625 C 775.671875 1716.308594 770.238281 1714.050781 764.480469 1712.136719 C 763.015625 1715.386719 761.433594 1718.503906 759.734375 1721.476562 "/>
<path fill-rule="evenodd" fill="rgb(100%, 100%, 100%)" fill-opacity="1" d="M 611.777344 1648.851562 C 611.777344 1591.53125 658.40625 1544.902344 715.726562 1544.902344 C 773.046875 1544.902344 819.679688 1591.53125 819.679688 1648.851562 C 819.679688 1653.917969 819.3125 1658.898438 818.609375 1663.777344 C 816.875 1675.796875 813.074219 1687.160156 807.578125 1697.492188 C 790.097656 1730.367188 755.480469 1752.800781 715.726562 1752.800781 C 658.40625 1752.800781 611.777344 1706.167969 611.777344 1648.851562 Z M 715.726562 1460.238281 C 611.5625 1460.238281 527.117188 1544.683594 527.117188 1648.851562 C 527.117188 1753.019531 611.5625 1837.460938 715.726562 1837.460938 C 803.074219 1837.460938 876.554688 1778.085938 898.007812 1697.492188 C 900.902344 1686.609375 902.851562 1675.339844 903.757812 1663.777344 C 903.761719 1663.730469 903.761719 1663.683594 903.769531 1663.636719 C 904.144531 1658.757812 904.339844 1653.828125 904.339844 1648.851562 C 904.339844 1648.515625 904.335938 1648.175781 904.335938 1647.839844 C 904.285156 1638.089844 903.492188 1628.519531 902.015625 1619.175781 C 901.714844 1617.261719 901.382812 1615.359375 901.027344 1613.46875 C 896.03125 1587.152344 885.570312 1562.773438 870.867188 1541.554688 C 866.496094 1535.246094 861.746094 1529.214844 856.65625 1523.496094 C 855.558594 1522.261719 854.445312 1521.042969 853.3125 1519.839844 C 818.902344 1483.15625 769.992188 1460.238281 715.726562 1460.238281 "/>
<path fill-rule="evenodd" fill="rgb(0%, 0%, 0%)" fill-opacity="1" d="M 711.550781 1553.558594 L 711.550781 1592.9375 C 698.746094 1592.640625 686.398438 1590.941406 675.058594 1587.964844 C 676.277344 1585.335938 677.578125 1582.796875 678.96875 1580.375 C 687.953125 1564.671875 699.394531 1555.308594 711.550781 1553.558594 Z M 819.679688 1648.851562 C 819.679688 1591.53125 773.046875 1544.902344 715.726562 1544.902344 C 658.40625 1544.902344 611.777344 1591.53125 611.777344 1648.851562 C 611.777344 1706.167969 658.40625 1752.800781 715.726562 1752.800781 C 755.480469 1752.800781 790.097656 1730.367188 807.578125 1697.492188 C 813.074219 1687.160156 816.875 1675.796875 818.609375 1663.777344 C 819.3125 1658.898438 819.679688 1653.917969 819.679688 1648.851562 Z M 685.554688 1558.132812 C 680.511719 1562.941406 675.855469 1569.003906 671.71875 1576.226562 C 670.019531 1579.195312 668.433594 1582.316406 666.972656 1585.5625 C 661.214844 1583.652344 655.78125 1581.390625 650.753906 1578.796875 C 660.644531 1569.613281 672.476562 1562.496094 685.554688 1558.132812 Z M 719.902344 1553.558594 C 732.058594 1555.308594 743.496094 1564.671875 752.484375 1580.375 C 753.859375 1582.777344 755.152344 1585.289062 756.363281 1587.894531 C 745.042969 1590.894531 732.707031 1592.613281 719.902344 1592.933594 Z M 719.902344 1601.285156 C 733.839844 1600.953125 747.289062 1599.035156 759.617188 1595.664062 C 765.074219 1610.152344 768.183594 1626.976562 768.609375 1644.675781 L 719.902344 1644.675781 Z M 776.960938 1644.675781 C 776.539062 1626.183594 773.304688 1608.535156 767.613281 1593.21875 C 774.445312 1590.90625 780.855469 1588.121094 786.71875 1584.894531 C 801.132812 1600.882812 810.238281 1621.742188 811.226562 1644.675781 Z M 776.960938 1653.027344 L 811.226562 1653.027344 C 811.070312 1656.664062 810.710938 1660.253906 810.15625 1663.777344 C 808.242188 1675.921875 804.039062 1687.3125 797.996094 1697.492188 C 794.769531 1702.929688 791.019531 1708.019531 786.8125 1712.699219 C 780.929688 1709.476562 774.496094 1706.699219 767.644531 1704.394531 C 773.316406 1689.097656 776.539062 1671.480469 776.960938 1653.027344 Z M 719.902344 1653.027344 L 719.902344 1696.410156 C 733.839844 1696.71875 747.296875 1698.617188 759.644531 1701.964844 C 765.085938 1687.492188 768.1875 1670.699219 768.609375 1653.027344 Z M 671.808594 1595.734375 C 684.15625 1599.085938 697.613281 1600.984375 711.550781 1601.289062 L 711.550781 1644.675781 L 662.84375 1644.675781 C 663.269531 1627.003906 666.367188 1610.207031 671.808594 1595.734375 Z M 663.804688 1593.304688 C 658.136719 1608.601562 654.914062 1626.21875 654.492188 1644.675781 L 620.226562 1644.675781 C 621.214844 1621.796875 630.277344 1600.976562 644.640625 1585.003906 C 650.523438 1588.226562 656.953125 1591 663.804688 1593.304688 Z M 764.441406 1585.480469 C 762.988281 1582.261719 761.421875 1579.167969 759.734375 1576.226562 C 755.597656 1569.003906 750.941406 1562.941406 745.898438 1558.132812 C 758.933594 1562.480469 770.722656 1569.566406 780.59375 1578.695312 C 775.589844 1581.296875 770.175781 1583.5625 764.441406 1585.480469 Z M 662.84375 1653.027344 L 711.550781 1653.027344 L 711.550781 1696.414062 C 697.613281 1696.746094 684.164062 1698.667969 671.835938 1702.035156 C 666.378906 1687.546875 663.269531 1670.726562 662.84375 1653.027344 Z M 675.089844 1709.808594 C 686.410156 1706.808594 698.746094 1705.085938 711.550781 1704.769531 L 711.550781 1744.144531 C 699.394531 1742.390625 687.953125 1733.027344 678.96875 1717.328125 C 677.589844 1714.921875 676.300781 1712.410156 675.089844 1709.808594 Z M 650.859375 1719.003906 C 655.863281 1716.402344 661.277344 1714.136719 667.011719 1712.21875 C 668.464844 1715.441406 670.03125 1718.53125 671.71875 1721.476562 C 675.855469 1728.699219 680.511719 1734.757812 685.554688 1739.566406 C 672.519531 1735.21875 660.730469 1728.136719 650.859375 1719.003906 Z M 654.492188 1653.027344 C 654.914062 1671.515625 658.148438 1689.164062 663.839844 1704.480469 C 657.007812 1706.796875 650.597656 1709.578125 644.734375 1712.804688 C 630.320312 1696.820312 621.214844 1675.957031 620.226562 1653.027344 Z M 719.902344 1704.761719 C 732.707031 1705.058594 745.054688 1706.761719 756.394531 1709.738281 C 755.175781 1712.367188 753.871094 1714.902344 752.484375 1717.328125 C 743.496094 1733.027344 732.058594 1742.390625 719.902344 1744.144531 Z M 745.898438 1739.566406 C 750.941406 1734.757812 755.597656 1728.699219 759.734375 1721.476562 C 761.433594 1718.503906 763.015625 1715.386719 764.480469 1712.136719 C 770.238281 1714.050781 775.671875 1716.308594 780.699219 1718.90625 C 770.808594 1728.085938 758.980469 1735.203125 745.898438 1739.566406 "/>
<path fill-rule="evenodd" fill="rgb(100%, 100%, 100%)" fill-opacity="1" d="M 1385.148438 262.539062 C 1280.988281 262.539062 1196.539062 346.980469 1196.539062 451.148438 C 1196.539062 555.308594 1280.988281 639.761719 1385.148438 639.761719 C 1489.320312 639.761719 1573.761719 555.308594 1573.761719 451.148438 C 1573.761719 346.980469 1489.320312 262.539062 1385.148438 262.539062 "/>
<path fill-rule="evenodd" fill="rgb(0%, 0%, 0%)" fill-opacity="1" d="M 1424.589844 348.46875 C 1403.859375 348.46875 1387.050781 365.28125 1387.050781 386.011719 C 1387.050781 388.160156 1387.238281 390.269531 1387.578125 392.320312 L 1341.359375 420.878906 C 1335.140625 416.308594 1327.460938 413.609375 1319.148438 413.609375 C 1298.421875 413.609375 1281.621094 430.421875 1281.621094 451.148438 C 1281.621094 471.878906 1298.421875 488.691406 1319.148438 488.691406 C 1327.460938 488.691406 1335.140625 485.988281 1341.359375 481.421875 L 1387.578125 509.980469 C 1387.238281 512.03125 1387.050781 514.140625 1387.050781 516.289062 C 1387.050781 537.019531 1403.859375 553.820312 1424.589844 553.820312 C 1445.320312 553.820312 1462.128906 537.019531 1462.128906 516.289062 C 1462.128906 495.558594 1445.320312 478.75 1424.589844 478.75 C 1416.28125 478.75 1408.601562 481.449219 1402.378906 486.019531 L 1356.160156 457.460938 C 1356.5 455.410156 1356.691406 453.300781 1356.691406 451.148438 C 1356.691406 449 1356.5 446.890625 1356.160156 444.839844 L 1402.378906 416.28125 C 1408.601562 420.851562 1416.28125 423.550781 1424.589844 423.550781 C 1445.320312 423.550781 1462.128906 406.738281 1462.128906 386.011719 C 1462.128906 365.28125 1445.320312 348.46875 1424.589844 348.46875 "/>
<path fill-rule="evenodd" fill="rgb(100%, 100%, 100%)" fill-opacity="1" d="M 714.847656 262.539062 C 819.011719 262.539062 903.457031 346.980469 903.457031 451.148438 C 903.457031 555.320312 819.011719 639.761719 714.847656 639.761719 C 610.679688 639.761719 526.234375 555.320312 526.234375 451.148438 C 526.234375 346.980469 610.679688 262.539062 714.847656 262.539062 "/>
<path fill-rule="evenodd" fill="rgb(0%, 0%, 0%)" fill-opacity="1" d="M 605.480469 366.148438 L 824.203125 366.148438 C 829.609375 366.148438 834.027344 370.570312 834.027344 375.96875 L 834.027344 526.320312 C 834.027344 531.730469 829.609375 536.148438 824.203125 536.148438 L 605.480469 536.148438 C 600.078125 536.148438 595.660156 531.730469 595.660156 526.320312 L 595.660156 375.96875 C 595.660156 370.570312 600.078125 366.148438 605.480469 366.148438 "/>
<path fill-rule="evenodd" fill="rgb(100%, 100%, 100%)" fill-opacity="1" d="M 807.65625 378.398438 L 622.035156 378.398438 C 621.945312 378.398438 621.859375 378.410156 621.773438 378.421875 L 686.734375 437.261719 L 688.613281 438.960938 L 714.851562 462.730469 L 807.914062 378.421875 C 807.839844 378.410156 807.746094 378.398438 807.65625 378.398438 "/>
<path fill-rule="evenodd" fill="rgb(100%, 100%, 100%)" fill-opacity="1" d="M 761.105469 473.171875 L 744.488281 455.699219 L 714.035156 483.289062 L 686.113281 458 L 620.691406 523.871094 C 620.863281 523.878906 621.039062 523.890625 621.214844 523.890625 L 806.839844 523.890625 C 807.597656 523.890625 808.328125 523.75 808.996094 523.511719 L 779.363281 492.359375 L 761.105469 473.171875 "/>
<path fill-rule="evenodd" fill="rgb(100%, 100%, 100%)" fill-opacity="1" d="M 819.785156 388.699219 L 756.203125 446.300781 L 770.402344 461.21875 L 794.289062 486.351562 L 820.515625 513.910156 C 820.714844 513.359375 820.820312 512.761719 820.820312 512.140625 L 820.820312 391.910156 C 820.820312 390.71875 820.441406 389.621094 819.785156 388.699219 "/>
<path fill-rule="evenodd" fill="rgb(100%, 100%, 100%)" fill-opacity="1" d="M 609.839844 515.25 L 676.03125 448.601562 L 609.90625 388.699219 C 609.253906 389.621094 608.871094 390.71875 608.871094 391.910156 L 608.871094 512.140625 C 608.871094 513.289062 609.230469 514.351562 609.839844 515.25 "/>
<path fill-rule="evenodd" fill="rgb(100%, 100%, 100%)" fill-opacity="1" d="M 1385.148438 861.390625 C 1280.988281 861.390625 1196.539062 945.839844 1196.539062 1050 C 1196.539062 1154.160156 1280.988281 1238.609375 1385.148438 1238.609375 C 1489.320312 1238.609375 1573.761719 1154.160156 1573.761719 1050 C 1573.761719 945.839844 1489.320312 861.390625 1385.148438 861.390625 "/>
<path fill-rule="evenodd" fill="rgb(0%, 0%, 0%)" fill-opacity="1" d="M 1377.53125 982.179688 L 1449.121094 982.179688 C 1470.410156 982.179688 1487.839844 999.609375 1487.839844 1020.898438 L 1487.839844 1042.019531 C 1487.839844 1063.308594 1470.410156 1080.738281 1449.121094 1080.738281 L 1449.121094 1100.214844 L 1429.03125 1086.191406 C 1434.519531 1078.71875 1437.761719 1069.539062 1437.761719 1059.621094 L 1437.761719 1038.5 C 1437.761719 1013.75 1417.53125 993.519531 1392.78125 993.519531 L 1350.210938 993.519531 C 1357.21875 986.511719 1366.898438 982.179688 1377.53125 982.179688 "/>
<path fill-rule="evenodd" fill="rgb(0%, 0%, 0%)" fill-opacity="1" d="M 1392.78125 999.789062 L 1321.210938 999.789062 C 1299.898438 999.789062 1282.46875 1017.210938 1282.46875 1038.5 L 1282.46875 1059.621094 C 1282.46875 1080.910156 1299.898438 1098.339844 1321.210938 1098.339844 L 1321.210938 1117.8125 L 1349.078125 1098.339844 L 1392.78125 1098.339844 C 1414.070312 1098.339844 1431.5 1080.910156 1431.5 1059.621094 L 1431.5 1038.5 C 1431.5 1017.210938 1414.070312 999.789062 1392.78125 999.789062 "/>
<path fill-rule="nonzero" fill="rgb(0%, 0%, 0%)" fill-opacity="1" d="M 714.847656 930.539062 C 669.054688 930.539062 631.929688 967.660156 631.929688 1013.460938 C 631.929688 1021.320312 633.046875 1028.929688 635.097656 1036.140625 C 636.355469 1040.578125 637.738281 1044.988281 639.914062 1048.980469 C 656.917969 1080.109375 714.84375 1169.464844 714.84375 1169.464844 C 714.84375 1169.464844 772.777344 1080.109375 789.777344 1048.980469 C 791.957031 1044.988281 793.335938 1040.578125 794.597656 1036.140625 C 796.644531 1028.929688 797.765625 1021.320312 797.765625 1013.460938 C 797.765625 967.660156 760.640625 930.539062 714.847656 930.539062 Z M 714.847656 1049.960938 C 703.28125 1049.960938 692.964844 1044.558594 686.269531 1036.140625 C 681.308594 1029.910156 678.335938 1022.019531 678.335938 1013.460938 C 678.335938 993.320312 694.714844 976.941406 714.847656 976.941406 C 734.980469 976.941406 751.355469 993.320312 751.355469 1013.460938 C 751.355469 1022.019531 748.382812 1029.910156 743.421875 1036.140625 C 736.726562 1044.558594 726.410156 1049.960938 714.847656 1049.960938 "/>
<path fill-rule="evenodd" fill="rgb(100%, 100%, 100%)" fill-opacity="1" d="M 631.929688 1013.460938 C 631.929688 967.660156 669.054688 930.539062 714.847656 930.539062 C 760.640625 930.539062 797.765625 967.660156 797.765625 1013.460938 C 797.765625 1021.320312 796.644531 1028.929688 794.597656 1036.140625 C 793.335938 1040.578125 791.957031 1044.988281 789.777344 1048.980469 C 772.777344 1080.109375 714.84375 1169.464844 714.84375 1169.464844 C 714.84375 1169.464844 656.917969 1080.109375 639.914062 1048.980469 C 637.738281 1044.988281 636.355469 1040.578125 635.097656 1036.140625 C 633.046875 1028.929688 631.929688 1021.320312 631.929688 1013.460938 Z M 903.460938 1050 C 903.460938 945.828125 819.015625 861.390625 714.847656 861.390625 C 610.679688 861.390625 526.234375 945.828125 526.234375 1050 C 526.234375 1154.167969 610.679688 1238.613281 714.847656 1238.613281 C 819.015625 1238.613281 903.460938 1154.167969 903.460938 1050 "/>
<path fill-rule="evenodd" fill="rgb(100%, 100%, 100%)" fill-opacity="1" d="M 714.847656 976.941406 C 694.714844 976.941406 678.335938 993.320312 678.335938 1013.460938 C 678.335938 1022.019531 681.308594 1029.910156 686.269531 1036.140625 C 692.964844 1044.558594 703.28125 1049.960938 714.847656 1049.960938 C 726.410156 1049.960938 736.726562 1044.558594 743.421875 1036.140625 C 748.382812 1029.910156 751.355469 1022.019531 751.355469 1013.460938 C 751.355469 993.320312 734.980469 976.941406 714.847656 976.941406 "/>
</svg>
